<?xml version="1.0" encoding="UTF-8" standalone="no"?>
<!-- Generator: Adobe Illustrator 13.0.0, SVG Export Plug-In . SVG Version: 6.00 Build 14948)  -->

<svg
   xmlns:dc="http://purl.org/dc/elements/1.1/"
   xmlns:cc="http://creativecommons.org/ns#"
   xmlns:rdf="http://www.w3.org/1999/02/22-rdf-syntax-ns#"
   xmlns:svg="http://www.w3.org/2000/svg"
   xmlns="http://www.w3.org/2000/svg"
   xmlns:sodipodi="http://sodipodi.sourceforge.net/DTD/sodipodi-0.dtd"
   xmlns:inkscape="http://www.inkscape.org/namespaces/inkscape"
   version="1.1"
   id="Calque_1"
   x="0px"
   y="0px"
   width="70.059998"
   height="16.482452"
   viewBox="0 0 70.059994 16.482452"
   enable-background="new 0 0 66.064 13.739"
   xml:space="preserve"
   inkscape:version="0.48.2 r9819"
   sodipodi:docname="posters.svg"><metadata
   id="metadata27"><rdf:RDF><cc:Work
       rdf:about=""><dc:format>image/svg+xml</dc:format><dc:type
         rdf:resource="http://purl.org/dc/dcmitype/StillImage" /><dc:title></dc:title></cc:Work></rdf:RDF></metadata><defs
   id="defs25" /><sodipodi:namedview
   pagecolor="#ffffff"
   bordercolor="#666666"
   borderopacity="1"
   objecttolerance="10"
   gridtolerance="10"
   guidetolerance="10"
   inkscape:pageopacity="0"
   inkscape:pageshadow="2"
   inkscape:window-width="1161"
   inkscape:window-height="732"
   id="namedview23"
   showgrid="false"
   fit-margin-top="0"
   fit-margin-left="0"
   fit-margin-right="0"
   fit-margin-bottom="0"
   inkscape:zoom="5.3281664"
   inkscape:cx="71.61299"
   inkscape:cy="3.8043943"
   inkscape:window-x="0"
   inkscape:window-y="0"
   inkscape:window-maximized="0"
   inkscape:current-layer="Calque_1" />
<g
   id="g3784"
   transform="translate(0.32362803,0.56304493)"
   style="fill:#ffffff"><g
     transform="translate(3.9916265e-4,0.94059818)"
     style="fill:#ffffff"
     id="g3">
	<path
   inkscape:connector-curvature="0"
   style="fill:#ffffff"
   id="path5"
   d="m 43.264,0.038 c 0.738,0.781 0.415,2.625 0.479,4.08 4.244,-1.012 6.748,2.766 5.28,7.44 -0.561,0 -1.12,0 -1.68,0 -0.889,-1.112 -0.238,-3.763 -1.2,-4.8 -1.135,-0.175 -1.578,0.342 -2.16,0.72 -0.256,2.11 0.705,3.956 -0.48,5.041 -0.64,0 -1.279,0 -1.92,0 -0.611,-3.789 -0.768,-8.033 -0.96,-12.24 1.097,0.135 1.496,-0.426 2.641,-0.241 z" />
	<path
   inkscape:connector-curvature="0"
   style="fill:#ffffff"
   id="path7"
   d="m 66.064,1.478 c -0.053,0.907 -0.755,1.166 -0.96,1.92 -1.272,-0.075 -2.123,-1.21 -3.12,-0.24 1.01,2.634 4.644,2.097 3.84,5.76 -0.512,2.334 -4.489,3.396 -6.479,1.199 -0.106,-0.906 0.473,-1.127 0.72,-1.68 0.89,-0.027 1.405,1.113 2.16,0.479 0.553,0.074 0.267,-0.692 0.72,-0.719 -0.559,-2.25 -3.378,-1.968 -3.84,-3.841 -0.979,-3.961 4.711,-5.507 6.959,-2.878 z" />
	<path
   inkscape:connector-curvature="0"
   style="fill:#ffffff"
   id="path9"
   d="m 18.064,3.398 c -0.67,-0.305 -1.187,-0.592 -1.92,-0.24 -0.556,0.565 -1.001,1.239 -0.96,2.4 0.284,0.436 1.251,0.189 1.68,0.48 0.128,0.929 -0.428,1.172 -0.24,2.16 -0.575,0.146 -1.095,0.346 -1.92,0.24 0.188,1.547 -0.355,2.363 -0.24,3.84 -0.88,0 -1.76,0 -2.64,0 0.264,-4.259 -0.27,-13.171 5.28,-11.76 1.144,0.291 1.894,1.441 0.96,2.88 z" />
	<path
   inkscape:connector-curvature="0"
   style="fill:#ffffff"
   id="path11"
   d="m 27.664,1.718 c 2.155,-2.585 4.522,2.508 0.96,2.4 -0.697,-0.422 -1.133,-1.106 -0.96,-2.4 z" />
	<path
   inkscape:connector-curvature="0"
   style="fill:#ffffff"
   id="path13"
   d="m 25.264,4.358 c -1.742,-0.839 -2.979,0.411 -2.88,2.16 0.019,0.861 1.568,0.191 1.92,0.72 0.128,0.928 -0.429,1.172 -0.24,2.16 -0.758,-0.118 -0.849,0.433 -1.68,0.239 -0.123,1.576 0.223,2.808 0,3.841 -1.146,-0.187 -1.545,0.375 -2.641,0.239 -0.615,-5.139 -0.904,-15.183 5.76,-11.52 0.498,0.883 -0.063,1.329 -0.239,2.161 z" />
	<path
   inkscape:connector-curvature="0"
   style="fill:#ffffff"
   id="path15"
   d="m 58.145,6.758 c -1.288,0.513 -3.4,1.344 -4.562,1.2 -0.246,1.729 2.879,1.385 3.602,0.721 2.378,2.48 -1.968,4.123 -4.562,3.119 -4.87,-2.646 -0.902,-13.984 5.04,-8.16 0.132,1.07 0.237,2.164 0.482,3.12 z m -4.321,-0.96 c 0.758,0.118 0.848,-0.432 1.68,-0.24 -0.045,-0.675 -0.417,-1.022 -1.198,-0.96 -0.104,0.458 -0.687,0.434 -0.482,1.2 z" />
	<path
   inkscape:connector-curvature="0"
   style="fill:#ffffff"
   id="path17"
   d="M 9.664,3.158 C 9.718,6.251 9.6,9.174 9.184,11.797 7.145,10.908 5.931,12.059 3.904,11.797 0.972,11.42 -1.245,7.3 0.784,4.118 2.656,1.183 6.303,3.328 9.664,3.158 z m -4.56,1.92 c -2.6,-1.141 -2.899,4.01 -0.24,3.84 1.333,-0.601 1.01,-2.865 0.24,-3.84 z" />
	<path
   inkscape:connector-curvature="0"
   style="fill:#ffffff"
   id="path19"
   d="m 38.224,6.038 c -0.313,1.671 -3.232,0.484 -3.12,2.64 0.073,1.41 1.458,1.75 3.359,0.961 0.129,0.832 0.643,1.277 0.721,2.158 -2.87,2.293 -6.852,0.427 -7.2,-2.639 -0.394,-3.456 3.882,-6.715 6.24,-3.12 z" />
	<path
   inkscape:connector-curvature="0"
   style="fill:#ffffff"
   id="path21"
   d="m 27.664,5.078 c 1.167,-0.046 2.294,-0.055 2.88,0.48 -0.021,2.539 0.119,5.239 -0.239,7.44 -1.261,0.141 -1.817,-0.424 -3.12,-0.24 0.258,-2.461 0.197,-5.242 0.479,-7.68 z" />
</g></g>
<path
   style="fill-rule:evenodd"
   inkscape:connector-curvature="0"
   clip-rule="evenodd"
   d="m 5.2044745,-157.07484 c 1.616,-0.015 2.532,0.668 3.8399998,0.96 -0.7149998,5.605 -2.0899998,10.55 -3.5999998,15.36 -3.002,-0.438 -3.979,-2.902 -6.00000007,-4.32 -1.77899993,1.582 -2.95499993,3.765 -5.03999993,5.04 -1.361,-4.719 -2.354,-9.806 -3.6,-14.64 0.802,-0.878 2.415,-0.945 3.84,-1.2 0.771,2.269 1.167,4.914 1.68,7.44 1.7509999,-1.128 1.486,-4.274 3.59999993,-5.04 0.98800004,2.132 1.91900007,4.321 3.12000007,6.24 1.151,-2.849 1.428,-6.572 2.16,-9.84 z"
   id="path3304" /><path
   style="fill-rule:evenodd"
   inkscape:connector-curvature="0"
   clip-rule="evenodd"
   d="m 14.564474,-155.63484 c -0.584,2.375 -1.131,4.79 -1.68,7.2 2.778,-0.851 4.626,0.64 5.76,2.16 0.307,3.506 -0.71,5.689 -1.68,7.92 -0.912,-0.048 -1.708,-0.212 -2.4,-0.48 0.009,-1.911 0.752,-3.088 0.48,-5.28 -2.489,-1.831 -4.582,1.626 -4.56,4.56 -1.1169997,0.077 -1.6019995,-0.479 -2.6399995,-0.48 0.617,-5.863 1.4469998,-11.513 3.1199995,-16.32 1.173,0.267 2.357,0.524 3.6,0.72 z"
   id="path3306" /><path
   style="fill-rule:evenodd"
   inkscape:connector-curvature="0"
   clip-rule="evenodd"
   d="m 23.444474,-148.91484 c 5.275,-1.206 8.932,5.804 5.52,9.36 -3.881,4.045 -11.214,-1.011 -8.88,-6.96 0.505,-1.286 2.144,-2.122 3.36,-2.4 z m -0.24,3.6 c -1.367,2.159 0.734,4.546 3.36,3.36 2.011,-2.255 -0.894,-5.465 -3.36,-3.36 z"
   id="path3308" /><path
   style="fill-rule:evenodd"
   inkscape:connector-curvature="0"
   clip-rule="evenodd"
   d="m -10.395526,-135.71484 c 0.16,0 0.32,0 0.4800005,0 0.246,4.954 0.496,9.904 0.72,14.88 -1.3030005,-0.183 -1.8600005,0.38 -3.1200005,0.24 -1.359,-4.001 -1.362,-9.357 -1.68,-14.4 1.047,-0.394 2.547,-0.333 3.6,-0.72 z"
   id="path3310" /><path
   style="fill-rule:evenodd"
   inkscape:connector-curvature="0"
   clip-rule="evenodd"
   d="m 9.5244743,-132.11484 c -0.4,4.106 -0.273,8.217 -0.9599998,11.52 -1.01,-0.27 -3.3,0.74 -2.88,-0.96 -1.317,0.523 -3.148,0.532 -5.04000003,0.48 -7.11699997,-4.271 -0.91300004,-13.72 6.24000003,-10.56 0.053,-1.397 1.748,-0.378 2.6399998,-0.48 z m -7.9199998,7.68 c 1.044,0.004 2.159,0.08 2.88,-0.24 3.311,-5.157 -6.2760001,-4.261 -2.88,0.24 z"
   id="path3312" /><path
   style="fill-rule:evenodd"
   inkscape:connector-curvature="0"
   clip-rule="evenodd"
   d="m 14.564474,-130.67484 c 0.331,0.31 0.237,1.042 0.24,1.68 1.716,-1.58 5.335,-1.531 5.76,1.2 2.314,-2.274 6.833,-0.939 7.44,1.92 0.282,4.282 -1.123,6.877 -2.64,9.36 -0.892,-0.148 -1.508,-0.572 -2.4,-0.72 0.406,-2.108 2.959,-7.543 0.24,-7.92 -2.201,-0.305 -2.503,5.264 -3.84,6.72 -1.257,0.058 -1.816,-0.584 -2.88,-0.72 0.184,-2.128 1.722,-3.938 0.96,-6.24 -3.207,-0.829 -2.77,3.908 -3.84,6 -1.444,0.083 -1.917,-0.804 -3.36,-0.72 0.671,-3.648 0.836,-7.804 2.16,-10.8 0.79,0.01 1.195,0.405 2.16,0.24 z"
   id="path3314" /><path
   style="fill-rule:evenodd"
   inkscape:connector-curvature="0"
   clip-rule="evenodd"
   d="m 250.72448,-98.994842 c 0.08,2.72 -0.237,5.042 -0.72,7.2 -0.561,0 -1.12,0 -1.68,0 0.694,-2.507 -0.976,-7.376 2.4,-7.2 z"
   id="path3316" /><path
   style="fill-rule:evenodd"
   inkscape:connector-curvature="0"
   clip-rule="evenodd"
   d="m 245.20448,-96.354842 c -0.507,0.933 -1.71,1.17 -2.16,2.16 0,0.88 0,1.76 0,2.64 -0.587,0.213 -1.041,0.56 -1.92,0.48 0.012,-2.068 0.468,-3.691 0.479,-5.76 1.579,0.577 2.875,-1.381 3.601,0.48 z"
   id="path3318" /><path
   style="fill-rule:evenodd"
   inkscape:connector-curvature="0"
   clip-rule="evenodd"
   d="m 256.48448,-96.594842 c -0.538,1.622 -0.693,3.626 -1.199,5.28 -1.704,-0.03 -1.518,-0.489 -3.36,-0.24 -2.839,-2.921 0.799,-7.114 4.559,-5.04 z m -3.84,3.36 c 1.133,0.315 2.075,-1.791 0.96,-2.16 -0.661,0.33 -1.624,1.261 -0.96,2.16 z"
   id="path3320" /><path
   style="fill-rule:evenodd"
   inkscape:connector-curvature="0"
   clip-rule="evenodd"
   d="m 240.40448,-96.114842 c -0.111,1.968 0.333,4.493 -0.479,5.76 -1.434,-0.521 -2.073,0.54 -3.36,0 -0.537,-1.188 -1.249,-5.393 1.2,-5.04 0.098,1.023 -0.232,2.472 0.24,3.12 1.895,-0.06 -0.04,-5.111 2.399,-3.84 z"
   id="path3322" /><path
   style="fill-rule:evenodd"
   inkscape:connector-curvature="0"
   clip-rule="evenodd"
   d="m 235.36448,-94.674842 c 0.731,2.573 0.035,5.577 -3.12,5.04 -2.049,-2.272 0.285,-7.636 3.12,-5.04 z m -1.68,3.12 c 0.42,-0.322 0.879,-1.982 0,-2.16 -0.236,0.321 -1.083,2.058 0,2.16 z"
   id="path3324" /><path
   style="fill-rule:evenodd"
   inkscape:connector-curvature="0"
   clip-rule="evenodd"
   d="m 227.92448,-89.154842 c -0.139,1.542 -0.383,2.978 -2.16,2.88 -0.06,-2.38 0.423,-4.217 0.24,-6.72 1.528,-0.343 3.485,-2.336 4.8,-0.72 0.252,2.732 -0.691,4.269 -2.88,4.56 z m 0.24,-1.44 c 0.595,-0.285 0.89,-0.87 0.72,-1.92 -0.24,0 -0.48,0 -0.72,0 -0.254,0.249 -0.496,1.714 0,1.92 z"
   id="path3326" /><path
   style="fill-rule:evenodd"
   inkscape:connector-curvature="0"
   clip-rule="evenodd"
   d="m 26.324474,-74.274842 c 0.164,0.957 0.607,1.633 0.48,2.88 -0.983,0.056 -1.962,0.118 -2.64,0.48 -0.761,-0.519 -0.81,-1.75 -0.96,-2.88 -11.027,-0.482 -5.729,-19.823 3.84,-15.84 5.612,2.336 3.849,12.67 -0.72,15.36 z m 1.44,-8.64 c -0.644,-8.444 -13.256,1.448 -5.28,5.04 0,-0.56 0,-1.12 0,-1.68 0.969,-0.23 1.91,-0.49 2.88,-0.72 0.331,0.31 0.238,1.043 0.24,1.68 1.444,-0.685 2.288,-2.636 2.16,-4.32 z"
   id="path3328" /><path
   style="fill-rule:evenodd"
   inkscape:connector-curvature="0"
   clip-rule="evenodd"
   d="m 250.96448,-88.914842 c -0.247,1.203 -0.606,1.519 -1.92,1.2 -0.381,1.359 1.487,1.563 1.68,2.88 0.282,1.927 -1.277,3.662 -4.08,3.12 0,-0.56 0,-1.12 0,-1.68 0.716,0.333 1.469,0.283 1.681,-0.48 -0.195,-1.524 -1.778,-1.772 -1.681,-3.36 0.111,-1.804 2.288,-2.886 4.32,-1.68 z"
   id="path3330" /><path
   style="fill-rule:evenodd"
   inkscape:connector-curvature="0"
   clip-rule="evenodd"
   d="m 246.40448,-88.914842 c 0.158,0.878 -0.519,0.92 -0.479,1.68 -0.638,0.003 -1.371,-0.09 -1.68,0.24 -0.135,1.174 0.932,1.148 1.439,1.68 1.03,2.803 -1.156,5.702 -3.84,4.08 -0.158,-0.877 0.52,-0.92 0.48,-1.68 0.637,-0.002 1.37,0.091 1.68,-0.24 -0.989,-1.492 -2.884,-2.871 -1.68,-4.8 0.634,-1.016 2.229,-1.512 4.08,-0.96 z"
   id="path3332" /><path
   style="fill-rule:evenodd"
   inkscape:connector-curvature="0"
   clip-rule="evenodd"
   d="m 236.80448,-86.514842 c -2.216,0.975 -3.273,3.021 -2.88,6 -0.753,0.239 -1.79,1.096 -2.4,0.72 0.343,-2.218 0.36,-4.761 0.48,-7.2 0.61,-0.323 2.055,-0.946 2.16,0.24 0.89,-1.099 2.276,-1.632 2.64,0.24 z"
   id="path3334" /><path
   style="fill-rule:evenodd"
   inkscape:connector-curvature="0"
   clip-rule="evenodd"
   d="m 47.204474,-86.274842 c 0.337,0.703 0.646,1.435 0.479,2.64 -3.028,3.575 -5.518,-4.37 -0.479,-2.64 z"
   id="path3336" /><path
   style="fill-rule:evenodd"
   inkscape:connector-curvature="0"
   clip-rule="evenodd"
   d="m 231.04448,-85.554842 c 1.364,3.899 -1.086,7.132 -3.84,8.4 0.016,1.216 -0.413,1.988 -0.24,3.36 -0.735,1.105 -1.904,1.775 -3.36,2.16 0.673,-3.728 1.522,-7.278 1.2,-12 1.71,-1.019 3.915,-2.973 6.24,-1.92 z m -3.6,2.4 c 0.152,0.808 -0.309,2.229 0.24,2.64 0.563,-0.557 2.033,-2.374 0.48,-2.88 -0.041,0.28 -0.38,0.26 -0.72,0.24 z"
   id="path3338" /><path
   style="fill-rule:evenodd"
   inkscape:connector-curvature="0"
   clip-rule="evenodd"
   d="m 32.564474,-83.394842 c 1.046,0.393 2.546,0.333 3.6,0.72 -0.432,2.048 -1.38,3.58 -1.44,6 0.077,0.563 0.743,0.538 0.96,0.96 2.814,-0.626 2.971,-3.91 3.84,-6.48 0.911,0.289 1.889,0.511 2.88,0.72 -0.237,3.604 -1.601,6.08 -1.68,9.84 -1.216,-0.016 -1.987,0.413 -3.36,0.24 -0.077,-0.563 -0.379,-0.901 -0.24,-1.68 -6.477,1.341 -6.58,-5.923 -4.56,-10.32 z"
   id="path3340" /><path
   style="fill-rule:evenodd"
   inkscape:connector-curvature="0"
   clip-rule="evenodd"
   d="m 47.204474,-81.714842 c -0.328,3.112 -0.205,6.675 -0.721,9.6 -0.675,0.365 -1.852,0.229 -2.64,0.48 -0.488,-2.988 -0.332,-7.357 0.24,-10.08 1.041,0 2.081,0 3.121,0 z"
   id="path3342" /><path
   style="fill-rule:evenodd"
   inkscape:connector-curvature="0"
   clip-rule="evenodd"
   d="m 22.004474,-69.954842 c -0.164,0.876 -0.91,1.17 -1.2,1.92 -4.219,-3.134 -4.964,2.539 -0.72,3.12 2.961,6.73 -8.052,8.486 -9.6,3.12 0.064,-1.136 1.048,-1.352 1.44,-2.16 1.332,0.715 3.612,3.659 4.8,0.96 -2.092,-1.791 -4.66,-4.74 -2.4,-7.92 1.847,-2.599 6.186,-1.366 7.68,0.96 z"
   id="path3344" /><path
   style="fill-rule:evenodd"
   inkscape:connector-curvature="0"
   clip-rule="evenodd"
   d="m 37.124474,-69.954842 c 2.648,-0.962 2.669,3.375 0.48,3.36 -1.849,-0.012 -2.351,-2.68 -0.48,-3.36 z"
   id="path3346" /><path
   style="fill-rule:evenodd"
   inkscape:connector-curvature="0"
   clip-rule="evenodd"
   d="m 26.804474,-68.274842 c -0.318,2.001 -0.846,3.794 -0.72,6.24 3.505,1.9 2.56,-4.146 4.32,-5.52 1.015,0.265 1.968,0.591 2.88,0.96 -0.648,3.352 -1.626,6.374 -2.4,9.6 -1.196,-0.084 -2.985,0.425 -2.64,-1.2 -7.083,1.53 -6.335,-6.92 -4.32,-10.56 0.961,0.159 2.089,0.151 2.88,0.48 z"
   id="path3348" /><path
   style="fill-rule:evenodd"
   inkscape:connector-curvature="0"
   clip-rule="evenodd"
   d="m 48.644474,-65.634842 c -0.199,0.601 -0.657,0.943 -0.72,1.68 -0.845,-0.412 -2.312,-0.738 -3.36,-0.24 -1.385,3.297 4.369,1.751 4.801,4.8 0.144,1.02 -0.771,3.542 -1.921,4.32 -2.35,1.591 -8.474,-0.015 -6.479,-3.12 0.909,-0.349 4.207,2.079 4.56,-0.48 -0.093,-1.427 -2.037,-1.002 -3.12,-1.44 -4.327,-4.381 2.753,-10.06 6.239,-5.52 z"
   id="path3350" /><path
   style="fill-rule:evenodd"
   inkscape:connector-curvature="0"
   clip-rule="evenodd"
   d="m 36.164474,-65.634842 c 1.112,0.088 2.23,0.17 3.12,0.48 -0.478,3.442 -1.014,6.826 -1.92,9.84 -1.163,0.043 -2.049,-0.191 -2.88,-0.48 0.442,-3.398 0.96,-6.72 1.68,-9.84 z"
   id="path3352" /><path
   style="fill-rule:evenodd"
   inkscape:connector-curvature="0"
   clip-rule="evenodd"
   d="m 51.764474,-63.234842 c 1.84,0 3.68,0 5.521,0 0.062,1.263 -0.164,2.236 -0.48,3.12 -1.68,0 -3.36,0 -5.04,0 -10e-4,-1.04 -10e-4,-2.08 -10e-4,-3.12 z"
   id="path3354" /><path
   style="fill-rule:evenodd"
   inkscape:connector-curvature="0"
   clip-rule="evenodd"
   d="m 22.724474,-58.434842 c 2.058,2.913 -2.793,4.347 -3.12,1.68 -0.157,-1.278 1.208,-2.557 3.12,-1.68 z"
   id="path3356" /><path
   style="fill-rule:evenodd"
   inkscape:connector-curvature="0"
   clip-rule="evenodd"
   d="m 19.844474,-54.354842 c 1.167,-0.046 2.294,-0.055 2.88,0.48 -0.045,4.248 -0.094,11.641 -4.32,12.24 -2.319,0.329 -5.121,-1.272 -4.8,-4.56 1.265,-0.015 1.761,-0.798 3.12,-0.72 0.418,0.622 0.035,2.045 1.2,1.92 2.188,-1.572 1.246,-6.274 1.92,-9.36 z"
   id="path3358" /><path
   style="fill-rule:evenodd"
   inkscape:connector-curvature="0"
   clip-rule="evenodd"
   d="m 28.964474,-44.994842 c 0.823,0.998 2.93,0.775 4.08,0.24 0.229,1.051 0.25,2.309 0.48,3.36 -5.937,1.751 -9.838,-2.41 -9.12,-7.92 0.453,-3.474 5.046,-6.055 8.16,-3.36 2.512,2.174 1.35,8.81 -3.6,7.68 z m -0.96,-3.6 c 0.707,0.341 1.514,0.725 2.4,0.24 -0.005,-0.565 0.414,-0.707 0.24,-1.44 -0.731,-0.866 -3.262,-0.733 -2.64,1.2 z"
   id="path3360" /><path
   style="fill-rule:evenodd"
   inkscape:connector-curvature="0"
   clip-rule="evenodd"
   d="m -101.83552,-43.314842 c 0.296,0.678 0.296,1.481 0,2.16 -3.204,1.607 -3.293,-3.793 0,-2.16 z"
   id="path3362" /><path
   style="fill-rule:evenodd"
   inkscape:connector-curvature="0"
   clip-rule="evenodd"
   d="m -115.27552,-34.434842 c -0.825,0.105 -1.345,-0.095 -1.92,-0.24 -0.336,-0.767 0.546,-2.093 0.24,-3.6 -0.252,-0.627 -0.975,-0.785 -1.92,-0.72 -1.139,0.541 -0.368,2.993 -0.96,4.08 -0.398,0.402 -1.409,0.191 -2.16,0.24 -0.254,-1.506 0.704,-4.224 -0.96,-4.32 -1.94,0.427 -0.162,3.074 -0.48,4.8 -1.12,-0.159 -1.542,0.378 -2.4,0.48 -0.562,-2.397 -0.427,-5.493 -0.72,-8.16 0.899,0.334 2.262,-1.039 2.16,0.48 1.128,-0.415 3.282,-0.408 3.84,0.48 4.423,-2.343 7.221,2.458 5.28,6.48 z"
   id="path3364" /><path
   style="fill-rule:evenodd"
   inkscape:connector-curvature="0"
   clip-rule="evenodd"
   d="m -111.91552,-40.674842 c 5.449,-2.014 6.086,6.369 1.2,6.24 -3.231,-0.085 -4.321,-5.086 -1.2,-6.24 z m 2.16,2.4 c -0.427,-0.213 -0.61,-0.67 -1.44,-0.479 -1.105,1.809 1.689,3.046 1.44,0.479 z"
   id="path3366" /><path
   style="fill-rule:evenodd"
   inkscape:connector-curvature="0"
   clip-rule="evenodd"
   d="m -90.795526,-40.674842 c 2.413,1.917 -1.861,4.387 -2.4,1.44 0.379,-0.902 0.865,-1.696 2.4,-1.44 z"
   id="path3368" /><path
   style="fill-rule:evenodd"
   inkscape:connector-curvature="0"
   clip-rule="evenodd"
   d="m -104.95552,-39.954842 c 0.959,0.24 1.865,0.535 2.64,0.96 -0.773,2.026 -1.592,4.007 -2.4,6 -1.108,0.148 -1.381,-0.539 -2.4,-0.48 0.481,-2.398 1.453,-4.307 2.16,-6.48 z"
   id="path3370" /><path
   style="fill-rule:evenodd"
   inkscape:connector-curvature="0"
   clip-rule="evenodd"
   d="m -93.435526,-37.074842 c 1.067,-0.107 1.749,0.171 2.4,0.48 -0.345,3.255 -1.478,5.722 -2.88,7.92 -2.527,0.837 -4.675,-0.54 -4.56,-3.12 0.147,-0.333 0.924,-0.036 0.96,-0.48 1.306,-0.267 0.767,1.313 1.92,1.2 1.7,-1.02 1.453,-3.987 2.16,-6 z"
   id="path3372" /><path
   style="fill-rule:evenodd"
   inkscape:connector-curvature="0"
   clip-rule="evenodd"
   d="m -84.795526,-31.554842 c -1.016,-0.343 -2.625,-0.095 -3.6,-0.48 -0.52,1.163 1.335,1.804 2.88,1.68 -0.102,0.501 0.165,0.635 0.24,0.96 -2.084,2.501 -5.128,0.208 -5.28,-2.16 -0.432,-6.723 9.126,-5.153 5.76,0 z m -2.4,-1.92 c 0.325,0.076 0.458,0.342 0.96,0.24 0,-0.24 0,-0.48 0,-0.72 -0.547,-0.067 -0.902,0.058 -0.96,0.48 z"
   id="path3374" /><path
   style="fill-rule:evenodd"
   inkscape:connector-curvature="0"
   clip-rule="evenodd"
   d="m -102.07552,-33.234842 c 0.759,-0.039 0.802,0.638 1.67999,0.48 -0.78299,1.377 -1.34899,2.971 -2.87999,3.6 -0.026,-1.786 0.565,-2.955 1.2,-4.08 z"
   id="path3376" /><path
   style="fill-rule:evenodd"
   inkscape:connector-curvature="0"
   clip-rule="evenodd"
   d="m -116.71552,-32.994842 c 1.132,0.228 1.904,0.816 1.68,2.4 -0.575,0.305 -0.884,0.876 -1.92,0.72 -1.31,-0.644 -1.112,-2.695 0.24,-3.12 z"
   id="path3378" /><path
   style="fill-rule:evenodd"
   inkscape:connector-curvature="0"
   clip-rule="evenodd"
   d="m -118.39552,-29.154842 c 0.814,0.065 1.946,-0.186 2.4,0.24 0.083,3.843 -1.195,6.325 -2.88,8.4 -2.781,0.301 -4.013,-0.948 -4.32,-3.12 0.359,-0.281 0.981,-0.298 1.2,-0.72 0.997,0.123 0.881,1.359 1.92,1.44 1.229,-1.411 1.453,-3.828 1.68,-6.24 z"
   id="path3380" /><path
   style="fill-rule:evenodd"
   inkscape:connector-curvature="0"
   clip-rule="evenodd"
   d="m -112.39552,-28.194842 c 3.04,-0.834 5.367,1.146 5.28,4.08 -0.143,4.771 -7.263,4.562 -7.92,0.48 -0.347,-2.153 0.282,-3.913 2.64,-4.56 z m 0.72,5.04 c 0.691,-0.028 1.571,0.131 1.92,-0.24 1.77,-4.011 -4.991,-2.564 -1.92,0.24 z"
   id="path3382" /><path
   style="fill-rule:evenodd"
   inkscape:connector-curvature="0"
   clip-rule="evenodd"
   d="m -103.51552,-26.754842 c -0.283,1.397 -0.681,2.679 -0.72,4.32 2.226,1.647 2.933,-1.9 3.59999,-3.36 0.659004,0.381 1.741004,0.338 2.400004,0.72 -0.56,2.4 -1.284,4.637 -2.160004,6.72 -0.90399,-0.296 -2.53099,0.131 -2.15999,-1.44 -5.577,2.962 -5.226,-9.383 -0.96,-6.96 z"
   id="path3384" /><path
   style="fill-rule:evenodd"
   inkscape:connector-curvature="0"
   clip-rule="evenodd"
   d="m 235.12448,-25.794842 c -0.751,0.735 -1.858,-0.21 -2.88,0 -0.077,-0.427 2.283,-0.664 2.88,0 z"
   id="path3386" /><path
   style="fill-rule:evenodd"
   inkscape:connector-curvature="0"
   clip-rule="evenodd"
   d="m -93.195526,-19.074842 c -1.317,-0.254 -2.704,-1.546 -3.84,-1.2 0.188,1.491 1.463,1.897 2.88,2.16 0.009,0.889 -0.369,1.392 -0.72,1.92 -2.392,-0.231 -3.61,-0.871 -4.08,-2.16 -1.727004,-4.733 6.859,-8.87 7.2,-3.36 0.086,1.386 -0.578,1.764 -1.44,2.64 z m -0.72,-1.92 c 0,-0.32 0,-0.64 0,-0.96 -0.4,0 -0.8,0 -1.2,0 0.083,0.637 0.63,0.81 1.2,0.96 z"
   id="path3388" /><path
   style="fill-rule:evenodd"
   inkscape:connector-curvature="0"
   clip-rule="evenodd"
   d="m 236.08448,-22.434842 c -0.398,1.281 -1.023,2.336 -1.681,3.36 -1.316,-0.8 -3.198,-0.426 -3.84,0.72 1.342,2.991 6.8,1.82 7.681,5.52 1.777,7.4680001 -8.045,9.8160001 -12.48,5.7600001 0.471,-1.609 1.65,-2.509 2.4,-3.8400001 1.09,0.413 4.198,2.0550001 4.8,0 -0.897,-2.038 -3.43,-1.602 -4.8,-2.64 -5.749,-4.357 0.509,-13.611 7.92,-8.88 z"
   id="path3390" /><path
   style="fill-rule:evenodd"
   inkscape:connector-curvature="0"
   clip-rule="evenodd"
   d="m 180.88448,-21.234842 c 4.066,4.392 -4.661,7.335 -5.28,2.88 -0.368,-2.652 2.703,-4.148 5.28,-2.88 z"
   id="path3392" /><path
   style="fill-rule:evenodd"
   inkscape:connector-curvature="0"
   clip-rule="evenodd"
   d="m 170.80448,-20.754842 c 1.345,8.735 3.148,17.0120001 3.6,26.6400001 -1.897,0.183 -3.508,0.652 -5.52,0.72 -2.149,-8.01 -3.789,-16.532 -4.56,-25.9200001 2.049,-0.591 3.933,-1.347 6.48,-1.44 z"
   id="path3394" /><path
   style="fill-rule:evenodd"
   inkscape:connector-curvature="0"
   clip-rule="evenodd"
   d="m 224.80448,-11.154842 c -2.925,0.355 -5.156,1.4040001 -8.16,1.6800001 0.8,2.569 3.646,2.293 5.28,0.72 0.667,0.933 1.847,1.353 2.4,2.4 -1,1.875 -3.037,3.026 -5.28,3.12 -11.326,0.475 -8.923,-19.6120001 1.68,-17.5200001 1.233,0.243 1.639,1.101 3.12,1.92 0.886,1.854 1.146,5.547 0.96,7.68 z m -7.68,-2.4 c 1.498,-0.101 2.714,-0.486 3.84,-0.96 -0.347,-3.309 -4.498,-1.164 -3.84,0.96 z"
   id="path3396" /><path
   style="fill-rule:evenodd"
   inkscape:connector-curvature="0"
   clip-rule="evenodd"
   d="m 211.84448,-15.714842 c -2.838,0.605 -5.521,1.581 -6,4.08 -0.534,2.7940001 1.976,6.3470001 1.68,9.6000001 -1.663,0.497 -3.528,0.792 -5.52,0.96 -1.364,-5.276 -1.685,-11.5960001 -2.88,-17.0400001 1.504,-0.576 3.463,-0.697 5.04,-1.2 -0.015,0.895 0.241,1.518 0.479,2.16 2.234,-2.962 6.954,-3.989 7.201,1.44 z"
   id="path3398" /><path
   style="fill-rule:evenodd"
   inkscape:connector-curvature="0"
   clip-rule="evenodd"
   d="m 198.40448,-15.714842 c -0.611,5.7890001 -1.818,10.9810001 -3.119,16.08000011 -1.435,0.406 -2.929,0.75199999 -4.801,0.71999999 -2.348,-4.532 -5.927,-9.113 -6.96,-14.1600001 0.778,-0.982 2.673,-0.848 3.841,-1.44 2.102,1.658 2.981,4.5380001 4.079,7.2000001 1.028,-2.573 1.588,-5.6120001 2.4,-8.4000001 1.716,0.296 3.232,-0.684 4.56,0 z"
   id="path3400" /><path
   style="fill-rule:evenodd"
   inkscape:connector-curvature="0"
   clip-rule="evenodd"
   d="m 181.12448,-12.594842 c 1.765,3.8570001 1.424,10.4770001 1.2,15.6000001 -1.69,0.108 -3.796,-0.167 -4.801,0 -1.332,-4.028 -0.976,-9.744 -1.199,-14.8800001 1.736,-0.104 3.129,-0.551 4.8,-0.72 z"
   id="path3402" /><path
   style="fill-rule:evenodd"
   inkscape:connector-curvature="0"
   clip-rule="evenodd"
   d="m -35.595526,-3.9548419 c 0,0.64 0,1.28 0,1.92 -0.983,-0.023 -1.887,0.033 -1.92,0.96 1.741,1.51200001 5.341,0.89800001 4.56,4.8 -0.405,2.021 -2.879,2.621 -5.28,3.12 -0.299,-0.581 -0.594,-1.166 -0.72,-1.92 0.932,0.064 2.622,-0.237 2.4,-1.68 -0.21,-1.366 -3.628,-1.146 -4.32,-2.63999999 -1.267,-2.73700001 1.885,-5.26000001 5.28,-4.56000001 z"
   id="path3404" /><path
   style="fill-rule:evenodd"
   inkscape:connector-curvature="0"
   clip-rule="evenodd"
   d="m -42.075526,-2.7548419 c 0.273,3.01000001 0.813,8.32 -0.72,10.32 -1.696,-0.383 -2.218,-1.942 -3.84,-2.4 -0.539,1.221 -0.003,3.517 -0.96,4.32 -2.684,-1.796 -4.402,-4.558 -6.72,-6.72 1.359,-1.99499999 3.826,-1.376 4.8,0.48 0.247,-1.433 0.231,-3.12799999 0.96,-4.07999999 1.863,0.537 2.617,2.18299999 3.6,3.59999999 1.055,-1.046 -0.216,-3.08599999 0,-4.8 1.269,0.14 1.874,-1.362 2.88,-0.72 z"
   id="path3406" /><path
   style="fill-rule:evenodd"
   inkscape:connector-curvature="0"
   clip-rule="evenodd"
   d="m -53.355526,6.6051581 c -1.356,0.483 -2.832,0.848 -3.84,1.68 0.665,1.668 2.938,0.103 4.08,0 1.853,2.2289999 -1.143,3.7639999 -4.08,3.3599999 -3.882,-1.303 -3.737,-11.12399989 2.4,-8.8799999 0.801,0.959 1.428,2.093 1.44,3.84 z m -3.6,-0.72 c 0.733,0.173 0.875,-0.245 1.44,-0.24 0.092,-1.215 -1.624,-0.69 -1.44,0.24 z"
   id="path3408" /><path
   style="fill-rule:evenodd"
   inkscape:connector-curvature="0"
   clip-rule="evenodd"
   d="m -58.875526,12.365158 c -0.772,0.269 -1.423,0.657 -2.4,0.72 -0.933,-1.467 -1.026,-3.7729999 -2.4,-4.7999999 -3.45,0.694 -0.096,3.7039999 0,5.7599999 -1.269,0.091 -1.652,1.068 -2.88,1.2 -0.985,-2.775 -2.108,-5.4119999 -3.12,-8.1599999 0.688,-0.432 1.607,-0.632 2.16,-1.2 0.563,0.077 0.537,0.743 0.96,0.96 3.752,-4.187 7.357,1.751 7.68,5.5199999 z"
   id="path3410" /><path
   style="fill-rule:evenodd"
   inkscape:connector-curvature="0"
   clip-rule="evenodd"
   d="m 259.60448,23.645158 c -0.751,0.735 -1.857,-0.21 -2.88,0 -0.077,-0.427 2.282,-0.664 2.88,0 z"
   id="path3412" /><path
   style="fill-rule:evenodd"
   inkscape:connector-curvature="0"
   clip-rule="evenodd"
   d="m 242.56448,24.125158 c 0.736,2.063 0.231,5.369 0.96,7.44 1.479,-0.761 2.469,-2.012 4.08,-2.64 1.685,0.716 2.051,2.75 2.641,4.56 -0.753,1.167 -2.228,1.613 -3.12,2.64 2.454,2.025 5.003,3.957 6.479,6.96 -0.668,1.492 -2.183,2.137 -3.359,3.12 -2.349,-1.092 -3.295,-3.585 -5.521,-4.8 0.126,1.714 0.571,3.109 0.48,5.04 -1.676,0.485 -3.801,0.52 -6,0.48 -0.493,-7.587 -1.445,-14.714 -2.16,-22.08 1.381,-0.699 3.677,-0.483 5.52,-0.72 z"
   id="path3414" /><path
   style="fill-rule:evenodd"
   inkscape:connector-curvature="0"
   clip-rule="evenodd"
   d="m 262.24448,26.525158 c -0.077,1.443 -1.077,1.963 -1.44,3.12 -1.524,-0.353 -3.396,-0.395 -4.08,0.72 0.225,2.595 3.239,1.772 4.8,2.4 2.494,1.003 4.731,5.524 1.92,8.64 -0.721,0.8 -4.112,2.19 -5.76,2.16 -3.897,-0.071 -5.263,-3.03 -2.399,-5.28 1.222,0.284 3.389,1.069 3.84,-0.48 -1.32,-2.143 -4.156,-1.737 -5.76,-3.36 -4.758,-4.815 2.191,-12.195 8.879,-7.92 z"
   id="path3416" /><path
   style="fill-rule:evenodd"
   inkscape:connector-curvature="0"
   clip-rule="evenodd"
   d="m 85.604474,82.685158 c 0.24,1.2 0.565,2.315 0.48,3.84 5.285,-1.013 5.813,3.354 5.28,7.44 -0.721,0 -1.44,0 -2.16,0 -0.764,-1.237 0.057,-4.057 -1.2,-4.8 -1.067,-0.107 -1.271,0.65 -1.92,0.96 -0.156,1.849 0.695,3.523 -0.24,4.8 -0.904,-0.185 -1.147,0.293 -1.92,0.24 -1.262,-3.298 -0.904,-8.216 -1.2,-12.48 0.551,-0.375 2.33,-0.375 2.88,0 z"
   id="path3418" /><path
   style="fill-rule:evenodd"
   inkscape:connector-curvature="0"
   clip-rule="evenodd"
   d="m 108.40448,83.885158 c -0.304,0.736 -0.816,1.263 -1.199,1.92 -1.102,-0.019 -1.547,-0.693 -2.88,-0.479 -0.179,2.178 2.03,1.969 3.119,2.88 2.704,4.598 -4.378,7.808 -6.239,3.84 0.53,-0.189 0.601,-0.84 0.96,-1.2 0.98,-0.101 0.97,0.79 2.16,0.48 1.321,-2.986 -3.549,-2.639 -3.36,-5.761 0.172,-2.859 5.161,-4.244 7.439,-1.68 z"
   id="path3420" /><path
   style="fill-rule:evenodd"
   inkscape:connector-curvature="0"
   clip-rule="evenodd"
   d="m 60.884474,84.125158 c -0.062,0.737 -0.521,1.079 -0.72,1.68 -0.563,-0.076 -0.901,-0.379 -1.681,-0.24 -0.79,0.33 -0.97,1.271 -1.199,2.16 0.019,0.861 1.568,0.191 1.92,0.721 -0.284,0.596 -0.348,1.412 -0.48,2.159 -0.349,0.451 -1.57,0.029 -1.92,0.48 -0.11,1.17 0.251,2.812 -0.24,3.6 -0.562,0.442 -1.527,-0.25 -2.64,0 0.128,-4.672 -0.064,-9.664 2.64,-11.76 1.911,-0.07 3.791,-0.11 4.32,1.2 z"
   id="path3422" /><path
   style="fill-rule:evenodd"
   inkscape:connector-curvature="0"
   clip-rule="evenodd"
   d="m 72.644474,85.805158 c -1.02,1.289 -3.227,0.641 -3.12,-1.2 0.583,-1.704 3.871,-1.624 3.12,1.2 z"
   id="path3424" /><path
   style="fill-rule:evenodd"
   inkscape:connector-curvature="0"
   clip-rule="evenodd"
   d="m 68.084474,85.565158 c -0.422,0.219 -0.439,0.842 -0.72,1.2 -0.88,0.178 -1.334,-0.59 -1.921,0 -0.532,0.428 -0.871,1.049 -0.72,2.16 0.349,0.371 0.937,0.504 1.68,0.48 0,0.8 0,1.6 0,2.399 -0.574,0.146 -1.095,0.346 -1.92,0.24 -0.04,1.4 0.419,2.301 0.24,3.84 -0.773,0.347 -2.013,0.227 -3.12,0.24 -0.059,-3.813 -0.422,-8.95 1.2,-11.76 1.505,-0.919 5.108,-0.708 5.281,1.201 z"
   id="path3426" /><path
   style="fill-rule:evenodd"
   inkscape:connector-curvature="0"
   clip-rule="evenodd"
   d="m 99.764475,85.805158 c 0.027,1.333 0.511005,2.209 0.480005,3.601 -1.680006,0.24 -2.762006,1.078 -4.561006,1.199 0.367,1.455 2.761,0.945 3.840001,0.48 0.263,0.537 0.397,1.202 0.721005,1.68 -4.599006,6.356 -11.123006,-4.198 -6.240006,-7.68 1.661,-1.184 4.366,-0.668 5.760001,0.72 z m -3.840001,2.16 c 0.497,-0.143 1.576,0.297 1.68,-0.24 -0.425,-0.215 -0.306,-0.974 -1.2,-0.72 -0.124,0.355 -0.355,0.604 -0.48,0.96 z"
   id="path3428" /><path
   style="fill-rule:evenodd"
   inkscape:connector-curvature="0"
   clip-rule="evenodd"
   d="m 51.764474,85.565158 c -0.002,3.038 0.116,6.196 -0.479,8.641 -2.538,-0.436 -3.107,-0.002 -6,0 -4.027,-1.066 -4.203,-8.081 -0.48,-9.36 2.544,-0.876 4.153,1.132 6.959,0.719 z m -5.28,1.919 c -1.837,0.059 -2.074,4.127 0.96,3.601 0.649,-1.261 0.427,-3.644 -0.96,-3.601 z"
   id="path3430" /><path
   style="fill-rule:evenodd"
   inkscape:connector-curvature="0"
   clip-rule="evenodd"
   d="m 80.324474,87.965158 c 0.338,2.323 -2.908,1.064 -3.12,2.88 -0.162,1.38 1.501,2.045 3.359,1.2 0.316,0.724 0.775,1.305 0.721,2.4 -0.916,0.844 -2.757,0.764 -4.561,0.72 -5.384,-1.827 -1.177,-11.833 3.601,-7.2 z"
   id="path3432" /><path
   style="fill-rule:evenodd"
   inkscape:connector-curvature="0"
   clip-rule="evenodd"
   d="m 72.644474,87.725158 c -0.097,2.543 0.232,5.513 -0.24,7.681 -1.022,-0.098 -2.472,0.232 -3.119,-0.24 0.535,-2.919 -1.231,-9.373 3.359,-7.441 z"
   id="path3434" /><path
   style="fill-rule:evenodd"
   inkscape:connector-curvature="0"
   clip-rule="evenodd"
   d="m 14.564474,93.725158 c 0.737,1.104 -0.379,2.127 0,3.36 0.479,1.558 1.898,1.562 3.12,2.64 0.985,2.379002 0.667,6.445002 -2.16,6.480002 -0.333,-0.147 -0.036,-0.924 -0.48,-0.96 0.058,-1.343 1.481,-1.146 1.2,-2.88 -0.316,-1.95 -4.343,-2.203 -4.32,-5.521002 0.006,-0.917 0.5,-3.37 2.64,-3.119 z"
   id="path3436" /><path
   style="fill-rule:evenodd"
   inkscape:connector-curvature="0"
   clip-rule="evenodd"
   d="m -0.55552557,106.92516 c 1.02400004,0.571 1.05300004,3.325 -0.24,3.6 -1.01500003,-0.345 -1.62499993,-1.095 -1.43999993,-2.64 0.6019999,-0.277 0.8039999,-0.956 1.67999993,-0.96 z"
   id="path3438" /><path
   style="fill-rule:evenodd"
   inkscape:connector-curvature="0"
   clip-rule="evenodd"
   d="m -7.9955255,118.20516 c 5.12,0.268 4.63,9.054 0.96,10.56 -2.59,-3.329 -5.3640005,-6.476 -7.6800005,-10.08 0.49,-3.262 6.9080005,-6.492 6.7200005,-0.48 z m -4.5600005,0.48 c 0.088,0.712 0.416,1.185 0.96,1.44 0.402,-0.486 1.6510005,-1.834 0.48,-2.4 -0.361,0.438 -1.036,0.564 -1.44,0.96 z m 2.8800005,3.84 c 0.533,1.067 1.003,2.197 2.16,2.641 0.726,-0.885 0.913,-2.278 0.24,-3.36 -1.095,-0.056 -1.676,0.403 -2.4,0.719 z"
   id="path3440" /><path
   style="fill-rule:evenodd"
   inkscape:connector-curvature="0"
   clip-rule="evenodd"
   d="m -18.075526,119.64516 c -5.739,-0.488 1.899,-6.422 0,0 l 0,0 z"
   id="path3442" /><path
   style="fill-rule:evenodd"
   inkscape:connector-curvature="0"
   clip-rule="evenodd"
   d="m -15.675526,120.36516 c 2.755,2.044 4.304,5.296 6.7200005,7.68 -0.381,0.819 -0.802,1.599 -1.6800005,1.92 -2.537,-2.023 -4.118,-5.002 -6.24,-7.44 -0.083,-1.204 1.062,-1.178 1.2,-2.16 z"
   id="path3448" /><g
   id="g3775"
   transform="translate(-5.6821903,5.8181366)"
   style="fill:#ffffff"><path
     id="path3444"
     d="m 64.009609,27.36052 c -0.01466,1.011829 -0.625977,1.427925 -0.879851,2.199627 -1.233624,0.04491 -2.500242,-1.004496 -3.079477,0.219046 0.282285,1.550737 2.261949,1.404096 3.519403,1.979665 3.700872,3.633967 -2.239037,9.075293 -5.719034,5.499067 0.193384,-0.613146 0.526994,-1.086982 0.660805,-1.759702 0.685554,-0.394099 2.425092,0.959587 2.859518,-0.439008 -0.765287,-2.730287 -4.248033,-1.872433 -4.61922,-4.619217 -0.477502,-3.523069 4.456081,-5.537561 7.257856,-3.079478 z"
     clip-rule="evenodd"
     inkscape:connector-curvature="0"
     style="fill:#ffffff;fill-rule:evenodd" /><path
     id="path3446"
     d="m 38.493933,26.48067 c 0.184219,0.54899 0.286868,1.178633 0.219046,1.979664 0.581985,-0.444508 2.019991,-0.03299 2.639553,-0.439926 0.371187,0.875269 0.172304,2.320607 0.219962,3.52032 -0.933008,0.166805 -1.926506,0.27312 -2.859515,0.439009 -0.190634,3.196791 0.393184,5.620046 0.660805,8.358582 -1.075984,0.09715 -1.893512,0.452756 -3.079478,0.439009 -0.264872,-4.720033 -1.315193,-8.655532 -1.099813,-13.856733 0.809279,-0.438092 2.426005,-0.0669 3.29944,-0.439925 z"
     clip-rule="evenodd"
     inkscape:connector-curvature="0"
     style="fill:#ffffff;fill-rule:evenodd" /><path
     id="path3450"
     d="m 53.011471,28.680296 c 0.775368,0.02658 0.05957,0.319863 0.439009,0.879851 0.748789,-0.204382 1.290448,-0.616812 2.420506,-0.439925 -0.04399,0.850522 -0.0082,1.621308 0.219046,2.199627 -3.011656,0.439009 -2.392094,3.867677 -1.759702,6.59888 -0.544407,0.407848 -1.679048,0.226378 -2.19871,0.659888 -1.577316,-2.088729 -1.449004,-5.884001 -1.759701,-9.238432 0.805613,-0.293284 1.679048,-0.519662 2.639552,-0.659889 z"
     clip-rule="evenodd"
     inkscape:connector-curvature="0"
     style="fill:#ffffff;fill-rule:evenodd" /><path
     id="path3452"
     d="m 8.7989695,29.560147 c 2.2811965,-1.621308 5.5531415,-0.09807 6.1589555,1.979664 1.037491,5.05456 -2.663382,8.610623 -6.3789182,6.158955 0.1512243,1.910926 -0.2144636,3.303107 -0.2199627,5.059142 -0.8065299,0 -1.6130597,0 -2.4195896,0 -0.324445,-4.18204 -0.3611054,-9.461145 0,-13.637686 1.0567374,0.402348 2.7779455,-1.067736 2.859515,0.439925 z m 3.0794775,5.71903 c 0.63056,-1.065902 0.443592,-2.637719 -0.219962,-3.519403 -2.5570668,-0.658971 -2.3985104,4.380924 0.219962,3.519403 z"
     clip-rule="evenodd"
     inkscape:connector-curvature="0"
     style="fill:#ffffff;fill-rule:evenodd" /><path
     id="path3454"
     d="m 32.994866,29.560147 c 0.113647,1.14014 -0.690133,1.362852 -0.879851,2.198711 -0.683717,-0.409681 -2.480996,-0.372104 -2.420506,0.660804 1.853186,1.180467 4.411168,1.341773 4.839179,3.519403 0.802864,4.092223 -4.625632,5.568722 -7.478731,3.078561 0.02749,-0.92476 0.852355,-1.053988 0.87985,-1.978747 1.010912,0.393183 2.513074,1.096147 3.299441,0 -0.856938,-2.700959 -6.136043,-1.105313 -5.059142,-5.71903 0.466504,-1.993412 4.325933,-3.286609 6.81976,-1.759702 z"
     clip-rule="evenodd"
     inkscape:connector-curvature="0"
     style="fill:#ffffff;fill-rule:evenodd" /><path
     id="path3456"
     d="m 49.71203,33.739438 c -1.505827,0.326278 -2.620305,1.04574 -4.399253,1.099814 0.171387,1.739538 2.575396,0.955921 3.739365,0.659888 0.148475,0.584734 0.346442,1.120893 0.659888,1.540655 -1.0769,1.82844 -4.354344,2.242703 -5.938076,1.098897 -4.423083,-3.190375 0.242876,-12.901728 5.279105,-7.918657 0.347358,1.044823 0.455506,2.329772 0.658971,3.519403 z m -4.179291,-1.319776 c 0.513247,0 1.026493,0 1.539739,0 0.08157,-1.120893 -1.620392,-1.120893 -1.539739,0 z"
     clip-rule="evenodd"
     inkscape:connector-curvature="0"
     style="fill:#ffffff;fill-rule:evenodd" /><path
     id="path3458"
     d="m 20.23703,29.78011 c 7.300928,-0.539825 6.744606,11.442642 -0.659888,10.118283 -4.34518,-0.777201 -6.6832,-9.575708 0.659888,-10.118283 z m -1.539739,3.959328 c -0.291451,2.197794 0.661721,3.150966 2.859515,2.859515 0.773535,-0.551739 1.19788,-2.107975 0.659888,-3.29944 -1.060404,-1.022827 -2.705541,-0.461922 -3.519403,0.439925 z"
     clip-rule="evenodd"
     inkscape:connector-curvature="0"
     style="fill:#ffffff;fill-rule:evenodd" /></g><path
   style="fill-rule:evenodd"
   inkscape:connector-curvature="0"
   clip-rule="evenodd"
   d="m -11.835526,132.12516 c -0.342,0.938 -0.982,1.577 -1.92,1.92 -1.078,-0.202 -1.348,-1.212 -1.92,-1.92 -0.876,0.163 -1.17,0.909 -1.92,1.2 0.511,1.089 1.232,1.968 1.68,3.12 -0.263,0.856 -0.823,1.417 -1.68,1.68 -2.067,-3.134 -4.17,-6.23 -6.48,-9.12 0.213,-1.227 0.857,-2.023 1.92,-2.4 0.506,1.015 1.174,1.866 1.68,2.88 0.788,-0.092 1.058,-0.701 1.68,-0.96 -1.732,-1.566 -2.971,-5.402 0.48,-6 1.838,3.522 4.299,6.421 6.48,9.6 z"
   id="path3460" /><path
   style="fill-rule:evenodd"
   inkscape:connector-curvature="0"
   clip-rule="evenodd"
   d="m -25.755526,126.36516 c 1.782,1.93 1.032,4.625 1.92,6.72 1.143,2.695 4.62,3.263 6,5.52 -0.207,1.154 -1.457,1.263 -1.92,2.16 -1.331,-0.35 -2.289,-1.071 -3.36,-1.68 0.629,2.208 0.606,5.263 -1.44,5.04 -0.502,-2.138 -0.536,-4.744 -0.96,-6.96 -1.482,-1.318 -3.317,-2.283 -4.8,-3.601 0.073,-1.367 0.95,-1.93 1.44,-2.88 0.745,0.375 1.528,0.712 2.16,1.2 -0.403,-2.453 -0.715,-4.296 0.96,-5.519 z"
   id="path3462" /><path
   style="fill-rule:evenodd"
   inkscape:connector-curvature="0"
   clip-rule="evenodd"
   d="m -32.955526,131.16516 c 3.952,1.403 -0.381,4.933 0.72,7.2 1.061,-0.779 1.261,-2.42 2.4,-3.12 3.646,1.54 0.568,4.905 1.2,7.2 0.509,-0.691 1.207,-1.193 1.44,-2.16 1.214,0.626 1.188,2.491 1.92,3.6 -0.749,1.571 -2.227,2.413 -3.36,3.6 -2.975,-2.784 -4.636,-6.884 -7.44,-9.84 0.769,-2.431 2.484,-3.915 3.12,-6.48 z"
   id="path3464" /><path
   style="fill-rule:evenodd"
   inkscape:connector-curvature="0"
   clip-rule="evenodd"
   d="m 13.604474,141.24516 c 0.194,2.193 -1.588,2.412 -2.4,3.6 0.609,3.749 4.768,1.664 7.2,3.36 1.092,0.761 2.347,3.003 2.4,4.56 0.114,3.363 -3.986,8.589 -6.96,4.561 0.034,-1.166 0.378,-2.021 0.72,-2.88 0.772,-0.053 1.015,0.424 1.92,0.239 2.071,-3.912 -2.73,-2.964 -5.28,-4.08 -4.4219995,-1.936 -6.0269995,-11.718 2.4,-9.36 z"
   id="path3466" /><path
   style="fill-rule:evenodd"
   inkscape:connector-curvature="0"
   clip-rule="evenodd"
   d="m 1.6044745,148.20516 c 5.757,-1.307 11.0199995,6.19 11.7599995,11.52 0.793,5.71 -3.23,5.878 -6.2399995,3.36 -3.33,-2.787 -7.09500003,-8.866 -5.52,-14.88 z m 5.28,8.4 c 0.878,1.33 2.077,3.375 3.1199995,3.12 -0.9269997,-3.473 -2.9049995,-5.895 -5.5199995,-7.68 0.334,1.512 1.461,3.139 2.4,4.56 z"
   id="path3468" /><path
   style="fill-rule:evenodd"
   inkscape:connector-curvature="0"
   clip-rule="evenodd"
   d="m 0.16447447,164.28516 c 1.18600003,2.095 2.38800003,4.172 3.60000003,6.239 -0.596,1.404 -1.311,2.689 -2.88000003,3.12 -2.16200007,-3.906 -4.00699997,-7.769 -6.23999997,-12.479 -0.637,-1.345 -1.976,-3.081 -1.92,-4.08 0.124,-2.219 3.625,-4.576 5.04,-4.561 4.468,0.053 6.086,9.103 2.39999997,11.761 z m -3.59999997,-6.24 c 0.637,0.482 0.582,1.658 1.44,1.92 0.5209999,-0.572 0.6329999,-1.82 0.2399999,-2.64 -0.8539999,-0.053 -1.4379999,0.161 -1.6799999,0.72 z"
   id="path3470" /><path
   style="fill-rule:evenodd"
   inkscape:connector-curvature="0"
   clip-rule="evenodd"
   d="m -0.31552557,174.36516 c -0.458,1.382 -1.74799993,1.932 -2.63999993,2.88 -1.363,0.003 -1.42,-1.301 -2.4,-1.681 0.028,1.732 0.397,3.123 0.24,5.04 -1.223,-0.022 -1.897,0.503 -3.12,0.48 -1.182,-2.898 -1.726,-6.435 -1.9200005,-10.32 -1.59,-2.01 -3.681,-3.519 -5.28,-5.52 0.467,-1.214 1.534,-1.826 2.4,-2.641 1.276,0.404 1.465,1.895 2.64,2.4 0.117,-1.637 -0.331,-2.709 -0.48,-4.08 0.402,-0.878 1.4830005,-1.076 2.1600005,-1.68 0.388,-0.067 0.414,0.227 0.72,0.239 1.055,2.875 0.278,5.694 1.2,7.921 1.252,3.026 5.4539999,3.937 6.47999993,6.962 z"
   id="path3472" /><path
   style="fill-rule:evenodd"
   inkscape:connector-curvature="0"
   clip-rule="evenodd"
   d="m -15.195526,168.36516 c -0.985,1.599 -3.775,2.49 -2.4,5.04 0.882,-0.078 1.328,-0.593 2.16,-0.721 0.776,0.904 1.047,2.313 1.68,3.36 -0.179,0.941 -0.949,1.291 -1.68,1.68 0.469,0.731 0.668,1.731 1.2,2.4 1.292,-0.628 2.534,-1.307 3.36,-2.4 4.2590005,3.34 -0.065,7.264 -3.12,8.88 -3.599,-4.801 -5.986,-10.814 -8.64,-16.56 1.577,-1.943 3.41,-3.63 5.04,-5.521 1.3,0.782 1.753,2.409 2.4,3.842 z"
   id="path3474" /><path
   style="fill-rule:evenodd"
   inkscape:connector-curvature="0"
   clip-rule="evenodd"
   d="m -216.07552,183.00516 c -0.28,1.16 -1.76,1.119 -2.16,2.16 0.343,1.098 0.977,1.903 1.2,3.12 -2.968,2.862 -3.767,-2.968 -4.8,-5.04 1.861,-0.217 4.914,-3.037 5.76,-0.24 z"
   id="path3476" /><path
   style="fill-rule:evenodd"
   inkscape:connector-curvature="0"
   clip-rule="evenodd"
   d="m -223.51552,184.44516 c 1.265,1.614 2.059,3.701 3.12,5.52 -2.425,3.674 -7.633,2.224 -8.16,-2.16 0.534,-0.586 1.17,-1.069 2.16,-1.2 0.638,0.962 0.643,2.558 1.92,2.88 0.611,-1.099 -0.851,-2.183 -0.96,-3.359 0.242,-0.959 1.439,-0.962 1.92,-1.681 z"
   id="path3478" /><path
   style="fill-rule:evenodd"
   inkscape:connector-curvature="0"
   clip-rule="evenodd"
   d="m -203.83552,196.44516 c -0.674,0.285 -1.38,0.54 -2.16,0.72 -1.725,-3.155 -2.048,-7.712 -3.84,-10.8 0.493,-0.566 1.644,-1.419 2.4,-0.96 1.506,3.374 2.452,7.308 3.6,11.04 z"
   id="path3480" /><path
   style="fill-rule:evenodd"
   inkscape:connector-curvature="0"
   clip-rule="evenodd"
   d="m -237.19552,189.24516 c -4.168,1.796 2.662,5.42 3.6,7.68 -0.158,0.883 -0.885,1.195 -1.44,1.68 -1.181,-0.693 -2.684,-2.414 -4.32,-4.319 -1.699,-1.979 -5.249,-4.957 -2.16,-6.48 1.887,0.958 3.465,-1.565 4.32,1.439 z"
   id="path3482" /><path
   style="fill-rule:evenodd"
   inkscape:connector-curvature="0"
   clip-rule="evenodd"
   d="m -211.51552,189.24516 c 0.478,2.223 -1.746,2.586 -2.4,1.2 -0.277,-1.667 1.511,-2.046 2.4,-1.2 z"
   id="path3484" /><path
   style="fill-rule:evenodd"
   inkscape:connector-curvature="0"
   clip-rule="evenodd"
   d="m -232.63552,189.24516 c 5.242,-1.827 5.962,7.225 0.96,6.96 -3.483,-0.184 -4.39,-5.764 -0.96,-6.96 z m 0.24,3.6 c 0.309,0.411 0.496,0.944 1.2,0.96 0.651,-0.422 0.697,-2.023 -0.24,-2.16 -0.241,0.479 -1.061,0.379 -0.96,1.2 z"
   id="path3486" /><path
   style="fill-rule:evenodd"
   inkscape:connector-curvature="0"
   clip-rule="evenodd"
   d="m -210.07552,193.32516 c 0.332,1.988 1.664,2.977 1.68,5.279 -0.926,0.034 -1.109,0.812 -2.16,0.721 -0.57,-1.91 -1.637,-3.323 -1.92,-5.521 1.027,0.068 1.187,-0.733 2.4,-0.479 z"
   id="path3488" /><path
   style="fill-rule:evenodd"
   inkscape:connector-curvature="0"
   clip-rule="evenodd"
   d="m -215.11552,199.08516 c 1.259,-0.258 2.144,-0.278 3.12,0.24 -2.835,8.602 -12.574,-7.316 -3.6,-5.761 1.31,0.228 2.58,4.088 0.48,5.521 z m -1.2,-1.68 c 0.916,-0.216 0.527,-1.946 -0.72,-1.44 -0.01,0.729 -0.14,1.58 0.72,1.44 z"
   id="path3490" /><path
   style="fill-rule:evenodd"
   inkscape:connector-curvature="0"
   clip-rule="evenodd"
   d="m -240.07552,200.28516 c 1.537,0.565 2.243,-1.078 3.6,0.239 -0.809,3.967 -7.747,2.037 -8.4,-0.96 -0.79,-3.621 3.604,-5.537 5.28,-1.439 0.074,0.954 -0.554,1.205 -0.48,2.16 z m -2.64,-1.92 c -0.01,0.33 0.113,0.526 0.24,0.72 0.632,0.072 0.788,-0.332 0.72,-0.96 -0.418,-0.018 -0.746,0.054 -0.96,0.24 z"
   id="path3492" /><path
   style="fill-rule:evenodd"
   inkscape:connector-curvature="0"
   clip-rule="evenodd"
   d="m -247.75552,201.24516 c 1.547,0.692 3.983,0.497 5.28,1.439 0.129,1.089 -0.482,1.438 -0.72,2.16 -1.837,-0.403 -3.568,-0.912 -5.76,-0.96 0.789,1.61 2.352,2.448 3.36,3.84 -0.106,0.854 -0.869,1.052 -1.2,1.681 -3.09,-1.558 -5.674,-5.681 -8.64,-8.16 -0.675,-5.136 9.117,-7.264 7.68,0 z m -4.8,-0.72 c 0.629,0.332 0.826,1.095 1.68,1.2 0.491,-0.628 0.836,-1.403 0.72,-2.64 -1.122,-0.52 -2.091,0.432 -2.4,1.44 z"
   id="path3494" /><path
   style="fill-rule:evenodd"
   inkscape:connector-curvature="0"
   clip-rule="evenodd"
   d="m -218.71552,202.92516 c -3.031,1.49 -6.688,1.482 -7.68,-1.68 -0.158,-0.503 -0.077,-1.433 0,-1.92 2.225,-1.761 2.176,1.873 3.84,2.159 0.772,-1.26 -0.931,-2.103 -0.72,-3.6 2.673,-2.027 4.189,3.289 4.56,5.041 z"
   id="path3496" /><path
   style="fill-rule:evenodd"
   inkscape:connector-curvature="0"
   clip-rule="evenodd"
   d="m -227.83552,202.44516 c -0.039,1.081 -1.359,0.881 -1.44,1.92 -0.103,0.982 0.507,1.253 0.96,1.68 1.139,0.099 1.261,-0.819 2.4,-0.72 0.316,0.724 0.775,1.305 0.72,2.399 -2.875,1.748 -6.646,0.188 -6.96,-2.64 -0.272,-2.448 2.965,-6.154 4.32,-2.639 z"
   id="path3498" /><path
   style="fill-rule:evenodd"
   inkscape:connector-curvature="0"
   clip-rule="evenodd"
   d="m -232.63552,209.40516 c 1.284,0.244 1.194,-0.886 2.4,-0.721 0.206,0.755 0.907,1.013 0.96,1.92 -1.152,0.867 -2.012,1.557 -3.36,1.44 -4.402,-0.381 -4.241,-9.175 -0.72,-5.28 -0.358,1.107 -0.255,2.262 0.72,2.641 z"
   id="path3500" /><path
   style="fill-rule:evenodd"
   inkscape:connector-curvature="0"
   clip-rule="evenodd"
   d="m 136.96448,208.92516 c 1.189,0.73 0.628,3.212 1.2,4.56 0.568,0.475 0.953,-1.275 1.92,-1.199 0.664,0.376 1.334,0.745 2.16,0.96 0.045,1.619 -2.361,1.393 -2.4,2.399 -0.047,1.204 2.854,1.62 3.6,3.12 -1.05,2.333 -3.261,0.297 -4.56,-0.479 -0.326,0.265 0.234,1.672 0.24,2.399 -0.957,0.164 -1.633,0.607 -2.88,0.48 -0.771,-3.629 -1.269,-7.532 -1.92,-11.28 0.751,-0.449 1.909,-0.491 2.64,-0.96 z"
   id="path3502" /><path
   style="fill-rule:evenodd"
   inkscape:connector-curvature="0"
   clip-rule="evenodd"
   d="m -233.59552,212.76516 c 0.167,1.399 -1.06,1.325 -1.92,2.16 -0.745,0.724 -1.067,1.907 -1.92,2.16 -3.116,0.923 -5.506,-2.01 -5.28,-4.32 0.153,-1.562 1.756,-3.509 2.88,-3.6 2.164,-0.176 3.78,3.525 6.24,3.6 z m -4.8,1.92 c 0.653,-1.366 -0.818,-2.057 -1.68,-2.64 -0.767,1.338 0.526,2.447 1.68,2.64 z"
   id="path3504" /><path
   style="fill-rule:evenodd"
   inkscape:connector-curvature="0"
   clip-rule="evenodd"
   d="m 117.76448,209.16516 c 1.13,4.391 1.963,9.077 2.4,14.16 -1.208,-0.168 -1.673,0.407 -2.88,0.239 -1.062,-4.537 -2.196,-9.004 -2.641,-14.159 1.059,-0.062 1.857,-0.383 3.121,-0.24 z"
   id="path3506" /><path
   style="fill-rule:evenodd"
   inkscape:connector-curvature="0"
   clip-rule="evenodd"
   d="m 147.28448,215.64516 c 0.461,1.376 2.118,0.39 2.88,0 2.479,1.57 -0.443,4.479 -3.84,3.601 -1.63,-0.422 -4.773,-5.789 -2.881,-8.4 3.024,-4.171 10.19,1.78 3.841,4.799 z m -1.44,-1.92 c 0.733,0.174 0.875,-0.245 1.44,-0.24 -0.003,-0.637 0.09,-1.37 -0.24,-1.68 -1.354,-0.362 -1.789,1.096 -1.2,1.92 z"
   id="path3508" /><path
   style="fill-rule:evenodd"
   inkscape:connector-curvature="0"
   clip-rule="evenodd"
   d="m 125.92448,209.40516 c 1.32,3.719 1.657,8.422 2.64,12.479 -0.823,0.536 -2.263,0.457 -3.359,0.72 -0.999,-3.961 -1.383,-8.537 -1.92,-12.96 0.989,0.031 1.501,-0.416 2.639,-0.239 z"
   id="path3510" /><path
   style="fill-rule:evenodd"
   inkscape:connector-curvature="0"
   clip-rule="evenodd"
   d="m 132.16448,212.04516 c -0.827,0.7 -1.456,1.072 -2.4,0.72 -3.428,-1.281 3.056,-6.439 2.4,-0.72 z"
   id="path3512" /><path
   style="fill-rule:evenodd"
   inkscape:connector-curvature="0"
   clip-rule="evenodd"
   d="m 132.40448,213.48416 c 0.456,2.425 0.673,5.088 1.2,7.44 -0.798,0.402 -1.966,0.435 -2.88,0.72 -0.617,-2.263 -0.668,-5.091 -1.439,-7.199 0.362,-0.998 2.114,-0.605 3.119,-0.961 z"
   id="path3514" /><path
   style="fill-rule:evenodd"
   inkscape:connector-curvature="0"
   clip-rule="evenodd"
   d="m -2.9555255,116.28516 c 1.1299999,1.83 2.29299993,3.626 3.59999997,5.279 -0.65100004,0.709 -1.11000004,1.61 -2.16000007,1.92 -1.5699999,-2.59 -3.2989999,-5.021 -4.7999999,-7.68 0.158,-0.882 0.885,-1.195 1.44,-1.68 0.976,-0.096 0.738,1.021 1.44,1.2 -0.958,-1.521 -1.888,-3.072 -3.12,-4.32 0.016,0.655 2.023,3.067 0,3.84 -1.363,0.112 -2.223,-1.835 -1.2,-2.64 -0.744,-1.017 -1.462,-2.058 -1.92,-3.36 1.684,-1.356 3.6,-2.48 5.28,-3.84 0.901,0.539 0.908,1.972 1.68,2.64 0.043,0.843 -0.811,0.79 -0.96,1.44 0.158,1.686 4.43699997,4.461 4.07999997,6.72 -0.166,1.052 -2.35700007,2.568 -3.35999997,0.481 z"
   id="path3516" /><path
   style="fill-rule:evenodd"
   inkscape:connector-curvature="0"
   clip-rule="evenodd"
   d="m 255.52448,-88.914842 c 0.49,0.917 0.049,1.835 0,2.88 -0.74,0.379 -1.646,0.595 -2.399,0.96 -0.013,1.745 2.078,-0.037 1.92,1.92 -5.022,4.467 -4.975,-9.073 0.479,-5.76 z"
   id="path3518" /><path
   style="fill-rule:evenodd"
   inkscape:connector-curvature="0"
   clip-rule="evenodd"
   d="m 241.60448,-87.474842 c 0.086,1.206 -0.063,2.176 -0.479,2.88 -0.915,0.286 -2.083,0.318 -2.88,0.72 -0.003,1.355 2.276,0.335 2.64,0.72 0.397,2.278 -1.772,2.583 -3.36,2.16 -2.637,-2.81 0.669,-9.717 4.079,-6.48 z"
   id="path3520" /><path
   style="fill-rule:evenodd"
   inkscape:connector-curvature="0"
   clip-rule="evenodd"
   d="m 222.64448,42.365158 c 1.442,9.125 -13.141,13.917 -14.64,2.88 0.387,8.867 -6.882,10.078 -14.64,10.8 -2.15,-8.01 -3.789,-16.532 -4.561,-25.92 2.049,-0.591 3.934,-1.347 6.48,-1.44 0.731,3.269 1.017,6.983 1.68,10.32 5.113,0.167 9.699,0.86 10.56,5.28 -1.761,-10.32 13.258,-11.93 14.4,-3.12 -2.229,-12.23 14.542,-12.027 15.84,-3.36 0.615,4.108 -2.174,9.752 -6.24,10.56 -4.518,0.898 -8.451,-2.021 -8.879,-6 z m 4.8,-3.36 c -0.084,2.004 -0.099,3.938 1.2,4.56 3.365,0.376 4.549,-3.346 3.36,-6 -1.898,-0.807 -3.806,0.316 -4.56,1.44 z m -12.48,7.44 c 3.454,-0.043 2.954,-7.287 -1.2,-5.76 -2.794,1.027 -1.314,5.791 1.2,5.76 z m -16.56,3.6 c 5.42,0.41 4.127,-5.904 -0.479,-5.52 0.024,1.974 0.533,3.465 0.479,5.52 z"
   id="path3522" /><path
   style="fill-rule:evenodd"
   inkscape:connector-curvature="0"
   clip-rule="evenodd"
   d="m 7.6044745,107.16516 c -0.321,-1.682 -2.096,-3.982 -2.88,-6 0.29,-0.91 1.225,-1.175002 1.68,-1.920002 1.755,0.405 2.498,1.822002 3.8399995,2.640002 -0.006,-0.958 -1.1479997,-2.849002 -1.6799995,-4.080002 0.316,-1.123 1.3369998,-1.543 2.3999995,-1.92 1.176,4.344002 3.595,7.444002 4.56,12.000002 -1.865,1.054 -3.393,-0.435 -4.8,-1.2 -0.15,0.877 0.99,2.525 1.44,3.601 -0.206,0.914 -0.94,1.299 -1.92,1.439 -0.3059997,-1.374 -1.2019997,-2.158 -1.6799995,-3.359 1.4999995,3.555 -2.283,9.733 -5.28,5.279 0.306,1.374 1.202,2.158 1.68,3.36 -0.393,0.888 -1.285,1.275 -2.4,1.44 -1.014,-2.586 -2.34600003,-4.854 -3.36000007,-7.44 0.98200004,-0.138 1.13500004,-1.105 2.16000007,-1.2 0.264,0.776 0.648,1.433 0.96,2.16 -1.45200003,-4.213 3.057,-9.835 5.28,-4.8 z m -2.64,0.72 c -1.256,0.755 -1.31,4.454 1.2,4.08 1.107,-1.197 0.694,-3.918 -1.2,-4.08 z"
   id="path3524" /></svg>