<?xml version="1.0" encoding="utf-8"?>
<!-- Generator: Adobe Illustrator 13.0.0, SVG Export Plug-In . SVG Version: 6.00 Build 14948)  -->
<!DOCTYPE svg PUBLIC "-//W3C//DTD SVG 1.1//EN" "http://www.w3.org/Graphics/SVG/1.1/DTD/svg11.dtd">
<svg version="1.1" id="Calque_1" xmlns="http://www.w3.org/2000/svg" xmlns:xlink="http://www.w3.org/1999/xlink" x="0px" y="0px"
	 width="66.064px" height="13.739px" viewBox="0 0 66.064 13.739" enable-background="new 0 0 66.064 13.739" xml:space="preserve">
<g>
	<path fill="#FFFFFF" d="M43.264,0.038c0.738,0.781,0.415,2.625,0.479,4.08c4.244-1.012,6.748,2.766,5.28,7.44
		c-0.561,0-1.12,0-1.68,0c-0.889-1.112-0.238-3.763-1.2-4.8c-1.135-0.175-1.578,0.342-2.16,0.72c-0.256,2.11,0.705,3.956-0.48,5.041
		c-0.64,0-1.279,0-1.92,0c-0.611-3.789-0.768-8.033-0.96-12.24C41.72,0.414,42.119-0.147,43.264,0.038z"/>
	<path fill="#FFFFFF" d="M66.064,1.478c-0.053,0.907-0.755,1.166-0.96,1.92c-1.272-0.075-2.123-1.21-3.12-0.24
		c1.01,2.634,4.644,2.097,3.84,5.76c-0.512,2.334-4.489,3.396-6.479,1.199c-0.106-0.906,0.473-1.127,0.72-1.68
		c0.89-0.027,1.405,1.113,2.16,0.479c0.553,0.074,0.267-0.692,0.72-0.719c-0.559-2.25-3.378-1.968-3.84-3.841
		C58.126,0.395,63.816-1.151,66.064,1.478z"/>
	<path fill="#FFFFFF" d="M18.064,3.398c-0.67-0.305-1.187-0.592-1.92-0.24c-0.556,0.565-1.001,1.239-0.96,2.4
		c0.284,0.436,1.251,0.189,1.68,0.48c0.128,0.929-0.428,1.172-0.24,2.16c-0.575,0.146-1.095,0.346-1.92,0.24
		c0.188,1.547-0.355,2.363-0.24,3.84c-0.88,0-1.76,0-2.64,0c0.264-4.259-0.27-13.171,5.28-11.76
		C18.248,0.809,18.998,1.959,18.064,3.398z"/>
	<path fill="#FFFFFF" d="M27.664,1.718c2.155-2.585,4.522,2.508,0.96,2.4C27.927,3.696,27.491,3.012,27.664,1.718z"/>
	<path fill="#FFFFFF" d="M25.264,4.358c-1.742-0.839-2.979,0.411-2.88,2.16c0.019,0.861,1.568,0.191,1.92,0.72
		c0.128,0.928-0.429,1.172-0.24,2.16c-0.758-0.118-0.849,0.433-1.68,0.239c-0.123,1.576,0.223,2.808,0,3.841
		c-1.146-0.187-1.545,0.375-2.641,0.239c-0.615-5.139-0.904-15.183,5.76-11.52C26.001,3.08,25.44,3.526,25.264,4.358z"/>
	<path fill="#FFFFFF" d="M58.145,6.758c-1.288,0.513-3.4,1.344-4.562,1.2c-0.246,1.729,2.879,1.385,3.602,0.721
		c2.378,2.48-1.968,4.123-4.562,3.119c-4.87-2.646-0.902-13.984,5.04-8.16C57.795,4.708,57.9,5.802,58.145,6.758z M53.824,5.798
		c0.758,0.118,0.848-0.432,1.68-0.24c-0.045-0.675-0.417-1.022-1.198-0.96C54.202,5.056,53.619,5.032,53.824,5.798z"/>
	<path fill="#FFFFFF" d="M9.664,3.158C9.718,6.251,9.6,9.174,9.184,11.797c-2.039-0.889-3.253,0.262-5.28,0
		C0.972,11.42-1.245,7.3,0.784,4.118C2.656,1.183,6.303,3.328,9.664,3.158z M5.104,5.078c-2.6-1.141-2.899,4.01-0.24,3.84
		C6.197,8.317,5.874,6.053,5.104,5.078z"/>
	<path fill="#FFFFFF" d="M38.224,6.038c-0.313,1.671-3.232,0.484-3.12,2.64c0.073,1.41,1.458,1.75,3.359,0.961
		c0.129,0.832,0.643,1.277,0.721,2.158c-2.87,2.293-6.852,0.427-7.2-2.639C31.59,5.702,35.866,2.443,38.224,6.038z"/>
	<path fill="#FFFFFF" d="M27.664,5.078c1.167-0.046,2.294-0.055,2.88,0.48c-0.021,2.539,0.119,5.239-0.239,7.44
		c-1.261,0.141-1.817-0.424-3.12-0.24C27.443,10.297,27.382,7.516,27.664,5.078z"/>
</g>
</svg>
