<?xml version="1.0" encoding="UTF-8" standalone="no"?>
<!-- Generator: Adobe Illustrator 13.0.0, SVG Export Plug-In . SVG Version: 6.00 Build 14948)  -->

<svg
   xmlns:dc="http://purl.org/dc/elements/1.1/"
   xmlns:cc="http://creativecommons.org/ns#"
   xmlns:rdf="http://www.w3.org/1999/02/22-rdf-syntax-ns#"
   xmlns:svg="http://www.w3.org/2000/svg"
   xmlns="http://www.w3.org/2000/svg"
   xmlns:sodipodi="http://sodipodi.sourceforge.net/DTD/sodipodi-0.dtd"
   xmlns:inkscape="http://www.inkscape.org/namespaces/inkscape"
   version="1.1"
   id="Calque_1"
   x="0px"
   y="0px"
   width="116.41069"
   height="20.210371"
   viewBox="0 0 116.41069 20.210371"
   enable-background="new 0 0 66.064 13.739"
   xml:space="preserve"
   inkscape:version="0.48.2 r9819"
   sodipodi:docname="biblio.svg"><metadata
   id="metadata27"><rdf:RDF><cc:Work
       rdf:about=""><dc:format>image/svg+xml</dc:format><dc:type
         rdf:resource="http://purl.org/dc/dcmitype/StillImage" /><dc:title></dc:title></cc:Work></rdf:RDF></metadata><defs
   id="defs25">
		
		
		
		
		
		
		
	
	
	
	
	
	
	
	
	
	

	

	
	
	
	

	
	
	
	
	
	
	
	

	
	
	
	
	
	

	
	
	
	
	
	

	
	
	
	
	
	
	
	
	
</defs><sodipodi:namedview
   pagecolor="#ffffff"
   bordercolor="#666666"
   borderopacity="1"
   objecttolerance="10"
   gridtolerance="10"
   guidetolerance="10"
   inkscape:pageopacity="0"
   inkscape:pageshadow="2"
   inkscape:window-width="902"
   inkscape:window-height="644"
   id="namedview23"
   showgrid="false"
   inkscape:zoom="5.3281664"
   inkscape:cx="13.54673"
   inkscape:cy="3.3020116"
   inkscape:window-x="342"
   inkscape:window-y="0"
   inkscape:window-maximized="0"
   inkscape:current-layer="Calque_1"
   fit-margin-top="0"
   fit-margin-left="0"
   fit-margin-right="0"
   fit-margin-bottom="0" />
<path
   inkscape:connector-curvature="0"
   style="fill:#ffffff"
   id="path5"
   d="m 62.324408,1.3773294 c 0.8901,0.9419619 0.50053,3.1660052 0.577721,4.9208767 5.118676,-1.2205704 8.138744,3.3360649 6.368193,8.9733629 -0.676621,0 -1.350829,0 -2.026243,0 -1.072221,-1.341181 -0.287052,-4.538543 -1.447317,-5.7892662 -1.36892,-0.211067 -1.903221,0.4124852 -2.60517,0.8683902 -0.308761,2.544864 0.850299,4.77132 -0.578927,6.079935 -0.771902,0 -1.542598,0 -2.315706,0 C 59.560033,11.860726 59.370676,6.7420499 59.139105,1.6679989 60.462194,1.830822 60.943427,1.1542014 62.324408,1.3773294 z" /><path
   inkscape:connector-curvature="0"
   style="fill:#000000"
   id="path7"
   d="m -20.580296,0.13453767 c -0.053,0.90700003 -0.755,1.16600003 -0.96,1.92000003 -1.272,-0.075 -2.123,-1.21000003 -3.12,-0.24 1.01,2.634 4.644,2.097 3.84,5.76 -0.512,2.334 -4.489,3.3960003 -6.479,1.199 -0.106,-0.906 0.473,-1.127 0.72,-1.68 0.89,-0.027 1.405,1.113 2.16,0.479 0.553,0.074 0.267,-0.692 0.72,-0.719 -0.559,-2.25 -3.378,-1.968 -3.84,-3.841 -0.979,-3.96100003 4.711,-5.507 6.959,-2.87800003 z" /><path
   inkscape:connector-curvature="0"
   style="fill:#000000"
   id="path15"
   d="m -28.499296,4.4761286 c -1.288,0.513 -3.4,1.344 -4.562,1.2 -0.246,1.7290001 2.879,1.3850001 3.602,0.721 2.378,2.4800001 -1.968,4.1230004 -4.562,3.1190001 -4.87,-2.646 -0.902,-13.9840001 5.04,-8.1600001 0.132,1.07 0.237,2.164 0.482,3.12 z m -4.321,-0.96 c 0.758,0.118 0.848,-0.432 1.68,-0.24 -0.045,-0.675 -0.417,-1.022 -1.198,-0.96 -0.104,0.458 -0.687,0.434 -0.482,1.2 z" />
<path
   id="path3111"
   d="m 32.396625,-18.752909 c 0.074,0.875 -0.038,1.562 -0.24,2.16 -0.48,0 -0.96,0 -1.44,0 -0.249,1.882 0.349,4.907 0.24,7.4400003 -1.022,-0.098 -2.472,0.232 -3.12,-0.24 0.178,-3.6980003 -0.439,-6.6000003 -0.479,-10.0800003 1.11,-0.095 2.746,-0.686 3.12,0.48 0.691,0.029 1.57,-0.131 1.919,0.24 z"
   clip-rule="evenodd"
   inkscape:connector-curvature="0"
   style="fill-rule:evenodd" /><path
   id="path3113"
   d="m 51.325605,1.3554666 c 0.365585,-0.1414765 2.844442,-0.266378 3.153435,-0.040016 0.169772,0.5673248 0.480187,3.3770722 0.480187,3.8595111 0.981763,0.078396 2.147792,0.030324 2.893428,0.2894633 0.169771,0.8632984 0,2.1227311 0,3.1840967 -1.345621,0.071982 -1.299159,0.063484 -2.603964,0.2894633 -0.06272,1.706628 0.270988,4.727365 0,7.182711 -1.148205,0.147315 -2.77523,0.265341 -3.474766,-0.289463 0.136288,-4.670009 -0.492007,-13.9716799 -0.44832,-14.4757668 z"
   clip-rule="evenodd"
   inkscape:connector-curvature="0"
   style="fill-rule:evenodd;fill:#ffffff"
   sodipodi:nodetypes="ccccccccc" /><path
   id="path3115"
   d="m 11.276625,-17.072909 c 0,0.56 0,1.12 0,1.68 -1.7190001,0.656 -4.2240005,1.046 -3.8400005,3.12 0.215,1.16 1.5720004,1.552 3.3600005,1.68 0.191,0.7690003 0.709,1.2110003 0.72,2.1600003 -3.0980001,1.481 -6.3890005,-0.308 -6.7200005,-3.3600003 -0.361,-3.336 2.346,-6.249 6.4800005,-5.28 z"
   clip-rule="evenodd"
   inkscape:connector-curvature="0"
   style="fill-rule:evenodd" /><path
   id="path3117"
   d="m 26.156625,-16.112909 c 0.45,1.87 0.803,3.837 0.96,6 -0.387,0.4930003 -1.203,0.5570003 -2.16,0.4790003 -0.708,-1.3710003 0.442,-4.6020003 -1.68,-4.5600003 -1.531,0.47 -0.899,3.101 -1.2,4.8000003 -0.751,-0.049 -1.762,0.162 -2.16,-0.24 0.064,-2.5440003 -0.021,-4.9380003 -0.24,-7.2000003 0.741,-0.005 1.882,-1.104 1.92,0.24 1.47,-0.902 3.421,-0.682 4.56,0.481 z"
   clip-rule="evenodd"
   inkscape:connector-curvature="0"
   style="fill-rule:evenodd" /><path
   id="path3119"
   d="m 40.316625,-16.832909 c 0.546,2.415 0.09,5.83 0.24,8.6410003 -1.24,-0.041 -2.956,0.395 -2.641,-1.2 -4.432,3.443 -8.594,-2.3550003 -6,-6.0000003 0.978,-1.374 3.545,-1.924 5.76,-0.96 0.563,-0.479 1.528,-0.554 2.641,-0.481 z m -6.48,4.8 c 0.283,0.358 0.603,0.678 0.96,0.961 1.911,0.33 2.637,-1.327 2.16,-2.641 -1.136,-1.085 -3.562,-0.303 -3.12,1.68 z"
   clip-rule="evenodd"
   inkscape:connector-curvature="0"
   style="fill-rule:evenodd" /><path
   id="path3121"
   d="m 17.516625,-16.352909 c 2.931,2.122 2.242,8.0730003 -1.68,8.1600003 -5.563,0.122 -5.664,-10.4160003 1.68,-8.1600003 z m -3.12,4.8 c 2.297,2.7320003 4.199,-3.29 0.96,-2.4 -1.086,0.034 -0.965,1.275 -0.96,2.4 z"
   clip-rule="evenodd"
   inkscape:connector-curvature="0"
   style="fill-rule:evenodd" /><path
   id="path3123"
   d="m 46.076625,-16.112909 c 0.282,1.962 -1.461,1.899 -2.4,2.64 -0.422,2.582 1.367,2.953 3.12,3.36 -0.173,0.7330003 0.246,0.8740003 0.24,1.4390003 -4.583,1.605 -7.416,-3.0520003 -5.28,-6.7200003 1.279,-0.853 2.382,-0.925 4.32,-0.719 z"
   clip-rule="evenodd"
   inkscape:connector-curvature="0"
   style="fill-rule:evenodd" /><path
   inkscape:connector-curvature="0"
   d="m -63.649936,27.597538 c 0.738,0.781 0.415,2.625 0.479,4.08 4.244,-1.012 6.748,2.766 5.28,7.44 -0.561,0 -1.12,0 -1.68,0 -0.889,-1.112 -0.238,-3.763 -1.2,-4.8 -1.135,-0.175 -1.578,0.342 -2.16,0.72 -0.256,2.11 0.705,3.956 -0.48,5.041 -0.64,0 -1.279,0 -1.92,0 -0.611,-3.789 -0.768,-8.033 -0.96,-12.24 1.097,0.135 1.496,-0.426 2.641,-0.241 z"
   id="path3142"
   style="fill:#000000" /><path
   inkscape:connector-curvature="0"
   d="m -40.849936,29.037538 c -0.053,0.907 -0.755,1.166 -0.96,1.92 -1.272,-0.075 -2.123,-1.21 -3.12,-0.24 1.01,2.634 4.644,2.097 3.84,5.76 -0.512,2.334 -4.489,3.396 -6.479,1.199 -0.106,-0.906 0.473,-1.127 0.72,-1.68 0.89,-0.027 1.405,1.113 2.16,0.479 0.553,0.074 0.267,-0.692 0.72,-0.719 -0.559,-2.25 -3.378,-1.968 -3.84,-3.841 -0.979,-3.961 4.711,-5.507 6.959,-2.878 z"
   id="path3144"
   style="fill:#000000" /><path
   inkscape:connector-curvature="0"
   d="m -88.849936,30.957538 c -0.67,-0.305 -1.187,-0.592 -1.92,-0.24 -0.556,0.565 -1.001,1.239 -0.96,2.4 0.284,0.436 1.251,0.189 1.68,0.48 0.128,0.929 -0.428,1.172 -0.24,2.16 -0.575,0.146 -1.095,0.346 -1.92,0.24 0.188,1.547 -0.355,2.363 -0.24,3.84 -0.88,0 -1.76,0 -2.64,0 0.264,-4.259 -0.27,-13.171 5.28,-11.76 1.144,0.291 1.894,1.441 0.96,2.88 z"
   id="path3146"
   style="fill:#000000" /><path
   inkscape:connector-curvature="0"
   d="m -79.249936,29.277538 c 2.155,-2.585 4.522,2.508 0.96,2.4 -0.697,-0.422 -1.133,-1.106 -0.96,-2.4 z"
   id="path3148"
   style="fill:#000000" /><path
   inkscape:connector-curvature="0"
   d="m -81.649936,31.917538 c -1.742,-0.839 -2.979,0.411 -2.88,2.16 0.019,0.861 1.568,0.191 1.92,0.72 0.128,0.928 -0.429,1.172 -0.24,2.16 -0.758,-0.118 -0.849,0.433 -1.68,0.239 -0.123,1.576 0.223,2.808 0,3.841 -1.146,-0.187 -1.545,0.375 -2.641,0.239 -0.615,-5.139 -0.904,-15.183 5.76,-11.52 0.498,0.883 -0.063,1.329 -0.239,2.161 z"
   id="path3150"
   style="fill:#000000" /><path
   inkscape:connector-curvature="0"
   d="m -48.768936,34.317538 c -1.288,0.513 -3.4,1.344 -4.562,1.2 -0.246,1.729 2.879,1.385 3.602,0.721 2.378,2.48 -1.968,4.123 -4.562,3.119 -4.87,-2.646 -0.902,-13.984 5.04,-8.16 0.132,1.07 0.237,2.164 0.482,3.12 z m -4.321,-0.96 c 0.758,0.118 0.848,-0.432 1.68,-0.24 -0.045,-0.675 -0.417,-1.022 -1.198,-0.96 -0.104,0.458 -0.687,0.434 -0.482,1.2 z"
   id="path3152"
   style="fill:#000000" /><path
   inkscape:connector-curvature="0"
   d="m -97.249936,30.717538 c 0.054,3.093 -0.064,6.016 -0.48,8.639 -2.039,-0.889 -3.253004,0.262 -5.280004,0 -2.932,-0.377 -5.149,-4.497 -3.12,-7.679 1.872,-2.935 5.519,-0.79 8.880004,-0.96 z m -4.560004,1.92 c -2.6,-1.141 -2.899,4.01 -0.24,3.84 1.333,-0.601 1.01,-2.865 0.24,-3.84 z"
   id="path3154"
   style="fill:#000000" /><path
   inkscape:connector-curvature="0"
   d="m -68.689936,33.597538 c -0.313,1.671 -3.232,0.484 -3.12,2.64 0.073,1.41 1.458,1.75 3.359,0.961 0.129,0.832 0.643,1.277 0.721,2.158 -2.87,2.293 -6.852,0.427 -7.2,-2.639 -0.394,-3.456 3.882,-6.715 6.24,-3.12 z"
   id="path3156"
   style="fill:#000000" /><path
   inkscape:connector-curvature="0"
   d="m -79.249936,32.637538 c 1.167,-0.046 2.294,-0.055 2.88,0.48 -0.021,2.539 0.119,5.239 -0.239,7.44 -1.261,0.141 -1.817,-0.424 -3.12,-0.24 0.258,-2.461 0.197,-5.242 0.479,-7.68 z"
   id="path3158"
   style="fill:#000000" /><path
   d="m -52.147206,4.4761286 c -1.288,0.513 -3.4,1.344 -4.562,1.2 -0.246,1.7290001 2.879,1.3850001 3.602,0.721 2.378,2.4800001 -1.968,4.1230004 -4.562,3.1190001 -4.87,-2.646 -0.902,-13.9840001 5.04,-8.1600001 0.132,1.07 0.237,2.164 0.482,3.12 z m -4.321,-0.96 c 0.758,0.118 0.848,-0.432 1.68,-0.24 -0.045,-0.675 -0.417,-1.022 -1.198,-0.96 -0.104,0.458 -0.687,0.434 -0.482,1.2 z"
   id="path3170"
   style="fill:#000000"
   inkscape:connector-curvature="0" /><path
   style="fill-rule:evenodd"
   inkscape:connector-curvature="0"
   clip-rule="evenodd"
   d="m -44.41174,1.9045462 c 0.45,1.87 0.803,3.837 0.96,6.0000005 -0.387,0.493 -1.203,0.557 -2.16,0.479 -0.708,-1.371 0.442,-4.6020005 -1.68,-4.5600005 -1.531,0.47 -0.899,3.1010005 -1.2,4.8000005 -0.751,-0.049 -1.762,0.162 -2.16,-0.24 0.064,-2.5440005 -0.021,-4.9380005 -0.24,-7.2000005 0.741,-0.005 1.882,-1.10400003 1.92,0.24 1.47,-0.90200003 3.421,-0.68200003 4.56,0.481 z"
   id="path3179" /><path
   id="path3181"
   d="m -38.875126,1.9045461 c 0.45,1.87 0.803,3.837 0.96,6.0000006 -0.387,0.493 -1.203,0.557 -2.16,0.479 -0.708,-1.371 0.442,-4.6020006 -1.68,-4.5600006 -1.531,0.47 -0.899,3.1010006 -1.2,4.8000006 -0.751,-0.049 -1.762,0.162 -2.16,-0.24 -1.20573,-1.597344 0.02329,-3.9660653 0.366227,-6.2092733 1.47,-0.902 4.734773,-1.43272733 5.873773,-0.2697273 z"
   clip-rule="evenodd"
   inkscape:connector-curvature="0"
   style="fill-rule:evenodd"
   sodipodi:nodetypes="cccccccc" /><path
   inkscape:connector-curvature="0"
   clip-rule="evenodd"
   d="m 3.5855083,1.0989629 c 0.355303,1.931108 0.640455,3.932368 0.93535,5.923884 4.0830616,-0.581996 7.6757147,2.119477 6.2356657,6.2356661 C 9.8361139,15.891134 5.5497433,16.436105 2.6501583,16.844021 1.3893843,12.232876 0.25267428,7.4983159 -7.2495628e-7,1.8784219 1.1250183,1.5484509 2.1513043,1.1190989 3.5855083,1.0989629 z m 1.8707,12.3154421 c 0.925606,-0.06171 1.520593,-0.454035 2.182483,-0.779459 0.2188976,-1.881742 -1.057465,-2.268223 -2.494267,-2.494266 -0.03507,1.229595 0.318279,2.07206 0.311784,3.273725 z"
   id="path5-1"
   style="fill:#ffffff;fill-rule:evenodd" /><path
   inkscape:connector-curvature="0"
   clip-rule="evenodd"
   d="M 45.285061,5.7665356 C 52.069597,5.2943136 51.53177,16.654269 44.817386,16.367168 39.435227,16.136579 39.38716,6.1764006 45.285061,5.7665356 z m 0.936,3.273725 c -3.060673,-1.595941 -3.702427,5.1015544 0.155242,3.5855084 0.971725,-0.8626 0.759972,-3.1087394 -0.155242,-3.5855084 z"
   id="path9"
   style="fill:#ffffff;fill-rule:evenodd" /><g
   id="g3414"
   transform="matrix(0.99426771,-0.10691923,0.10691923,0.99426771,-74.787558,-21.85399)"
   style="fill:#ffffff"><path
     style="fill:#ffffff;fill-rule:evenodd"
     id="path7-3"
     d="m 86.843553,35.055036 c 2.157151,3.109389 -3.43936,3.938863 -2.650158,0.779458 0.222145,-0.889881 1.529686,-1.382239 2.650158,-0.779458 z"
     clip-rule="evenodd"
     inkscape:connector-curvature="0" /><path
     style="fill:#ffffff;fill-rule:evenodd"
     id="path11"
     d="m 86.999444,39.420002 c -0.156541,2.304599 -0.396224,5.825802 -1.247133,7.950475 -1.063311,-0.140302 -2.323435,0.220847 -2.961941,0 0.01364,-3.155507 0.386481,-5.953113 1.091241,-8.418149 1.167239,0.02793 2.34552,0.04482 3.117833,0.467674 z"
     clip-rule="evenodd"
     inkscape:connector-curvature="0" /></g><path
   d="m 153.61102,52.772387 c -1.51867,0.163821 -1.96791,-0.562206 0,0 l 0,0 z"
   id="path5-13"
   style="fill:#000000"
   inkscape:connector-curvature="0" /><path
   d="m 112.49697,47.803042 c 0.50782,2.62659 0.042,5.482666 -0.0726,8.382296 -0.11011,2.779364 -0.11232,5.717028 -0.58035,8.594694 -1.05386,0.175679 -2.36861,-0.04008 -3.56332,-0.06991 -0.15822,-5.361399 -0.5288,-10.580035 0.4456,-16.706283 1.16585,-0.201878 2.45507,-0.221718 3.77072,-0.200796 z"
   id="path11-8"
   style="fill:#000000"
   inkscape:connector-curvature="0" /><path
   d="m 145.37601,60.251027 c -1.75036,0.04239 -3.26439,0.43257 -5.29759,0.05982 -0.41877,1.479411 2.05647,2.338369 3.17885,1.239175 0.17485,0.794548 1.16159,1.037967 1.17777,1.942296 -2.03099,2.041648 -6.11194,0.817146 -7.07034,-1.220555 -0.67305,-1.421887 -0.28699,-3.527012 0.18116,-4.940469 1.8864,-5.688079 10.67816,-4.420942 7.83015,2.919731 z m -4.68288,-2.308645 c 1.14839,0.288411 1.9466,0.05467 2.81349,-0.07568 0.0281,-1.896685 -2.5382,-1.699163 -2.81349,0.07568 z"
   id="path13"
   style="fill:#000000"
   inkscape:connector-curvature="0" /><path
   d="m 137.10358,53.202708 c 0.32319,0.824649 0.60562,1.67572 0.73322,2.630189 -1.71946,0.213594 -3.56482,0.351561 -4.24059,1.819942 -0.81376,1.772003 0.33219,4.335261 -0.14208,6.347459 -1.10204,0.103481 -2.40051,-0.07931 -3.56332,-0.06991 0.0161,-3.569876 0.2451,-7.281769 0.41752,-10.959293 0.8971,-0.08237 1.84145,-0.10115 2.81287,-0.0758 0.50008,0.227318 0.16873,1.016229 0.33814,1.465055 1.302,-0.255778 1.78467,-1.727316 3.64424,-1.157641 z"
   id="path15-8"
   style="fill:#000000"
   inkscape:connector-curvature="0" /><path
   d="m 129.26745,54.324528 c -0.69186,3.289662 -2.48029,6.611303 -3.74734,9.690159 -0.8996,0.08189 -1.93817,-0.04137 -2.93424,-0.103257 -1.11411,-3.15441 -2.54183,-6.095018 -2.75008,-9.860708 0.88499,-0.106752 1.81338,-0.146767 2.69275,-0.25461 0.72901,1.547426 1.2356,3.246029 1.49578,5.109287 1.04293,-1.477429 1.6518,-3.598898 2.69573,-5.074836 0.94885,0.381833 1.94959,0.0093 2.5474,0.493965 z"
   id="path17"
   style="fill:#000000"
   inkscape:connector-curvature="0" /><g
   id="g3422"
   transform="translate(37.225707,51.395129)"><path
     inkscape:connector-curvature="0"
     style="fill:#000000"
     id="path9-7"
     d="m 81.922419,-2.6116535 c 1.687139,3.46975325 -3.982393,3.796842 -3.616509,1.0081831 0.203588,-1.5490488 2.218201,-1.9547648 3.616509,-1.0081831 z" /><path
     inkscape:connector-curvature="0"
     style="fill:#000000"
     id="path19"
     d="m 79.912109,12.546909 c -0.891253,0.212434 -2.115005,-0.368546 -2.996801,-0.58187 -0.345834,-2.5899565 0.600016,-6.0499301 0.99641,-9.1358685 0.902128,-0.141648 2.064989,0.1022777 2.963335,-0.046584 1.043386,2.3340818 -0.500307,6.4139568 -0.962944,9.7643215 z" /></g><path
   style="fill:#ffffff;fill-rule:evenodd"
   id="path3418"
   d="m 21.433344,0.88387687 c 0.03032,1.96328783 -0.02016,3.98413033 -0.05942,5.99697853 4.123051,0.1027842 7.218271,3.3623436 5.115917,7.1829276 -1.344013,2.443661 -5.661425,2.270667 -8.588515,2.192361 C 17.422245,11.499812 17.085967,6.6423352 17.768234,1.0582896 18.932383,0.91934407 20.015636,0.66602797 21.433341,0.88387687 z M 21.236997,13.33904 c 0.923033,0.09255 1.574815,-0.195731 2.281487,-0.406952 0.527752,-1.819436 -0.666902,-2.412117 -2.046368,-2.873171 -0.238379,1.206776 -0.02955,2.096154 -0.235119,3.280123 z"
   clip-rule="evenodd"
   inkscape:connector-curvature="0" /><path
   inkscape:connector-curvature="0"
   style="fill:#ffffff"
   id="path3420"
   d="m 32.938641,0.00601637 c 0.466833,2.41461403 0.03864,5.04019363 -0.06679,7.70581223 -0.101227,2.5550584 -0.103255,5.2556424 -0.533519,7.9010694 -0.968808,0.161501 -2.177452,-0.03684 -3.275745,-0.06427 -0.14545,-4.928713 -0.486125,-9.7261856 0.40964,-15.35802163 1.071756,-0.1855854 2.256938,-0.203825 3.46641,-0.1845911 z" /><g
   id="g3426"
   transform="matrix(0.99874494,-0.05008541,0.05008541,0.99874494,-42.301157,7.9013056)"
   style="fill:#ffffff"><path
     d="m 81.922419,-2.6116535 c 1.687139,3.46975325 -3.982393,3.796842 -3.616509,1.0081831 0.203588,-1.5490488 2.218201,-1.9547648 3.616509,-1.0081831 z"
     id="path3428"
     style="fill:#ffffff"
     inkscape:connector-curvature="0" /><path
     d="m 79.912109,12.546909 c -0.891253,0.212434 -2.115005,-0.368546 -2.996801,-0.58187 -0.345834,-2.5899565 0.600016,-6.0499301 0.99641,-9.1358685 0.902128,-0.141648 2.064989,0.1022777 2.963335,-0.046584 1.043386,2.3340818 -0.500307,6.4139568 -0.962944,9.7643215 z"
     id="path3430"
     style="fill:#ffffff"
     inkscape:connector-curvature="0" /></g><path
   style="fill:#000000;fill-rule:evenodd"
   inkscape:connector-curvature="0"
   clip-rule="evenodd"
   d="m 32.569952,77.508057 c -0.08,2.072 2.159,1.328 3.585,1.459 -0.024,0.666 0.813,0.836 0.555,1.639 -4.183,3.891 -8.948,-2.043 -6.702,-6.517 1.328,-2.646 8.093,-2.302 6.491,1.739 -0.458,1.15 -2.239,1.456 -3.929,1.68 z m 0.033,-1.979 c 0.326,0.57 0.998,0.007 1.686,0.203 0.131,-0.664 -0.14,-1.096 -0.911,-1.237 -0.22,0.415 -0.657,0.448 -0.775,1.034 z"
   id="path3587" /><path
   style="fill:#000000;fill-rule:evenodd"
   inkscape:connector-curvature="0"
   clip-rule="evenodd"
   d="m 27.919952,73.529057 c -0.104,0.387 -0.207,0.772 -0.311,1.159 -0.634,0.599 -2,-0.07 -2.458,0.832 1.103,2.042 5.187,2.361 3.039,6.28 -1.392,1.212 -3.278,1.564 -5.552,1.245 0.19,-0.763 -0.422,-1.062 0.034,-1.979 0.855,0.706 1.969,0.098 2.628,-0.538 0.183,-2.195 -3.195,-2.335 -3.597,-4.193 0.366,-3.687 3.601,-4.138 6.217,-2.806 z"
   id="path3589" /><path
   style="fill:#000000;fill-rule:evenodd"
   inkscape:connector-curvature="0"
   clip-rule="evenodd"
   d="m 20.344952,73.984057 c 0.294,0.549 -0.242,1.576 -0.39,2.38 -1.068,-0.38 -1.995,-0.515 -2.165,0.663 1.668,1.593 4.031,2.848 2.993,5.521 -0.72,1.855 -2.634,2.31 -5.551,1.246 0.166,-0.618 0.331,-1.236 0.497,-1.854 1.089,0.302 1.923,0.161 2.567,-0.308 -0.573,-2.109 -3.784,-2.052 -3.829,-4.255 -0.062,-2.955 2.859,-4.021 5.878,-3.393 z"
   id="path3591" /><path
   style="fill:#000000;fill-rule:evenodd"
   inkscape:connector-curvature="0"
   clip-rule="evenodd"
   d="m 13.319952,79.805057 c -1.602,-0.172 -2.794,0.365 -4.3140001,0.335 -0.208,2.036 2.7760001,1.471 4.1110001,1.349 0.178,0.42 0.034,1.025 0.385,1.347 -4.7380001,4.742 -9.2570002,-3.611 -5.2940001,-7.134 1.9440001,-1.729 7.5080001,-0.151 5.1120001,4.103 z m -3.292,-1.627 c 0.723,0.232 1.397,0.382 1.747,-0.03 -0.528,-0.218 -0.215,-0.919 -0.972,-1.005 -0.218,0.414 -0.656,0.448 -0.775,1.035 z"
   id="path3593" /><path
   style="fill:#000000;fill-rule:evenodd"
   inkscape:connector-curvature="0"
   clip-rule="evenodd"
   d="m 6.1949518,77.646057 c -3.599,-0.201 -3.538,3.694 -2.96,6.412 -1.259,-0.368 -1.773,0.552 -3.03100002,0.182 -0.122,-2.868 -0.278,-5.718 -0.438,-8.564 0.753,-0.166 1.66100002,-0.064 2.33500002,-0.369 0.59,0.183 0.088,0.995 0.679,1.177 1.042,-1.461 4.012,-1.488 3.415,1.162 z"
   id="path3595" /><path
   style="fill:#000000;fill-rule:evenodd"
   inkscape:connector-curvature="0"
   clip-rule="evenodd"
   d="m -5.5340482,86.182057 c 0.095,1.121 0.329,2.162 0.352,3.324 -0.753,0.958 -2.069,0.942 -3.279,1.109 0.063,-4.608 -0.577,-8.811 -1.237,-13.003 2.587,-0.385 6.683,-2.627 8.549,0.552 1.80699998,3.078 -1.004,7.713 -4.385,8.018 z m -0.81,-7.174 c 0.176,1.27 -0.179,2.846 0.753,3.68 1.991,-0.454 2.148,-4.236 -0.753,-3.68 z"
   id="path3597" /><path
   style="fill:#000000"
   inkscape:connector-curvature="0"
   d="m 95.117987,71.437174 c 4.563997,-1.105 7.895993,5.813 4.559997,8.88 -4.461997,4.103 -9.444997,-2.364 -7.439997,-6.72 0.399,-0.867 1.537,-1.835 2.88,-2.16 z m 2.161,6.24 c 0.191,-6.066 -5.092,1.152 0,0 l 0,0 z"
   id="path3671" /><path
   style="fill:#000000"
   inkscape:connector-curvature="0"
   d="m 78.077987,71.437174 c 2.371,3.95 4.178,8.461 5.76,13.199 -0.884,0.115 -2.519,2.09 -2.88,0.48 -2.549,4.821 -8.852,2.362 -9.601,-2.64 -0.491,-3.277 1.241,-7.489 5.04,-6.48 -0.314,-1.364 -1.068,-2.292 -1.439,-3.6 1.168,-0.191 2.3,-0.419 3.12,-0.959 z m -0.24,11.76 c 0.521,-1.176 0.148,-2.848 -0.24,-3.84 -4.233,-1.658 -3.561,5.479 0.24,3.84 z"
   id="path3673" /><path
   style="fill:#000000"
   inkscape:connector-curvature="0"
   d="m 91.517987,77.437174 c -1.87,0.77 -3.594,1.686 -5.28,2.64 0.699,2.654 4.197,0.453 5.76,-0.24 0.404,0.716 0.951,1.289 1.201,2.16 -4.394,7.229 -13.738,-1.012 -10.08,-7.439 1.806,-3.176 9.587,-3.161 8.399,2.879 z m -5.04,-0.24 c 0.772,-0.188 1.592,-0.329 2.16,-0.72 -0.08,-1.63 -2.738,-1.055 -2.16,0.72 z"
   id="path3675" /><path
   style="fill:#000000"
   inkscape:connector-curvature="0"
   d="m 65.597987,75.757174 c 3.847,-0.62 2.991,3.891 0.24,3.84 -2.052,-0.037 -3.675,-3.286 -0.24,-3.84 z"
   id="path3677" /><path
   style="fill:#000000"
   inkscape:connector-curvature="0"
   d="m 68.957987,80.077174 c 2.3,2.5 2.899,6.7 4.56,9.841 -0.653,1.106 -2.7,0.819 -4.08,1.199 -1.547,-2.933 -2.451,-6.509 -3.84,-9.601 0.665,-0.933 2.214,-0.984 3.36,-1.439 z"
   id="path3679" /><path
   style="fill:#000000"
   inkscape:connector-curvature="0"
   d="m 67.517987,93.037174 c -4.135,0.842 -6.559,-2.071 -9.36,-3.36 0.123,-1.478 0.911,-2.289 1.2,-3.601 1.253,0.507 2.407,1.113 3.601,1.681 -0.182,-2.06 -1.393,-3.088 -1.2,-5.521 1.286,0.013 2.659,-0.921 3.6,-0.48 0.778,3.701 2.172,6.789 2.159,11.281 z"
   id="path3681" /><path
   inkscape:connector-curvature="0"
   style="fill:#ffffff"
   id="path3696"
   d="m 80.662213,9.4898829 c -1.527314,0.6083171 -4.031729,1.5937191 -5.409632,1.4229631 -0.291707,2.050253 3.413926,1.642337 4.271261,0.854964 2.819839,2.940791 -2.333659,4.889064 -5.409631,3.698518 -5.774859,-3.137633 -1.069594,-16.5822642 5.976445,-9.6761495 0.156526,1.2688089 0.281035,2.566077 0.571557,3.6997044 z M 75.53836,8.3515123 C 76.437198,8.491437 76.54392,7.8392455 77.530508,8.0669197 77.477147,7.2665029 77.036028,6.8550293 76.109916,6.9285491 75.986593,7.4716467 75.29527,7.4431875 75.53836,8.3515123 z" /><path
   id="path3710"
   d="m 91.70625,20.21037 c 1.436576,-4.377256 2.198846,-9.17656 2.691406,-14.1473501 -0.88751,0.083784 -2.919566,-1.4797269 -2.914766,0.170242 -3.5541,-4.1361576 -9.155347,-0.3413552 -8.777107,4.7022491 0.24751,3.304323 2.869947,7.027701 6.350847,5.201808 -0.004,1.39967 -0.53346,2.471702 -0.60534,3.829399 1.18129,-0.07262 2.33567,-0.101178 3.25496,0.243652 z M 88.8658,8.7960337 c 0.76869,1.0312818 0.77554,2.7443683 0.61705,3.7976913 -3.76026,2.554942 -4.68677,-4.5535002 -0.61705,-3.7976913 z"
   inkscape:connector-curvature="0"
   style="fill:#ffffff" /><path
   style="fill-rule:evenodd;fill:#ffffff"
   inkscape:connector-curvature="0"
   clip-rule="evenodd"
   d="m 96.927055,14.611407 c -0.60004,-2.493498 -1.07074,-5.1163389 -1.28009,-8.0005305 0.51604,-0.657377 1.60411,-0.742716 2.880189,-0.6387091 0.94407,1.8281214 -0.58937,6.1364076 2.240146,6.0804036 2.04147,-0.626708 1.19875,-4.1349409 1.60011,-6.4004248 1.0014,0.065338 2.34949,-0.2160143 2.88019,0.3200212 -0.0853,3.3922254 0.028,6.5844376 0.32002,9.6006366 -0.98807,0.0067 -2.5095,1.472098 -2.56017,-0.320021 -1.96013,1.202747 -4.561636,0.909394 -6.080395,-0.641376 z"
   id="path3712" /><path
   style="fill:#ffffff"
   id="path3723"
   d="m 116.41068,10.251341 c -1.47945,0.589253 -3.90538,1.543775 -5.2401,1.378371 -0.28257,1.986002 3.30694,1.590869 4.13741,0.828171 2.73147,2.848632 -2.26053,4.735851 -5.24011,3.582615 -5.59388,-3.039308 -1.03607,-16.06261223 5.78916,-9.3729204 0.15162,1.2290471 0.27223,2.4856616 0.55364,3.5837634 z M 111.4474,9.1486446 c 0.87067,0.1355398 0.97405,-0.4962134 1.92972,-0.2756741 -0.0517,-0.7753335 -0.47898,-1.1739123 -1.37607,-1.1026965 -0.11946,0.5260781 -0.78912,0.4985107 -0.55365,1.3783706 z"
   inkscape:connector-curvature="0" /></svg>