<?xml version="1.0" encoding="UTF-8" standalone="no"?>
<!-- Generator: Adobe Illustrator 13.0.0, SVG Export Plug-In . SVG Version: 6.00 Build 14948)  -->

<svg
   xmlns:dc="http://purl.org/dc/elements/1.1/"
   xmlns:cc="http://creativecommons.org/ns#"
   xmlns:rdf="http://www.w3.org/1999/02/22-rdf-syntax-ns#"
   xmlns:svg="http://www.w3.org/2000/svg"
   xmlns="http://www.w3.org/2000/svg"
   xmlns:sodipodi="http://sodipodi.sourceforge.net/DTD/sodipodi-0.dtd"
   xmlns:inkscape="http://www.inkscape.org/namespaces/inkscape"
   version="1.1"
   id="Calque_1"
   x="0px"
   y="0px"
   width="50.120335"
   height="16.844048"
   viewBox="0 0 50.120334 16.844048"
   enable-background="new 0 0 66.064 13.739"
   xml:space="preserve"
   inkscape:version="0.48.2 r9819"
   sodipodi:docname="bibliographie.svg"><metadata
   id="metadata27"><rdf:RDF><cc:Work
       rdf:about=""><dc:format>image/svg+xml</dc:format><dc:type
         rdf:resource="http://purl.org/dc/dcmitype/StillImage" /><dc:title /></cc:Work></rdf:RDF></metadata><defs
   id="defs25">
		
		
		
		
		
		
		
	
	
	
	
	
	
	
	
	
	

	

	
	
	
	

	
	
	
	
	
	
	
	

	
	
	
	
	
	

	
	
	
	
	
	

	
	
	
	
	
	
	
	
	
</defs><sodipodi:namedview
   pagecolor="#ffffff"
   bordercolor="#666666"
   borderopacity="1"
   objecttolerance="10"
   gridtolerance="10"
   guidetolerance="10"
   inkscape:pageopacity="0"
   inkscape:pageshadow="2"
   inkscape:window-width="902"
   inkscape:window-height="644"
   id="namedview23"
   showgrid="false"
   inkscape:zoom="1.8837913"
   inkscape:cx="164.24892"
   inkscape:cy="48.927151"
   inkscape:window-x="342"
   inkscape:window-y="0"
   inkscape:window-maximized="0"
   inkscape:current-layer="Calque_1"
   fit-margin-top="0"
   fit-margin-left="0"
   fit-margin-right="0"
   fit-margin-bottom="0" />
<path
   inkscape:connector-curvature="0"
   style="fill:#000000"
   id="path5"
   d="m 156.91605,-98.469373 c 0.8901,0.94196 0.50053,3.16601 0.57772,4.92088 5.11868,-1.22057 8.13874,3.33606 6.36819,8.973359 -0.67662,0 -1.35083,0 -2.02624,0 -1.07222,-1.34118 -0.28705,-4.53854 -1.44732,-5.789269 -1.36892,-0.21106 -1.90322,0.41249 -2.60517,0.868389 -0.30876,2.54487 0.8503,4.77132 -0.57892,6.07994 -0.77191,0 -1.5426,0 -2.31571,0 -0.73693,-4.5699 -0.92628,-9.688579 -1.15785,-14.762629 1.32309,0.16282 1.80432,-0.5138 3.1853,-0.29067 z" /><path
   inkscape:connector-curvature="0"
   style="fill:#000000"
   id="path7"
   d="m 71.3838,-99.712164 c -0.053,0.907 -0.755,1.166 -0.96,1.92 -1.272,-0.075 -2.123,-1.21 -3.12,-0.24 1.01,2.634 4.644,2.097 3.84,5.76 -0.512,2.334 -4.489,3.396 -6.479,1.199 -0.106,-0.906 0.473,-1.127 0.72,-1.68 0.89,-0.027 1.405,1.113 2.16,0.479 0.553,0.074 0.267,-0.692 0.72,-0.719 -0.559,-2.25 -3.378,-1.968 -3.84,-3.841 -0.979,-3.960996 4.711,-5.506996 6.959,-2.878 z" /><path
   inkscape:connector-curvature="0"
   style="fill:#000000"
   id="path15"
   d="m 63.4648,-95.370573 c -1.288,0.513 -3.4,1.344 -4.562,1.2 -0.246,1.729 2.879,1.385 3.602,0.721 2.378,2.48 -1.968,4.123 -4.562,3.119 -4.87,-2.646 -0.902,-13.983997 5.04,-8.16 0.132,1.07 0.237,2.164 0.482,3.12 z m -4.321,-0.96 c 0.758,0.118 0.848,-0.432 1.68,-0.24 -0.045,-0.675 -0.417,-1.022 -1.198,-0.96 -0.104,0.458 -0.687,0.434 -0.482,1.2 z" />
<path
   id="path3111"
   d="m 124.36072,-118.59961 c 0.074,0.875 -0.038,1.562 -0.24,2.16 -0.48,0 -0.96,0 -1.44,0 -0.249,1.882 0.349,4.907 0.24,7.44 -1.022,-0.098 -2.472,0.232 -3.12,-0.24 0.178,-3.698 -0.439,-6.6 -0.479,-10.08 1.11,-0.095 2.746,-0.686 3.12,0.48 0.691,0.029 1.57,-0.131 1.919,0.24 z"
   clip-rule="evenodd"
   inkscape:connector-curvature="0"
   style="fill-rule:evenodd" /><path
   id="path3113"
   d="m 51.325606,1.3554983 c 0.365585,-0.14148 2.844442,-0.26638 3.153435,-0.04 0.169772,0.56733 0.480187,3.37707 0.480187,3.85951 0.981763,0.0784 2.147792,0.0303 2.893428,0.28947 0.169771,0.8633 0,2.12273 0,3.18409 -1.345621,0.072 -1.299159,0.0635 -2.603964,0.28947 -0.06272,1.7066197 0.270988,4.7273597 0,7.1827097 -1.148205,0.14731 -2.77523,0.26534 -3.474766,-0.28947 0.136288,-4.67 -0.492007,-13.9716797 -0.44832,-14.4757597 z"
   clip-rule="evenodd"
   inkscape:connector-curvature="0"
   style="fill:#000000;fill-rule:evenodd"
   sodipodi:nodetypes="ccccccccc" /><path
   id="path3115"
   d="m 103.24072,-116.91961 c 0,0.56 0,1.12 0,1.68 -1.719,0.656 -4.224,1.046 -3.84,3.12 0.215,1.16 1.572,1.552 3.36,1.68 0.191,0.769 0.709,1.211 0.72,2.16 -3.098,1.481 -6.389,-0.308 -6.72,-3.36 -0.361,-3.336 2.346,-6.249 6.48,-5.28 z"
   clip-rule="evenodd"
   inkscape:connector-curvature="0"
   style="fill-rule:evenodd" /><path
   id="path3117"
   d="m 118.12072,-115.95961 c 0.45,1.87 0.803,3.837 0.96,6 -0.387,0.493 -1.203,0.557 -2.16,0.479 -0.708,-1.371 0.442,-4.602 -1.68,-4.56 -1.531,0.47 -0.899,3.101 -1.2,4.8 -0.751,-0.049 -1.762,0.162 -2.16,-0.24 0.064,-2.544 -0.021,-4.938 -0.24,-7.2 0.741,-0.005 1.882,-1.104 1.92,0.24 1.47,-0.902 3.421,-0.682 4.56,0.481 z"
   clip-rule="evenodd"
   inkscape:connector-curvature="0"
   style="fill-rule:evenodd" /><path
   id="path3119"
   d="m 132.28072,-116.67961 c 0.546,2.415 0.09,5.83 0.24,8.641 -1.24,-0.041 -2.956,0.395 -2.641,-1.2 -4.432,3.443 -8.594,-2.355 -6,-6 0.978,-1.374 3.545,-1.924 5.76,-0.96 0.563,-0.479 1.528,-0.554 2.641,-0.481 z m -6.48,4.8 c 0.283,0.358 0.603,0.678 0.96,0.961 1.911,0.33 2.637,-1.327 2.16,-2.641 -1.136,-1.085 -3.562,-0.303 -3.12,1.68 z"
   clip-rule="evenodd"
   inkscape:connector-curvature="0"
   style="fill-rule:evenodd" /><path
   id="path3121"
   d="m 109.48072,-116.19961 c 2.931,2.122 2.242,8.073 -1.68,8.16 -5.563,0.122 -5.664,-10.416 1.68,-8.16 z m -3.12,4.8 c 2.297,2.732 4.199,-3.29 0.96,-2.4 -1.086,0.034 -0.965,1.275 -0.96,2.4 z"
   clip-rule="evenodd"
   inkscape:connector-curvature="0"
   style="fill-rule:evenodd" /><path
   id="path3123"
   d="m 138.04072,-115.95961 c 0.282,1.962 -1.461,1.899 -2.4,2.64 -0.422,2.582 1.367,2.953 3.12,3.36 -0.173,0.733 0.246,0.874 0.24,1.439 -4.583,1.605 -7.416,-3.052 -5.28,-6.72 1.279,-0.853 2.382,-0.925 4.32,-0.719 z"
   clip-rule="evenodd"
   inkscape:connector-curvature="0"
   style="fill-rule:evenodd" /><path
   inkscape:connector-curvature="0"
   d="m 28.31416,-72.249164 c 0.738,0.781 0.415,2.625 0.479,4.08 4.244,-1.012 6.748,2.766 5.28,7.44 -0.561,0 -1.12,0 -1.68,0 -0.889,-1.112 -0.238,-3.763 -1.2,-4.8 -1.135,-0.175 -1.578,0.342 -2.16,0.72 -0.256,2.11 0.705,3.956 -0.48,5.041 -0.64,0 -1.279,0 -1.92,0 -0.611,-3.789 -0.768,-8.033 -0.96,-12.24 1.097,0.135 1.496,-0.426 2.641,-0.241 z"
   id="path3142"
   style="fill:#000000" /><path
   inkscape:connector-curvature="0"
   d="m 152.83771,-94.08171 c -0.053,0.907 -0.755,1.166 -0.96,1.92 -1.272,-0.075 -2.123,-1.21 -3.12,-0.24 1.01,2.634 4.644,2.097 3.84,5.76 -0.512,2.334 -4.489,3.396 -6.479,1.199 -0.106,-0.906 0.473,-1.127 0.72,-1.68 0.89,-0.027 1.405,1.113 2.16,0.479 0.553,0.074 0.267,-0.692 0.72,-0.719 -0.559,-2.25 -3.378,-1.968 -3.84,-3.841 -0.979,-3.961 4.711,-5.507 6.959,-2.878 z"
   id="path3144"
   style="fill:#000000" /><path
   inkscape:connector-curvature="0"
   d="m 3.1141599,-68.889164 c -0.67,-0.305 -1.187,-0.592 -1.92,-0.24 -0.556,0.565 -1.001,1.239 -0.96,2.4 0.284,0.436 1.251,0.189 1.68,0.48 0.128,0.929 -0.428,1.172 -0.24,2.16 -0.575,0.146 -1.095,0.346 -1.92,0.24 0.188,1.547 -0.355,2.363 -0.24,3.84 -0.88,0 -1.76,0 -2.64,0 0.264,-4.259 -0.27,-13.171 5.28,-11.76 1.144,0.291 1.894,1.441 0.96,2.88 z"
   id="path3146"
   style="fill:#000000" /><path
   inkscape:connector-curvature="0"
   d="m 12.71416,-70.569164 c 2.155,-2.585 4.522,2.508 0.96,2.4 -0.697,-0.422 -1.133,-1.106 -0.96,-2.4 z"
   id="path3148"
   style="fill:#000000" /><path
   inkscape:connector-curvature="0"
   d="m 192.62751,-94.461055 c -2.32336,-1.118999 -3.97319,0.548163 -3.84115,2.880856 0.0253,1.148341 2.09129,0.254742 2.56076,0.960285 0.17072,1.237702 -0.57217,1.563131 -0.32009,2.880856 -1.01097,-0.157379 -1.13234,0.577506 -2.24067,0.318763 -0.16405,2.101957 0.29742,3.745112 0,5.122854 -1.52845,-0.249407 -2.06061,0.500149 -3.52238,0.318763 -0.82024,-6.854038 -1.20569,-20.250022 7.68228,-15.364567 0.6642,1.177683 -0.084,1.772527 -0.31875,2.88219 z"
   id="path3150"
   style="fill:#000000" /><path
   inkscape:connector-curvature="0"
   d="m 43.19516,-65.529164 c -1.288,0.513 -3.4,1.344 -4.562,1.2 -0.246,1.729 2.879,1.385 3.602,0.721 2.378,2.48 -1.968,4.123 -4.562,3.119 -4.87,-2.646 -0.902,-13.984 5.04,-8.16 0.132,1.07 0.237,2.164 0.482,3.12 z m -4.321,-0.96 c 0.758,0.118 0.848,-0.432 1.68,-0.24 -0.045,-0.675 -0.417,-1.022 -1.198,-0.96 -0.104,0.458 -0.687,0.434 -0.482,1.2 z"
   id="path3152"
   style="fill:#000000" /><path
   inkscape:connector-curvature="0"
   d="m -5.2858401,-69.129164 c 0.054,3.093 -0.064,6.016 -0.48,8.639 -2.039,-0.889 -3.253004,0.262 -5.2800039,0 -2.932,-0.377 -5.149,-4.497 -3.12,-7.679 1.872,-2.935 5.5189999,-0.79 8.8800039,-0.96 z m -4.560004,1.92 c -2.5999999,-1.141 -2.8989999,4.01 -0.2399999,3.84 1.3329999,-0.601 1.0099999,-2.865 0.2399999,-3.84 z"
   id="path3154"
   style="fill:#000000" /><path
   inkscape:connector-curvature="0"
   d="m 23.27416,-66.249164 c -0.313,1.671 -3.232,0.484 -3.12,2.64 0.073,1.41 1.458,1.75 3.359,0.961 0.129,0.832 0.643,1.277 0.721,2.158 -2.87,2.293 -6.852,0.427 -7.2,-2.639 -0.394,-3.456 3.882,-6.715 6.24,-3.12 z"
   id="path3156"
   style="fill:#000000" /><path
   inkscape:connector-curvature="0"
   d="m 12.71416,-67.209164 c 1.167,-0.046 2.294,-0.055 2.88,0.48 -0.021,2.539 0.119,5.239 -0.239,7.44 -1.261,0.141 -1.817,-0.424 -3.12,-0.24 0.258,-2.461 0.197,-5.242 0.479,-7.68 z"
   id="path3158"
   style="fill:#000000" /><path
   d="m 39.81689,-95.370573 c -1.288,0.513 -3.4,1.344 -4.562,1.2 -0.246,1.729 2.879,1.385 3.602,0.721 2.378,2.48 -1.968,4.123 -4.562,3.119 -4.87,-2.646 -0.902,-13.983997 5.04,-8.16 0.132,1.07 0.237,2.164 0.482,3.12 z m -4.321,-0.96 c 0.758,0.118 0.848,-0.432 1.68,-0.24 -0.045,-0.675 -0.417,-1.022 -1.198,-0.96 -0.104,0.458 -0.687,0.434 -0.482,1.2 z"
   id="path3170"
   style="fill:#000000"
   inkscape:connector-curvature="0" /><path
   style="fill-rule:evenodd"
   inkscape:connector-curvature="0"
   clip-rule="evenodd"
   d="m 47.552356,-97.942156 c 0.45,1.87 0.803,3.837 0.96,6.000001 -0.387,0.493 -1.203,0.557 -2.16,0.479 -0.708,-1.371 0.442,-4.602001 -1.68,-4.560001 -1.531,0.47 -0.899,3.101001 -1.2,4.800001 -0.751,-0.049 -1.762,0.162 -2.16,-0.24 0.064,-2.544001 -0.021,-4.938001 -0.24,-7.200001 0.741,-0.005 1.882,-1.104 1.92,0.24 1.47,-0.902 3.421,-0.682 4.56,0.481 z"
   id="path3179" /><path
   id="path3181"
   d="m 53.08897,-97.942156 c 0.45,1.87 0.803,3.837 0.96,6.000001 -0.387,0.493 -1.203,0.557 -2.16,0.479 -0.708,-1.371 0.442,-4.602001 -1.68,-4.560001 -1.531,0.47 -0.899,3.101001 -1.2,4.800001 -0.751,-0.049 -1.762,0.162 -2.16,-0.24 -1.20573,-1.597344 0.02329,-3.966065 0.366227,-6.209273 1.47,-0.902 4.734773,-1.432728 5.873773,-0.269728 z"
   clip-rule="evenodd"
   inkscape:connector-curvature="0"
   style="fill-rule:evenodd"
   sodipodi:nodetypes="cccccccc" /><path
   inkscape:connector-curvature="0"
   clip-rule="evenodd"
   d="m 3.5855089,1.0989883 c 0.355303,1.93111 0.640455,3.93237 0.93535,5.92389 4.083062,-0.582 7.6757151,2.11948 6.2356661,6.2356597 -0.9204101,2.63263 -5.2067811,3.1776 -8.1063661,3.58551 C 1.3893849,12.232908 0.2526749,7.4983483 -1.035356e-7,1.8784483 1.1250189,1.5484783 2.1513049,1.1191283 3.5855089,1.0989883 z m 1.8707,12.3154497 c 0.925606,-0.0617 1.520593,-0.45404 2.182483,-0.77946 0.218898,-1.88174 -1.057465,-2.26823 -2.494267,-2.49427 -0.03507,1.2296 0.318279,2.07206 0.311784,3.27373 z"
   id="path5-1"
   style="fill:#ffffff;fill-rule:evenodd" /><path
   inkscape:connector-curvature="0"
   clip-rule="evenodd"
   d="M 45.285062,5.7665683 C 52.069598,5.2943483 51.531771,16.654298 44.817387,16.367198 39.435228,16.136608 39.387161,6.1764283 45.285062,5.7665683 z m 0.936,3.27372 c -3.060673,-1.59594 -3.702427,5.1015597 0.155242,3.5855097 0.971725,-0.8626 0.759972,-3.1087397 -0.155242,-3.5855097 z"
   id="path9"
   style="fill:#ffffff;fill-rule:evenodd" /><g
   id="g3414"
   transform="matrix(0.99426771,-0.10691923,0.10691923,0.99426771,-74.787554,-21.85396)"
   style="fill:#ffffff"><path
     style="fill:#ffffff;fill-rule:evenodd"
     id="path7-3"
     d="m 86.843553,35.055036 c 2.157151,3.109389 -3.43936,3.938863 -2.650158,0.779458 0.222145,-0.889881 1.529686,-1.382239 2.650158,-0.779458 z"
     clip-rule="evenodd"
     inkscape:connector-curvature="0" /><path
     style="fill:#ffffff;fill-rule:evenodd"
     id="path11"
     d="m 86.999444,39.420002 c -0.156541,2.304599 -0.396224,5.825802 -1.247133,7.950475 -1.063311,-0.140302 -2.323435,0.220847 -2.961941,0 0.01364,-3.155507 0.386481,-5.953113 1.091241,-8.418149 1.167239,0.02793 2.34552,0.04482 3.117833,0.467674 z"
     clip-rule="evenodd"
     inkscape:connector-curvature="0" /></g><path
   d="m 245.57512,-47.074315 c -1.51867,0.163821 -1.96791,-0.562206 0,0 l 0,0 z"
   id="path5-13"
   style="fill:#000000"
   inkscape:connector-curvature="0" /><path
   d="m 182.18686,-98.213389 c 0.44722,2.313168 0.037,4.828437 -0.0639,7.382064 -0.097,2.447711 -0.0989,5.034834 -0.5111,7.569117 -0.92811,0.154716 -2.08597,-0.0353 -3.13812,-0.06157 -0.13934,-4.721641 -0.4657,-9.317554 0.39243,-14.712777 1.02673,-0.177788 2.16211,-0.195261 3.32077,-0.176835 z"
   id="path11-8"
   style="fill:#000000"
   inkscape:connector-curvature="0" /><path
   d="m 237.34011,-39.595675 c -1.75036,0.04239 -3.26439,0.43257 -5.29759,0.05982 -0.41877,1.479411 2.05647,2.338369 3.17885,1.239175 0.17485,0.794548 1.16159,1.037967 1.17777,1.942296 -2.03099,2.041648 -6.11194,0.817146 -7.07034,-1.220555 -0.67305,-1.421887 -0.28699,-3.527012 0.18116,-4.940469 1.8864,-5.688079 10.67816,-4.420942 7.83015,2.919731 z m -4.68288,-2.308645 c 1.14839,0.288411 1.9466,0.05467 2.81349,-0.07568 0.0281,-1.896685 -2.5382,-1.699163 -2.81349,0.07568 z"
   id="path13"
   style="fill:#000000"
   inkscape:connector-curvature="0" /><path
   d="m 229.06768,-46.643994 c 0.32319,0.824649 0.60562,1.67572 0.73322,2.630189 -1.71946,0.213594 -3.56482,0.351561 -4.24059,1.819942 -0.81376,1.772003 0.33219,4.335261 -0.14208,6.347459 -1.10204,0.103481 -2.40051,-0.07931 -3.56332,-0.06991 0.0161,-3.569876 0.2451,-7.281769 0.41752,-10.959293 0.8971,-0.08237 1.84145,-0.10115 2.81287,-0.0758 0.50008,0.227318 0.16873,1.016229 0.33814,1.465055 1.302,-0.255778 1.78467,-1.727316 3.64424,-1.157641 z"
   id="path15-8"
   style="fill:#000000"
   inkscape:connector-curvature="0" /><path
   d="m 221.23155,-45.522174 c -0.69186,3.289662 -2.48029,6.611303 -3.74734,9.690159 -0.8996,0.08189 -1.93817,-0.04137 -2.93424,-0.103257 -1.11411,-3.15441 -2.54183,-6.095018 -2.75008,-9.860708 0.88499,-0.106752 1.81338,-0.146767 2.69275,-0.25461 0.72901,1.547426 1.2356,3.246029 1.49578,5.109287 1.04293,-1.477429 1.6518,-3.598898 2.69573,-5.074836 0.94885,0.381833 1.94959,0.0093 2.5474,0.493965 z"
   id="path17"
   style="fill:#000000"
   inkscape:connector-curvature="0" /><g
   id="g3422"
   transform="translate(129.1898,-48.451573)"><path
     inkscape:connector-curvature="0"
     style="fill:#000000"
     id="path9-7"
     d="m 81.922419,-2.6116535 c 1.687139,3.46975325 -3.982393,3.796842 -3.616509,1.0081831 0.203588,-1.5490488 2.218201,-1.9547648 3.616509,-1.0081831 z" /><path
     inkscape:connector-curvature="0"
     style="fill:#000000"
     id="path19"
     d="m 79.912109,12.546909 c -0.891253,0.212434 -2.115005,-0.368546 -2.996801,-0.58187 -0.345834,-2.5899565 0.600016,-6.0499301 0.99641,-9.1358685 0.902128,-0.141648 2.064989,0.1022777 2.963335,-0.046584 1.043386,2.3340818 -0.500307,6.4139568 -0.962944,9.7643215 z" /></g><path
   style="fill:#ffffff;fill-rule:evenodd"
   id="path3418"
   d="m 21.433345,0.88390827 c 0.03032,1.96329003 -0.02016,3.98413003 -0.05942,5.99698003 4.123051,0.10278 7.218271,3.3623397 5.115917,7.1829197 -1.344013,2.44367 -5.661425,2.27067 -8.588515,2.19237 C 17.422246,11.499838 17.085968,6.6423683 17.768235,1.0583183 18.932384,0.91937827 20.015637,0.66605827 21.433342,0.88390827 z M 21.236998,13.339068 c 0.923033,0.0925 1.574815,-0.19573 2.281487,-0.40695 0.527752,-1.81944 -0.666902,-2.41212 -2.046368,-2.87317 -0.238379,1.20677 -0.02955,2.09615 -0.235119,3.28012 z"
   clip-rule="evenodd"
   inkscape:connector-curvature="0" /><path
   inkscape:connector-curvature="0"
   style="fill:#ffffff"
   id="path3420"
   d="m 32.938642,0.00604627 c 0.466833,2.41461203 0.03864,5.04019203 -0.06679,7.70581203 -0.101227,2.5550597 -0.103255,5.2556397 -0.533519,7.9010697 -0.968808,0.1615 -2.177452,-0.0368 -3.275745,-0.0643 -0.14545,-4.92871 -0.486125,-9.7261897 0.40964,-15.35801973 1.071756,-0.185587 2.256938,-0.203827 3.46641,-0.184593 z" /><g
   id="g3426"
   transform="matrix(0.99874494,-0.05008541,0.05008541,0.99874494,-42.301154,7.9013383)"
   style="fill:#ffffff"><path
     d="m 81.922419,-2.6116535 c 1.687139,3.46975325 -3.982393,3.796842 -3.616509,1.0081831 0.203588,-1.5490488 2.218201,-1.9547648 3.616509,-1.0081831 z"
     id="path3428"
     style="fill:#ffffff"
     inkscape:connector-curvature="0" /><path
     d="m 79.912109,12.546909 c -0.891253,0.212434 -2.115005,-0.368546 -2.996801,-0.58187 -0.345834,-2.5899565 0.600016,-6.0499301 0.99641,-9.1358685 0.902128,-0.141648 2.064989,0.1022777 2.963335,-0.046584 1.043386,2.3340818 -0.500307,6.4139568 -0.962944,9.7643215 z"
     id="path3430"
     style="fill:#ffffff"
     inkscape:connector-curvature="0" /></g><path
   style="fill:#000000;fill-rule:evenodd"
   inkscape:connector-curvature="0"
   clip-rule="evenodd"
   d="m 124.53405,-22.338645 c -0.08,2.072 2.159,1.328 3.585,1.459 -0.024,0.666 0.813,0.836 0.555,1.639 -4.183,3.891 -8.948,-2.043 -6.702,-6.517 1.328,-2.646 8.093,-2.302 6.491,1.739 -0.458,1.15 -2.239,1.456 -3.929,1.68 z m 0.033,-1.979 c 0.326,0.57 0.998,0.007 1.686,0.203 0.131,-0.664 -0.14,-1.096 -0.911,-1.237 -0.22,0.415 -0.657,0.448 -0.775,1.034 z"
   id="path3587" /><path
   style="fill:#000000;fill-rule:evenodd"
   inkscape:connector-curvature="0"
   clip-rule="evenodd"
   d="m 119.88405,-26.317645 c -0.104,0.387 -0.207,0.772 -0.311,1.159 -0.634,0.599 -2,-0.07 -2.458,0.832 1.103,2.042 5.187,2.361 3.039,6.28 -1.392,1.212 -3.278,1.564 -5.552,1.245 0.19,-0.763 -0.422,-1.062 0.034,-1.979 0.855,0.706 1.969,0.098 2.628,-0.538 0.183,-2.195 -3.195,-2.335 -3.597,-4.193 0.366,-3.687 3.601,-4.138 6.217,-2.806 z"
   id="path3589" /><path
   style="fill:#000000;fill-rule:evenodd"
   inkscape:connector-curvature="0"
   clip-rule="evenodd"
   d="m 112.30905,-25.862645 c 0.294,0.549 -0.242,1.576 -0.39,2.38 -1.068,-0.38 -1.995,-0.515 -2.165,0.663 1.668,1.593 4.031,2.848 2.993,5.521 -0.72,1.855 -2.634,2.31 -5.551,1.246 0.166,-0.618 0.331,-1.236 0.497,-1.854 1.089,0.302 1.923,0.161 2.567,-0.308 -0.573,-2.109 -3.784,-2.052 -3.829,-4.255 -0.062,-2.955 2.859,-4.021 5.878,-3.393 z"
   id="path3591" /><path
   style="fill:#000000;fill-rule:evenodd"
   inkscape:connector-curvature="0"
   clip-rule="evenodd"
   d="m 105.28405,-20.041645 c -1.602,-0.172 -2.794,0.365 -4.314,0.335 -0.208,2.036 2.776,1.471 4.111,1.349 0.178,0.42 0.034,1.025 0.385,1.347 -4.738,4.742 -9.257002,-3.611 -5.294,-7.134 1.944,-1.729 7.508,-0.151 5.112,4.103 z m -3.292,-1.627 c 0.723,0.232 1.397,0.382 1.747,-0.03 -0.528,-0.218 -0.215,-0.919 -0.972,-1.005 -0.218,0.414 -0.656,0.448 -0.775,1.035 z"
   id="path3593" /><path
   style="fill:#000000;fill-rule:evenodd"
   inkscape:connector-curvature="0"
   clip-rule="evenodd"
   d="m 98.159048,-22.200645 c -3.599,-0.201 -3.538,3.694 -2.96,6.412 -1.259,-0.368 -1.773,0.552 -3.031,0.182 -0.122,-2.868 -0.278,-5.718 -0.438,-8.564 0.753,-0.166 1.661,-0.064 2.335,-0.369 0.59,0.183 0.088,0.995 0.679,1.177 1.042,-1.461 4.012,-1.488 3.415,1.162 z"
   id="path3595" /><path
   style="fill:#000000;fill-rule:evenodd"
   inkscape:connector-curvature="0"
   clip-rule="evenodd"
   d="m 86.430048,-13.664645 c 0.095,1.121 0.329,2.162 0.352,3.324 -0.753,0.9580003 -2.069,0.9420003 -3.279,1.1090003 0.063,-4.6080003 -0.577,-8.8110003 -1.237,-13.0030003 2.587,-0.385 6.683,-2.627 8.549,0.552 1.807,3.078 -1.004,7.713 -4.385,8.018 z m -0.81,-7.174 c 0.176,1.27 -0.179,2.846 0.753,3.68 1.991,-0.454 2.148,-4.236 -0.753,-3.68 z"
   id="path3597" /><path
   style="fill:#000000"
   inkscape:connector-curvature="0"
   d="m 187.08208,-28.409528 c 4.564,-1.105 7.896,5.813 4.56,8.88 -4.462,4.103 -9.445,-2.364 -7.44,-6.72 0.399,-0.867 1.537,-1.835 2.88,-2.16 z m 2.161,6.24 c 0.191,-6.066 -5.092,1.152 0,0 l 0,0 z"
   id="path3671" /><path
   style="fill:#000000"
   inkscape:connector-curvature="0"
   d="m 170.04208,-28.409528 c 2.371,3.95 4.178,8.461 5.76,13.199 -0.884,0.115 -2.519,2.09 -2.88,0.48 -2.549,4.8210003 -8.852,2.362 -9.601,-2.64 -0.491,-3.277 1.241,-7.489 5.04,-6.48 -0.314,-1.364 -1.068,-2.292 -1.439,-3.6 1.168,-0.191 2.3,-0.419 3.12,-0.959 z m -0.24,11.76 c 0.521,-1.176 0.148,-2.848 -0.24,-3.84 -4.233,-1.658 -3.561,5.479 0.24,3.84 z"
   id="path3673" /><path
   style="fill:#000000"
   inkscape:connector-curvature="0"
   d="m 183.48208,-22.409528 c -1.87,0.77 -3.594,1.686 -5.28,2.64 0.699,2.654 4.197,0.453 5.76,-0.24 0.404,0.716 0.951,1.289 1.201,2.16 -4.394,7.229 -13.738,-1.012 -10.08,-7.439 1.806,-3.176 9.587,-3.161 8.399,2.879 z m -5.04,-0.24 c 0.772,-0.188 1.592,-0.329 2.16,-0.72 -0.08,-1.63 -2.738,-1.055 -2.16,0.72 z"
   id="path3675" /><path
   style="fill:#000000"
   inkscape:connector-curvature="0"
   d="m 157.56208,-24.089528 c 3.847,-0.62 2.991,3.891 0.24,3.84 -2.052,-0.037 -3.675,-3.286 -0.24,-3.84 z"
   id="path3677" /><path
   style="fill:#000000"
   inkscape:connector-curvature="0"
   d="m 160.92208,-19.769528 c 2.3,2.5 2.899,6.7 4.56,9.8410003 -0.653,1.106 -2.7,0.819 -4.08,1.199 -1.547,-2.9330003 -2.451,-6.5090003 -3.84,-9.6010003 0.665,-0.933 2.214,-0.984 3.36,-1.439 z"
   id="path3679" /><path
   style="fill:#000000"
   inkscape:connector-curvature="0"
   d="m 159.48208,-6.8095277 c -4.135,0.842 -6.559,-2.071 -9.36,-3.3600003 0.123,-1.478 0.911,-2.289 1.2,-3.601 1.253,0.507 2.407,1.113 3.601,1.681 -0.182,-2.06 -1.393,-3.088 -1.2,-5.521 1.286,0.013 2.659,-0.921 3.6,-0.48 0.778,3.701 2.172,6.789 2.159,11.2810003 z"
   id="path3681" /><path
   inkscape:connector-curvature="0"
   style="fill:#000000"
   id="path3696"
   d="m 175.25385,-89.606096 c -1.52731,0.60832 -4.03172,1.59372 -5.40963,1.42297 -0.2917,2.05025 3.41393,1.64233 4.27126,0.85496 2.81984,2.94079 -2.33366,4.88907 -5.40963,3.69852 -5.77486,-3.13763 -1.06959,-16.582264 5.97645,-9.67615 0.15652,1.26881 0.28103,2.56608 0.57155,3.6997 z m -5.12385,-1.13837 c 0.89884,0.13993 1.00556,-0.51226 1.99215,-0.28459 -0.0534,-0.80042 -0.49448,-1.21189 -1.42059,-1.13837 -0.12333,0.5431 -0.81465,0.51464 -0.57156,1.42296 z" /><path
   id="path3710"
   d="m 91.706251,20.210398 c 1.436576,-4.37725 2.198846,-9.17656 2.691406,-14.1473497 -0.88751,0.0838 -2.919566,-1.47973 -2.914766,0.17024 -3.5541,-4.13615 -9.155347,-0.34135 -8.777107,4.7022497 0.24751,3.30433 2.869947,7.0277 6.350847,5.20181 -0.004,1.39967 -0.53346,2.4717 -0.60534,3.8294 1.18129,-0.0726 2.33567,-0.10118 3.25496,0.24365 z M 88.865801,8.7960683 c 0.76869,1.03128 0.77554,2.7443597 0.61705,3.7976897 -3.76026,2.55494 -4.68677,-4.5534997 -0.61705,-3.7976897 z"
   inkscape:connector-curvature="0"
   style="fill:#000000" /><path
   style="fill:#000000;fill-rule:evenodd"
   inkscape:connector-curvature="0"
   clip-rule="evenodd"
   d="m 96.927056,14.611438 c -0.60004,-2.4935 -1.07074,-5.1163397 -1.28009,-8.0005297 0.51604,-0.65738 1.60411,-0.74272 2.880189,-0.63871 0.94407,1.82812 -0.58937,6.1364097 2.240145,6.0803997 2.04147,-0.62671 1.19875,-4.1349397 1.60011,-6.4004197 1.0014,0.0653 2.34949,-0.21602 2.88019,0.32002 -0.0853,3.39222 0.028,6.5844397 0.32002,9.6006397 -0.98807,0.007 -2.5095,1.47209 -2.56017,-0.32003 -1.96013,1.20275 -4.561635,0.9094 -6.080394,-0.64137 z"
   id="path3712" /><path
   style="fill:#000000"
   id="path3723"
   d="m 116.41068,10.251368 c -1.47945,0.58926 -3.90538,1.54378 -5.2401,1.37837 -0.28257,1.98601 3.30694,1.59087 4.13741,0.82817 2.73147,2.84864 -2.26053,4.73586 -5.24011,3.58262 -5.59388,-3.03931 -1.03607,-16.06261273 5.78916,-9.3729197 0.15162,1.22905 0.27223,2.48566 0.55364,3.5837597 z M 111.4474,9.1486783 c 0.87067,0.13554 0.97405,-0.49622 1.92972,-0.27568 -0.0517,-0.77533 -0.47898,-1.17391 -1.37607,-1.10269 -0.11946,0.52607 -0.78912,0.49851 -0.55365,1.37837 z"
   inkscape:connector-curvature="0" /></svg>