<?xml version="1.0" encoding="utf-8"?>
<!-- Generator: Adobe Illustrator 13.0.0, SVG Export Plug-In . SVG Version: 6.00 Build 14948)  -->
<!DOCTYPE svg PUBLIC "-//W3C//DTD SVG 1.1//EN" "http://www.w3.org/Graphics/SVG/1.1/DTD/svg11.dtd">
<svg version="1.1"
	 id="Calque_1" sodipodi:docname="bio.svg" inkscape:version="0.48.2 r9819" xmlns:svg="http://www.w3.org/2000/svg" xmlns:sodipodi="http://sodipodi.sourceforge.net/DTD/sodipodi-0.dtd" xmlns:inkscape="http://www.inkscape.org/namespaces/inkscape" xmlns:dc="http://purl.org/dc/elements/1.1/" xmlns:cc="http://creativecommons.org/ns#" xmlns:rdf="http://www.w3.org/1999/02/22-rdf-syntax-ns#"
	 xmlns="http://www.w3.org/2000/svg" xmlns:xlink="http://www.w3.org/1999/xlink" x="0px" y="0px" width="86.996px"
	 height="62.997px" viewBox="0 0 86.996 62.997" enable-background="new 0 0 86.996 62.997" xml:space="preserve">
<sodipodi:namedview  id="namedview13" inkscape:current-layer="Calque_1" inkscape:window-y="0" inkscape:window-x="0" inkscape:cy="31.498501" inkscape:cx="43.497501" inkscape:zoom="3.74621" showgrid="false" inkscape:window-height="480" inkscape:window-width="640" inkscape:pageshadow="2" inkscape:pageopacity="0" guidetolerance="10" gridtolerance="10" pagecolor="#ffffff" bordercolor="#666666" borderopacity="1" objecttolerance="10" inkscape:window-maximized="0">
	</sodipodi:namedview>
<g id="g3">
	<path id="path5" d="M24.788,17.321c0.547,2.973,0.986,6.054,1.44,9.12c6.286-0.896,11.817,3.263,9.6,9.601
		c-1.417,4.053-8.016,4.892-12.48,5.52c-1.941-7.1-3.691-14.388-4.08-23.04C21,18.013,22.58,17.352,24.788,17.321z M27.668,36.282
		c1.425-0.096,2.341-0.699,3.36-1.201c0.337-2.896-1.628-3.492-3.84-3.839C27.134,33.133,27.678,34.431,27.668,36.282z"/>
	<path id="path7" d="M43.268,23.321c3.321,4.787-5.295,6.063-4.08,1.2C39.53,23.151,41.543,22.393,43.268,23.321z"/>
	<path id="path9" d="M52.869,28.841c10.444-0.727,9.616,16.762-0.721,16.32C43.862,44.806,43.788,29.472,52.869,28.841z
		 M54.309,33.881c-4.712-2.458-5.7,7.854,0.239,5.52C56.044,38.073,55.718,34.616,54.309,33.881z"/>
	<path id="path11" d="M43.508,30.041c-0.241,3.547-0.61,8.969-1.92,12.241c-1.637-0.217-3.577,0.34-4.56,0
		c0.021-4.859,0.595-9.166,1.68-12.96C40.505,29.364,42.319,29.39,43.508,30.041z"/>
</g>
</svg>
