<?xml version="1.0" encoding="UTF-8" standalone="no"?>
<!-- Generator: Adobe Illustrator 13.0.0, SVG Export Plug-In . SVG Version: 6.00 Build 14948)  -->

<svg
   xmlns:dc="http://purl.org/dc/elements/1.1/"
   xmlns:cc="http://creativecommons.org/ns#"
   xmlns:rdf="http://www.w3.org/1999/02/22-rdf-syntax-ns#"
   xmlns:svg="http://www.w3.org/2000/svg"
   xmlns="http://www.w3.org/2000/svg"
   xmlns:sodipodi="http://sodipodi.sourceforge.net/DTD/sodipodi-0.dtd"
   xmlns:inkscape="http://www.inkscape.org/namespaces/inkscape"
   version="1.1"
   id="Calque_1"
   x="0px"
   y="0px"
   width="116.41069"
   height="20.210371"
   viewBox="0 0 116.41069 20.210371"
   enable-background="new 0 0 66.064 13.739"
   xml:space="preserve"
   inkscape:version="0.48.2 r9819"
   sodipodi:docname="bookshelf.svg"><metadata
   id="metadata27"><rdf:RDF><cc:Work
       rdf:about=""><dc:format>image/svg+xml</dc:format><dc:type
         rdf:resource="http://purl.org/dc/dcmitype/StillImage" /><dc:title /></cc:Work></rdf:RDF></metadata><defs
   id="defs25">
		
		
		
		
		
		
		
	
	
	
	
	
	
	
	
	
	

	

	
	
	
	

	
	
	
	
	
	
	
	

	
	
	
	
	
	

	
	
	
	
	
	

	
	
	
	
	
	
	
	
	

	
	
	
	
	
	
	
	
</defs><sodipodi:namedview
   pagecolor="#ffffff"
   bordercolor="#666666"
   borderopacity="1"
   objecttolerance="10"
   gridtolerance="10"
   guidetolerance="10"
   inkscape:pageopacity="0"
   inkscape:pageshadow="2"
   inkscape:window-width="902"
   inkscape:window-height="644"
   id="namedview23"
   showgrid="false"
   inkscape:zoom="3.7675826"
   inkscape:cx="50.90608"
   inkscape:cy="23.394859"
   inkscape:window-x="342"
   inkscape:window-y="0"
   inkscape:window-maximized="0"
   inkscape:current-layer="Calque_1"
   fit-margin-top="0"
   fit-margin-left="0"
   fit-margin-right="0"
   fit-margin-bottom="0" />
<path
   inkscape:connector-curvature="0"
   style="fill:#ffffff"
   id="path5"
   d="m 54.335067,1.9081727 c 0.8901,0.94196 0.50053,3.16601 0.577721,4.92088 5.118676,-1.22057 8.138744,3.3360603 6.368193,8.9733593 -0.676621,0 -1.350829,0 -2.026243,0 -1.072221,-1.34118 -0.287052,-4.53854 -1.447317,-5.789269 -1.36892,-0.2110603 -1.903221,0.41249 -2.60517,0.868389 -0.308761,2.54487 0.850299,4.77132 -0.578927,6.07994 -0.771902,0 -1.542598,0 -2.315706,0 -0.736926,-4.5699 -0.926283,-9.6885793 -1.157854,-14.7626293 1.323089,0.16282 1.804322,-0.5138 3.185303,-0.29067 z" /><path
   inkscape:connector-curvature="0"
   style="fill:#000000"
   id="path7"
   d="m -20.580296,0.13453767 c -0.053,0.90700003 -0.755,1.16600003 -0.96,1.92000003 -1.272,-0.075 -2.123,-1.21000003 -3.12,-0.24 1.01,2.634 4.644,2.097 3.84,5.76 -0.512,2.334 -4.489,3.3960003 -6.479,1.199 -0.106,-0.906 0.473,-1.127 0.72,-1.68 0.89,-0.027 1.405,1.113 2.16,0.479 0.553,0.074 0.267,-0.692 0.72,-0.719 -0.559,-2.25 -3.378,-1.968 -3.84,-3.841 -0.979,-3.96100003 4.711,-5.507 6.959,-2.87800003 z" /><path
   inkscape:connector-curvature="0"
   style="fill:#000000"
   id="path15"
   d="m -28.499296,4.4761286 c -1.288,0.513 -3.4,1.344 -4.562,1.2 -0.246,1.7290001 2.879,1.3850001 3.602,0.721 2.378,2.4800001 -1.968,4.1230004 -4.562,3.1190001 -4.87,-2.646 -0.902,-13.9840001 5.04,-8.1600001 0.132,1.07 0.237,2.164 0.482,3.12 z m -4.321,-0.96 c 0.758,0.118 0.848,-0.432 1.68,-0.24 -0.045,-0.675 -0.417,-1.022 -1.198,-0.96 -0.104,0.458 -0.687,0.434 -0.482,1.2 z" />
<path
   id="path3111"
   d="m 32.396625,-18.752909 c 0.074,0.875 -0.038,1.562 -0.24,2.16 -0.48,0 -0.96,0 -1.44,0 -0.249,1.882 0.349,4.907 0.24,7.4400003 -1.022,-0.098 -2.472,0.232 -3.12,-0.24 0.178,-3.6980003 -0.439,-6.6000003 -0.479,-10.0800003 1.11,-0.095 2.746,-0.686 3.12,0.48 0.691,0.029 1.57,-0.131 1.919,0.24 z"
   clip-rule="evenodd"
   inkscape:connector-curvature="0"
   style="fill-rule:evenodd" /><path
   id="path3113"
   d="m -40.63849,101.2022 c 0.365585,-0.14148 2.844442,-0.26638 3.153435,-0.04 0.169772,0.56733 0.480187,3.37707 0.480187,3.85951 0.981763,0.0784 2.147792,0.0303 2.893428,0.28947 0.169771,0.8633 0,2.12273 0,3.18409 -1.345621,0.072 -1.299159,0.0635 -2.603964,0.28947 -0.06272,1.70662 0.270988,4.72736 0,7.18271 -1.148205,0.14731 -2.77523,0.26534 -3.474766,-0.28947 0.136288,-4.67 -0.492007,-13.97168 -0.44832,-14.47576 z"
   clip-rule="evenodd"
   inkscape:connector-curvature="0"
   style="fill:#000000;fill-rule:evenodd"
   sodipodi:nodetypes="ccccccccc" /><path
   id="path3115"
   d="m 11.276625,-17.072909 c 0,0.56 0,1.12 0,1.68 -1.7190001,0.656 -4.2240005,1.046 -3.8400005,3.12 0.215,1.16 1.5720004,1.552 3.3600005,1.68 0.191,0.7690003 0.709,1.2110003 0.72,2.1600003 -3.0980001,1.481 -6.3890005,-0.308 -6.7200005,-3.3600003 -0.361,-3.336 2.346,-6.249 6.4800005,-5.28 z"
   clip-rule="evenodd"
   inkscape:connector-curvature="0"
   style="fill-rule:evenodd" /><path
   id="path3117"
   d="m 26.156625,-16.112909 c 0.45,1.87 0.803,3.837 0.96,6 -0.387,0.4930003 -1.203,0.5570003 -2.16,0.4790003 -0.708,-1.3710003 0.442,-4.6020003 -1.68,-4.5600003 -1.531,0.47 -0.899,3.101 -1.2,4.8000003 -0.751,-0.049 -1.762,0.162 -2.16,-0.24 0.064,-2.5440003 -0.021,-4.9380003 -0.24,-7.2000003 0.741,-0.005 1.882,-1.104 1.92,0.24 1.47,-0.902 3.421,-0.682 4.56,0.481 z"
   clip-rule="evenodd"
   inkscape:connector-curvature="0"
   style="fill-rule:evenodd" /><path
   id="path3119"
   d="m 40.316625,-16.832909 c 0.546,2.415 0.09,5.83 0.24,8.6410003 -1.24,-0.041 -2.956,0.395 -2.641,-1.2 -4.432,3.443 -8.594,-2.3550003 -6,-6.0000003 0.978,-1.374 3.545,-1.924 5.76,-0.96 0.563,-0.479 1.528,-0.554 2.641,-0.481 z m -6.48,4.8 c 0.283,0.358 0.603,0.678 0.96,0.961 1.911,0.33 2.637,-1.327 2.16,-2.641 -1.136,-1.085 -3.562,-0.303 -3.12,1.68 z"
   clip-rule="evenodd"
   inkscape:connector-curvature="0"
   style="fill-rule:evenodd" /><path
   id="path3121"
   d="m 17.516625,-16.352909 c 2.931,2.122 2.242,8.0730003 -1.68,8.1600003 -5.563,0.122 -5.664,-10.4160003 1.68,-8.1600003 z m -3.12,4.8 c 2.297,2.7320003 4.199,-3.29 0.96,-2.4 -1.086,0.034 -0.965,1.275 -0.96,2.4 z"
   clip-rule="evenodd"
   inkscape:connector-curvature="0"
   style="fill-rule:evenodd" /><path
   id="path3123"
   d="m 46.076625,-16.112909 c 0.282,1.962 -1.461,1.899 -2.4,2.64 -0.422,2.582 1.367,2.953 3.12,3.36 -0.173,0.7330003 0.246,0.8740003 0.24,1.4390003 -4.583,1.605 -7.416,-3.0520003 -5.28,-6.7200003 1.279,-0.853 2.382,-0.925 4.32,-0.719 z"
   clip-rule="evenodd"
   inkscape:connector-curvature="0"
   style="fill-rule:evenodd" /><path
   inkscape:connector-curvature="0"
   d="m -63.649936,27.597538 c 0.738,0.781 0.415,2.625 0.479,4.08 4.244,-1.012 6.748,2.766 5.28,7.44 -0.561,0 -1.12,0 -1.68,0 -0.889,-1.112 -0.238,-3.763 -1.2,-4.8 -1.135,-0.175 -1.578,0.342 -2.16,0.72 -0.256,2.11 0.705,3.956 -0.48,5.041 -0.64,0 -1.279,0 -1.92,0 -0.611,-3.789 -0.768,-8.033 -0.96,-12.24 1.097,0.135 1.496,-0.426 2.641,-0.241 z"
   id="path3142"
   style="fill:#000000" /><path
   inkscape:connector-curvature="0"
   d="m 50.256727,6.2958359 c -0.053,0.907 -0.755,1.166 -0.96,1.92 -1.272,-0.075 -2.123,-1.21 -3.12,-0.24 1.01,2.6340001 4.644,2.0970001 3.84,5.7600001 -0.512,2.334 -4.489,3.396 -6.479,1.199 -0.106,-0.906 0.473,-1.127 0.72,-1.68 0.89,-0.027 1.405,1.113 2.16,0.479 0.553,0.074 0.267,-0.692 0.72,-0.719 -0.559,-2.25 -3.378,-1.968 -3.84,-3.8410001 -0.979,-3.961 4.711,-5.507 6.959,-2.878 z"
   id="path3144"
   style="fill:#ffffff" /><path
   inkscape:connector-curvature="0"
   d="m -88.849936,30.957538 c -0.67,-0.305 -1.187,-0.592 -1.92,-0.24 -0.556,0.565 -1.001,1.239 -0.96,2.4 0.284,0.436 1.251,0.189 1.68,0.48 0.128,0.929 -0.428,1.172 -0.24,2.16 -0.575,0.146 -1.095,0.346 -1.92,0.24 0.188,1.547 -0.355,2.363 -0.24,3.84 -0.88,0 -1.76,0 -2.64,0 0.264,-4.259 -0.27,-13.171 5.28,-11.76 1.144,0.291 1.894,1.441 0.96,2.88 z"
   id="path3146"
   style="fill:#000000" /><path
   inkscape:connector-curvature="0"
   d="m -79.249936,29.277538 c 2.155,-2.585 4.522,2.508 0.96,2.4 -0.697,-0.422 -1.133,-1.106 -0.96,-2.4 z"
   id="path3148"
   style="fill:#000000" /><path
   inkscape:connector-curvature="0"
   d="m 90.046523,5.9164909 c -2.32336,-1.1189992 -3.973184,0.5481628 -3.841144,2.880856 0.02534,1.1483416 2.091288,0.2547424 2.56076,0.9602857 0.170718,1.2377014 -0.57217,1.5631304 -0.320094,2.8808554 -1.010968,-0.157379 -1.132337,0.577506 -2.240666,0.318763 -0.16405,2.101957 0.297421,3.745112 0,5.122854 -1.528455,-0.249407 -2.060613,0.500149 -3.522381,0.318763 -0.820243,-6.854038 -1.205691,-20.2500184 7.682275,-15.3645669 0.6642,1.1776833 -0.084,1.7725267 -0.31875,2.8821898 z"
   id="path3150"
   style="fill:#ffffff" /><path
   inkscape:connector-curvature="0"
   d="m -48.768936,34.317538 c -1.288,0.513 -3.4,1.344 -4.562,1.2 -0.246,1.729 2.879,1.385 3.602,0.721 2.378,2.48 -1.968,4.123 -4.562,3.119 -4.87,-2.646 -0.902,-13.984 5.04,-8.16 0.132,1.07 0.237,2.164 0.482,3.12 z m -4.321,-0.96 c 0.758,0.118 0.848,-0.432 1.68,-0.24 -0.045,-0.675 -0.417,-1.022 -1.198,-0.96 -0.104,0.458 -0.687,0.434 -0.482,1.2 z"
   id="path3152"
   style="fill:#000000" /><path
   inkscape:connector-curvature="0"
   d="m -97.249936,30.717538 c 0.054,3.093 -0.064,6.016 -0.48,8.639 -2.039,-0.889 -3.253004,0.262 -5.280004,0 -2.932,-0.377 -5.149,-4.497 -3.12,-7.679 1.872,-2.935 5.519,-0.79 8.880004,-0.96 z m -4.560004,1.92 c -2.6,-1.141 -2.899,4.01 -0.24,3.84 1.333,-0.601 1.01,-2.865 0.24,-3.84 z"
   id="path3154"
   style="fill:#000000" /><path
   inkscape:connector-curvature="0"
   d="m -68.689936,33.597538 c -0.313,1.671 -3.232,0.484 -3.12,2.64 0.073,1.41 1.458,1.75 3.359,0.961 0.129,0.832 0.643,1.277 0.721,2.158 -2.87,2.293 -6.852,0.427 -7.2,-2.639 -0.394,-3.456 3.882,-6.715 6.24,-3.12 z"
   id="path3156"
   style="fill:#000000" /><path
   inkscape:connector-curvature="0"
   d="m -79.249936,32.637538 c 1.167,-0.046 2.294,-0.055 2.88,0.48 -0.021,2.539 0.119,5.239 -0.239,7.44 -1.261,0.141 -1.817,-0.424 -3.12,-0.24 0.258,-2.461 0.197,-5.242 0.479,-7.68 z"
   id="path3158"
   style="fill:#000000" /><path
   d="m -52.147206,4.4761286 c -1.288,0.513 -3.4,1.344 -4.562,1.2 -0.246,1.7290001 2.879,1.3850001 3.602,0.721 2.378,2.4800001 -1.968,4.1230004 -4.562,3.1190001 -4.87,-2.646 -0.902,-13.9840001 5.04,-8.1600001 0.132,1.07 0.237,2.164 0.482,3.12 z m -4.321,-0.96 c 0.758,0.118 0.848,-0.432 1.68,-0.24 -0.045,-0.675 -0.417,-1.022 -1.198,-0.96 -0.104,0.458 -0.687,0.434 -0.482,1.2 z"
   id="path3170"
   style="fill:#000000"
   inkscape:connector-curvature="0" /><path
   style="fill-rule:evenodd"
   inkscape:connector-curvature="0"
   clip-rule="evenodd"
   d="m -44.41174,1.9045462 c 0.45,1.87 0.803,3.837 0.96,6.0000005 -0.387,0.493 -1.203,0.557 -2.16,0.479 -0.708,-1.371 0.442,-4.6020005 -1.68,-4.5600005 -1.531,0.47 -0.899,3.1010005 -1.2,4.8000005 -0.751,-0.049 -1.762,0.162 -2.16,-0.24 0.064,-2.5440005 -0.021,-4.9380005 -0.24,-7.2000005 0.741,-0.005 1.882,-1.10400003 1.92,0.24 1.47,-0.90200003 3.421,-0.68200003 4.56,0.481 z"
   id="path3179" /><path
   id="path3181"
   d="m -38.875126,1.9045461 c 0.45,1.87 0.803,3.837 0.96,6.0000006 -0.387,0.493 -1.203,0.557 -2.16,0.479 -0.708,-1.371 0.442,-4.6020006 -1.68,-4.5600006 -1.531,0.47 -0.899,3.1010006 -1.2,4.8000006 -0.751,-0.049 -1.762,0.162 -2.16,-0.24 -1.20573,-1.597344 0.02329,-3.9660653 0.366227,-6.2092733 1.47,-0.902 4.734773,-1.43272733 5.873773,-0.2697273 z"
   clip-rule="evenodd"
   inkscape:connector-curvature="0"
   style="fill-rule:evenodd"
   sodipodi:nodetypes="cccccccc" /><path
   inkscape:connector-curvature="0"
   clip-rule="evenodd"
   d="m -88.378587,100.94569 c 0.355303,1.93111 0.640455,3.93237 0.93535,5.92389 4.083062,-0.582 7.675715,2.11948 6.235666,6.23566 -0.92041,2.63263 -5.206781,3.1776 -8.106366,3.58551 -1.260774,-4.61114 -2.397484,-9.3457 -2.650159,-14.9656 1.125019,-0.32997 2.151305,-0.75932 3.585509,-0.77946 z m 1.8707,12.31545 c 0.925606,-0.0617 1.520593,-0.45404 2.182483,-0.77946 0.218898,-1.88174 -1.057465,-2.26823 -2.494267,-2.49427 -0.03507,1.2296 0.318279,2.07206 0.311784,3.27373 z"
   id="path5-1"
   style="fill:#000000;fill-rule:evenodd" /><path
   inkscape:connector-curvature="0"
   clip-rule="evenodd"
   d="m -46.679034,105.61327 c 6.784536,-0.47222 6.246709,10.88773 -0.467675,10.60063 -5.382159,-0.23059 -5.430226,-10.19077 0.467675,-10.60063 z m 0.936,3.27372 c -3.060673,-1.59594 -3.702427,5.10156 0.155242,3.58551 0.971725,-0.8626 0.759972,-3.10874 -0.155242,-3.58551 z"
   id="path9"
   style="fill:#000000;fill-rule:evenodd" /><g
   id="g3414"
   transform="matrix(0.99426771,-0.10691923,0.10691923,0.99426771,-166.75165,77.992742)"
   style="fill:#000000"><path
     style="fill:#000000;fill-rule:evenodd"
     id="path7-3"
     d="m 86.843553,35.055036 c 2.157151,3.109389 -3.43936,3.938863 -2.650158,0.779458 0.222145,-0.889881 1.529686,-1.382239 2.650158,-0.779458 z"
     clip-rule="evenodd"
     inkscape:connector-curvature="0" /><path
     style="fill:#000000;fill-rule:evenodd"
     id="path11"
     d="m 86.999444,39.420002 c -0.156541,2.304599 -0.396224,5.825802 -1.247133,7.950475 -1.063311,-0.140302 -2.323435,0.220847 -2.961941,0 0.01364,-3.155507 0.386481,-5.953113 1.091241,-8.418149 1.167239,0.02793 2.34552,0.04482 3.117833,0.467674 z"
     clip-rule="evenodd"
     inkscape:connector-curvature="0" /></g><path
   d="m 153.61102,52.772387 c -1.51867,0.163821 -1.96791,-0.562206 0,0 l 0,0 z"
   id="path5-13"
   style="fill:#000000"
   inkscape:connector-curvature="0" /><path
   d="m 79.605877,2.1641571 c 0.447224,2.3131676 0.03699,4.8284373 -0.06394,7.3820642 -0.09697,2.4477107 -0.09892,5.0348337 -0.511098,7.5691167 -0.928107,0.154716 -2.085972,-0.0353 -3.138121,-0.06157 -0.13934,-4.721641 -0.4657,-9.3175536 0.392428,-14.7127764 1.026733,-0.1777885 2.162114,-0.1952611 3.320772,-0.1768356 z"
   id="path11-8"
   style="fill:#ffffff"
   inkscape:connector-curvature="0" /><path
   d="m 145.37601,60.251027 c -1.75036,0.04239 -3.26439,0.43257 -5.29759,0.05982 -0.41877,1.479411 2.05647,2.338369 3.17885,1.239175 0.17485,0.794548 1.16159,1.037967 1.17777,1.942296 -2.03099,2.041648 -6.11194,0.817146 -7.07034,-1.220555 -0.67305,-1.421887 -0.28699,-3.527012 0.18116,-4.940469 1.8864,-5.688079 10.67816,-4.420942 7.83015,2.919731 z m -4.68288,-2.308645 c 1.14839,0.288411 1.9466,0.05467 2.81349,-0.07568 0.0281,-1.896685 -2.5382,-1.699163 -2.81349,0.07568 z"
   id="path13"
   style="fill:#000000"
   inkscape:connector-curvature="0" /><path
   d="m 137.10358,53.202708 c 0.32319,0.824649 0.60562,1.67572 0.73322,2.630189 -1.71946,0.213594 -3.56482,0.351561 -4.24059,1.819942 -0.81376,1.772003 0.33219,4.335261 -0.14208,6.347459 -1.10204,0.103481 -2.40051,-0.07931 -3.56332,-0.06991 0.0161,-3.569876 0.2451,-7.281769 0.41752,-10.959293 0.8971,-0.08237 1.84145,-0.10115 2.81287,-0.0758 0.50008,0.227318 0.16873,1.016229 0.33814,1.465055 1.302,-0.255778 1.78467,-1.727316 3.64424,-1.157641 z"
   id="path15-8"
   style="fill:#000000"
   inkscape:connector-curvature="0" /><path
   d="m 129.26745,54.324528 c -0.69186,3.289662 -2.48029,6.611303 -3.74734,9.690159 -0.8996,0.08189 -1.93817,-0.04137 -2.93424,-0.103257 -1.11411,-3.15441 -2.54183,-6.095018 -2.75008,-9.860708 0.88499,-0.106752 1.81338,-0.146767 2.69275,-0.25461 0.72901,1.547426 1.2356,3.246029 1.49578,5.109287 1.04293,-1.477429 1.6518,-3.598898 2.69573,-5.074836 0.94885,0.381833 1.94959,0.0093 2.5474,0.493965 z"
   id="path17"
   style="fill:#000000"
   inkscape:connector-curvature="0" /><g
   id="g3422"
   transform="translate(37.225707,51.395129)"><path
     inkscape:connector-curvature="0"
     style="fill:#000000"
     id="path9-7"
     d="m 81.922419,-2.6116535 c 1.687139,3.46975325 -3.982393,3.796842 -3.616509,1.0081831 0.203588,-1.5490488 2.218201,-1.9547648 3.616509,-1.0081831 z" /><path
     inkscape:connector-curvature="0"
     style="fill:#000000"
     id="path19"
     d="m 79.912109,12.546909 c -0.891253,0.212434 -2.115005,-0.368546 -2.996801,-0.58187 -0.345834,-2.5899565 0.600016,-6.0499301 0.99641,-9.1358685 0.902128,-0.141648 2.064989,0.1022777 2.963335,-0.046584 1.043386,2.3340818 -0.500307,6.4139568 -0.962944,9.7643215 z" /></g><path
   style="fill:#000000;fill-rule:evenodd"
   id="path3418"
   d="m -70.530751,100.73061 c 0.03032,1.96329 -0.02016,3.98413 -0.05942,5.99698 4.123051,0.10278 7.218271,3.36234 5.115917,7.18292 -1.344013,2.44367 -5.661425,2.27067 -8.588515,2.19237 -0.479081,-4.75634 -0.815359,-9.61381 -0.133092,-15.19786 1.164149,-0.13894 2.247402,-0.39226 3.665107,-0.17441 z m -0.196347,12.45516 c 0.923033,0.0925 1.574815,-0.19573 2.281487,-0.40695 0.527752,-1.81944 -0.666902,-2.41212 -2.046368,-2.87317 -0.238379,1.20677 -0.02955,2.09615 -0.235119,3.28012 z"
   clip-rule="evenodd"
   inkscape:connector-curvature="0" /><path
   inkscape:connector-curvature="0"
   style="fill:#000000"
   id="path3420"
   d="m -59.025454,99.852748 c 0.466833,2.414612 0.03864,5.040192 -0.06679,7.705812 -0.101227,2.55506 -0.103255,5.25564 -0.533519,7.90107 -0.968808,0.1615 -2.177452,-0.0368 -3.275745,-0.0643 -0.14545,-4.92871 -0.486125,-9.72619 0.40964,-15.35802 1.071756,-0.185587 2.256938,-0.203827 3.46641,-0.184593 z" /><g
   id="g3426"
   transform="matrix(0.99874494,-0.05008541,0.05008541,0.99874494,-134.26525,107.74804)"
   style="fill:#000000"><path
     d="m 81.922419,-2.6116535 c 1.687139,3.46975325 -3.982393,3.796842 -3.616509,1.0081831 0.203588,-1.5490488 2.218201,-1.9547648 3.616509,-1.0081831 z"
     id="path3428"
     style="fill:#000000"
     inkscape:connector-curvature="0" /><path
     d="m 79.912109,12.546909 c -0.891253,0.212434 -2.115005,-0.368546 -2.996801,-0.58187 -0.345834,-2.5899565 0.600016,-6.0499301 0.99641,-9.1358685 0.902128,-0.141648 2.064989,0.1022777 2.963335,-0.046584 1.043386,2.3340818 -0.500307,6.4139568 -0.962944,9.7643215 z"
     id="path3430"
     style="fill:#000000"
     inkscape:connector-curvature="0" /></g><path
   style="fill:#000000;fill-rule:evenodd"
   inkscape:connector-curvature="0"
   clip-rule="evenodd"
   d="m 32.569952,77.508057 c -0.08,2.072 2.159,1.328 3.585,1.459 -0.024,0.666 0.813,0.836 0.555,1.639 -4.183,3.891 -8.948,-2.043 -6.702,-6.517 1.328,-2.646 8.093,-2.302 6.491,1.739 -0.458,1.15 -2.239,1.456 -3.929,1.68 z m 0.033,-1.979 c 0.326,0.57 0.998,0.007 1.686,0.203 0.131,-0.664 -0.14,-1.096 -0.911,-1.237 -0.22,0.415 -0.657,0.448 -0.775,1.034 z"
   id="path3587" /><path
   style="fill:#000000;fill-rule:evenodd"
   inkscape:connector-curvature="0"
   clip-rule="evenodd"
   d="m 27.919952,73.529057 c -0.104,0.387 -0.207,0.772 -0.311,1.159 -0.634,0.599 -2,-0.07 -2.458,0.832 1.103,2.042 5.187,2.361 3.039,6.28 -1.392,1.212 -3.278,1.564 -5.552,1.245 0.19,-0.763 -0.422,-1.062 0.034,-1.979 0.855,0.706 1.969,0.098 2.628,-0.538 0.183,-2.195 -3.195,-2.335 -3.597,-4.193 0.366,-3.687 3.601,-4.138 6.217,-2.806 z"
   id="path3589" /><path
   style="fill:#000000;fill-rule:evenodd"
   inkscape:connector-curvature="0"
   clip-rule="evenodd"
   d="m 20.344952,73.984057 c 0.294,0.549 -0.242,1.576 -0.39,2.38 -1.068,-0.38 -1.995,-0.515 -2.165,0.663 1.668,1.593 4.031,2.848 2.993,5.521 -0.72,1.855 -2.634,2.31 -5.551,1.246 0.166,-0.618 0.331,-1.236 0.497,-1.854 1.089,0.302 1.923,0.161 2.567,-0.308 -0.573,-2.109 -3.784,-2.052 -3.829,-4.255 -0.062,-2.955 2.859,-4.021 5.878,-3.393 z"
   id="path3591" /><path
   style="fill:#000000;fill-rule:evenodd"
   inkscape:connector-curvature="0"
   clip-rule="evenodd"
   d="m 13.319952,79.805057 c -1.602,-0.172 -2.794,0.365 -4.3140001,0.335 -0.208,2.036 2.7760001,1.471 4.1110001,1.349 0.178,0.42 0.034,1.025 0.385,1.347 -4.7380001,4.742 -9.2570002,-3.611 -5.2940001,-7.134 1.9440001,-1.729 7.5080001,-0.151 5.1120001,4.103 z m -3.292,-1.627 c 0.723,0.232 1.397,0.382 1.747,-0.03 -0.528,-0.218 -0.215,-0.919 -0.972,-1.005 -0.218,0.414 -0.656,0.448 -0.775,1.035 z"
   id="path3593" /><path
   style="fill:#000000;fill-rule:evenodd"
   inkscape:connector-curvature="0"
   clip-rule="evenodd"
   d="m 6.1949518,77.646057 c -3.599,-0.201 -3.538,3.694 -2.96,6.412 -1.259,-0.368 -1.773,0.552 -3.03100002,0.182 -0.122,-2.868 -0.278,-5.718 -0.438,-8.564 0.753,-0.166 1.66100002,-0.064 2.33500002,-0.369 0.59,0.183 0.088,0.995 0.679,1.177 1.042,-1.461 4.012,-1.488 3.415,1.162 z"
   id="path3595" /><path
   style="fill:#000000;fill-rule:evenodd"
   inkscape:connector-curvature="0"
   clip-rule="evenodd"
   d="m -5.5340482,86.182057 c 0.095,1.121 0.329,2.162 0.352,3.324 -0.753,0.958 -2.069,0.942 -3.279,1.109 0.063,-4.608 -0.577,-8.811 -1.237,-13.003 2.587,-0.385 6.683,-2.627 8.549,0.552 1.80699998,3.078 -1.004,7.713 -4.385,8.018 z m -0.81,-7.174 c 0.176,1.27 -0.179,2.846 0.753,3.68 1.991,-0.454 2.148,-4.236 -0.753,-3.68 z"
   id="path3597" /><path
   style="fill:#000000"
   inkscape:connector-curvature="0"
   d="m 95.117987,71.437174 c 4.563997,-1.105 7.895993,5.813 4.559997,8.88 -4.461997,4.103 -9.444997,-2.364 -7.439997,-6.72 0.399,-0.867 1.537,-1.835 2.88,-2.16 z m 2.161,6.24 c 0.191,-6.066 -5.092,1.152 0,0 l 0,0 z"
   id="path3671" /><path
   style="fill:#000000"
   inkscape:connector-curvature="0"
   d="m 78.077987,71.437174 c 2.371,3.95 4.178,8.461 5.76,13.199 -0.884,0.115 -2.519,2.09 -2.88,0.48 -2.549,4.821 -8.852,2.362 -9.601,-2.64 -0.491,-3.277 1.241,-7.489 5.04,-6.48 -0.314,-1.364 -1.068,-2.292 -1.439,-3.6 1.168,-0.191 2.3,-0.419 3.12,-0.959 z m -0.24,11.76 c 0.521,-1.176 0.148,-2.848 -0.24,-3.84 -4.233,-1.658 -3.561,5.479 0.24,3.84 z"
   id="path3673" /><path
   style="fill:#000000"
   inkscape:connector-curvature="0"
   d="m 91.517987,77.437174 c -1.87,0.77 -3.594,1.686 -5.28,2.64 0.699,2.654 4.197,0.453 5.76,-0.24 0.404,0.716 0.951,1.289 1.201,2.16 -4.394,7.229 -13.738,-1.012 -10.08,-7.439 1.806,-3.176 9.587,-3.161 8.399,2.879 z m -5.04,-0.24 c 0.772,-0.188 1.592,-0.329 2.16,-0.72 -0.08,-1.63 -2.738,-1.055 -2.16,0.72 z"
   id="path3675" /><path
   style="fill:#000000"
   inkscape:connector-curvature="0"
   d="m 65.597987,75.757174 c 3.847,-0.62 2.991,3.891 0.24,3.84 -2.052,-0.037 -3.675,-3.286 -0.24,-3.84 z"
   id="path3677" /><path
   style="fill:#000000"
   inkscape:connector-curvature="0"
   d="m 68.957987,80.077174 c 2.3,2.5 2.899,6.7 4.56,9.841 -0.653,1.106 -2.7,0.819 -4.08,1.199 -1.547,-2.933 -2.451,-6.509 -3.84,-9.601 0.665,-0.933 2.214,-0.984 3.36,-1.439 z"
   id="path3679" /><path
   style="fill:#000000"
   inkscape:connector-curvature="0"
   d="m 67.517987,93.037174 c -4.135,0.842 -6.559,-2.071 -9.36,-3.36 0.123,-1.478 0.911,-2.289 1.2,-3.601 1.253,0.507 2.407,1.113 3.601,1.681 -0.182,-2.06 -1.393,-3.088 -1.2,-5.521 1.286,0.013 2.659,-0.921 3.6,-0.48 0.778,3.701 2.172,6.789 2.159,11.281 z"
   id="path3681" /><path
   inkscape:connector-curvature="0"
   style="fill:#ffffff"
   id="path3696"
   d="m 72.672872,10.77145 c -1.527314,0.60832 -4.031729,1.59372 -5.409632,1.42297 -0.291707,2.05025 3.413926,1.64233 4.271261,0.85496 2.819839,2.94079 -2.333659,4.88907 -5.409631,3.69852 -5.774859,-3.13763 -1.069594,-16.58226498 5.976445,-9.6761499 0.156526,1.26881 0.281035,2.56608 0.571557,3.6996999 z M 67.549019,9.6330801 c 0.898838,0.13993 1.00556,-0.51226 1.992148,-0.28459 -0.05336,-0.80042 -0.49448,-1.21189 -1.420592,-1.13837 -0.123323,0.5431 -0.814646,0.51464 -0.571556,1.42296 z" /><path
   id="path3710"
   d="m -0.25784494,120.0571 c 1.43657604,-4.37725 2.19884604,-9.17656 2.69140604,-14.14735 -0.88751,0.0838 -2.91956604,-1.47973 -2.91476604,0.17024 -3.55409996,-4.13615 -9.15534696,-0.34135 -8.77710696,4.70225 0.24751,3.30433 2.869947,7.0277 6.350847,5.20181 -0.004,1.39967 -0.53346,2.4717 -0.60534,3.8294 1.18129,-0.0726 2.33567,-0.10118 3.25495996,0.24365 z M -3.0982949,108.64277 c 0.76869,1.03128 0.77554,2.74436 0.61705,3.79769 -3.76026,2.55494 -4.68677,-4.5535 -0.61705,-3.79769 z"
   inkscape:connector-curvature="0"
   style="fill:#000000" /><path
   style="fill:#000000;fill-rule:evenodd"
   inkscape:connector-curvature="0"
   clip-rule="evenodd"
   d="m 4.9629601,114.45814 c -0.60004,-2.4935 -1.07074,-5.11634 -1.28009,-8.00053 0.51604,-0.65738 1.60411,-0.74272 2.880189,-0.63871 0.94407,1.82812 -0.58937,6.13641 2.240146,6.0804 2.0414699,-0.62671 1.1987499,-4.13494 1.6001099,-6.40042 1.0014,0.0653 2.34949,-0.21602 2.88019,0.32002 -0.0853,3.39222 0.028,6.58444 0.32002,9.60064 -0.98807,0.007 -2.5095,1.47209 -2.56017,-0.32003 -1.9601299,1.20275 -4.5616359,0.9094 -6.0803949,-0.64137 z"
   id="path3712" /><path
   style="fill:#000000"
   id="path3723"
   d="m 24.446585,110.09807 c -1.47945,0.58926 -3.90538,1.54378 -5.2401,1.37837 -0.28257,1.98601 3.30694,1.59087 4.13741,0.82817 2.73147,2.84864 -2.26053,4.73586 -5.24011,3.58262 -5.59388,-3.03931 -1.03607,-16.062613 5.78916,-9.37292 0.15162,1.22905 0.27223,2.48566 0.55364,3.58376 z m -4.96328,-1.10269 c 0.87067,0.13554 0.97405,-0.49622 1.92972,-0.27568 -0.0517,-0.77533 -0.47898,-1.17391 -1.37607,-1.10269 -0.11946,0.52607 -0.78912,0.49851 -0.55365,1.37837 z"
   inkscape:connector-curvature="0" /><path
   d="m 418.40791,-53.413066 c -2.295,0.708001 -3.206,-0.278 0,0 l 0,0 z"
   id="path5-0"
   style="fill:#000000"
   inkscape:connector-curvature="0" /><path
   d="m 364.01832,-49.241651 c 3.644,4.85 -5.009,7.054 -5.28,2.64 -0.15,-2.452 2.838,-3.682 5.28,-2.64 z"
   id="path9-2"
   style="fill:#000000"
   inkscape:connector-curvature="0" /><path
   d="m 353.45832,-48.761651 c 1.571,3.902 1.708,8.45 2.4,12.96 0.663,4.323 1.54,8.858 1.68,13.44 -1.574,0.587 -3.668,0.648 -5.521,0.96 -1.851,-8.228 -3.987,-16.172 -4.319,-25.92 1.739,-0.661 3.723,-1.078 5.76,-1.44 z"
   id="path11-4"
   style="fill:#000000"
   inkscape:connector-curvature="0" /><path
   d="m 407.93832,-39.401651 c -2.689,0.59 -4.909,1.646 -8.159,1.68 -0.203,2.409 3.875,2.993 5.278,0.96 0.508,1.174 2.104,1.254 2.4,2.645 -2.523,3.76 -9.189,3.093 -11.279,0.235 -1.465,-1.993 -1.5,-5.358 -1.201,-7.68 1.207,-9.345 15.157,-10.024 12.961,2.16 z m -7.92,-2.16 c 1.859,0.101 3.021,-0.499 4.32,-0.96 -0.525,-2.936 -4.427,-1.862 -4.32,0.96 z"
   id="path13-8"
   style="fill:#000000"
   inkscape:connector-curvature="0" /><path
   d="m 393.05732,-47.801651 c 0.746,1.176 1.437,2.405 1.92,3.84 -2.59,0.845 -5.397,1.611 -6,4.08 -0.725,2.979 1.812,6.592 1.683,9.84 -1.67,0.49 -3.729,0.597 -5.521,0.96 -1.045,-5.515 -1.804,-11.313 -2.64,-17.041 1.36,-0.396 2.812,-0.708 4.319,-0.96 0.84,0.201 0.565,1.518 0.961,2.16 1.933,-0.785 2.237,-3.201 5.278,-2.879 z"
   id="path15-3"
   style="fill:#000000"
   inkscape:connector-curvature="0" /><path
   d="m 381.29832,-43.721651 c -0.082,5.285 -1.847,10.948 -2.88,16.08 -1.364,0.396 -3.004,0.517 -4.56,0.72 -2.665,-4.535 -5.75,-8.646 -7.2,-14.396 1.334,-0.43 2.755,-0.77 4.08,-1.2 1.589,2.17 2.88,4.64 3.84,7.438 1.167,-2.593 1.471,-6.05 2.64,-8.641 1.579,0.305 3.012,-0.57 4.08,-0.001 z"
   id="path17-9"
   style="fill:#000000"
   inkscape:connector-curvature="0" /><path
   d="m 365.45832,-25.241651 c -1.312,0.595 -3.375,0.065 -4.8,0 -1.31,-3.894 -0.887,-9.518 -1.2,-14.4 1.35,-0.489 3.218,-0.461 4.56,-0.96 2.31,3.29 1.15,10.05 1.44,15.36 z"
   id="path19-0"
   style="fill:#000000"
   inkscape:connector-curvature="0" /><path
   style="fill:#000000;fill-rule:evenodd"
   inkscape:connector-curvature="0"
   clip-rule="evenodd"
   d="m 274.89649,-224.80153 c 1.616,-0.015 2.532,0.668 3.84,0.96 -0.715,5.605 -2.09,10.55 -3.6,15.36 -3.002,-0.438 -3.979,-2.902 -6,-4.32 -1.779,1.582 -2.955,3.76499 -5.04,5.04 -1.361,-4.719 -2.354,-9.80601 -3.6,-14.64001 0.802,-0.87799 2.415,-0.945 3.84,-1.19999 0.771,2.269 1.167,4.91399 1.68,7.43999 1.751,-1.12799 1.486,-4.274 3.6,-5.03999 0.988,2.132 1.919,4.321 3.12,6.24 1.151,-2.849 1.428,-6.572 2.16,-9.84 z"
   id="path3273" /><path
   style="fill:#000000;fill-rule:evenodd"
   inkscape:connector-curvature="0"
   clip-rule="evenodd"
   d="m 284.25649,-223.36153 c -0.584,2.375 -1.131,4.79 -1.68,7.19999 2.778,-0.851 4.626,0.64 5.76,2.16 0.307,3.506 -0.71,5.689 -1.68,7.92 -0.912,-0.048 -1.708,-0.212 -2.4,-0.48 0.009,-1.911 0.752,-3.088 0.48,-5.28 -2.489,-1.83099 -4.582,1.626 -4.56,4.56 -1.117,0.077 -1.602,-0.479 -2.64,-0.47999 0.617,-5.863 1.447,-11.51301 3.12,-16.32 1.173,0.267 2.357,0.524 3.6,0.72 z"
   id="path3275" /><path
   style="fill:#000000;fill-rule:evenodd"
   inkscape:connector-curvature="0"
   clip-rule="evenodd"
   d="m 293.13649,-216.64153 c 5.275,-1.206 8.932,5.804 5.52,9.35999 -3.881,4.045 -11.214,-1.011 -8.88,-6.96 0.505,-1.286 2.144,-2.122 3.36,-2.4 z m -0.24,3.6 c -1.367,2.15899 0.734,4.54599 3.36,3.36 2.011,-2.255 -0.894,-5.465 -3.36,-3.36 z"
   id="path3277" /><path
   style="fill:#000000;fill-rule:evenodd"
   inkscape:connector-curvature="0"
   clip-rule="evenodd"
   d="m 259.29649,-203.44153 c 0.16,0 0.32,0 0.48,0 0.246,4.954 0.496,9.904 0.72,14.88 -1.303,-0.183 -1.86,0.38 -3.12,0.24 -1.359,-4.001 -1.362,-9.357 -1.68,-14.4 1.047,-0.394 2.547,-0.333 3.6,-0.72 z"
   id="path3279" /><path
   style="fill:#000000;fill-rule:evenodd"
   inkscape:connector-curvature="0"
   clip-rule="evenodd"
   d="m 279.21649,-199.84153 c -0.4,4.106 -0.273,8.217 -0.96,11.52 -1.01,-0.27 -3.3,0.74 -2.88,-0.96 -1.317,0.523 -3.148,0.532 -5.04,0.48 -7.117,-4.271 -0.913,-13.72 6.24,-10.56 0.053,-1.397 1.748,-0.378 2.64,-0.48 z m -7.92,7.68 c 1.044,0.004 2.159,0.08 2.88,-0.24 3.311,-5.157 -6.276,-4.261 -2.88,0.24 z"
   id="path3281" /><path
   style="fill:#000000;fill-rule:evenodd"
   inkscape:connector-curvature="0"
   clip-rule="evenodd"
   d="m 284.25649,-198.40153 c 0.331,0.31 0.237,1.042 0.24,1.68 1.716,-1.58 5.335,-1.531 5.76,1.2 2.314,-2.274 6.833,-0.939 7.44,1.92 0.282,4.282 -1.123,6.877 -2.64,9.36 -0.892,-0.148 -1.508,-0.572 -2.4,-0.72 0.406,-2.108 2.959,-7.543 0.24,-7.92 -2.201,-0.305 -2.503,5.264 -3.84,6.72 -1.257,0.058 -1.816,-0.584 -2.88,-0.72 0.184,-2.128 1.722,-3.938 0.96,-6.24 -3.207,-0.829 -2.77,3.908 -3.84,6 -1.444,0.083 -1.917,-0.804 -3.36,-0.72 0.671,-3.648 0.836,-7.804 2.16,-10.8 0.79,0.01 1.195,0.405 2.16,0.24 z"
   id="path3283" /><path
   style="fill:#000000;fill-rule:evenodd"
   inkscape:connector-curvature="0"
   clip-rule="evenodd"
   d="m 520.41649,-166.72154 c 0.08,2.72001 -0.237,5.04201 -0.72,7.20001 -0.561,0 -1.12,0 -1.68,0 0.694,-2.507 -0.976,-7.376 2.4,-7.20001 z"
   id="path3285" /><path
   style="fill:#000000;fill-rule:evenodd"
   inkscape:connector-curvature="0"
   clip-rule="evenodd"
   d="m 514.89649,-164.08153 c -0.507,0.933 -1.71,1.16999 -2.16,2.16 0,0.88 0,1.75999 0,2.63999 -0.587,0.21301 -1.041,0.56 -1.92,0.48001 0.012,-2.068 0.468,-3.691 0.479,-5.76 1.579,0.577 2.875,-1.38101 3.601,0.48 z"
   id="path3287" /><path
   style="fill:#000000;fill-rule:evenodd"
   inkscape:connector-curvature="0"
   clip-rule="evenodd"
   d="m 526.17649,-164.32153 c -0.538,1.622 -0.693,3.626 -1.199,5.28 -1.704,-0.03 -1.518,-0.489 -3.36,-0.24 -2.839,-2.921 0.799,-7.114 4.559,-5.04 z m -3.84,3.36 c 1.133,0.315 2.075,-1.791 0.96,-2.16 -0.661,0.33 -1.624,1.261 -0.96,2.16 z"
   id="path3289" /><path
   style="fill:#000000;fill-rule:evenodd"
   inkscape:connector-curvature="0"
   clip-rule="evenodd"
   d="m 510.09649,-163.84153 c -0.111,1.968 0.333,4.493 -0.479,5.76 -1.434,-0.521 -2.073,0.54 -3.36,0 -0.537,-1.188 -1.249,-5.393 1.2,-5.04 0.098,1.023 -0.232,2.47199 0.24,3.12 1.895,-0.06 -0.04,-5.111 2.399,-3.84 z"
   id="path3291" /><path
   style="fill:#000000;fill-rule:evenodd"
   inkscape:connector-curvature="0"
   clip-rule="evenodd"
   d="m 505.05649,-162.40153 c 0.731,2.573 0.035,5.577 -3.12,5.04 -2.049,-2.272 0.285,-7.636 3.12,-5.04 z m -1.68,3.12 c 0.42,-0.322 0.879,-1.982 0,-2.16 -0.236,0.321 -1.083,2.058 0,2.16 z"
   id="path3293" /><path
   style="fill:#000000;fill-rule:evenodd"
   inkscape:connector-curvature="0"
   clip-rule="evenodd"
   d="m 497.61649,-156.88153 c -0.139,1.542 -0.383,2.978 -2.16,2.88 -0.06,-2.38 0.423,-4.217 0.24,-6.72001 1.528,-0.34299 3.485,-2.33599 4.8,-0.71999 0.252,2.73199 -0.691,4.269 -2.88,4.56 z m 0.24,-1.44 c 0.595,-0.285 0.89,-0.87 0.72,-1.92 -0.24,0 -0.48,0 -0.72,0 -0.254,0.249 -0.496,1.714 0,1.92 z"
   id="path3295" /><path
   style="fill:#000000;fill-rule:evenodd"
   inkscape:connector-curvature="0"
   clip-rule="evenodd"
   d="m 296.01649,-142.00153 c 0.164,0.957 0.607,1.633 0.48,2.88 -0.983,0.056 -1.962,0.118 -2.64,0.48 -0.761,-0.519 -0.81,-1.75 -0.96,-2.88 -11.027,-0.482 -5.729,-19.823 3.84,-15.84 5.612,2.336 3.849,12.67 -0.72,15.36 z m 1.44,-8.64 c -0.644,-8.444 -13.256,1.448 -5.28,5.04 0,-0.56001 0,-1.12001 0,-1.68001 0.969,-0.22999 1.91,-0.48999 2.88,-0.71999 0.331,0.31 0.238,1.043 0.24,1.68 1.444,-0.685 2.288,-2.636 2.16,-4.32 z"
   id="path3297" /><path
   style="fill:#000000;fill-rule:evenodd"
   inkscape:connector-curvature="0"
   clip-rule="evenodd"
   d="m 520.65649,-156.64153 c -0.247,1.203 -0.606,1.519 -1.92,1.2 -0.381,1.359 1.487,1.563 1.68,2.88 0.282,1.927 -1.277,3.66199 -4.08,3.12 0,-0.56 0,-1.12 0,-1.68 0.716,0.33299 1.469,0.283 1.681,-0.48 -0.195,-1.52401 -1.778,-1.772 -1.681,-3.36001 0.111,-1.80399 2.288,-2.88599 4.32,-1.68 z"
   id="path3299" /><path
   style="fill:#000000;fill-rule:evenodd"
   inkscape:connector-curvature="0"
   clip-rule="evenodd"
   d="m 516.09649,-156.64153 c 0.158,0.878 -0.519,0.91999 -0.479,1.68 -0.638,0.003 -1.371,-0.09 -1.68,0.23999 -0.135,1.17401 0.932,1.14801 1.439,1.68001 1.03,2.80299 -1.156,5.702 -3.84,4.08 -0.158,-0.877 0.52,-0.92 0.48,-1.68 0.637,-0.002 1.37,0.091 1.68,-0.24 -0.989,-1.492 -2.884,-2.871 -1.68,-4.8 0.634,-1.01601 2.229,-1.512 4.08,-0.96 z"
   id="path3301" /><path
   style="fill:#000000;fill-rule:evenodd"
   inkscape:connector-curvature="0"
   clip-rule="evenodd"
   d="m 506.49649,-154.24153 c -2.216,0.975 -3.273,3.021 -2.88,6 -0.753,0.239 -1.79,1.096 -2.4,0.72 0.343,-2.218 0.36,-4.761 0.48,-7.20001 0.61,-0.32299 2.055,-0.94599 2.16,0.24001 0.89,-1.099 2.276,-1.63201 2.64,0.24 z"
   id="path3303" /><path
   style="fill:#000000;fill-rule:evenodd"
   inkscape:connector-curvature="0"
   clip-rule="evenodd"
   d="m 316.89649,-154.00153 c 0.337,0.70299 0.646,1.435 0.479,2.64 -3.028,3.57499 -5.518,-4.37 -0.479,-2.64 z"
   id="path3305" /><path
   style="fill:#000000;fill-rule:evenodd"
   inkscape:connector-curvature="0"
   clip-rule="evenodd"
   d="m 500.73649,-153.28154 c 1.364,3.899 -1.086,7.132 -3.84,8.40001 0.016,1.216 -0.413,1.988 -0.24,3.36 -0.735,1.105 -1.904,1.775 -3.36,2.16 0.673,-3.728 1.522,-7.27801 1.2,-12 1.71,-1.019 3.915,-2.97301 6.24,-1.92001 z m -3.6,2.40001 c 0.152,0.808 -0.309,2.229 0.24,2.64 0.563,-0.55701 2.033,-2.374 0.48,-2.88 -0.041,0.28 -0.38,0.26 -0.72,0.24 z"
   id="path3307" /><path
   style="fill:#000000;fill-rule:evenodd"
   inkscape:connector-curvature="0"
   clip-rule="evenodd"
   d="m 302.25649,-151.12153 c 1.046,0.393 2.546,0.333 3.6,0.72 -0.432,2.048 -1.38,3.58 -1.44,6 0.077,0.563 0.743,0.53799 0.96,0.96 2.814,-0.62601 2.971,-3.91 3.84,-6.48 0.911,0.28899 1.889,0.511 2.88,0.72 -0.237,3.604 -1.601,6.08 -1.68,9.84 -1.216,-0.016 -1.987,0.413 -3.36,0.24 -0.077,-0.563 -0.379,-0.901 -0.24,-1.68 -6.477,1.34099 -6.58,-5.923 -4.56,-10.32001 z"
   id="path3309" /><path
   style="fill:#000000;fill-rule:evenodd"
   inkscape:connector-curvature="0"
   clip-rule="evenodd"
   d="m 316.89649,-149.44153 c -0.328,3.11199 -0.205,6.675 -0.721,9.59999 -0.675,0.36501 -1.852,0.22901 -2.64,0.48001 -0.488,-2.988 -0.332,-7.357 0.24,-10.08 1.041,0 2.081,0 3.121,0 z"
   id="path3311" /><path
   style="fill:#000000;fill-rule:evenodd"
   inkscape:connector-curvature="0"
   clip-rule="evenodd"
   d="m 291.69649,-137.68153 c -0.164,0.876 -0.91,1.17 -1.2,1.92 -4.219,-3.134 -4.964,2.539 -0.72,3.12 2.961,6.73 -8.052,8.486 -9.6,3.12 0.064,-1.136 1.048,-1.352 1.44,-2.16 1.332,0.715 3.612,3.659 4.8,0.96 -2.092,-1.791 -4.66,-4.74 -2.4,-7.92 1.847,-2.599 6.186,-1.366 7.68,0.96 z"
   id="path3313" /><path
   style="fill:#000000;fill-rule:evenodd"
   inkscape:connector-curvature="0"
   clip-rule="evenodd"
   d="m 306.81649,-137.68153 c 2.648,-0.962 2.669,3.375 0.48,3.36 -1.849,-0.012 -2.351,-2.68 -0.48,-3.36 z"
   id="path3315" /><path
   style="fill:#000000;fill-rule:evenodd"
   inkscape:connector-curvature="0"
   clip-rule="evenodd"
   d="m 296.49649,-136.00153 c -0.318,2.00099 -0.846,3.794 -0.72,6.24 3.505,1.89999 2.56,-4.146 4.32,-5.52001 1.015,0.26501 1.968,0.59101 2.88,0.96001 -0.648,3.352 -1.626,6.37399 -2.4,9.59999 -1.196,-0.084 -2.985,0.425 -2.64,-1.2 -7.083,1.53 -6.335,-6.92 -4.32,-10.55999 0.961,0.15899 2.089,0.15099 2.88,0.47999 z"
   id="path3317" /><path
   style="fill:#000000;fill-rule:evenodd"
   inkscape:connector-curvature="0"
   clip-rule="evenodd"
   d="m 318.33649,-133.36153 c -0.199,0.601 -0.657,0.94299 -0.72,1.68 -0.845,-0.412 -2.312,-0.738 -3.36,-0.24 -1.385,3.297 4.369,1.751 4.801,4.8 0.144,1.02 -0.771,3.542 -1.921,4.31999 -2.35,1.591 -8.474,-0.015 -6.479,-3.12 0.909,-0.349 4.207,2.079 4.56,-0.48 -0.093,-1.427 -2.037,-1.002 -3.12,-1.44 -4.327,-4.38099 2.753,-10.06 6.239,-5.51999 z"
   id="path3319" /><path
   style="fill:#000000;fill-rule:evenodd"
   inkscape:connector-curvature="0"
   clip-rule="evenodd"
   d="m 305.85649,-133.36153 c 1.112,0.088 2.23,0.17 3.12,0.48 -0.478,3.442 -1.014,6.82599 -1.92,9.84 -1.163,0.043 -2.049,-0.19101 -2.88,-0.48001 0.442,-3.39799 0.96,-6.71999 1.68,-9.83999 z"
   id="path3321" /><path
   style="fill:#000000;fill-rule:evenodd"
   inkscape:connector-curvature="0"
   clip-rule="evenodd"
   d="m 321.45649,-130.96153 c 1.84,0 3.68,0 5.521,0 0.062,1.263 -0.164,2.236 -0.48,3.12 -1.68,0 -3.36,0 -5.04,0 -0.001,-1.04 -0.001,-2.08 -0.001,-3.12 z"
   id="path3323" /><path
   style="fill:#000000;fill-rule:evenodd"
   inkscape:connector-curvature="0"
   clip-rule="evenodd"
   d="m 292.41649,-126.16154 c 2.058,2.913 -2.793,4.347 -3.12,1.68001 -0.157,-1.27801 1.208,-2.557 3.12,-1.68001 z"
   id="path3325" /><path
   style="fill:#000000;fill-rule:evenodd"
   inkscape:connector-curvature="0"
   clip-rule="evenodd"
   d="m 289.53649,-122.08154 c 1.167,-0.046 2.294,-0.055 2.88,0.48001 -0.045,4.248 -0.094,11.641 -4.32,12.23999 -2.319,0.32901 -5.121,-1.27199 -4.8,-4.56 1.265,-0.015 1.761,-0.798 3.12,-0.72 0.418,0.62201 0.035,2.04501 1.2,1.92001 2.188,-1.572 1.246,-6.274 1.92,-9.36001 z"
   id="path3327" /><path
   style="fill:#000000;fill-rule:evenodd"
   inkscape:connector-curvature="0"
   clip-rule="evenodd"
   d="m 298.65649,-112.72153 c 0.823,0.998 2.93,0.775 4.08,0.24 0.229,1.051 0.25,2.309 0.48,3.36 -5.937,1.751 -9.838,-2.41 -9.12,-7.92 0.453,-3.47401 5.046,-6.055 8.16,-3.36 2.512,2.174 1.35,8.81 -3.6,7.68 z m -0.96,-3.6 c 0.707,0.34099 1.514,0.72499 2.4,0.23999 -0.005,-0.565 0.414,-0.70699 0.24,-1.44 -0.731,-0.866 -3.262,-0.733 -2.64,1.20001 z"
   id="path3329" /><path
   style="fill:#000000;fill-rule:evenodd"
   inkscape:connector-curvature="0"
   clip-rule="evenodd"
   d="m 167.85649,-111.04153 c 0.296,0.67799 0.296,1.481 0,2.15999 -3.204,1.607 -3.293,-3.79299 0,-2.15999 z"
   id="path3331" /><path
   style="fill:#000000;fill-rule:evenodd"
   inkscape:connector-curvature="0"
   clip-rule="evenodd"
   d="m 154.41649,-102.16154 c -0.825,0.10501 -1.345,-0.095 -1.92,-0.23999 -0.336,-0.76701 0.546,-2.09301 0.24,-3.60001 -0.252,-0.627 -0.975,-0.785 -1.92,-0.72 -1.139,0.541 -0.368,2.99301 -0.96,4.08 -0.398,0.402 -1.409,0.191 -2.16,0.24001 -0.254,-1.506 0.704,-4.22401 -0.96,-4.32001 -1.94,0.42701 -0.162,3.074 -0.48,4.8 -1.12,-0.15899 -1.542,0.378 -2.4,0.48 -0.562,-2.397 -0.427,-5.493 -0.72,-8.16 0.899,0.334 2.262,-1.039 2.16,0.48 1.128,-0.415 3.282,-0.408 3.84,0.48 4.423,-2.343 7.221,2.458 5.28,6.48 z"
   id="path3333" /><path
   style="fill:#000000;fill-rule:evenodd"
   inkscape:connector-curvature="0"
   clip-rule="evenodd"
   d="m 157.77649,-108.40153 c 5.449,-2.01401 6.086,6.369 1.2,6.23999 -3.231,-0.085 -4.321,-5.086 -1.2,-6.23999 z m 2.16,2.39999 c -0.427,-0.213 -0.61,-0.67 -1.44,-0.479 -1.105,1.809 1.689,3.046 1.44,0.479 z"
   id="path3335" /><path
   style="fill:#000000;fill-rule:evenodd"
   inkscape:connector-curvature="0"
   clip-rule="evenodd"
   d="m 178.89649,-108.40153 c 2.413,1.917 -1.861,4.387 -2.4,1.44 0.379,-0.90201 0.865,-1.696 2.4,-1.44 z"
   id="path3337" /><path
   style="fill:#000000;fill-rule:evenodd"
   inkscape:connector-curvature="0"
   clip-rule="evenodd"
   d="m 164.73649,-107.68153 c 0.959,0.24 1.865,0.53499 2.64,0.96 -0.773,2.026 -1.592,4.007 -2.4,6 -1.108,0.148 -1.381,-0.53901 -2.4,-0.48 0.481,-2.39801 1.453,-4.307 2.16,-6.48 z"
   id="path3339" /><path
   style="fill:#000000;fill-rule:evenodd"
   inkscape:connector-curvature="0"
   clip-rule="evenodd"
   d="m 176.25649,-104.80154 c 1.067,-0.107 1.749,0.171 2.4,0.48 -0.345,3.255 -1.478,5.722005 -2.88,7.920005 -2.527,0.837 -4.675,-0.54 -4.56,-3.12 0.147,-0.333 0.924,-0.036 0.96,-0.479995 1.306,-0.26701 0.767,1.312995 1.92,1.199995 1.7,-1.02 1.453,-3.986995 2.16,-6.000005 z"
   id="path3341" /><path
   style="fill:#000000;fill-rule:evenodd"
   inkscape:connector-curvature="0"
   clip-rule="evenodd"
   d="m 184.89649,-99.281535 c -1.016,-0.343 -2.625,-0.095 -3.6,-0.48 -0.52,1.163 1.335,1.804 2.88,1.68 -0.102,0.501 0.165,0.635 0.24,0.96 -2.084,2.501 -5.128,0.208 -5.28,-2.16 -0.432,-6.722995 9.126,-5.152995 5.76,0 z m -2.4,-1.920005 c 0.325,0.076 0.458,0.34201 0.96,0.24001 0,-0.24001 0,-0.48 0,-0.72 -0.547,-0.067 -0.902,0.058 -0.96,0.47999 z"
   id="path3343" /><path
   style="fill:#000000;fill-rule:evenodd"
   inkscape:connector-curvature="0"
   clip-rule="evenodd"
   d="m 167.61649,-100.96153 c 0.759,-0.039 0.802,0.638 1.68,0.47999 -0.783,1.377005 -1.349,2.971005 -2.88,3.600005 -0.026,-1.786 0.565,-2.955 1.2,-4.079995 z"
   id="path3345" /><path
   style="fill:#000000;fill-rule:evenodd"
   inkscape:connector-curvature="0"
   clip-rule="evenodd"
   d="m 152.97649,-100.72153 c 1.132,0.228 1.904,0.815995 1.68,2.399995 -0.575,0.305 -0.884,0.876 -1.92,0.72 -1.31,-0.644 -1.112,-2.695005 0.24,-3.119995 z"
   id="path3347" /><path
   style="fill:#000000;fill-rule:evenodd"
   inkscape:connector-curvature="0"
   clip-rule="evenodd"
   d="m 151.29649,-96.881535 c 0.814,0.065 1.946,-0.186 2.4,0.24 0.083,3.843 -1.195,6.325 -2.88,8.4 -2.781,0.301 -4.013,-0.948 -4.32,-3.12 0.359,-0.281 0.981,-0.298 1.2,-0.72 0.997,0.123 0.881,1.359 1.92,1.44 1.229,-1.411 1.453,-3.828 1.68,-6.24 z"
   id="path3349" /><path
   style="fill:#000000;fill-rule:evenodd"
   inkscape:connector-curvature="0"
   clip-rule="evenodd"
   d="m 157.29649,-95.921535 c 3.04,-0.834 5.367,1.146 5.28,4.08 -0.143,4.771 -7.263,4.562 -7.92,0.48 -0.347,-2.153 0.282,-3.913 2.64,-4.56 z m 0.72,5.04 c 0.691,-0.028 1.571,0.131 1.92,-0.24 1.77,-4.011 -4.991,-2.564 -1.92,0.24 z"
   id="path3351" /><path
   style="fill:#000000;fill-rule:evenodd"
   inkscape:connector-curvature="0"
   clip-rule="evenodd"
   d="m 166.17649,-94.481535 c -0.283,1.397 -0.681,2.679 -0.72,4.32 2.226,1.647 2.933,-1.9 3.6,-3.36 0.659,0.381 1.741,0.338 2.4,0.72 -0.56,2.4 -1.284,4.637 -2.16,6.72 -0.904,-0.296 -2.531,0.131 -2.16,-1.44 -5.577,2.962 -5.226,-9.383 -0.96,-6.96 z"
   id="path3353" /><path
   style="fill:#000000;fill-rule:evenodd"
   inkscape:connector-curvature="0"
   clip-rule="evenodd"
   d="m 504.81649,-93.521535 c -0.751,0.735 -1.858,-0.21 -2.88,0 -0.077,-0.427 2.283,-0.664 2.88,0 z"
   id="path3355" /><path
   style="fill:#000000;fill-rule:evenodd"
   inkscape:connector-curvature="0"
   clip-rule="evenodd"
   d="m 176.49649,-86.801535 c -1.317,-0.254 -2.704,-1.546 -3.84,-1.2 0.188,1.491 1.463,1.897 2.88,2.16 0.009,0.889 -0.369,1.392 -0.72,1.92 -2.392,-0.231 -3.61,-0.871 -4.08,-2.16 -1.727,-4.733 6.859,-8.87 7.2,-3.36 0.086,1.386 -0.578,1.764 -1.44,2.64 z m -0.72,-1.92 c 0,-0.32 0,-0.64 0,-0.96 -0.4,0 -0.8,0 -1.2,0 0.083,0.637 0.63,0.81 1.2,0.96 z"
   id="path3357" /><path
   style="fill:#000000;fill-rule:evenodd"
   inkscape:connector-curvature="0"
   clip-rule="evenodd"
   d="m 505.77649,-90.161535 c -0.398,1.281 -1.023,2.336 -1.681,3.36 -1.316,-0.8 -3.198,-0.426 -3.84,0.72 1.342,2.991 6.8,1.82 7.681,5.52 1.777,7.468 -8.045,9.816 -12.48,5.76 0.471,-1.609 1.65,-2.509 2.4,-3.84 1.09,0.413 4.198,2.055 4.8,0 -0.897,-2.038 -3.43,-1.602 -4.8,-2.64 -5.749,-4.357 0.509,-13.611 7.92,-8.88 z"
   id="path3359" /><path
   style="fill:#000000;fill-rule:evenodd"
   inkscape:connector-curvature="0"
   clip-rule="evenodd"
   d="m 450.57649,-88.961535 c 4.066,4.392 -4.661,7.335 -5.28,2.88 -0.368,-2.652 2.703,-4.148 5.28,-2.88 z"
   id="path3361" /><path
   style="fill:#000000;fill-rule:evenodd"
   inkscape:connector-curvature="0"
   clip-rule="evenodd"
   d="m 440.49649,-88.481535 c 1.345,8.735 3.148,17.012 3.6,26.64 -1.897,0.183 -3.508,0.652 -5.52,0.72 -2.149,-8.01 -3.789,-16.532 -4.56,-25.92 2.049,-0.591 3.933,-1.347 6.48,-1.44 z"
   id="path3363" /><path
   style="fill:#000000;fill-rule:evenodd"
   inkscape:connector-curvature="0"
   clip-rule="evenodd"
   d="m 494.49649,-78.881535 c -2.925,0.355 -5.156,1.404 -8.16,1.68 0.8,2.569 3.646,2.293 5.28,0.72 0.667,0.933 1.847,1.353 2.4,2.4 -1,1.875 -3.037,3.026 -5.28,3.12 -11.326,0.475 -8.923,-19.612 1.68,-17.52 1.233,0.243 1.639,1.101 3.12,1.92 0.886,1.854 1.146,5.547 0.96,7.68 z m -7.68,-2.4 c 1.498,-0.101 2.714,-0.486 3.84,-0.96 -0.347,-3.309 -4.498,-1.164 -3.84,0.96 z"
   id="path3365" /><path
   style="fill:#000000;fill-rule:evenodd"
   inkscape:connector-curvature="0"
   clip-rule="evenodd"
   d="m 481.53649,-83.441535 c -2.838,0.605 -5.521,1.581 -6,4.08 -0.534,2.794 1.976,6.347 1.68,9.6 -1.663,0.497 -3.528,0.792 -5.52,0.96 -1.364,-5.276 -1.685,-11.596 -2.88,-17.04 1.504,-0.576 3.463,-0.697 5.04,-1.2 -0.015,0.895 0.241,1.518 0.479,2.16 2.234,-2.962 6.954,-3.989 7.201,1.44 z"
   id="path3367" /><path
   style="fill:#000000;fill-rule:evenodd"
   inkscape:connector-curvature="0"
   clip-rule="evenodd"
   d="m 468.09649,-83.441535 c -0.611,5.789 -1.818,10.981 -3.119,16.08 -1.435,0.406 -2.929,0.752 -4.801,0.72 -2.348,-4.532 -5.927,-9.113 -6.96,-14.16 0.778,-0.982 2.673,-0.848 3.841,-1.44 2.102,1.658 2.981,4.538 4.079,7.2 1.028,-2.573 1.588,-5.612 2.4,-8.4 1.716,0.296 3.232,-0.684 4.56,0 z"
   id="path3369" /><path
   style="fill:#000000;fill-rule:evenodd"
   inkscape:connector-curvature="0"
   clip-rule="evenodd"
   d="m 450.81649,-80.321535 c 1.765,3.857 1.424,10.477 1.2,15.6 -1.69,0.108 -3.796,-0.167 -4.801,0 -1.332,-4.028 -0.976,-9.744 -1.199,-14.88 1.736,-0.104 3.129,-0.551 4.8,-0.72 z"
   id="path3371" /><path
   style="fill:#000000;fill-rule:evenodd"
   inkscape:connector-curvature="0"
   clip-rule="evenodd"
   d="m 234.09649,-71.681535 c 0,0.64 0,1.28 0,1.92 -0.983,-0.023 -1.887,0.033 -1.92,0.96 1.741,1.512 5.341,0.898 4.56,4.8 -0.405,2.021 -2.879,2.621 -5.28,3.12 -0.299,-0.581 -0.594,-1.166 -0.72,-1.92 0.932,0.064 2.622,-0.237 2.4,-1.68 -0.21,-1.366 -3.628,-1.146 -4.32,-2.64 -1.267,-2.737 1.885,-5.26 5.28,-4.56 z"
   id="path3373" /><path
   style="fill:#000000;fill-rule:evenodd"
   inkscape:connector-curvature="0"
   clip-rule="evenodd"
   d="m 227.61649,-70.481535 c 0.273,3.01 0.813,8.32 -0.72,10.32 -1.696,-0.383 -2.218,-1.942 -3.84,-2.4 -0.539,1.221 -0.003,3.517 -0.96,4.32 -2.684,-1.796 -4.402,-4.558 -6.72,-6.72 1.359,-1.995 3.826,-1.376 4.8,0.48 0.247,-1.433 0.231,-3.128 0.96,-4.08 1.863,0.537 2.617,2.183 3.6,3.6 1.055,-1.046 -0.216,-3.086 0,-4.8 1.269,0.14 1.874,-1.362 2.88,-0.72 z"
   id="path3375" /><path
   style="fill:#000000;fill-rule:evenodd"
   inkscape:connector-curvature="0"
   clip-rule="evenodd"
   d="m 216.33649,-61.121535 c -1.356,0.483 -2.832,0.848 -3.84,1.68 0.665,1.668 2.938,0.103 4.08,0 1.853,2.229 -1.143,3.764 -4.08,3.36 -3.882,-1.303 -3.737,-11.124 2.4,-8.88 0.801,0.959 1.428,2.093 1.44,3.84 z m -3.6,-0.72 c 0.733,0.173 0.875,-0.245 1.44,-0.24 0.092,-1.215 -1.624,-0.69 -1.44,0.24 z"
   id="path3377" /><path
   style="fill:#000000;fill-rule:evenodd"
   inkscape:connector-curvature="0"
   clip-rule="evenodd"
   d="m 210.81649,-55.361535 c -0.772,0.269 -1.423,0.657 -2.4,0.72 -0.933,-1.467 -1.026,-3.773 -2.4,-4.8 -3.45,0.694 -0.096,3.704 0,5.76 -1.269,0.091 -1.652,1.068 -2.88,1.2 -0.985,-2.775 -2.108,-5.412 -3.12,-8.16 0.688,-0.432 1.607,-0.632 2.16,-1.2 0.563,0.077 0.537,0.743 0.96,0.96 3.752,-4.187 7.357,1.751 7.68,5.52 z"
   id="path3379" /><path
   style="fill:#000000;fill-rule:evenodd"
   inkscape:connector-curvature="0"
   clip-rule="evenodd"
   d="m 307.65069,-12.671835 c -0.751,0.735 -1.857,-0.21 -2.88,0 -0.077,-0.427 2.282,-0.664 2.88,0 z"
   id="path3381" /><path
   style="fill:#ffffff;fill-rule:evenodd"
   inkscape:connector-curvature="0"
   clip-rule="evenodd"
   d="m 35.86742,2.4707481 c 0.339235,1.3198633 -0.160798,3.3396188 0.17364,4.6640426 0.959445,-0.3877811 1.643644,-1.1068388 2.677346,-1.4047432 1.003468,0.5390042 1.115097,1.8199553 1.378191,2.9747988 -0.532609,0.6804289 -1.471741,0.8732673 -2.082543,1.4590857 1.405828,1.393569 2.875777,2.734896 3.620295,4.679056 -0.49834,0.886605 -1.47352,1.200477 -2.257795,1.742956 -1.393584,-0.809555 -1.838593,-2.407726 -3.149007,-3.286527 -0.01897,1.069099 0.17779,1.958608 0.01213,3.149872 -1.065872,0.205623 -2.384474,0.107019 -3.744667,-0.04224 0.124022,-4.728685 -0.06238,-9.1983449 -0.08842,-13.8026696 0.895213,-0.3549133 2.305546,-0.091113 3.460855,-0.1336278 z"
   id="path3383" /><path
   style="fill:#000000;fill-rule:evenodd"
   inkscape:connector-curvature="0"
   clip-rule="evenodd"
   d="m 312.5626,-44.437297 c -0.20797,1.430008 -1.25113,1.856868 -1.7179,2.976042 -1.48556,-0.490196 -3.34597,-0.702345 -4.12858,0.345798 -0.012,2.604708 3.06434,2.059348 4.56173,2.82677 2.39239,1.225754 4.20878,5.931535 1.12593,8.778854 -0.7908,0.731082 -4.2942,1.806789 -5.93264,1.626972 -3.87437,-0.425271 -4.96549,-3.496283 -1.90865,-5.476372 1.19109,0.394005 3.27768,1.372912 3.86775,-0.12863 -1.11955,-2.25421 -3.98073,-2.107926 -5.43041,-3.870133 -4.30017,-5.227933 3.29147,-11.945073 9.56277,-7.079301 z"
   id="path3385" /><path
   style="fill:#000000;fill-rule:evenodd"
   inkscape:connector-curvature="0"
   clip-rule="evenodd"
   d="m 355.29649,14.958465 c 0.24,1.2 0.565,2.315 0.48,3.84 5.285,-1.013 5.813,3.354 5.28,7.44 -0.721,0 -1.44,0 -2.16,0 -0.764,-1.237 0.057,-4.057 -1.2,-4.8 -1.067,-0.107 -1.271,0.65 -1.92,0.96 -0.156,1.849 0.695,3.523 -0.24,4.8 -0.904,-0.185 -1.147,0.293 -1.92,0.24 -1.262,-3.298 -0.904,-8.216 -1.2,-12.48 0.551,-0.375 2.33,-0.375 2.88,0 z"
   id="path3387" /><path
   style="fill:#000000;fill-rule:evenodd"
   inkscape:connector-curvature="0"
   clip-rule="evenodd"
   d="m 378.09649,16.158465 c -0.304,0.736 -0.816,1.263 -1.199,1.92 -1.102,-0.019 -1.547,-0.693 -2.88,-0.479 -0.179,2.178 2.03,1.969 3.119,2.88 2.704,4.598 -4.378,7.808 -6.239,3.84 0.53,-0.189 0.601,-0.84 0.96,-1.2 0.98,-0.101 0.97,0.79 2.16,0.48 1.321,-2.986 -3.549,-2.639 -3.36,-5.761 0.172,-2.859 5.161,-4.244 7.439,-1.68 z"
   id="path3389" /><path
   style="fill:#000000;fill-rule:evenodd"
   inkscape:connector-curvature="0"
   clip-rule="evenodd"
   d="m 330.57649,16.398465 c -0.062,0.737 -0.521,1.079 -0.72,1.68 -0.563,-0.076 -0.901,-0.379 -1.681,-0.24 -0.79,0.33 -0.97,1.271 -1.199,2.16 0.019,0.861 1.568,0.191 1.92,0.721 -0.284,0.596 -0.348,1.412 -0.48,2.159 -0.349,0.451 -1.57,0.029 -1.92,0.48 -0.11,1.17 0.251,2.812 -0.24,3.6 -0.562,0.442 -1.527,-0.25 -2.64,0 0.128,-4.672 -0.064,-9.664 2.64,-11.76 1.911,-0.07 3.791,-0.11 4.32,1.2 z"
   id="path3391" /><path
   style="fill:#000000;fill-rule:evenodd"
   inkscape:connector-curvature="0"
   clip-rule="evenodd"
   d="m 342.33649,18.078465 c -1.02,1.289 -3.227,0.641 -3.12,-1.2 0.583,-1.704 3.871,-1.624 3.12,1.2 z"
   id="path3393" /><path
   style="fill:#000000;fill-rule:evenodd"
   inkscape:connector-curvature="0"
   clip-rule="evenodd"
   d="m 337.77649,17.838465 c -0.422,0.219 -0.439,0.842 -0.72,1.2 -0.88,0.178 -1.334,-0.59 -1.921,0 -0.532,0.428 -0.871,1.049 -0.72,2.16 0.349,0.371 0.937,0.504 1.68,0.48 0,0.8 0,1.6 0,2.399 -0.574,0.146 -1.095,0.346 -1.92,0.24 -0.04,1.4 0.419,2.301 0.24,3.84 -0.773,0.347 -2.013,0.227 -3.12,0.24 -0.059,-3.813 -0.422,-8.95 1.2,-11.76 1.505,-0.919 5.108,-0.708 5.281,1.201 z"
   id="path3395" /><path
   style="fill:#000000;fill-rule:evenodd"
   inkscape:connector-curvature="0"
   clip-rule="evenodd"
   d="m 369.45649,18.078465 c 0.027,1.333 0.511,2.209 0.48,3.601 -1.68,0.24 -2.762,1.078 -4.561,1.199 0.367,1.455 2.761,0.945 3.84,0.48 0.263,0.537 0.397,1.202 0.721,1.68 -4.599,6.356 -11.123,-4.198 -6.24,-7.68 1.661,-1.184 4.366,-0.668 5.76,0.72 z m -3.84,2.16 c 0.497,-0.143 1.576,0.297 1.68,-0.24 -0.425,-0.215 -0.306,-0.974 -1.2,-0.72 -0.124,0.355 -0.355,0.604 -0.48,0.96 z"
   id="path3397" /><path
   style="fill:#000000;fill-rule:evenodd"
   inkscape:connector-curvature="0"
   clip-rule="evenodd"
   d="m 321.45649,17.838465 c -0.002,3.038 0.116,6.196 -0.479,8.641 -2.538,-0.436 -3.107,-0.002 -6,0 -4.027,-1.066 -4.203,-8.081 -0.48,-9.36 2.544,-0.876 4.153,1.132 6.959,0.719 z m -5.28,1.919 c -1.837,0.059 -2.074,4.127 0.96,3.601 0.649,-1.261 0.427,-3.644 -0.96,-3.601 z"
   id="path3399" /><path
   style="fill:#000000;fill-rule:evenodd"
   inkscape:connector-curvature="0"
   clip-rule="evenodd"
   d="m 350.01649,20.238465 c 0.338,2.323 -2.908,1.064 -3.12,2.88 -0.162,1.38 1.501,2.045 3.359,1.2 0.316,0.724 0.775,1.305 0.721,2.4 -0.916,0.844 -2.757,0.764 -4.561,0.72 -5.384,-1.827 -1.177,-11.833 3.601,-7.2 z"
   id="path3401" /><path
   style="fill:#000000;fill-rule:evenodd"
   inkscape:connector-curvature="0"
   clip-rule="evenodd"
   d="m 342.33649,19.998465 c -0.097,2.543 0.232,5.513 -0.24,7.681 -1.022,-0.098 -2.472,0.232 -3.119,-0.24 0.535,-2.919 -1.231,-9.373 3.359,-7.441 z"
   id="path3403" /><path
   style="fill:#000000;fill-rule:evenodd"
   inkscape:connector-curvature="0"
   clip-rule="evenodd"
   d="m 284.25649,25.998465 c 0.737,1.104 -0.379,2.127 0,3.36 0.479,1.558 1.898,1.562 3.12,2.64 0.985,2.379 0.667,6.445 -2.16,6.48 -0.333,-0.147 -0.036,-0.924 -0.48,-0.96 0.058,-1.343 1.481,-1.146 1.2,-2.88 -0.316,-1.95 -4.343,-2.203 -4.32,-5.521 0.006,-0.917 0.5,-3.37 2.64,-3.119 z"
   id="path3405" /><path
   style="fill:#000000;fill-rule:evenodd"
   inkscape:connector-curvature="0"
   clip-rule="evenodd"
   d="m 269.13649,39.198465 c 1.024,0.571 1.053,3.325 -0.24,3.6 -1.015,-0.345 -1.625,-1.095 -1.44,-2.64 0.602,-0.277 0.804,-0.956 1.68,-0.96 z"
   id="path3407" /><path
   style="fill:#000000;fill-rule:evenodd"
   inkscape:connector-curvature="0"
   clip-rule="evenodd"
   d="m 261.69649,50.478465 c 5.12,0.268 4.63,9.054 0.96,10.56 -2.59,-3.329 -5.364,-6.476 -7.68,-10.08 0.49,-3.262 6.908,-6.492 6.72,-0.48 z m -4.56,0.48 c 0.088,0.712 0.416,1.185 0.96,1.44 0.402,-0.486 1.651,-1.834 0.48,-2.4 -0.361,0.438 -1.036,0.564 -1.44,0.96 z m 2.88,3.84 c 0.533,1.067 1.003,2.197 2.16,2.641 0.726,-0.885 0.913,-2.278 0.24,-3.36 -1.095,-0.056 -1.676,0.403 -2.4,0.719 z"
   id="path3409" /><path
   style="fill:#000000;fill-rule:evenodd"
   inkscape:connector-curvature="0"
   clip-rule="evenodd"
   d="m 251.61649,51.918465 c -5.739,-0.488 1.899,-6.422 0,0 l 0,0 z"
   id="path3411" /><path
   style="fill:#000000;fill-rule:evenodd"
   inkscape:connector-curvature="0"
   clip-rule="evenodd"
   d="m 395.85649,52.158465 c -0.016,1.104 -0.683,1.558 -0.96,2.4 -1.346,0.049 -2.728,-1.096 -3.36,0.239 0.308,1.692 2.468,1.532 3.84,2.16 4.038,3.965 -2.443,9.902 -6.24,6 0.211,-0.669 0.575,-1.186 0.721,-1.92 0.748,-0.43 2.646,1.047 3.12,-0.479 -0.835,-2.979 -4.635,-2.043 -5.04,-5.04 -0.521,-3.844 4.862,-6.042 7.919,-3.36 z"
   id="path3413" /><path
   style="fill:#000000;fill-rule:evenodd"
   inkscape:connector-curvature="0"
   clip-rule="evenodd"
   d="m 368.01649,51.198465 c 0.201,0.599 0.313,1.286 0.239,2.16 0.635,-0.485 2.204,-0.036 2.88,-0.48 0.405,0.955 0.188,2.532 0.24,3.841 -1.018,0.182 -2.102,0.298 -3.12,0.479 -0.208,3.488 0.429,6.132 0.721,9.12 -1.174,0.106 -2.066,0.494 -3.36,0.479 -0.289,-5.15 -1.435,-9.444 -1.2,-15.119 0.883,-0.478 2.647,-0.073 3.6,-0.48 z"
   id="path3415" /><path
   style="fill:#000000;fill-rule:evenodd"
   inkscape:connector-curvature="0"
   clip-rule="evenodd"
   d="m 254.01649,52.638465 c 2.755,2.044 4.304,5.296 6.72,7.68 -0.381,0.819 -0.802,1.599 -1.68,1.92 -2.537,-2.023 -4.118,-5.002 -6.24,-7.44 -0.083,-1.204 1.062,-1.178 1.2,-2.16 z"
   id="path3417" /><path
   style="fill:#000000;fill-rule:evenodd"
   inkscape:connector-curvature="0"
   clip-rule="evenodd"
   d="m 383.85649,53.598465 c 0.846,0.029 0.065,0.349 0.479,0.96 0.817,-0.223 1.408,-0.673 2.641,-0.48 -0.048,0.928 -0.009,1.769 0.239,2.4 -3.286,0.479 -2.61,4.22 -1.92,7.2 -0.594,0.445 -1.832,0.247 -2.399,0.72 -1.721,-2.279 -1.581,-6.42 -1.92,-10.08 0.879,-0.32 1.832,-0.567 2.88,-0.72 z"
   id="path3419" /><path
   style="fill:#000000;fill-rule:evenodd"
   inkscape:connector-curvature="0"
   clip-rule="evenodd"
   d="m 335.61649,54.558465 c 2.489,-1.769 6.059,-0.107 6.72,2.16 1.132,5.515 -2.906,9.395 -6.96,6.72 0.165,2.085 -0.234,3.604 -0.24,5.52 -0.88,0 -1.76,0 -2.64,0 -0.354,-4.563 -0.394,-10.323 0,-14.88 1.153,0.439 3.031,-1.165 3.12,0.48 z m 3.36,6.24 c 0.688,-1.163 0.484,-2.878 -0.24,-3.84 -2.79,-0.719 -2.617,4.78 0.24,3.84 z"
   id="path3421" /><path
   style="fill:#000000;fill-rule:evenodd"
   inkscape:connector-curvature="0"
   clip-rule="evenodd"
   d="m 362.01649,54.558465 c 0.124,1.244 -0.753,1.487 -0.96,2.399 -0.746,-0.447 -2.707,-0.406 -2.641,0.721 2.022,1.288 4.813,1.464 5.28,3.84 0.876,4.465 -5.047,6.076 -8.16,3.359 0.03,-1.009 0.93,-1.15 0.96,-2.159 1.103,0.429 2.742,1.196 3.6,0 -0.935,-2.947 -6.695,-1.206 -5.52,-6.24 0.509,-2.175 4.72,-3.586 7.441,-1.92 z"
   id="path3423" /><path
   style="fill:#000000;fill-rule:evenodd"
   inkscape:connector-curvature="0"
   clip-rule="evenodd"
   d="m 380.25649,59.118465 c -1.643,0.356 -2.859,1.141 -4.8,1.2 0.187,1.898 2.81,1.043 4.08,0.72 0.162,0.638 0.378,1.223 0.72,1.681 -1.175,1.995 -4.751,2.447 -6.479,1.199 -4.826,-3.481 0.265,-14.077 5.76,-8.64 0.379,1.14 0.497,2.542 0.719,3.84 z m -4.56,-1.44 c 0.56,0 1.12,0 1.68,0 0.089,-1.223 -1.768,-1.223 -1.68,0 z"
   id="path3425" /><path
   style="fill:#000000;fill-rule:evenodd"
   inkscape:connector-curvature="0"
   clip-rule="evenodd"
   d="m 348.09649,54.798465 c 7.966,-0.589 7.359,12.485 -0.72,11.04 -4.741,-0.848 -7.292,-10.448 0.72,-11.04 z m -1.68,4.32 c -0.318,2.398 0.722,3.438 3.12,3.12 0.844,-0.602 1.307,-2.3 0.72,-3.6 -1.157,-1.116 -2.952,-0.504 -3.84,0.48 z"
   id="path3427" /><path
   style="fill:#000000;fill-rule:evenodd"
   inkscape:connector-curvature="0"
   clip-rule="evenodd"
   d="m 257.85649,64.398465 c -0.342,0.938 -0.982,1.577 -1.92,1.92 -1.078,-0.202 -1.348,-1.212 -1.92,-1.92 -0.876,0.163 -1.17,0.909 -1.92,1.2 0.511,1.089 1.232,1.968 1.68,3.12 -0.263,0.856 -0.823,1.417 -1.68,1.68 -2.067,-3.134 -4.17,-6.23 -6.48,-9.12 0.213,-1.227 0.857,-2.023 1.92,-2.4 0.506,1.015 1.174,1.866 1.68,2.88 0.788,-0.092 1.058,-0.701 1.68,-0.96 -1.732,-1.566 -2.971,-5.402 0.48,-6 1.838,3.522 4.299,6.421 6.48,9.6 z"
   id="path3429" /><path
   style="fill:#000000;fill-rule:evenodd"
   inkscape:connector-curvature="0"
   clip-rule="evenodd"
   d="m 243.93649,58.638465 c 1.782,1.93 1.032,4.625 1.92,6.72 1.143,2.695 4.62,3.263 6,5.52 -0.207,1.154 -1.457,1.263 -1.92,2.16 -1.331,-0.35 -2.289,-1.071 -3.36,-1.68 0.629,2.208 0.606,5.263 -1.44,5.04 -0.502,-2.138 -0.536,-4.744 -0.96,-6.96 -1.482,-1.318 -3.317,-2.283 -4.8,-3.601 0.073,-1.367 0.95,-1.93 1.44,-2.88 0.745,0.375 1.528,0.712 2.16,1.2 -0.403,-2.453 -0.715,-4.296 0.96,-5.519 z"
   id="path3431" /><path
   style="fill:#000000;fill-rule:evenodd"
   inkscape:connector-curvature="0"
   clip-rule="evenodd"
   d="m 236.73649,63.438465 c 3.952,1.403 -0.381,4.933 0.72,7.2 1.061,-0.779 1.261,-2.42 2.4,-3.12 3.646,1.54 0.568,4.905 1.2,7.2 0.509,-0.691 1.207,-1.193 1.44,-2.16 1.214,0.626 1.188,2.491 1.92,3.6 -0.749,1.571 -2.227,2.413 -3.36,3.6 -2.975,-2.784 -4.636,-6.884 -7.44,-9.84 0.769,-2.431 2.484,-3.915 3.12,-6.48 z"
   id="path3433" /><path
   style="fill:#000000;fill-rule:evenodd"
   inkscape:connector-curvature="0"
   clip-rule="evenodd"
   d="m 283.29649,73.518465 c 0.194,2.193 -1.588,2.412 -2.4,3.6 0.609,3.749 4.768,1.664 7.2,3.36 1.092,0.761 2.347,3.003 2.4,4.56 0.114,3.363 -3.986,8.589 -6.96,4.561 0.034,-1.166 0.378,-2.021 0.72,-2.88 0.772,-0.053 1.015,0.424 1.92,0.239 2.071,-3.912 -2.73,-2.964 -5.28,-4.08 -4.422,-1.936 -6.027,-11.718 2.4,-9.36 z"
   id="path3435" /><path
   style="fill:#000000;fill-rule:evenodd"
   inkscape:connector-curvature="0"
   clip-rule="evenodd"
   d="m 271.29649,80.478465 c 5.757,-1.307 11.02,6.19 11.76,11.52 0.793,5.71 -3.23,5.878 -6.24,3.36 -3.33,-2.787 -7.095,-8.866 -5.52,-14.88 z m 5.28,8.4 c 0.878,1.33 2.077,3.375 3.12,3.12 -0.927,-3.473 -2.905,-5.895 -5.52,-7.68 0.334,1.512 1.461,3.139 2.4,4.56 z"
   id="path3437" /><path
   style="fill:#000000;fill-rule:evenodd"
   inkscape:connector-curvature="0"
   clip-rule="evenodd"
   d="m 269.85649,96.558465 c 1.186,2.095 2.388,4.172005 3.6,6.239005 -0.596,1.404 -1.311,2.689 -2.88,3.12 -2.162,-3.906 -4.007,-7.769005 -6.24,-12.479005 -0.637,-1.345 -1.976,-3.081 -1.92,-4.08 0.124,-2.219 3.625,-4.576 5.04,-4.561 4.468,0.053 6.086,9.103 2.4,11.761 z m -3.6,-6.24 c 0.637,0.482 0.582,1.658 1.44,1.92 0.521,-0.572 0.633,-1.82 0.24,-2.64 -0.854,-0.053 -1.438,0.161 -1.68,0.72 z"
   id="path3439" /><path
   style="fill:#000000;fill-rule:evenodd"
   inkscape:connector-curvature="0"
   clip-rule="evenodd"
   d="m 269.37649,106.63846 c -0.458,1.38201 -1.748,1.932 -2.64,2.88 -1.363,0.003 -1.42,-1.30099 -2.4,-1.681 0.028,1.732 0.397,3.123 0.24,5.04 -1.223,-0.022 -1.897,0.503 -3.12,0.48 -1.182,-2.898 -1.726,-6.435 -1.92,-10.32 -1.59,-2.01 -3.681,-3.518995 -5.28,-5.519995 0.467,-1.214 1.534,-1.826 2.4,-2.641 1.276,0.404 1.465,1.895 2.64,2.4 0.117,-1.637 -0.331,-2.709 -0.48,-4.08 0.402,-0.878 1.483,-1.076 2.16,-1.68 0.388,-0.067 0.414,0.227 0.72,0.239 1.055,2.875 0.278,5.694 1.2,7.921 1.252,3.025995 5.454,3.936995 6.48,6.961995 z"
   id="path3441" /><path
   style="fill:#000000;fill-rule:evenodd"
   inkscape:connector-curvature="0"
   clip-rule="evenodd"
   d="m 254.49649,100.63846 c -0.985,1.599 -3.775,2.49001 -2.4,5.04 0.882,-0.078 1.328,-0.59299 2.16,-0.721 0.776,0.904 1.047,2.313 1.68,3.36001 -0.179,0.941 -0.949,1.29099 -1.68,1.68 0.469,0.731 0.668,1.731 1.2,2.4 1.292,-0.628 2.534,-1.307 3.36,-2.4 4.259,3.34 -0.065,7.264 -3.12,8.88 -3.599,-4.801 -5.986,-10.814 -8.64,-16.56 1.577,-1.94301 3.41,-3.630005 5.04,-5.521005 1.3,0.782 1.753,2.409 2.4,3.842005 z"
   id="path3443" /><path
   style="fill:#000000;fill-rule:evenodd"
   inkscape:connector-curvature="0"
   clip-rule="evenodd"
   d="m 53.61649,115.27847 c -0.28,1.16 -1.76,1.119 -2.16,2.16 0.343,1.098 0.977,1.903 1.2,3.12 -2.968,2.862 -3.767,-2.968 -4.8,-5.04 1.861,-0.217 4.914,-3.037 5.76,-0.24 z"
   id="path3445" /><path
   style="fill:#000000;fill-rule:evenodd"
   inkscape:connector-curvature="0"
   clip-rule="evenodd"
   d="m 46.17649,116.71847 c 1.265,1.614 2.059,3.701 3.12,5.52 -2.425,3.674 -7.633,2.224 -8.16,-2.16 0.534,-0.586 1.17,-1.069 2.16,-1.2 0.638,0.962 0.643,2.558 1.92,2.88 0.611,-1.099 -0.851,-2.183 -0.96,-3.359 0.242,-0.959 1.439,-0.962 1.92,-1.681 z"
   id="path3447" /><path
   style="fill:#000000;fill-rule:evenodd"
   inkscape:connector-curvature="0"
   clip-rule="evenodd"
   d="m 65.85649,128.71846 c -0.674,0.285 -1.38,0.54 -2.16,0.72 -1.725,-3.15499 -2.048,-7.71199 -3.84,-10.8 0.493,-0.566 1.644,-1.419 2.4,-0.96 1.506,3.374 2.452,7.308 3.6,11.04 z"
   id="path3449" /><path
   style="fill:#000000;fill-rule:evenodd"
   inkscape:connector-curvature="0"
   clip-rule="evenodd"
   d="m 32.49649,121.51846 c -4.168,1.796 2.662,5.42 3.6,7.68 -0.158,0.883 -0.885,1.195 -1.44,1.68 -1.181,-0.693 -2.684,-2.41399 -4.32,-4.31899 -1.699,-1.979 -5.249,-4.957 -2.16,-6.48 1.887,0.958 3.465,-1.565 4.32,1.439 z"
   id="path3451" /><path
   style="fill:#000000;fill-rule:evenodd"
   inkscape:connector-curvature="0"
   clip-rule="evenodd"
   d="m 58.17649,121.51846 c 0.478,2.22301 -1.746,2.58601 -2.4,1.2 -0.277,-1.667 1.511,-2.046 2.4,-1.2 z"
   id="path3453" /><path
   style="fill:#000000;fill-rule:evenodd"
   inkscape:connector-curvature="0"
   clip-rule="evenodd"
   d="m 37.05649,121.51846 c 5.242,-1.827 5.962,7.225 0.96,6.96 -3.483,-0.184 -4.39,-5.764 -0.96,-6.96 z m 0.24,3.6 c 0.309,0.411 0.496,0.944 1.2,0.96 0.651,-0.422 0.697,-2.023 -0.24,-2.16 -0.241,0.47901 -1.061,0.379 -0.96,1.2 z"
   id="path3455" /><path
   style="fill:#000000;fill-rule:evenodd"
   inkscape:connector-curvature="0"
   clip-rule="evenodd"
   d="m 59.61649,125.59847 c 0.332,1.988 1.664,2.97699 1.68,5.27899 -0.926,0.034 -1.109,0.81201 -2.16,0.721 -0.57,-1.91 -1.637,-3.323 -1.92,-5.52099 1.027,0.068 1.187,-0.733 2.4,-0.479 z"
   id="path3457" /><path
   style="fill:#000000;fill-rule:evenodd"
   inkscape:connector-curvature="0"
   clip-rule="evenodd"
   d="m 54.57649,131.35846 c 1.259,-0.258 2.144,-0.278 3.12,0.24 -2.835,8.602 -12.574,-7.31599 -3.6,-5.76099 1.31,0.228 2.58,4.08799 0.48,5.52099 z m -1.2,-1.68 c 0.916,-0.216 0.527,-1.946 -0.72,-1.44 -0.01,0.729 -0.14,1.58 0.72,1.44 z"
   id="path3459" /><path
   style="fill:#000000;fill-rule:evenodd"
   inkscape:connector-curvature="0"
   clip-rule="evenodd"
   d="m 29.61649,132.55846 c 1.537,0.565 2.243,-1.078 3.6,0.23901 -0.809,3.967 -7.747,2.037 -8.4,-0.96001 -0.79,-3.621 3.604,-5.53699 5.28,-1.43899 0.074,0.954 -0.554,1.205 -0.48,2.15999 z m -2.64,-1.91999 c -0.01,0.33 0.113,0.526 0.24,0.72 0.632,0.072 0.788,-0.332 0.72,-0.96 -0.418,-0.018 -0.746,0.054 -0.96,0.24 z"
   id="path3461" /><path
   style="fill:#000000;fill-rule:evenodd"
   inkscape:connector-curvature="0"
   clip-rule="evenodd"
   d="m 21.93649,133.51846 c 1.547,0.692 3.983,0.497 5.28,1.439 0.129,1.089 -0.482,1.438 -0.72,2.16 -1.837,-0.403 -3.568,-0.912 -5.76,-0.96 0.789,1.61 2.352,2.448 3.36,3.84 -0.106,0.854 -0.869,1.052 -1.2,1.681 -3.09,-1.558 -5.674,-5.681 -8.64,-8.16 -0.675,-5.136 9.117,-7.264 7.68,0 z m -4.8,-0.72 c 0.629,0.332 0.826,1.095 1.68,1.2 0.491,-0.628 0.836,-1.403 0.72,-2.64 -1.122,-0.52 -2.091,0.432 -2.4,1.44 z"
   id="path3463" /><path
   style="fill:#000000;fill-rule:evenodd"
   inkscape:connector-curvature="0"
   clip-rule="evenodd"
   d="m 50.97649,135.19846 c -3.031,1.49 -6.688,1.482 -7.68,-1.68 -0.158,-0.503 -0.077,-1.433 0,-1.92 2.225,-1.761 2.176,1.873 3.84,2.159 0.772,-1.26 -0.931,-2.103 -0.72,-3.6 2.673,-2.02699 4.189,3.289 4.56,5.041 z"
   id="path3465" /><path
   style="fill:#000000;fill-rule:evenodd"
   inkscape:connector-curvature="0"
   clip-rule="evenodd"
   d="m 41.85649,134.71846 c -0.039,1.081 -1.359,0.881 -1.44,1.92 -0.103,0.982 0.507,1.253 0.96,1.68 1.139,0.099 1.261,-0.81899 2.4,-0.72 0.316,0.724 0.775,1.305 0.72,2.399 -2.875,1.748 -6.646,0.188 -6.96,-2.63999 -0.272,-2.44801 2.965,-6.154 4.32,-2.63901 z"
   id="path3467" /><path
   style="fill:#000000;fill-rule:evenodd"
   inkscape:connector-curvature="0"
   clip-rule="evenodd"
   d="m 37.05649,141.67846 c 1.284,0.244 1.194,-0.886 2.4,-0.721 0.206,0.755 0.907,1.013 0.96,1.92 -1.152,0.867 -2.012,1.557 -3.36,1.44 -4.402,-0.381 -4.241,-9.175 -0.72,-5.28 -0.358,1.107 -0.255,2.262 0.72,2.641 z"
   id="path3469" /><path
   style="fill:#000000;fill-rule:evenodd"
   inkscape:connector-curvature="0"
   clip-rule="evenodd"
   d="m 406.65649,141.19846 c 1.189,0.73 0.628,3.212 1.2,4.56 0.568,0.475 0.953,-1.275 1.92,-1.199 0.664,0.376 1.334,0.745 2.16,0.96 0.045,1.619 -2.361,1.393 -2.4,2.399 -0.047,1.204 2.854,1.62 3.6,3.12 -1.05,2.333 -3.261,0.297 -4.56,-0.479 -0.326,0.265 0.234,1.672 0.24,2.399 -0.957,0.164 -1.633,0.607 -2.88,0.48 -0.771,-3.629 -1.269,-7.532 -1.92,-11.28 0.751,-0.449 1.909,-0.491 2.64,-0.96 z"
   id="path3471" /><path
   style="fill:#000000;fill-rule:evenodd"
   inkscape:connector-curvature="0"
   clip-rule="evenodd"
   d="m 36.09649,145.03846 c 0.167,1.399 -1.06,1.325 -1.92,2.16 -0.745,0.724 -1.067,1.907 -1.92,2.16 -3.116,0.923 -5.506,-2.01 -5.28,-4.32 0.153,-1.562 1.756,-3.50899 2.88,-3.6 2.164,-0.17599 3.78,3.52501 6.24,3.6 z m -4.8,1.92 c 0.653,-1.366 -0.818,-2.057 -1.68,-2.64 -0.767,1.338 0.526,2.447 1.68,2.64 z"
   id="path3473" /><path
   style="fill:#000000;fill-rule:evenodd"
   inkscape:connector-curvature="0"
   clip-rule="evenodd"
   d="m 387.45649,141.43846 c 1.13,4.391 1.963,9.077 2.4,14.16 -1.208,-0.168 -1.673,0.40701 -2.88,0.239 -1.062,-4.537 -2.196,-9.00399 -2.641,-14.15899 1.059,-0.062 1.857,-0.38301 3.121,-0.24001 z"
   id="path3475" /><path
   style="fill:#000000;fill-rule:evenodd"
   inkscape:connector-curvature="0"
   clip-rule="evenodd"
   d="m 416.97649,147.91846 c 0.461,1.376 2.118,0.39 2.88,0 2.479,1.57 -0.443,4.479 -3.84,3.601 -1.63,-0.422 -4.773,-5.789 -2.881,-8.4 3.024,-4.171 10.19,1.78 3.841,4.799 z m -1.44,-1.92 c 0.733,0.17401 0.875,-0.245 1.44,-0.24 -0.003,-0.637 0.09,-1.37 -0.24,-1.68 -1.354,-0.362 -1.789,1.096 -1.2,1.92 z"
   id="path3477" /><path
   style="fill:#000000;fill-rule:evenodd"
   inkscape:connector-curvature="0"
   clip-rule="evenodd"
   d="m 395.61649,141.67846 c 1.32,3.719 1.657,8.422 2.64,12.479 -0.823,0.536 -2.263,0.457 -3.359,0.72 -0.999,-3.961 -1.383,-8.537 -1.92,-12.96 0.989,0.031 1.501,-0.416 2.639,-0.239 z"
   id="path3479" /><path
   style="fill:#000000;fill-rule:evenodd"
   inkscape:connector-curvature="0"
   clip-rule="evenodd"
   d="m 401.85649,144.31846 c -0.827,0.7 -1.456,1.072 -2.4,0.72 -3.428,-1.281 3.056,-6.439 2.4,-0.72 z"
   id="path3481" /><path
   style="fill:#000000;fill-rule:evenodd"
   inkscape:connector-curvature="0"
   clip-rule="evenodd"
   d="m 402.09649,145.75746 c 0.456,2.425 0.673,5.088 1.2,7.44 -0.798,0.402 -1.966,0.435 -2.88,0.72 -0.617,-2.263 -0.668,-5.091 -1.439,-7.199 0.362,-0.998 2.114,-0.605 3.119,-0.961 z"
   id="path3483" /><path
   style="fill:#000000;fill-rule:evenodd"
   inkscape:connector-curvature="0"
   clip-rule="evenodd"
   d="m 266.73649,48.558465 c 1.13,1.83 2.293,3.626 3.6,5.279 -0.651,0.709 -1.11,1.61 -2.16,1.92 -1.57,-2.59 -3.299,-5.021 -4.8,-7.68 0.158,-0.882 0.885,-1.195 1.44,-1.68 0.976,-0.096 0.738,1.021 1.44,1.2 -0.958,-1.521 -1.888,-3.072 -3.12,-4.32 0.016,0.655 2.023,3.067 0,3.84 -1.363,0.112 -2.223,-1.835 -1.2,-2.64 -0.744,-1.017 -1.462,-2.058 -1.92,-3.36 1.684,-1.356 3.6,-2.48 5.28,-3.84 0.901,0.539 0.908,1.972 1.68,2.64 0.043,0.843 -0.811,0.79 -0.96,1.44 0.158,1.686 4.437,4.461 4.08,6.72 -0.166,1.052 -2.357,2.568 -3.36,0.481 z"
   id="path3485" /><path
   style="fill:#000000;fill-rule:evenodd"
   inkscape:connector-curvature="0"
   clip-rule="evenodd"
   d="m 525.21649,-156.64153 c 0.49,0.917 0.049,1.835 0,2.88 -0.74,0.37899 -1.646,0.595 -2.399,0.96 -0.013,1.745 2.078,-0.037 1.92,1.91999 -5.022,4.46701 -4.975,-9.073 0.479,-5.76 z"
   id="path3487" /><path
   style="fill:#000000;fill-rule:evenodd"
   inkscape:connector-curvature="0"
   clip-rule="evenodd"
   d="m 511.29649,-155.20153 c 0.086,1.206 -0.063,2.176 -0.479,2.88 -0.915,0.286 -2.083,0.318 -2.88,0.72 -0.003,1.355 2.276,0.335 2.64,0.72 0.397,2.278 -1.772,2.58299 -3.36,2.15999 -2.637,-2.81 0.669,-9.71699 4.079,-6.47999 z"
   id="path3489" /><path
   style="fill:#ffffff;fill-rule:evenodd"
   inkscape:connector-curvature="0"
   clip-rule="evenodd"
   d="m 21.421788,12.511622 c 0.3769,5.735324 -8.929742,7.878866 -9.233725,0.955672 -0.262162,5.515751 -4.8344623,5.854589 -9.6820573,5.862771 C 1.6273247,14.245498 1.0942297,8.872631 1.1473437,3.0122827 2.4503227,2.762097 3.6610277,2.4003965 5.2437567,2.4868971 c 0.267866,2.0667976 0.234829,4.3841193 0.456712,6.4891985 3.158477,0.3929026 5.9606583,1.0818734 6.2439173,3.8691704 -0.506902,-6.4937837 8.889756,-6.6411308 9.09861,-1.117957 -0.688748,-7.7036811 9.690792,-6.6285472 10.004399,-1.185144 0.148498,2.580061 -1.899005,5.919112 -4.463968,6.18957 -2.850114,0.300635 -5.121696,-1.730563 -5.161639,-4.220113 z m 3.1642,-1.810085 c -0.165489,1.236889 -0.28426,2.434314 0.485369,2.893228 2.063612,0.423446 3.007894,-1.81562 2.421443,-3.5273 -1.130286,-0.6074435 -2.376025,-0.01966 -2.906812,0.634072 z m -8.153555,3.903242 c 2.142471,0.168879 2.242744,-4.347686 -0.417447,-3.636728 -1.78925,0.478152 -1.141944,3.513625 0.417447,3.636728 z M 5.9683467,15.897865 c 3.334935,0.560839 2.891227,-3.424402 0.01568,-3.447214 -0.09687,1.224416 0.134094,2.177027 -0.01568,3.447214 z"
   id="path3491" /><path
   style="fill:#000000;fill-rule:evenodd"
   inkscape:connector-curvature="0"
   clip-rule="evenodd"
   d="m 277.29649,39.438465 c -0.321,-1.682 -2.096,-3.982 -2.88,-6 0.29,-0.91 1.225,-1.175 1.68,-1.92 1.755,0.405 2.498,1.822 3.84,2.64 -0.006,-0.958 -1.148,-2.849 -1.68,-4.08 0.316,-1.123 1.337,-1.543 2.4,-1.92 1.176,4.344 3.595,7.444 4.56,12 -1.865,1.054 -3.393,-0.435 -4.8,-1.2 -0.15,0.877 0.99,2.525 1.44,3.601 -0.206,0.914 -0.94,1.299 -1.92,1.439 -0.306,-1.374 -1.202,-2.158 -1.68,-3.359 1.5,3.555 -2.283,9.733 -5.28,5.279 0.306,1.374 1.202,2.158 1.68,3.36 -0.393,0.888 -1.285,1.275 -2.4,1.44 -1.014,-2.586 -2.346,-4.854 -3.36,-7.44 0.982,-0.138 1.135,-1.105 2.16,-1.2 0.264,0.776 0.648,1.433 0.96,2.16 -1.452,-4.213 3.057,-9.835 5.28,-4.8 z m -2.64,0.72 c -1.256,0.755 -1.31,4.454 1.2,4.08 1.107,-1.197 0.694,-3.918 -1.2,-4.08 z"
   id="path3493" /></svg>