<?xml version="1.0" encoding="utf-8"?>
<!-- Generator: Adobe Illustrator 15.0.0, SVG Export Plug-In . SVG Version: 6.00 Build 0)  -->
<!DOCTYPE svg PUBLIC "-//W3C//DTD SVG 1.1//EN" "http://www.w3.org/Graphics/SVG/1.1/DTD/svg11.dtd">
<svg version="1.1" id="contact_xA0_Image_1_" xmlns="http://www.w3.org/2000/svg" xmlns:xlink="http://www.w3.org/1999/xlink"
	 x="0px" y="0px" width="53.52px" height="19.2px" viewBox="0 0 53.52 19.2" enable-background="new 0 0 53.52 19.2"
	 xml:space="preserve">
<g>
	<g>
		<path fill-rule="evenodd" clip-rule="evenodd" fill="#FFFFFF" d="M30.24,4.32c0.074,0.875-0.038,1.562-0.24,2.16
			c-0.48,0-0.96,0-1.44,0c-0.249,1.882,0.349,4.907,0.24,7.44c-1.022-0.098-2.472,0.232-3.12-0.24
			c0.178-3.698-0.439-6.6-0.479-10.08c1.11-0.095,2.746-0.686,3.12,0.48C29.012,4.109,29.891,3.949,30.24,4.32z"/>
		<path fill-rule="evenodd" clip-rule="evenodd" fill="#FFFFFF" d="M45.36,3.6c0.96,0,1.92,0,2.88,0c0,0.4,0,0.8,0,1.2
			c0.814,0.065,1.945-0.186,2.399,0.24c0,0.88,0,1.76,0,2.64c-0.928-0.128-1.171,0.428-2.159,0.24c-0.052,1.415,0.037,4.76,0,6.96
			c-0.952-0.089-2.301,0.22-2.881-0.24C45.712,10.768,45.488,7.232,45.36,3.6z"/>
		<path fill-rule="evenodd" clip-rule="evenodd" fill="#FFFFFF" d="M9.12,6c0,0.56,0,1.12,0,1.68C7.401,8.336,4.896,8.726,5.28,10.8
			c0.215,1.16,1.572,1.552,3.36,1.68c0.191,0.769,0.709,1.211,0.72,2.16c-3.098,1.481-6.389-0.308-6.72-3.36
			C2.279,7.944,4.986,5.031,9.12,6z"/>
		<path fill-rule="evenodd" clip-rule="evenodd" fill="#FFFFFF" d="M24,6.96c0.45,1.87,0.803,3.837,0.96,6
			c-0.387,0.493-1.203,0.557-2.16,0.479c-0.708-1.371,0.442-4.602-1.68-4.56c-1.531,0.47-0.899,3.101-1.2,4.8
			c-0.751-0.049-1.762,0.162-2.16-0.24c0.064-2.544-0.021-4.938-0.24-7.2c0.741-0.005,1.882-1.104,1.92,0.24
			C20.91,5.577,22.861,5.797,24,6.96z"/>
		<path fill-rule="evenodd" clip-rule="evenodd" fill="#FFFFFF" d="M38.16,6.24c0.546,2.415,0.09,5.83,0.24,8.641
			c-1.24-0.041-2.956,0.395-2.641-1.2c-4.432,3.443-8.594-2.355-6-6c0.978-1.374,3.545-1.924,5.76-0.96
			C36.082,6.242,37.047,6.167,38.16,6.24z M31.68,11.04c0.283,0.358,0.603,0.678,0.96,0.961c1.911,0.33,2.637-1.327,2.16-2.641
			C33.664,8.275,31.238,9.057,31.68,11.04z"/>
		<path fill-rule="evenodd" clip-rule="evenodd" fill="#FFFFFF" d="M15.36,6.72c2.931,2.122,2.242,8.073-1.68,8.16
			C8.117,15.002,8.016,4.464,15.36,6.72z M12.24,11.52c2.297,2.732,4.199-3.29,0.96-2.4C12.114,9.154,12.235,10.395,12.24,11.52z"/>
		<path fill-rule="evenodd" clip-rule="evenodd" fill="#FFFFFF" d="M43.92,6.96c0.282,1.962-1.461,1.899-2.4,2.64
			c-0.422,2.582,1.367,2.953,3.12,3.36c-0.173,0.733,0.246,0.874,0.24,1.439c-4.583,1.605-7.416-3.052-5.28-6.72
			C40.879,6.826,41.982,6.754,43.92,6.96z"/>
	</g>
</g>
</svg>
