<?xml version="1.0" encoding="UTF-8" standalone="no"?>
<!-- Generator: Adobe Illustrator 13.0.0, SVG Export Plug-In . SVG Version: 6.00 Build 14948)  -->

<svg
   xmlns:dc="http://purl.org/dc/elements/1.1/"
   xmlns:cc="http://creativecommons.org/ns#"
   xmlns:rdf="http://www.w3.org/1999/02/22-rdf-syntax-ns#"
   xmlns:svg="http://www.w3.org/2000/svg"
   xmlns="http://www.w3.org/2000/svg"
   xmlns:sodipodi="http://sodipodi.sourceforge.net/DTD/sodipodi-0.dtd"
   xmlns:inkscape="http://www.inkscape.org/namespaces/inkscape"
   version="1.1"
   id="Calque_1"
   x="0px"
   y="0px"
   width="90"
   height="28.006001"
   viewBox="0 0 89.999997 28.006"
   enable-background="new 0 0 81.37 28.006"
   xml:space="preserve"
   inkscape:version="0.48.2 r9819"
   sodipodi:docname="dessins.svg"><metadata
   id="metadata3017"><rdf:RDF><cc:Work
       rdf:about=""><dc:format>image/svg+xml</dc:format><dc:type
         rdf:resource="http://purl.org/dc/dcmitype/StillImage" /><dc:title /></cc:Work></rdf:RDF></metadata><defs
   id="defs3015" /><sodipodi:namedview
   pagecolor="#ffffff"
   bordercolor="#666666"
   borderopacity="1"
   objecttolerance="10"
   gridtolerance="10"
   guidetolerance="10"
   inkscape:pageopacity="0"
   inkscape:pageshadow="2"
   inkscape:window-width="640"
   inkscape:window-height="480"
   id="namedview3013"
   showgrid="false"
   inkscape:zoom="4.3259185"
   inkscape:cx="74.500067"
   inkscape:cy="-19.551997"
   inkscape:window-x="0"
   inkscape:window-y="0"
   inkscape:window-maximized="0"
   inkscape:current-layer="Calque_1" />
<g
   id="g2995"
   style="fill:#ffffff"
   transform="matrix(0.99286411,0.11925122,-0.11925122,0.99286411,4.2199027,-2.5129814)">
	<path
   clip-rule="evenodd"
   d="m 53.595,0.009 c 1.689,-0.12 2.728,0.988 2.4,2.88 -0.973,5.635 -8.658,-2.435 -2.4,-2.88 z"
   id="path2997"
   style="fill:#ffffff;fill-rule:evenodd"
   inkscape:connector-curvature="0" />
	<path
   clip-rule="evenodd"
   d="m 80.715,3.849 c 0.019,1.218 -1.06,1.339 -1.439,2.16 -0.938,-0.522 -2.448,-0.665 -3.36,0 -0.096,2.256 2.153,1.612 3.6,2.64 5.735,4.075 -3.312,11.261 -7.199,5.76 0.059,-1.221 1.037,-1.522 1.439,-2.4 1.001,0.26 2.474,1.296 3.36,0.24 -1.371,-2.557 -5.015,-2.575 -5.04,-6 -0.03,-3.845 5.685,-5.136 8.639,-2.4 z"
   id="path2999"
   style="fill:#ffffff;fill-rule:evenodd"
   inkscape:connector-curvature="0" />
	<path
   clip-rule="evenodd"
   d="m 9.195,3.129 c 1.449,1.189 2.004,3.294 2.64,5.04 1.986,5.452 4.165,11.151 5.76,17.04 -1.317,0.442 -2.72,0.801 -3.84,1.44 -0.48,-0.319 -0.535,-1.065 -0.72,-1.68 C 10.052,29.518 1.611,28.955 0.315,23.288 -1.021,17.447 1.98,12.563 7.515,12.248 7.193,9.37 5.632,7.731 5.355,4.809 6.469,4.083 7.766,3.54 9.195,3.129 z m 0.721,18.48 c 0.49,-1.596 0.17,-3.637 -0.72,-4.561 -6.721,-1.169 -3.622,9.442 0.72,4.561 z"
   id="path3001"
   style="fill:#ffffff;fill-rule:evenodd"
   inkscape:connector-curvature="0" />
	<path
   clip-rule="evenodd"
   d="m 64.875,4.329 c 6.852,-1.954 7.45,5.432 6.48,11.28 -1.424,-0.144 -2.14,0.421 -3.601,0.24 -0.149,-2.41 0.459,-5.58 -0.72,-6.96 -1.29,-0.169 -1.966,0.274 -2.88,0.48 -0.33,2.391 -0.038,5.402 -0.48,7.68 -1.586,0.146 -2.46,-0.419 -4.08,-0.239 -0.528,-4.424 -0.168,-9.889 0.721,-13.68 1.301,0.058 2.335,0.385 3.84,0.24 0.945,-0.386 0.084,1.035 0.72,0.959 z"
   id="path3003"
   style="fill:#ffffff;fill-rule:evenodd"
   inkscape:connector-curvature="0" />
	<path
   clip-rule="evenodd"
   d="m 38.476,6.249 c -0.287,1.313 -1.153,2.047 -1.44,3.36 -1.229,-0.418 -2.583,-0.196 -3.36,0.48 -0.165,2.834 3.225,2.222 5.04,3.84 3.992,3.558 0.421,10.914 -6.96,9.12 -2.749,-0.854 -3.741,-4.014 -0.72,-5.279 1.236,0.57 3.331,1.517 4.08,0 -1.979,-2.844 -6.408,-3.189 -6.48,-7.44 -0.072,-4.205 5.38,-6.271 9.84,-4.081 z"
   id="path3005"
   style="fill:#ffffff;fill-rule:evenodd"
   inkscape:connector-curvature="0" />
	<path
   clip-rule="evenodd"
   d="m 56.715,6.249 c 0.661,3.899 1.521,7.599 1.44,12.24 -1.346,0.655 -2.938,1.062 -4.561,1.44 -1.096,-3.864 -1.752,-8.168 -1.68,-13.2 1.558,-0.203 3.033,-0.489 4.801,-0.48 z"
   id="path3007"
   style="fill:#ffffff;fill-rule:evenodd"
   inkscape:connector-curvature="0" />
	<path
   clip-rule="evenodd"
   d="m 47.596,6.969 c -0.041,1.24 0.148,2.708 -0.24,3.6 -1.12,-0.058 -3.306,-0.862 -3.36,0.72 0.237,2.128 2.803,0.905 4.08,1.2 6.499,1.502 2.709,13.412 -5.28,9.84 -0.084,-1.364 0.5,-2.06 0.48,-3.359 1.312,0.257 4.156,-0.299 3.6,-2.16 -0.516,-1.729 -4.376,-0.62 -6.24,-1.681 -4.761,-2.709 0.285,-10.855 6.96,-8.16 z"
   id="path3009"
   style="fill:#ffffff;fill-rule:evenodd"
   inkscape:connector-curvature="0" />
	<path
   clip-rule="evenodd"
   d="m 28.156,15.849 c -1.72,1.16 -3.934,1.826 -6.72,1.92 -0.105,2.938 4.162,1.83 5.76,1.2 0.157,1.042 0.546,1.854 0.96,2.64 -1.615,2.53 -6.548,3.441 -9.12,1.68 -3.31,-2.266 -4.15,-9.789 -1.2,-12.96 2.191,-2.355 7.102,-2.345 9.6,0.48 0.218,1.701 0.576,3.264 0.72,5.04 z m -6.72,-1.68 c 0.953,-0.167 2.658,0.418 2.88,-0.48 -0.583,-1.623 -2.836,-1.831 -2.88,0.48 z"
   id="path3011"
   style="fill:#ffffff;fill-rule:evenodd"
   inkscape:connector-curvature="0" />
</g>
</svg>