<?xml version="1.0" encoding="UTF-8" standalone="no"?>
<!-- Generator: Adobe Illustrator 13.0.0, SVG Export Plug-In . SVG Version: 6.00 Build 14948)  -->

<svg
   xmlns:dc="http://purl.org/dc/elements/1.1/"
   xmlns:cc="http://creativecommons.org/ns#"
   xmlns:rdf="http://www.w3.org/1999/02/22-rdf-syntax-ns#"
   xmlns:svg="http://www.w3.org/2000/svg"
   xmlns="http://www.w3.org/2000/svg"
   xmlns:sodipodi="http://sodipodi.sourceforge.net/DTD/sodipodi-0.dtd"
   xmlns:inkscape="http://www.inkscape.org/namespaces/inkscape"
   version="1.1"
   id="Calque_1"
   x="0px"
   y="0px"
   width="81.37px"
   height="28.006px"
   viewBox="0 0 81.37 28.006"
   enable-background="new 0 0 81.37 28.006"
   xml:space="preserve"
   inkscape:version="0.48.2 r9819"
   sodipodi:docname="dessins.svg"><metadata
   id="metadata3017"><rdf:RDF><cc:Work
       rdf:about=""><dc:format>image/svg+xml</dc:format><dc:type
         rdf:resource="http://purl.org/dc/dcmitype/StillImage" /><dc:title></dc:title></cc:Work></rdf:RDF></metadata><defs
   id="defs3015" /><sodipodi:namedview
   pagecolor="#ffffff"
   bordercolor="#666666"
   borderopacity="1"
   objecttolerance="10"
   gridtolerance="10"
   guidetolerance="10"
   inkscape:pageopacity="0"
   inkscape:pageshadow="2"
   inkscape:window-width="640"
   inkscape:window-height="480"
   id="namedview3013"
   showgrid="false"
   inkscape:zoom="4.3259185"
   inkscape:cx="40.685001"
   inkscape:cy="14.003"
   inkscape:window-x="0"
   inkscape:window-y="0"
   inkscape:window-maximized="0"
   inkscape:current-layer="Calque_1" />
<g
   id="g2995"
   style="fill:#ffffff">
	<path
   fill-rule="evenodd"
   clip-rule="evenodd"
   d="M53.595,0.009c1.689-0.12,2.728,0.988,2.4,2.88   C55.022,8.524,47.337,0.454,53.595,0.009z"
   id="path2997"
   style="fill:#ffffff" />
	<path
   fill-rule="evenodd"
   clip-rule="evenodd"
   d="M80.715,3.849c0.019,1.218-1.06,1.339-1.439,2.16   c-0.938-0.522-2.448-0.665-3.36,0c-0.096,2.256,2.153,1.612,3.6,2.64c5.735,4.075-3.312,11.261-7.199,5.76   c0.059-1.221,1.037-1.522,1.439-2.4c1.001,0.26,2.474,1.296,3.36,0.24c-1.371-2.557-5.015-2.575-5.04-6   C72.046,2.404,77.761,1.113,80.715,3.849z"
   id="path2999"
   style="fill:#ffffff" />
	<path
   fill-rule="evenodd"
   clip-rule="evenodd"
   d="M9.195,3.129c1.449,1.189,2.004,3.294,2.64,5.04   c1.986,5.452,4.165,11.151,5.76,17.04c-1.317,0.442-2.72,0.801-3.84,1.44c-0.48-0.319-0.535-1.065-0.72-1.68   c-2.983,4.549-11.424,3.986-12.72-1.681c-1.336-5.841,1.665-10.725,7.2-11.04c-0.322-2.878-1.883-4.517-2.16-7.439   C6.469,4.083,7.766,3.54,9.195,3.129z M9.916,21.609c0.49-1.596,0.17-3.637-0.72-4.561C2.475,15.879,5.574,26.49,9.916,21.609z"
   id="path3001"
   style="fill:#ffffff" />
	<path
   fill-rule="evenodd"
   clip-rule="evenodd"
   d="M64.875,4.329c6.852-1.954,7.45,5.432,6.48,11.28   c-1.424-0.144-2.14,0.421-3.601,0.24c-0.149-2.41,0.459-5.58-0.72-6.96c-1.29-0.169-1.966,0.274-2.88,0.48   c-0.33,2.391-0.038,5.402-0.48,7.68c-1.586,0.146-2.46-0.419-4.08-0.239c-0.528-4.424-0.168-9.889,0.721-13.68   c1.301,0.058,2.335,0.385,3.84,0.24C65.1,2.984,64.239,4.405,64.875,4.329z"
   id="path3003"
   style="fill:#ffffff" />
	<path
   fill-rule="evenodd"
   clip-rule="evenodd"
   d="M38.476,6.249c-0.287,1.313-1.153,2.047-1.44,3.36   c-1.229-0.418-2.583-0.196-3.36,0.48c-0.165,2.834,3.225,2.222,5.04,3.84c3.992,3.558,0.421,10.914-6.96,9.12   c-2.749-0.854-3.741-4.014-0.72-5.279c1.236,0.57,3.331,1.517,4.08,0c-1.979-2.844-6.408-3.189-6.48-7.44   C28.564,6.125,34.016,4.059,38.476,6.249z"
   id="path3005"
   style="fill:#ffffff" />
	<path
   fill-rule="evenodd"
   clip-rule="evenodd"
   d="M56.715,6.249c0.661,3.899,1.521,7.599,1.44,12.24   c-1.346,0.655-2.938,1.062-4.561,1.44c-1.096-3.864-1.752-8.168-1.68-13.2C53.472,6.526,54.947,6.24,56.715,6.249z"
   id="path3007"
   style="fill:#ffffff" />
	<path
   fill-rule="evenodd"
   clip-rule="evenodd"
   d="M47.596,6.969c-0.041,1.24,0.148,2.708-0.24,3.6   c-1.12-0.058-3.306-0.862-3.36,0.72c0.237,2.128,2.803,0.905,4.08,1.2c6.499,1.502,2.709,13.412-5.28,9.84   c-0.084-1.364,0.5-2.06,0.48-3.359c1.312,0.257,4.156-0.299,3.6-2.16c-0.516-1.729-4.376-0.62-6.24-1.681   C35.875,12.42,40.921,4.274,47.596,6.969z"
   id="path3009"
   style="fill:#ffffff" />
	<path
   fill-rule="evenodd"
   clip-rule="evenodd"
   d="M28.156,15.849c-1.72,1.16-3.934,1.826-6.72,1.92   c-0.105,2.938,4.162,1.83,5.76,1.2c0.157,1.042,0.546,1.854,0.96,2.64c-1.615,2.53-6.548,3.441-9.12,1.68   c-3.31-2.266-4.15-9.789-1.2-12.96c2.191-2.355,7.102-2.345,9.6,0.48C27.654,12.51,28.012,14.073,28.156,15.849z M21.436,14.169   c0.953-0.167,2.658,0.418,2.88-0.48C23.733,12.066,21.48,11.858,21.436,14.169z"
   id="path3011"
   style="fill:#ffffff" />
</g>
</svg>