<?xml version="1.0" encoding="UTF-8" standalone="no"?>
<!-- Generator: Adobe Illustrator 13.0.0, SVG Export Plug-In . SVG Version: 6.00 Build 14948)  -->

<svg
   xmlns:dc="http://purl.org/dc/elements/1.1/"
   xmlns:cc="http://creativecommons.org/ns#"
   xmlns:rdf="http://www.w3.org/1999/02/22-rdf-syntax-ns#"
   xmlns:svg="http://www.w3.org/2000/svg"
   xmlns="http://www.w3.org/2000/svg"
   xmlns:sodipodi="http://sodipodi.sourceforge.net/DTD/sodipodi-0.dtd"
   xmlns:inkscape="http://www.inkscape.org/namespaces/inkscape"
   version="1.1"
   id="Calque_1"
   x="0px"
   y="0px"
   width="27.027142"
   height="15.579214"
   viewBox="0 0 27.027141 15.579214"
   enable-background="new 0 0 81.37 28.006"
   xml:space="preserve"
   inkscape:version="0.48.2 r9819"
   sodipodi:docname="dessins.svg"><metadata
   id="metadata3017"><rdf:RDF><cc:Work
       rdf:about=""><dc:format>image/svg+xml</dc:format><dc:type
         rdf:resource="http://purl.org/dc/dcmitype/StillImage" /><dc:title></dc:title></cc:Work></rdf:RDF></metadata><defs
   id="defs3015" /><sodipodi:namedview
   pagecolor="#ffffff"
   bordercolor="#666666"
   borderopacity="1"
   objecttolerance="10"
   gridtolerance="10"
   guidetolerance="10"
   inkscape:pageopacity="0"
   inkscape:pageshadow="2"
   inkscape:window-width="1224"
   inkscape:window-height="731"
   id="namedview3013"
   showgrid="false"
   inkscape:zoom="4.3259185"
   inkscape:cx="24.658128"
   inkscape:cy="10.198362"
   inkscape:window-x="0"
   inkscape:window-y="0"
   inkscape:window-maximized="0"
   inkscape:current-layer="Calque_1"
   fit-margin-top="0"
   fit-margin-left="0"
   fit-margin-right="0"
   fit-margin-bottom="0" />
<g
   id="g2995"
   style="fill:#ffffff"
   transform="translate(-16.026872,-8.6221486)">
	
	
	
	<path
   clip-rule="evenodd"
   d="m 36.210568,10.801614 c 6.852,-1.9540003 7.45,5.432 6.48,11.28 -1.424,-0.144 -2.14,0.421 -3.601,0.24 -0.149,-2.41 0.459,-5.58 -0.72,-6.96 -1.29,-0.169 -1.966,0.274 -2.88,0.48 -0.33,2.391 -0.038,5.402 -0.48,7.68 -1.586,0.146 -2.46,-0.419 -4.08,-0.239 -0.528,-4.424 -0.168,-9.889 0.721,-13.6800003 1.301,0.058 2.335,0.385 3.84,0.24 0.945,-0.386 0.084,1.0350003 0.72,0.9590003 z"
   id="path3003"
   style="fill:#ffffff;fill-rule:evenodd"
   inkscape:connector-curvature="0" />
	
	
	
	<path
   clip-rule="evenodd"
   d="m 28.156,15.849 c -1.72,1.16 -3.934,1.826 -6.72,1.92 -0.105,2.938 4.162,1.83 5.76,1.2 0.157,1.042 0.546,1.854 0.96,2.64 -1.615,2.53 -6.548,3.441 -9.12,1.68 -3.31,-2.266 -4.15,-9.789 -1.2,-12.96 2.191,-2.355 7.102,-2.345 9.6,0.48 0.218,1.701 0.576,3.264 0.72,5.04 z m -6.72,-1.68 c 0.953,-0.167 2.658,0.418 2.88,-0.48 -0.583,-1.623 -2.836,-1.831 -2.88,0.48 z"
   id="path3011"
   style="fill:#ffffff;fill-rule:evenodd"
   inkscape:connector-curvature="0" />
</g>
</svg>