<?xml version="1.0" encoding="UTF-8" standalone="no"?>
<!-- Generator: Adobe Illustrator 13.0.0, SVG Export Plug-In . SVG Version: 6.00 Build 14948)  -->

<svg
   xmlns:dc="http://purl.org/dc/elements/1.1/"
   xmlns:cc="http://creativecommons.org/ns#"
   xmlns:rdf="http://www.w3.org/1999/02/22-rdf-syntax-ns#"
   xmlns:svg="http://www.w3.org/2000/svg"
   xmlns="http://www.w3.org/2000/svg"
   xmlns:sodipodi="http://sodipodi.sourceforge.net/DTD/sodipodi-0.dtd"
   xmlns:inkscape="http://www.inkscape.org/namespaces/inkscape"
   version="1.1"
   id="Calque_1"
   x="0px"
   y="0px"
   width="25.907934"
   height="27.690533"
   viewBox="0 0 25.907935 27.690531"
   enable-background="new 0 0 73.754 32.691"
   xml:space="preserve"
   inkscape:version="0.48.2 r9819"
   sodipodi:docname="livre.svg"><metadata
   id="metadata25"><rdf:RDF><cc:Work
       rdf:about=""><dc:format>image/svg+xml</dc:format><dc:type
         rdf:resource="http://purl.org/dc/dcmitype/StillImage" /><dc:title></dc:title></cc:Work></rdf:RDF></metadata><defs
   id="defs23" /><sodipodi:namedview
   pagecolor="#ffffff"
   bordercolor="#666666"
   borderopacity="1"
   objecttolerance="10"
   gridtolerance="10"
   guidetolerance="10"
   inkscape:pageopacity="0"
   inkscape:pageshadow="2"
   inkscape:window-width="1149"
   inkscape:window-height="659"
   id="namedview21"
   showgrid="false"
   inkscape:zoom="4.7726226"
   inkscape:cx="13.913537"
   inkscape:cy="15.895965"
   inkscape:window-x="142"
   inkscape:window-y="75"
   inkscape:window-maximized="0"
   inkscape:current-layer="g3"
   fit-margin-top="0"
   fit-margin-left="0"
   fit-margin-right="0"
   fit-margin-bottom="0" />
<g
   id="g3"
   style="fill:#999999"
   transform="translate(-22.963462,-4.5509348)">
	
	
	
	
	
	<path
   d="m 47.747018,15.079754 c 0.499233,1.300099 0.934088,2.641301 1.124379,4.143401 -2.705827,0.31722 -5.608794,0.514168 -6.687212,2.8156 -1.298672,2.777322 0.475371,6.819958 -0.292113,9.978615 -1.733859,0.150773 -3.773479,-0.150693 -5.601874,-0.1485 0.06399,-5.612767 0.464202,-11.446523 0.775117,-17.226854 1.411404,-0.119803 2.896421,-0.139102 4.423515,-0.08873 0.783809,0.362828 0.254297,1.599651 0.515803,2.307178 2.049908,-0.388066 2.824747,-2.696549 5.742385,-1.780714 z"
   id="path15"
   style="fill:#ffffff"
   inkscape:connector-curvature="0" />
	
	
<g
   id="g3100"
   transform="matrix(0.99644095,-0.08429376,0.08429376,0.99644095,-3.8065916,0.93109917)">
	
	
	
	
	<path
   id="path3110"
   d="m 37.942434,12.943062 c -3.844206,-1.851486 -6.573989,0.906986 -6.355518,4.766639 0.04193,1.900036 3.460226,0.421495 4.237012,1.58888 0.282468,2.047889 -0.946707,2.586343 -0.529626,4.766639 -1.672738,-0.2604 -1.873554,0.955535 -3.707386,0.52742 -0.271434,3.477881 0.492111,6.196631 0,8.476231 -2.528967,-0.412667 -3.409471,0.827542 -5.828099,0.52742 C 24.401649,22.255663 23.76389,0.09079082 38.469854,8.1742162 c 1.098975,1.9485848 -0.139027,2.9328068 -0.52742,4.7688458 z"
   inkscape:connector-curvature="0"
   style="fill:#ffffff" />
	
	
	
	
</g></g>
</svg>