<?xml version="1.0" encoding="UTF-8" standalone="no"?>
<!-- Generator: Adobe Illustrator 15.0.0, SVG Export Plug-In . SVG Version: 6.00 Build 0)  -->

<svg
   xmlns:dc="http://purl.org/dc/elements/1.1/"
   xmlns:cc="http://creativecommons.org/ns#"
   xmlns:rdf="http://www.w3.org/1999/02/22-rdf-syntax-ns#"
   xmlns:svg="http://www.w3.org/2000/svg"
   xmlns="http://www.w3.org/2000/svg"
   xmlns:sodipodi="http://sodipodi.sourceforge.net/DTD/sodipodi-0.dtd"
   xmlns:inkscape="http://www.inkscape.org/namespaces/inkscape"
   version="1.1"
   id="mots_xA0_Image_1_"
   x="0px"
   y="0px"
   width="36.445877"
   height="14.670114"
   viewBox="0 0 36.445878 14.670114"
   enable-background="new 0 0 1020.48 538.561"
   xml:space="preserve"
   inkscape:version="0.48.2 r9819"
   sodipodi:docname="mots.svg"><metadata
   id="metadata229"><rdf:RDF><cc:Work
       rdf:about=""><dc:format>image/svg+xml</dc:format><dc:type
         rdf:resource="http://purl.org/dc/dcmitype/StillImage" /><dc:title></dc:title></cc:Work></rdf:RDF></metadata><defs
   id="defs227" /><sodipodi:namedview
   pagecolor="#ffffff"
   bordercolor="#666666"
   borderopacity="1"
   objecttolerance="10"
   gridtolerance="10"
   guidetolerance="10"
   inkscape:pageopacity="0"
   inkscape:pageshadow="2"
   inkscape:window-width="990"
   inkscape:window-height="724"
   id="namedview225"
   showgrid="false"
   fit-margin-top="0"
   fit-margin-left="0"
   fit-margin-right="0"
   fit-margin-bottom="0"
   inkscape:zoom="11.037943"
   inkscape:cx="13.786749"
   inkscape:cy="3.0143669"
   inkscape:window-x="0"
   inkscape:window-y="0"
   inkscape:window-maximized="0"
   inkscape:current-layer="mots_xA0_Image_1_" />
<path
   clip-rule="evenodd"
   d="m -109.43901,-366 c 1.616,-0.015 2.532,0.668 3.84,0.96 -0.715,5.605 -2.09,10.55 -3.6,15.36 -3.002,-0.438 -3.979,-2.902 -6,-4.32 -1.779,1.582 -2.955,3.765 -5.04,5.04 -1.361,-4.719 -2.354,-9.806 -3.6,-14.64 0.802,-0.878 2.415,-0.945 3.84,-1.2 0.771,2.269 1.167,4.914 1.68,7.44 1.751,-1.128 1.486,-4.274 3.6,-5.04 0.988,2.132 1.919,4.321 3.12,6.24 1.151,-2.849 1.428,-6.572 2.16,-9.84 z"
   id="path3"
   inkscape:connector-curvature="0"
   style="fill-rule:evenodd" />
<path
   clip-rule="evenodd"
   d="m -100.07901,-364.56 c -0.584,2.375 -1.131,4.79 -1.68,7.2 2.777995,-0.851 4.625995,0.64 5.759995,2.16 0.307,3.506 -0.71,5.689 -1.68,7.92 -0.912,-0.048 -1.708,-0.212 -2.399995,-0.48 0.009,-1.911 0.751995,-3.088 0.479995,-5.28 -2.488995,-1.831 -4.581995,1.626 -4.559995,4.56 -1.117,0.077 -1.602,-0.479 -2.64,-0.48 0.617,-5.863 1.447,-11.513 3.12,-16.32 1.173,0.267 2.357,0.524 3.6,0.72 z"
   id="path5"
   inkscape:connector-curvature="0"
   style="fill-rule:evenodd" />
<path
   clip-rule="evenodd"
   d="m -91.199015,-357.84 c 5.275,-1.206 8.932,5.804 5.52,9.36 -3.881,4.045 -11.214,-1.011 -8.88,-6.96 0.505,-1.286 2.144,-2.122 3.36,-2.4 z m -0.24,3.6 c -1.367,2.159 0.734,4.546 3.36,3.36 2.011,-2.255 -0.894,-5.465 -3.36,-3.36 z"
   id="path7"
   inkscape:connector-curvature="0"
   style="fill-rule:evenodd" />
<path
   clip-rule="evenodd"
   d="m -125.03901,-344.64 c 0.16,0 0.32,0 0.48,0 0.246,4.954 0.496,9.904 0.72,14.88 -1.303,-0.183 -1.86,0.38 -3.12,0.24 -1.359,-4.001 -1.362,-9.357 -1.68,-14.4 1.047,-0.394 2.547,-0.333 3.6,-0.72 z"
   id="path9"
   inkscape:connector-curvature="0"
   style="fill-rule:evenodd" />
<path
   clip-rule="evenodd"
   d="m -105.11901,-341.04 c -0.4,4.106 -0.273,8.217 -0.96,11.52 -1.01,-0.27 -3.3,0.74 -2.88,-0.96 -1.317,0.523 -3.148,0.532 -5.04,0.48 -7.117,-4.271 -0.913,-13.72 6.24,-10.56 0.053,-1.397 1.748,-0.378 2.64,-0.48 z m -7.92,7.68 c 1.044,0.004 2.159,0.08 2.88,-0.24 3.311,-5.157 -6.276,-4.261 -2.88,0.24 z"
   id="path11"
   inkscape:connector-curvature="0"
   style="fill-rule:evenodd" />
<path
   clip-rule="evenodd"
   d="m -100.07901,-339.6 c 0.330995,0.31 0.236995,1.042 0.239995,1.68 1.716,-1.58 5.335,-1.531 5.76,1.2 2.314,-2.274 6.833,-0.939 7.44,1.92 0.282,4.282 -1.123,6.877 -2.64,9.36 -0.892,-0.148 -1.508,-0.572 -2.4,-0.72 0.406,-2.108 2.959,-7.543 0.24,-7.92 -2.201,-0.305 -2.503,5.264 -3.84,6.72 -1.257,0.058 -1.816,-0.584 -2.88,-0.72 0.184,-2.128 1.722,-3.938 0.96,-6.24 -3.206995,-0.829 -2.77,3.908 -3.839995,6 -1.444,0.083 -1.917,-0.804 -3.36,-0.72 0.671,-3.648 0.836,-7.804 2.16,-10.8 0.79,0.01 1.195,0.405 2.16,0.24 z"
   id="path13"
   inkscape:connector-curvature="0"
   style="fill-rule:evenodd" />
<path
   clip-rule="evenodd"
   d="m 136.08099,-307.92 c 0.08,2.72 -0.237,5.042 -0.72,7.2 -0.561,0 -1.12,0 -1.68,0 0.694,-2.507 -0.976,-7.376 2.4,-7.2 z"
   id="path15"
   inkscape:connector-curvature="0"
   style="fill-rule:evenodd" />
<path
   clip-rule="evenodd"
   d="m 130.56099,-305.28 c -0.507,0.933 -1.71,1.17 -2.16,2.16 0,0.88 0,1.76 0,2.64 -0.587,0.213 -1.041,0.56 -1.92,0.48 0.012,-2.068 0.468,-3.691 0.479,-5.76 1.579,0.577 2.875,-1.381 3.601,0.48 z"
   id="path17"
   inkscape:connector-curvature="0"
   style="fill-rule:evenodd" />
<path
   clip-rule="evenodd"
   d="m 141.84099,-305.52 c -0.538,1.622 -0.693,3.626 -1.199,5.28 -1.704,-0.03 -1.518,-0.489 -3.36,-0.24 -2.839,-2.921 0.799,-7.114 4.559,-5.04 z m -3.84,3.36 c 1.133,0.315 2.075,-1.791 0.96,-2.16 -0.661,0.33 -1.624,1.261 -0.96,2.16 z"
   id="path19"
   inkscape:connector-curvature="0"
   style="fill-rule:evenodd" />
<path
   clip-rule="evenodd"
   d="m 125.76099,-305.04 c -0.111,1.968 0.333,4.493 -0.479,5.76 -1.434,-0.521 -2.073,0.54 -3.36,0 -0.537,-1.188 -1.249,-5.393 1.2,-5.04 0.098,1.023 -0.232,2.472 0.24,3.12 1.895,-0.06 -0.04,-5.111 2.399,-3.84 z"
   id="path21"
   inkscape:connector-curvature="0"
   style="fill-rule:evenodd" />
<path
   clip-rule="evenodd"
   d="m 120.72099,-303.6 c 0.731,2.573 0.035,5.577 -3.12,5.04 -2.049,-2.272 0.285,-7.636 3.12,-5.04 z m -1.68,3.12 c 0.42,-0.322 0.879,-1.982 0,-2.16 -0.236,0.321 -1.083,2.058 0,2.16 z"
   id="path23"
   inkscape:connector-curvature="0"
   style="fill-rule:evenodd" />
<path
   clip-rule="evenodd"
   d="m 113.28099,-298.08 c -0.139,1.542 -0.383,2.978 -2.16,2.88 -0.06,-2.38 0.423,-4.217 0.24,-6.72 1.528,-0.343 3.485,-2.336 4.8,-0.72 0.252,2.732 -0.691,4.269 -2.88,4.56 z m 0.24,-1.44 c 0.595,-0.285 0.89,-0.87 0.72,-1.92 -0.24,0 -0.48,0 -0.72,0 -0.254,0.249 -0.496,1.714 0,1.92 z"
   id="path25"
   inkscape:connector-curvature="0"
   style="fill-rule:evenodd" />
<path
   clip-rule="evenodd"
   d="m -88.319015,-283.2 c 0.164,0.957 0.607,1.633 0.48,2.88 -0.983,0.056 -1.962,0.118 -2.64,0.48 -0.761,-0.519 -0.81,-1.75 -0.96,-2.88 -11.026995,-0.482 -5.729,-19.823 3.84,-15.84 5.612,2.336 3.849,12.67 -0.72,15.36 z m 1.44,-8.64 c -0.644,-8.444 -13.255995,1.448 -5.28,5.04 0,-0.56 0,-1.12 0,-1.68 0.969,-0.23 1.91,-0.49 2.88,-0.72 0.331,0.31 0.238,1.043 0.24,1.68 1.444,-0.685 2.288,-2.636 2.16,-4.32 z"
   id="path27"
   inkscape:connector-curvature="0"
   style="fill-rule:evenodd" />
<path
   clip-rule="evenodd"
   d="m 136.32099,-297.84 c -0.247,1.203 -0.606,1.519 -1.92,1.2 -0.381,1.359 1.487,1.563 1.68,2.88 0.282,1.927 -1.277,3.662 -4.08,3.12 0,-0.56 0,-1.12 0,-1.68 0.716,0.333 1.469,0.283 1.681,-0.48 -0.195,-1.524 -1.778,-1.772 -1.681,-3.36 0.111,-1.804 2.288,-2.886 4.32,-1.68 z"
   id="path29"
   inkscape:connector-curvature="0"
   style="fill-rule:evenodd" />
<path
   clip-rule="evenodd"
   d="m 131.76099,-297.84 c 0.158,0.878 -0.519,0.92 -0.479,1.68 -0.638,0.003 -1.371,-0.09 -1.68,0.24 -0.135,1.174 0.932,1.148 1.439,1.68 1.03,2.803 -1.156,5.702 -3.84,4.08 -0.158,-0.877 0.52,-0.92 0.48,-1.68 0.637,-0.002 1.37,0.091 1.68,-0.24 -0.989,-1.492 -2.884,-2.871 -1.68,-4.8 0.634,-1.016 2.229,-1.512 4.08,-0.96 z"
   id="path31"
   inkscape:connector-curvature="0"
   style="fill-rule:evenodd" />
<path
   clip-rule="evenodd"
   d="m 122.16099,-295.44 c -2.216,0.975 -3.273,3.021 -2.88,6 -0.753,0.239 -1.79,1.096 -2.4,0.72 0.343,-2.218 0.36,-4.761 0.48,-7.2 0.61,-0.323 2.055,-0.946 2.16,0.24 0.89,-1.099 2.276,-1.632 2.64,0.24 z"
   id="path33"
   inkscape:connector-curvature="0"
   style="fill-rule:evenodd" />
<path
   clip-rule="evenodd"
   d="m -67.439015,-295.2 c 0.337,0.703 0.646,1.435 0.479,2.64 -3.028,3.575 -5.518,-4.37 -0.479,-2.64 z"
   id="path35"
   inkscape:connector-curvature="0"
   style="fill-rule:evenodd" />
<path
   clip-rule="evenodd"
   d="m 116.40099,-294.48 c 1.364,3.899 -1.086,7.132 -3.84,8.4 0.016,1.216 -0.413,1.988 -0.24,3.36 -0.735,1.105 -1.904,1.775 -3.36,2.16 0.673,-3.728 1.522,-7.278 1.2,-12 1.71,-1.019 3.915,-2.973 6.24,-1.92 z m -3.6,2.4 c 0.152,0.808 -0.309,2.229 0.24,2.64 0.563,-0.557 2.033,-2.374 0.48,-2.88 -0.041,0.28 -0.38,0.26 -0.72,0.24 z"
   id="path37"
   inkscape:connector-curvature="0"
   style="fill-rule:evenodd" />
<path
   clip-rule="evenodd"
   d="m -82.079015,-292.32 c 1.046,0.393 2.546,0.333 3.6,0.72 -0.432,2.048 -1.38,3.58 -1.44,6 0.077,0.563 0.743,0.538 0.96,0.96 2.814,-0.626 2.971,-3.91 3.84,-6.48 0.911,0.289 1.889,0.511 2.88,0.72 -0.237,3.604 -1.601,6.08 -1.68,9.84 -1.216,-0.016 -1.987,0.413 -3.36,0.24 -0.077,-0.563 -0.379,-0.901 -0.24,-1.68 -6.477,1.341 -6.58,-5.923 -4.56,-10.32 z"
   id="path39"
   inkscape:connector-curvature="0"
   style="fill-rule:evenodd" />
<path
   clip-rule="evenodd"
   d="m -67.439015,-290.64 c -0.328,3.112 -0.205,6.675 -0.721,9.6 -0.675,0.365 -1.852,0.229 -2.64,0.48 -0.488,-2.988 -0.332,-7.357 0.24,-10.08 1.041,0 2.081,0 3.121,0 z"
   id="path41"
   inkscape:connector-curvature="0"
   style="fill-rule:evenodd" />
<path
   clip-rule="evenodd"
   d="m -92.639015,-278.88 c -0.164,0.876 -0.91,1.17 -1.2,1.92 -4.219,-3.134 -4.964,2.539 -0.72,3.12 2.961,6.73 -8.051995,8.486 -9.599995,3.12 0.064,-1.136 1.048,-1.352 1.44,-2.16 1.332,0.715 3.611995,3.659 4.799995,0.96 -2.091995,-1.791 -4.659995,-4.74 -2.399995,-7.92 1.846995,-2.599 6.185995,-1.366 7.679995,0.96 z"
   id="path43"
   inkscape:connector-curvature="0"
   style="fill-rule:evenodd" />
<path
   clip-rule="evenodd"
   d="m -77.519015,-278.88 c 2.648,-0.962 2.669,3.375 0.48,3.36 -1.849,-0.012 -2.351,-2.68 -0.48,-3.36 z"
   id="path45"
   inkscape:connector-curvature="0"
   style="fill-rule:evenodd" />
<path
   clip-rule="evenodd"
   d="m -87.839015,-277.2 c -0.318,2.001 -0.846,3.794 -0.72,6.24 3.505,1.9 2.56,-4.146 4.32,-5.52 1.015,0.265 1.968,0.591 2.88,0.96 -0.648,3.352 -1.626,6.374 -2.4,9.6 -1.196,-0.084 -2.985,0.425 -2.64,-1.2 -7.083,1.53 -6.335,-6.92 -4.32,-10.56 0.961,0.159 2.089,0.151 2.88,0.48 z"
   id="path47"
   inkscape:connector-curvature="0"
   style="fill-rule:evenodd" />
<path
   clip-rule="evenodd"
   d="m -65.999015,-274.56 c -0.199,0.601 -0.657,0.943 -0.72,1.68 -0.845,-0.412 -2.312,-0.738 -3.36,-0.24 -1.385,3.297 4.369,1.751 4.801,4.8 0.144,1.02 -0.771,3.542 -1.921,4.32 -2.35,1.591 -8.474,-0.015 -6.479,-3.12 0.909,-0.349 4.207,2.079 4.56,-0.48 -0.093,-1.427 -2.037,-1.002 -3.12,-1.44 -4.327,-4.381 2.753,-10.06 6.239,-5.52 z"
   id="path49"
   inkscape:connector-curvature="0"
   style="fill-rule:evenodd" />
<path
   clip-rule="evenodd"
   d="m -78.479015,-274.56 c 1.112,0.088 2.23,0.17 3.12,0.48 -0.478,3.442 -1.014,6.826 -1.92,9.84 -1.163,0.043 -2.049,-0.191 -2.88,-0.48 0.442,-3.398 0.96,-6.72 1.68,-9.84 z"
   id="path51"
   inkscape:connector-curvature="0"
   style="fill-rule:evenodd" />
<path
   clip-rule="evenodd"
   d="m -62.879015,-272.16 c 1.84,0 3.68,0 5.521,0 0.062,1.263 -0.164,2.236 -0.48,3.12 -1.68,0 -3.36,0 -5.04,0 -0.001,-1.04 -0.001,-2.08 -0.001,-3.12 z"
   id="path53"
   inkscape:connector-curvature="0"
   style="fill-rule:evenodd" />
<path
   clip-rule="evenodd"
   d="m -91.919015,-267.36 c 2.058,2.913 -2.793,4.347 -3.12,1.68 -0.157,-1.278 1.208,-2.557 3.12,-1.68 z"
   id="path55"
   inkscape:connector-curvature="0"
   style="fill-rule:evenodd" />
<path
   clip-rule="evenodd"
   d="m -94.799015,-263.28 c 1.167,-0.046 2.294,-0.055 2.88,0.48 -0.045,4.248 -0.094,11.641 -4.32,12.24 -2.319,0.329 -5.120995,-1.272 -4.799995,-4.56 1.264995,-0.015 1.760995,-0.798 3.119995,-0.72 0.418,0.622 0.035,2.045 1.2,1.92 2.188,-1.572 1.246,-6.274 1.92,-9.36 z"
   id="path57"
   inkscape:connector-curvature="0"
   style="fill-rule:evenodd" />
<path
   clip-rule="evenodd"
   d="m -85.679015,-253.92 c 0.823,0.998 2.93,0.775 4.08,0.24 0.229,1.051 0.25,2.309 0.48,3.36 -5.937,1.751 -9.838,-2.41 -9.12,-7.92 0.453,-3.474 5.046,-6.055 8.16,-3.36 2.512,2.174 1.35,8.81 -3.6,7.68 z m -0.96,-3.6 c 0.707,0.341 1.514,0.725 2.4,0.24 -0.005,-0.565 0.414,-0.707 0.24,-1.44 -0.731,-0.866 -3.262,-0.733 -2.64,1.2 z"
   id="path59"
   inkscape:connector-curvature="0"
   style="fill-rule:evenodd" />
<path
   clip-rule="evenodd"
   d="m -216.47901,-252.24 c 0.296,0.678 0.296,1.481 0,2.16 -3.204,1.607 -3.293,-3.793 0,-2.16 z"
   id="path61"
   inkscape:connector-curvature="0"
   style="fill-rule:evenodd" />
<path
   clip-rule="evenodd"
   d="m -229.91901,-243.36 c -0.825,0.105 -1.345,-0.095 -1.92,-0.24 -0.336,-0.767 0.546,-2.093 0.24,-3.6 -0.252,-0.627 -0.975,-0.785 -1.92,-0.72 -1.139,0.541 -0.368,2.993 -0.96,4.08 -0.398,0.402 -1.409,0.191 -2.16,0.24 -0.254,-1.506 0.704,-4.224 -0.96,-4.32 -1.94,0.427 -0.162,3.074 -0.48,4.8 -1.12,-0.159 -1.542,0.378 -2.4,0.48 -0.562,-2.397 -0.427,-5.493 -0.72,-8.16 0.899,0.334 2.262,-1.039 2.16,0.48 1.128,-0.415 3.282,-0.408 3.84,0.48 4.423,-2.343 7.221,2.458 5.28,6.48 z"
   id="path63"
   inkscape:connector-curvature="0"
   style="fill-rule:evenodd" />
<path
   clip-rule="evenodd"
   d="m -226.55901,-249.6 c 5.449,-2.014 6.086,6.369 1.2,6.24 -3.231,-0.085 -4.321,-5.086 -1.2,-6.24 z m 2.16,2.4 c -0.427,-0.213 -0.61,-0.67 -1.44,-0.479 -1.105,1.809 1.689,3.046 1.44,0.479 z"
   id="path65"
   inkscape:connector-curvature="0"
   style="fill-rule:evenodd" />
<path
   clip-rule="evenodd"
   d="m -205.43901,-249.6 c 2.413,1.917 -1.861,4.387 -2.4,1.44 0.379,-0.902 0.865,-1.696 2.4,-1.44 z"
   id="path67"
   inkscape:connector-curvature="0"
   style="fill-rule:evenodd" />
<path
   clip-rule="evenodd"
   d="m -219.59901,-248.88 c 0.959,0.24 1.865,0.535 2.64,0.96 -0.773,2.026 -1.592,4.007 -2.4,6 -1.108,0.148 -1.381,-0.539 -2.4,-0.48 0.481,-2.398 1.453,-4.307 2.16,-6.48 z"
   id="path69"
   inkscape:connector-curvature="0"
   style="fill-rule:evenodd" />
<path
   clip-rule="evenodd"
   d="m -208.07901,-246 c 1.067,-0.107 1.749,0.171 2.4,0.48 -0.345,3.255 -1.478,5.722 -2.88,7.92 -2.527,0.837 -4.675,-0.54 -4.56,-3.12 0.147,-0.333 0.924,-0.036 0.96,-0.48 1.306,-0.267 0.767,1.313 1.92,1.2 1.7,-1.02 1.453,-3.987 2.16,-6 z"
   id="path71"
   inkscape:connector-curvature="0"
   style="fill-rule:evenodd" />
<path
   clip-rule="evenodd"
   d="m -199.43901,-240.48 c -1.016,-0.343 -2.625,-0.095 -3.6,-0.48 -0.52,1.163 1.335,1.804 2.88,1.68 -0.102,0.501 0.165,0.635 0.24,0.96 -2.084,2.501 -5.128,0.208 -5.28,-2.16 -0.432,-6.723 9.126,-5.153 5.76,0 z m -2.4,-1.92 c 0.325,0.076 0.458,0.342 0.96,0.24 0,-0.24 0,-0.48 0,-0.72 -0.547,-0.067 -0.902,0.058 -0.96,0.48 z"
   id="path73"
   inkscape:connector-curvature="0"
   style="fill-rule:evenodd" />
<path
   clip-rule="evenodd"
   d="m -216.71901,-242.16 c 0.759,-0.039 0.802,0.638 1.68,0.48 -0.783,1.377 -1.349,2.971 -2.88,3.6 -0.026,-1.786 0.565,-2.955 1.2,-4.08 z"
   id="path75"
   inkscape:connector-curvature="0"
   style="fill-rule:evenodd" />
<path
   clip-rule="evenodd"
   d="m -231.35901,-241.92 c 1.132,0.228 1.904,0.816 1.68,2.4 -0.575,0.305 -0.884,0.876 -1.92,0.72 -1.31,-0.644 -1.112,-2.695 0.24,-3.12 z"
   id="path77"
   inkscape:connector-curvature="0"
   style="fill-rule:evenodd" />
<path
   clip-rule="evenodd"
   d="m -233.03901,-238.08 c 0.814,0.065 1.946,-0.186 2.4,0.24 0.083,3.843 -1.195,6.325 -2.88,8.4 -2.781,0.301 -4.013,-0.948 -4.32,-3.12 0.359,-0.281 0.981,-0.298 1.2,-0.72 0.997,0.123 0.881,1.359 1.92,1.44 1.229,-1.411 1.453,-3.828 1.68,-6.24 z"
   id="path79"
   inkscape:connector-curvature="0"
   style="fill-rule:evenodd" />
<path
   clip-rule="evenodd"
   d="m -227.03901,-237.12 c 3.04,-0.834 5.367,1.146 5.28,4.08 -0.143,4.771 -7.263,4.562 -7.92,0.48 -0.347,-2.153 0.282,-3.913 2.64,-4.56 z m 0.72,5.04 c 0.691,-0.028 1.571,0.131 1.92,-0.24 1.77,-4.011 -4.991,-2.564 -1.92,0.24 z"
   id="path81"
   inkscape:connector-curvature="0"
   style="fill-rule:evenodd" />
<path
   clip-rule="evenodd"
   d="m -218.15901,-235.68 c -0.283,1.397 -0.681,2.679 -0.72,4.32 2.226,1.647 2.933,-1.9 3.6,-3.36 0.659,0.381 1.741,0.338 2.4,0.72 -0.56,2.4 -1.284,4.637 -2.16,6.72 -0.904,-0.296 -2.531,0.131 -2.16,-1.44 -5.577,2.962 -5.226,-9.383 -0.96,-6.96 z"
   id="path83"
   inkscape:connector-curvature="0"
   style="fill-rule:evenodd" />
<path
   clip-rule="evenodd"
   d="m 120.48099,-234.72 c -0.751,0.735 -1.858,-0.21 -2.88,0 -0.077,-0.427 2.283,-0.664 2.88,0 z"
   id="path85"
   inkscape:connector-curvature="0"
   style="fill-rule:evenodd" />
<path
   clip-rule="evenodd"
   d="m -207.83901,-228 c -1.317,-0.254 -2.704,-1.546 -3.84,-1.2 0.188,1.491 1.463,1.897 2.88,2.16 0.009,0.889 -0.369,1.392 -0.72,1.92 -2.392,-0.231 -3.61,-0.871 -4.08,-2.16 -1.727,-4.733 6.859,-8.87 7.2,-3.36 0.086,1.386 -0.578,1.764 -1.44,2.64 z m -0.72,-1.92 c 0,-0.32 0,-0.64 0,-0.96 -0.4,0 -0.8,0 -1.2,0 0.083,0.637 0.63,0.81 1.2,0.96 z"
   id="path87"
   inkscape:connector-curvature="0"
   style="fill-rule:evenodd" />
<path
   clip-rule="evenodd"
   d="m 121.44099,-231.36 c -0.398,1.281 -1.023,2.336 -1.681,3.36 -1.316,-0.8 -3.198,-0.426 -3.84,0.72 1.342,2.991 6.8,1.82 7.681,5.52 1.777,7.468 -8.045,9.816 -12.48,5.76 0.471,-1.609 1.65,-2.509 2.4,-3.84 1.09,0.413 4.198,2.055 4.8,0 -0.897,-2.038 -3.43,-1.602 -4.8,-2.64 -5.749,-4.357 0.509,-13.611 7.92,-8.88 z"
   id="path89"
   inkscape:connector-curvature="0"
   style="fill-rule:evenodd" />
<path
   clip-rule="evenodd"
   d="m 66.240985,-230.16 c 4.066,4.392 -4.661,7.335 -5.28,2.88 -0.368,-2.652 2.703,-4.148 5.28,-2.88 z"
   id="path91"
   inkscape:connector-curvature="0"
   style="fill-rule:evenodd" />
<path
   clip-rule="evenodd"
   d="m 56.160985,-229.68 c 1.345,8.735 3.148,17.012 3.6,26.64 -1.897,0.183 -3.508,0.652 -5.52,0.72 -2.149,-8.01 -3.789,-16.532 -4.56,-25.92 2.049,-0.591 3.933,-1.347 6.48,-1.44 z"
   id="path93"
   inkscape:connector-curvature="0"
   style="fill-rule:evenodd" />
<path
   clip-rule="evenodd"
   d="m 110.16099,-220.08 c -2.925,0.355 -5.156,1.404 -8.16,1.68 0.8,2.569 3.646,2.293 5.28,0.72 0.667,0.933 1.847,1.353 2.4,2.4 -1,1.875 -3.037,3.026 -5.28,3.12 -11.326005,0.475 -8.923005,-19.612 1.68,-17.52 1.233,0.243 1.639,1.101 3.12,1.92 0.886,1.854 1.146,5.547 0.96,7.68 z m -7.68,-2.4 c 1.498,-0.101 2.714,-0.486 3.84,-0.96 -0.347,-3.309 -4.498,-1.164 -3.84,0.96 z"
   id="path95"
   inkscape:connector-curvature="0"
   style="fill-rule:evenodd" />
<path
   clip-rule="evenodd"
   d="m 97.200985,-224.64 c -2.838,0.605 -5.521,1.581 -6,4.08 -0.534,2.794 1.976,6.347 1.68,9.6 -1.663,0.497 -3.528,0.792 -5.52,0.96 -1.364,-5.276 -1.685,-11.596 -2.88,-17.04 1.504,-0.576 3.463,-0.697 5.04,-1.2 -0.015,0.895 0.241,1.518 0.479,2.16 2.234,-2.962 6.954,-3.989 7.201,1.44 z"
   id="path97"
   inkscape:connector-curvature="0"
   style="fill-rule:evenodd" />
<path
   clip-rule="evenodd"
   d="m 83.760985,-224.64 c -0.611,5.789 -1.818,10.981 -3.119,16.08 -1.435,0.406 -2.929,0.752 -4.801,0.72 -2.348,-4.532 -5.927,-9.113 -6.96,-14.16 0.778,-0.982 2.673,-0.848 3.841,-1.44 2.102,1.658 2.981,4.538 4.079,7.2 1.028,-2.573 1.588,-5.612 2.4,-8.4 1.716,0.296 3.232,-0.684 4.56,0 z"
   id="path99"
   inkscape:connector-curvature="0"
   style="fill-rule:evenodd" />
<path
   clip-rule="evenodd"
   d="m 66.480985,-221.52 c 1.765,3.857 1.424,10.477 1.2,15.6 -1.69,0.108 -3.796,-0.167 -4.801,0 -1.332,-4.028 -0.976,-9.744 -1.199,-14.88 1.736,-0.104 3.129,-0.551 4.8,-0.72 z"
   id="path101"
   inkscape:connector-curvature="0"
   style="fill-rule:evenodd" />
<path
   clip-rule="evenodd"
   d="m -150.23901,-212.88 c 0,0.64 0,1.28 0,1.92 -0.983,-0.023 -1.887,0.033 -1.92,0.96 1.741,1.512 5.341,0.898 4.56,4.8 -0.405,2.021 -2.879,2.621 -5.28,3.12 -0.299,-0.581 -0.594,-1.166 -0.72,-1.92 0.932,0.064 2.622,-0.237 2.4,-1.68 -0.21,-1.366 -3.628,-1.146 -4.32,-2.64 -1.267,-2.737 1.885,-5.26 5.28,-4.56 z"
   id="path103"
   inkscape:connector-curvature="0"
   style="fill-rule:evenodd" />
<path
   clip-rule="evenodd"
   d="m -156.71901,-211.68 c 0.273,3.01 0.813,8.32 -0.72,10.32 -1.696,-0.383 -2.218,-1.942 -3.84,-2.4 -0.539,1.221 -0.003,3.517 -0.96,4.32 -2.684,-1.796 -4.402,-4.558 -6.72,-6.72 1.359,-1.995 3.826,-1.376 4.8,0.48 0.247,-1.433 0.231,-3.128 0.96,-4.08 1.863,0.537 2.617,2.183 3.6,3.6 1.055,-1.046 -0.216,-3.086 0,-4.8 1.269,0.14 1.874,-1.362 2.88,-0.72 z"
   id="path105"
   inkscape:connector-curvature="0"
   style="fill-rule:evenodd" />
<path
   clip-rule="evenodd"
   d="m -167.99901,-202.32 c -1.356,0.483 -2.832,0.848 -3.84,1.68 0.665,1.668 2.938,0.103 4.08,0 1.853,2.229 -1.143,3.764 -4.08,3.36 -3.882,-1.303 -3.737,-11.124 2.4,-8.88 0.801,0.959 1.428,2.093 1.44,3.84 z m -3.6,-0.72 c 0.733,0.173 0.875,-0.245 1.44,-0.24 0.092,-1.215 -1.624,-0.69 -1.44,0.24 z"
   id="path107"
   inkscape:connector-curvature="0"
   style="fill-rule:evenodd" />
<path
   clip-rule="evenodd"
   d="m -173.51901,-196.56 c -0.772,0.269 -1.423,0.657 -2.4,0.72 -0.933,-1.467 -1.026,-3.773 -2.4,-4.8 -3.45,0.694 -0.096,3.704 0,5.76 -1.269,0.091 -1.652,1.068 -2.88,1.2 -0.985,-2.775 -2.108,-5.412 -3.12,-8.16 0.688,-0.432 1.607,-0.632 2.16,-1.2 0.563,0.077 0.537,0.743 0.96,0.96 3.752,-4.187 7.357,1.751 7.68,5.52 z"
   id="path109"
   inkscape:connector-curvature="0"
   style="fill-rule:evenodd" />
<path
   clip-rule="evenodd"
   d="m 144.96099,-185.28 c -0.751,0.735 -1.857,-0.21 -2.88,0 -0.077,-0.427 2.282,-0.664 2.88,0 z"
   id="path111"
   inkscape:connector-curvature="0"
   style="fill-rule:evenodd" />
<path
   clip-rule="evenodd"
   d="m 127.92099,-184.8 c 0.736,2.063 0.231,5.369 0.96,7.44 1.479,-0.761 2.469,-2.012 4.08,-2.64 1.685,0.716 2.051,2.75 2.641,4.56 -0.753,1.167 -2.228,1.613 -3.12,2.64 2.454,2.025 5.003,3.957 6.479,6.96 -0.668,1.492 -2.183,2.137 -3.359,3.12 -2.349,-1.092 -3.295,-3.585 -5.521,-4.8 0.126,1.714 0.571,3.109 0.48,5.04 -1.676,0.485 -3.801,0.52 -6,0.48 -0.493,-7.587 -1.445,-14.714 -2.16,-22.08 1.381,-0.699 3.677,-0.483 5.52,-0.72 z"
   id="path113"
   inkscape:connector-curvature="0"
   style="fill-rule:evenodd" />
<path
   clip-rule="evenodd"
   d="m 147.60099,-182.4 c -0.077,1.443 -1.077,1.963 -1.44,3.12 -1.524,-0.353 -3.396,-0.395 -4.08,0.72 0.225,2.595 3.239,1.772 4.8,2.4 2.494,1.003 4.731,5.524 1.92,8.64 -0.721,0.8 -4.112,2.19 -5.76,2.16 -3.897,-0.071 -5.263,-3.03 -2.399,-5.28 1.222,0.284 3.389,1.069 3.84,-0.48 -1.32,-2.143 -4.156,-1.737 -5.76,-3.36 -4.758,-4.815 2.191,-12.195 8.879,-7.92 z"
   id="path115"
   inkscape:connector-curvature="0"
   style="fill-rule:evenodd" />
<path
   clip-rule="evenodd"
   d="m -29.039015,-126.24 c 0.24,1.2 0.565,2.315 0.48,3.84 5.285,-1.013 5.813,3.354 5.28,7.44 -0.721,0 -1.44,0 -2.16,0 -0.764,-1.237 0.057,-4.057 -1.2,-4.8 -1.067,-0.107 -1.271,0.65 -1.92,0.96 -0.156,1.849 0.695,3.523 -0.24,4.8 -0.904,-0.185 -1.147,0.293 -1.92,0.24 -1.262,-3.298 -0.904,-8.216 -1.2,-12.48 0.551,-0.375 2.33,-0.375 2.88,0 z"
   id="path117"
   inkscape:connector-curvature="0"
   style="fill-rule:evenodd" />
<path
   clip-rule="evenodd"
   d="m -6.2390148,-125.04 c -0.304,0.736 -0.816,1.263 -1.199,1.92 -1.102,-0.019 -1.547,-0.693 -2.8800002,-0.479 -0.179,2.178 2.0300002,1.969 3.1190002,2.88 2.704,4.598 -4.3780002,7.808 -6.2390002,3.84 0.53,-0.189 0.601,-0.84 0.96,-1.2 0.98,-0.101 0.97,0.79 2.16,0.48 1.3210002,-2.986 -3.549,-2.639 -3.36,-5.761 0.172,-2.859 5.1610002,-4.244 7.4390002,-1.68 z"
   id="path119"
   inkscape:connector-curvature="0"
   style="fill-rule:evenodd" />
<path
   clip-rule="evenodd"
   d="m -53.759015,-124.8 c -0.062,0.737 -0.521,1.079 -0.72,1.68 -0.563,-0.076 -0.901,-0.379 -1.681,-0.24 -0.79,0.33 -0.97,1.271 -1.199,2.16 0.019,0.861 1.568,0.191 1.92,0.721 -0.284,0.596 -0.348,1.412 -0.48,2.159 -0.349,0.451 -1.57,0.029 -1.92,0.48 -0.11,1.17 0.251,2.812 -0.24,3.6 -0.562,0.442 -1.527,-0.25 -2.64,0 0.128,-4.672 -0.064,-9.664 2.64,-11.76 1.911,-0.07 3.791,-0.11 4.32,1.2 z"
   id="path121"
   inkscape:connector-curvature="0"
   style="fill-rule:evenodd" />
<path
   clip-rule="evenodd"
   d="m -41.999015,-123.12 c -1.02,1.289 -3.227,0.641 -3.12,-1.2 0.583,-1.704 3.871,-1.624 3.12,1.2 z"
   id="path123"
   inkscape:connector-curvature="0"
   style="fill-rule:evenodd" />
<path
   clip-rule="evenodd"
   d="m -46.559015,-123.36 c -0.422,0.219 -0.439,0.842 -0.72,1.2 -0.88,0.178 -1.334,-0.59 -1.921,0 -0.532,0.428 -0.871,1.049 -0.72,2.16 0.349,0.371 0.937,0.504 1.68,0.48 0,0.8 0,1.6 0,2.399 -0.574,0.146 -1.095,0.346 -1.92,0.24 -0.04,1.4 0.419,2.301 0.24,3.84 -0.773,0.347 -2.013,0.227 -3.12,0.24 -0.059,-3.813 -0.422,-8.95 1.2,-11.76 1.505,-0.919 5.108,-0.708 5.281,1.201 z"
   id="path125"
   inkscape:connector-curvature="0"
   style="fill-rule:evenodd" />
<path
   clip-rule="evenodd"
   d="m -14.879015,-123.12 c 0.027,1.333 0.511,2.209 0.48,3.601 -1.68,0.24 -2.762,1.078 -4.561,1.199 0.367,1.455 2.761,0.945 3.84,0.48 0.263,0.537 0.397,1.202 0.721,1.68 -4.599,6.356 -11.123,-4.198 -6.24,-7.68 1.661,-1.184 4.366,-0.668 5.76,0.72 z m -3.84,2.16 c 0.497,-0.143 1.576,0.297 1.68,-0.24 -0.425,-0.215 -0.306,-0.974 -1.2,-0.72 -0.124,0.355 -0.355,0.604 -0.48,0.96 z"
   id="path127"
   inkscape:connector-curvature="0"
   style="fill-rule:evenodd" />
<path
   clip-rule="evenodd"
   d="m -62.879015,-123.36 c -0.002,3.038 0.116,6.196 -0.479,8.641 -2.538,-0.436 -3.107,-0.002 -6,0 -4.027,-1.066 -4.203,-8.081 -0.48,-9.36 2.544,-0.876 4.153,1.132 6.959,0.719 z m -5.28,1.919 c -1.837,0.059 -2.074,4.127 0.96,3.601 0.649,-1.261 0.427,-3.644 -0.96,-3.601 z"
   id="path129"
   inkscape:connector-curvature="0"
   style="fill-rule:evenodd" />
<path
   clip-rule="evenodd"
   d="m -34.319015,-120.96 c 0.338,2.323 -2.908,1.064 -3.12,2.88 -0.162,1.38 1.501,2.045 3.359,1.2 0.316,0.724 0.775,1.305 0.721,2.4 -0.916,0.844 -2.757,0.764 -4.561,0.72 -5.384,-1.827 -1.177,-11.833 3.601,-7.2 z"
   id="path131"
   inkscape:connector-curvature="0"
   style="fill-rule:evenodd" />
<path
   clip-rule="evenodd"
   d="m -41.999015,-121.2 c -0.097,2.543 0.232,5.513 -0.24,7.681 -1.022,-0.098 -2.472,0.232 -3.119,-0.24 0.535,-2.919 -1.231,-9.373 3.359,-7.441 z"
   id="path133"
   inkscape:connector-curvature="0"
   style="fill-rule:evenodd" />
<path
   clip-rule="evenodd"
   d="m -100.07901,-115.2 c 0.736995,1.104 -0.379,2.127 0,3.36 0.478995,1.558 1.897995,1.562 3.119995,2.64 0.985,2.379 0.667,6.445 -2.16,6.48 -0.333,-0.147 -0.036,-0.924 -0.48,-0.96 0.058,-1.343 1.481,-1.146 1.2,-2.88 -0.316,-1.95 -4.342995,-2.203 -4.319995,-5.521 0.006,-0.917 0.5,-3.37 2.64,-3.119 z"
   id="path135"
   inkscape:connector-curvature="0"
   style="fill-rule:evenodd" />
<path
   clip-rule="evenodd"
   d="m -115.19901,-102 c 1.024,0.571 1.053,3.325 -0.24,3.6 -1.015,-0.345 -1.625,-1.095 -1.44,-2.64 0.602,-0.277 0.804,-0.956 1.68,-0.96 z"
   id="path137"
   inkscape:connector-curvature="0"
   style="fill-rule:evenodd" />
<path
   clip-rule="evenodd"
   d="m -122.63901,-90.72 c 5.12,0.268 4.63,9.054 0.96,10.56 -2.59,-3.329 -5.364,-6.476 -7.68,-10.08 0.49,-3.262 6.908,-6.492 6.72,-0.48 z m -4.56,0.48 c 0.088,0.712 0.416,1.185 0.96,1.44 0.402,-0.486 1.651,-1.834 0.48,-2.4 -0.361,0.438 -1.036,0.564 -1.44,0.96 z m 2.88,3.84 c 0.533,1.067 1.003,2.197 2.16,2.641 0.726,-0.885 0.913,-2.278 0.24,-3.36 -1.095,-0.056 -1.676,0.403 -2.4,0.719 z"
   id="path139"
   inkscape:connector-curvature="0"
   style="fill-rule:evenodd" />
<path
   clip-rule="evenodd"
   d="m -132.71901,-89.28 c -5.739,-0.488 1.899,-6.422 0,0 l 0,0 z"
   id="path141"
   inkscape:connector-curvature="0"
   style="fill-rule:evenodd" />
<path
   clip-rule="evenodd"
   d="m 11.520985,-89.04 c -0.016,1.104 -0.683,1.558 -0.96,2.4 -1.3459998,0.049 -2.7279998,-1.096 -3.3599998,0.239 0.308,1.692 2.468,1.532 3.8399998,2.16 4.038,3.965 -2.4429998,9.902 -6.2399998,6 0.211,-0.669 0.575,-1.186 0.721,-1.92 0.748,-0.43 2.646,1.047 3.12,-0.479 -0.835,-2.979 -4.635,-2.043 -5.04,-5.04 -0.521,-3.844 4.862,-6.042 7.9189998,-3.36 z"
   id="path143"
   inkscape:connector-curvature="0"
   style="fill-rule:evenodd" />
<path
   clip-rule="evenodd"
   d="m -16.319015,-90 c 0.201,0.599 0.313,1.286 0.239,2.16 0.635,-0.485 2.204,-0.036 2.88,-0.48 0.405,0.955 0.188,2.532 0.24,3.841 -1.018,0.182 -2.102,0.298 -3.12,0.479 -0.208,3.488 0.429,6.132 0.721,9.12 -1.174,0.106 -2.066,0.494 -3.36,0.479 -0.289,-5.15 -1.435,-9.444 -1.2,-15.119 0.883,-0.478 2.647,-0.073 3.6,-0.48 z"
   id="path145"
   inkscape:connector-curvature="0"
   style="fill-rule:evenodd" />
<path
   clip-rule="evenodd"
   d="m -130.31901,-88.56 c 2.755,2.044 4.304,5.296 6.72,7.68 -0.381,0.819 -0.802,1.599 -1.68,1.92 -2.537,-2.023 -4.118,-5.002 -6.24,-7.44 -0.083,-1.204 1.062,-1.178 1.2,-2.16 z"
   id="path147"
   inkscape:connector-curvature="0"
   style="fill-rule:evenodd" />
<path
   clip-rule="evenodd"
   d="m -0.47901475,-87.6 c 0.846,0.029 0.065,0.349 0.478999997597,0.96 C 0.81698525,-86.863 1.4079852,-87.313 2.6409852,-87.12 c -0.048,0.928 -0.009,1.769 0.239,2.4 -3.28599995,0.479 -2.60999995,4.22 -1.91999995,7.2 -0.594,0.445 -1.832,0.247 -2.39900005,0.72 -1.721,-2.279 -1.581,-6.42 -1.92,-10.08 0.879,-0.32 1.832,-0.567 2.88000005,-0.72 z"
   id="path149"
   inkscape:connector-curvature="0"
   style="fill-rule:evenodd" />
<path
   clip-rule="evenodd"
   d="m -48.719015,-86.64 c 2.489,-1.769 6.059,-0.107 6.72,2.16 1.132,5.515 -2.906,9.395 -6.96,6.72 0.165,2.085 -0.234,3.604 -0.24,5.52 -0.88,0 -1.76,0 -2.64,0 -0.354,-4.563 -0.394,-10.323 0,-14.88 1.153,0.439 3.031,-1.165 3.12,0.48 z m 3.36,6.24 c 0.688,-1.163 0.484,-2.878 -0.24,-3.84 -2.79,-0.719 -2.617,4.78 0.24,3.84 z"
   id="path151"
   inkscape:connector-curvature="0"
   style="fill-rule:evenodd" />
<path
   clip-rule="evenodd"
   d="m -22.319015,-86.64 c 0.124,1.244 -0.753,1.487 -0.96,2.399 -0.746,-0.447 -2.707,-0.406 -2.641,0.721 2.022,1.288 4.813,1.464 5.28,3.84 0.876,4.465 -5.047,6.076 -8.16,3.359 0.03,-1.009 0.93,-1.15 0.96,-2.159 1.103,0.429 2.742,1.196 3.6,0 -0.935,-2.947 -6.695,-1.206 -5.52,-6.24 0.509,-2.175 4.72,-3.586 7.441,-1.92 z"
   id="path153"
   inkscape:connector-curvature="0"
   style="fill-rule:evenodd" />
<path
   clip-rule="evenodd"
   d="m -4.0790148,-82.08 c -1.643,0.356 -2.859,1.141 -4.8,1.2 0.187,1.898 2.81,1.043 4.08,0.72 0.162,0.638 0.378,1.223 0.72,1.681 -1.175,1.995 -4.751,2.447 -6.4790002,1.199 -4.826,-3.481 0.265,-14.077 5.7600002,-8.64 0.379,1.14 0.497,2.542 0.719,3.84 z m -4.56,-1.44 c 0.56,0 1.12,0 1.68,0 0.089,-1.223 -1.768,-1.223 -1.68,0 z"
   id="path155"
   inkscape:connector-curvature="0"
   style="fill-rule:evenodd" />
<path
   clip-rule="evenodd"
   d="m -36.239015,-86.4 c 7.966,-0.589 7.359,12.485 -0.72,11.04 -4.741,-0.848 -7.292,-10.448 0.72,-11.04 z m -1.68,4.32 c -0.318,2.398 0.722,3.438 3.12,3.12 0.844,-0.602 1.307,-2.3 0.72,-3.6 -1.157,-1.116 -2.952,-0.504 -3.84,0.48 z"
   id="path157"
   inkscape:connector-curvature="0"
   style="fill-rule:evenodd" />
<path
   clip-rule="evenodd"
   d="m -126.47901,-76.8 c -0.342,0.938 -0.982,1.577 -1.92,1.92 -1.078,-0.202 -1.348,-1.212 -1.92,-1.92 -0.876,0.163 -1.17,0.909 -1.92,1.2 0.511,1.089 1.232,1.968 1.68,3.12 -0.263,0.856 -0.823,1.417 -1.68,1.68 -2.067,-3.134 -4.17,-6.23 -6.48,-9.12 0.213,-1.227 0.857,-2.023 1.92,-2.4 0.506,1.015 1.174,1.866 1.68,2.88 0.788,-0.092 1.058,-0.701 1.68,-0.96 -1.732,-1.566 -2.971,-5.402 0.48,-6 1.838,3.522 4.299,6.421 6.48,9.6 z"
   id="path159"
   inkscape:connector-curvature="0"
   style="fill-rule:evenodd" />
<path
   clip-rule="evenodd"
   d="m -140.39901,-82.56 c 1.782,1.93 1.032,4.625 1.92,6.72 1.143,2.695 4.62,3.263 6,5.52 -0.207,1.154 -1.457,1.263 -1.92,2.16 -1.331,-0.35 -2.289,-1.071 -3.36,-1.68 0.629,2.208 0.606,5.263 -1.44,5.04 -0.502,-2.138 -0.536,-4.744 -0.96,-6.96 -1.482,-1.318 -3.317,-2.283 -4.8,-3.601 0.073,-1.367 0.95,-1.93 1.44,-2.88 0.745,0.375 1.528,0.712 2.16,1.2 -0.403,-2.453 -0.715,-4.296 0.96,-5.519 z"
   id="path161"
   inkscape:connector-curvature="0"
   style="fill-rule:evenodd" />
<path
   clip-rule="evenodd"
   d="m -147.59901,-77.76 c 3.952,1.403 -0.381,4.933 0.72,7.2 1.061,-0.779 1.261,-2.42 2.4,-3.12 3.646,1.54 0.568,4.905 1.2,7.2 0.509,-0.691 1.207,-1.193 1.44,-2.16 1.214,0.626 1.188,2.491 1.92,3.6 -0.749,1.571 -2.227,2.413 -3.36,3.6 -2.975,-2.784 -4.636,-6.884 -7.44,-9.84 0.769,-2.431 2.484,-3.915 3.12,-6.48 z"
   id="path163"
   inkscape:connector-curvature="0"
   style="fill-rule:evenodd" />
<path
   clip-rule="evenodd"
   d="m -101.03901,-67.68 c 0.194,2.193 -1.588,2.412 -2.4,3.6 0.609,3.749 4.767995,1.664 7.199995,3.36 1.092,0.761 2.347,3.003 2.4,4.56 0.114,3.363 -3.986,8.589 -6.959995,4.561 0.034,-1.166 0.378,-2.021 0.72,-2.88 0.771995,-0.053 1.014995,0.424 1.919995,0.239 2.071,-3.912 -2.729995,-2.964 -5.279995,-4.08 -4.422,-1.936 -6.027,-11.718 2.4,-9.36 z"
   id="path165"
   inkscape:connector-curvature="0"
   style="fill-rule:evenodd" />
<path
   clip-rule="evenodd"
   d="m -113.03901,-60.72 c 5.757,-1.307 11.02,6.19 11.76,11.52 0.793,5.71 -3.23,5.878 -6.24,3.36 -3.33,-2.787 -7.095,-8.866 -5.52,-14.88 z m 5.28,8.4 c 0.878,1.33 2.077,3.375 3.12,3.12 -0.927,-3.473 -2.905,-5.895 -5.52,-7.68 0.334,1.512 1.461,3.139 2.4,4.56 z"
   id="path167"
   inkscape:connector-curvature="0"
   style="fill-rule:evenodd" />
<path
   clip-rule="evenodd"
   d="m -114.47901,-44.64 c 1.186,2.095 2.388,4.172 3.6,6.239 -0.596,1.404 -1.311,2.689 -2.88,3.12 -2.162,-3.906 -4.007,-7.769 -6.24,-12.479 -0.637,-1.345 -1.976,-3.081 -1.92,-4.08 0.124,-2.219 3.625,-4.576 5.04,-4.561 4.468,0.053 6.086,9.103 2.4,11.761 z m -3.6,-6.24 c 0.637,0.482 0.582,1.658 1.44,1.92 0.521,-0.572 0.633,-1.82 0.24,-2.64 -0.854,-0.053 -1.438,0.161 -1.68,0.72 z"
   id="path169"
   inkscape:connector-curvature="0"
   style="fill-rule:evenodd" />
<path
   clip-rule="evenodd"
   d="m -114.95901,-34.56 c -0.458,1.382 -1.748,1.932 -2.64,2.88 -1.363,0.003 -1.42,-1.301 -2.4,-1.681 0.028,1.732 0.397,3.123 0.24,5.04 -1.223,-0.022 -1.897,0.503 -3.12,0.48 -1.182,-2.898 -1.726,-6.435 -1.92,-10.32 -1.59,-2.01 -3.681,-3.519 -5.28,-5.52 0.467,-1.214 1.534,-1.826 2.4,-2.641 1.276,0.404 1.465,1.895 2.64,2.4 0.117,-1.637 -0.331,-2.709 -0.48,-4.08 0.402,-0.878 1.483,-1.076 2.16,-1.68 0.388,-0.067 0.414,0.227 0.72,0.239 1.055,2.875 0.278,5.694 1.2,7.921 1.252,3.026 5.454,3.937 6.48,6.962 z"
   id="path171"
   inkscape:connector-curvature="0"
   style="fill-rule:evenodd" />
<path
   clip-rule="evenodd"
   d="m -129.83901,-40.56 c -0.985,1.599 -3.775,2.49 -2.4,5.04 0.882,-0.078 1.328,-0.593 2.16,-0.721 0.776,0.904 1.047,2.313 1.68,3.36 -0.179,0.941 -0.949,1.291 -1.68,1.68 0.469,0.731 0.668,1.731 1.2,2.4 1.292,-0.628 2.534,-1.307 3.36,-2.4 4.259,3.34 -0.065,7.264 -3.12,8.88 -3.599,-4.801 -5.986,-10.814 -8.64,-16.56 1.577,-1.943 3.41,-3.63 5.04,-5.521 1.3,0.782 1.753,2.409 2.4,3.842 z"
   id="path173"
   inkscape:connector-curvature="0"
   style="fill-rule:evenodd" />
<path
   clip-rule="evenodd"
   d="m -330.71901,-25.92 c -0.28,1.16 -1.76,1.119 -2.16,2.16 0.343,1.098 0.977,1.903 1.2,3.12 -2.968,2.862 -3.767,-2.968 -4.8,-5.04 1.861,-0.217 4.914,-3.037 5.76,-0.24 z"
   id="path175"
   inkscape:connector-curvature="0"
   style="fill-rule:evenodd" />
<path
   clip-rule="evenodd"
   d="m -338.15901,-24.48 c 1.265,1.614 2.059,3.701 3.12,5.52 -2.425,3.674 -7.633,2.224 -8.16,-2.16 0.534,-0.586 1.17,-1.069 2.16,-1.2 0.638,0.962 0.643,2.558 1.92,2.88 0.611,-1.099 -0.851,-2.183 -0.96,-3.359 0.242,-0.959 1.439,-0.962 1.92,-1.681 z"
   id="path177"
   inkscape:connector-curvature="0"
   style="fill-rule:evenodd" />
<path
   clip-rule="evenodd"
   d="m -318.47901,-12.48 c -0.674,0.285 -1.38,0.54 -2.16,0.72 -1.725,-3.155 -2.048,-7.712 -3.84,-10.8 0.493,-0.566 1.644,-1.419 2.4,-0.96 1.506,3.374 2.452,7.308 3.6,11.04 z"
   id="path179"
   inkscape:connector-curvature="0"
   style="fill-rule:evenodd" />
<path
   clip-rule="evenodd"
   d="m -351.83901,-19.68 c -4.168,1.796 2.662,5.42 3.6,7.68 -0.158,0.883 -0.885,1.195 -1.44,1.68 -1.181,-0.693 -2.684,-2.414 -4.32,-4.319 -1.699,-1.979 -5.249,-4.957 -2.16,-6.48 1.887,0.958 3.465,-1.565 4.32,1.439 z"
   id="path181"
   inkscape:connector-curvature="0"
   style="fill-rule:evenodd" />
<path
   clip-rule="evenodd"
   d="m -326.15901,-19.68 c 0.478,2.223 -1.746,2.586 -2.4,1.2 -0.277,-1.667 1.511,-2.046 2.4,-1.2 z"
   id="path183"
   inkscape:connector-curvature="0"
   style="fill-rule:evenodd" />
<path
   clip-rule="evenodd"
   d="m -347.27901,-19.68 c 5.242,-1.827 5.962,7.225 0.96,6.96 -3.483,-0.184 -4.39,-5.764 -0.96,-6.96 z m 0.24,3.6 c 0.309,0.411 0.496,0.944 1.2,0.96 0.651,-0.422 0.697,-2.023 -0.24,-2.16 -0.241,0.479 -1.061,0.379 -0.96,1.2 z"
   id="path185"
   inkscape:connector-curvature="0"
   style="fill-rule:evenodd" />
<path
   clip-rule="evenodd"
   d="m -324.71901,-15.6 c 0.332,1.988 1.664,2.977 1.68,5.279 -0.926,0.034 -1.109,0.812 -2.16,0.721 -0.57,-1.91 -1.637,-3.323 -1.92,-5.521 1.027,0.068 1.187,-0.733 2.4,-0.479 z"
   id="path187"
   inkscape:connector-curvature="0"
   style="fill-rule:evenodd" />
<path
   clip-rule="evenodd"
   d="m -329.75901,-9.84 c 1.259,-0.258 2.144,-0.278 3.12,0.24 -2.835,8.602 -12.574,-7.316 -3.6,-5.761 1.31,0.228 2.58,4.088 0.48,5.521 z m -1.2,-1.68 c 0.916,-0.216 0.527,-1.946 -0.72,-1.44 -0.01,0.729 -0.14,1.58 0.72,1.44 z"
   id="path189"
   inkscape:connector-curvature="0"
   style="fill-rule:evenodd" />
<path
   clip-rule="evenodd"
   d="m -354.71901,-8.64 c 1.537,0.565 2.243,-1.078 3.6,0.239 -0.809,3.967 -7.747,2.037 -8.4,-0.96 -0.79,-3.621 3.604,-5.537 5.28,-1.439 0.074,0.954 -0.554,1.205 -0.48,2.16 z m -2.64,-1.92 c -0.01,0.33 0.113,0.526 0.24,0.72 0.632,0.072 0.788,-0.332 0.72,-0.96 -0.418,-0.018 -0.746,0.054 -0.96,0.24 z"
   id="path191"
   inkscape:connector-curvature="0"
   style="fill-rule:evenodd" />
<path
   clip-rule="evenodd"
   d="m -362.39901,-7.68 c 1.547,0.692 3.983,0.497 5.28,1.439 0.129,1.089 -0.482,1.438 -0.72,2.16 -1.837,-0.403 -3.568,-0.912 -5.76,-0.96 0.789,1.61 2.352,2.448 3.36,3.84 -0.106,0.854 -0.869,1.052 -1.2,1.681 -3.09,-1.558 -5.674,-5.681 -8.64,-8.16 -0.675,-5.136 9.117,-7.264 7.68,0 z m -4.8,-0.72 c 0.629,0.332 0.826,1.095 1.68,1.2 0.491,-0.628 0.836,-1.403 0.72,-2.64 -1.122,-0.52 -2.091,0.432 -2.4,1.44 z"
   id="path193"
   inkscape:connector-curvature="0"
   style="fill-rule:evenodd" />
<path
   clip-rule="evenodd"
   d="m -333.35901,-6 c -3.031,1.49 -6.688,1.482 -7.68,-1.68 -0.158,-0.503 -0.077,-1.433 0,-1.92 2.225,-1.761 2.176,1.873 3.84,2.159 0.772,-1.26 -0.931,-2.103 -0.72,-3.6 2.673,-2.027 4.189,3.289 4.56,5.041 z"
   id="path195"
   inkscape:connector-curvature="0"
   style="fill-rule:evenodd" />
<path
   clip-rule="evenodd"
   d="m -342.47901,-6.48 c -0.039,1.081 -1.359,0.881 -1.44,1.92 -0.103,0.982 0.507,1.253 0.96,1.68 1.139,0.099 1.261,-0.819 2.4,-0.72 0.316,0.724 0.775,1.305 0.72,2.399 -2.875,1.748 -6.646,0.188 -6.96,-2.64 -0.272,-2.448 2.965,-6.154 4.32,-2.639 z"
   id="path197"
   inkscape:connector-curvature="0"
   style="fill-rule:evenodd" />
<path
   clip-rule="evenodd"
   d="m -347.27901,0.48 c 1.284,0.244 1.194,-0.886 2.4,-0.721 0.206,0.755 0.907,1.013 0.96,1.92 -1.152,0.867 -2.012,1.557 -3.36,1.44 -4.402,-0.381 -4.241,-9.175 -0.72,-5.28 -0.358,1.107 -0.255,2.262 0.72,2.641 z"
   id="path199"
   inkscape:connector-curvature="0"
   style="fill-rule:evenodd" />
<path
   clip-rule="evenodd"
   d="m 22.320985,0 c 1.189,0.73 0.628,3.212 1.2,4.56 0.568,0.475 0.953,-1.275 1.92,-1.199 0.664,0.376 1.334,0.745 2.16,0.96 0.045,1.619 -2.361,1.393 -2.4,2.399 -0.047,1.204 2.854,1.62 3.6,3.12 -1.05,2.333 -3.261,0.297 -4.56,-0.479 -0.326,0.265 0.234,1.672 0.24,2.399 -0.957,0.164 -1.633,0.607 -2.88,0.48 -0.771,-3.629 -1.269,-7.532 -1.92,-11.28 0.751,-0.449 1.909,-0.491 2.64,-0.96 z"
   id="path201"
   style="fill:#ffffff;fill-rule:evenodd"
   inkscape:connector-curvature="0" />
<path
   clip-rule="evenodd"
   d="m -348.23901,3.84 c 0.167,1.399 -1.06,1.325 -1.92,2.16 -0.745,0.724 -1.067,1.907 -1.92,2.16 -3.116,0.923 -5.506,-2.01 -5.28,-4.32 0.153,-1.562 1.756,-3.509 2.88,-3.6 2.164,-0.176 3.78,3.525 6.24,3.6 z m -4.8,1.92 c 0.653,-1.366 -0.818,-2.057 -1.68,-2.64 -0.767,1.338 0.526,2.447 1.68,2.64 z"
   id="path203"
   inkscape:connector-curvature="0"
   style="fill-rule:evenodd" />
<path
   clip-rule="evenodd"
   d="m 3.1209852,0.24 c 1.13,4.391 1.963,9.077 2.4,14.16 -1.208,-0.168 -1.673,0.407 -2.88,0.239 C 1.5789852,10.102 0.44498525,5.635 -1.4752403e-5,0.48 1.0589852,0.418 1.8569852,0.097 3.1209852,0.24 z"
   id="path205"
   style="fill:#ffffff;fill-rule:evenodd"
   inkscape:connector-curvature="0" />
<path
   clip-rule="evenodd"
   d="m 32.640985,6.72 c 0.461,1.376 2.118,0.39 2.88,0 2.479,1.57 -0.443,4.479 -3.84,3.601 -1.63,-0.422 -4.773,-5.789 -2.881,-8.4 3.024,-4.171 10.19,1.78 3.841,4.799 z m -1.44,-1.92 c 0.733,0.174 0.875,-0.245 1.44,-0.24 -0.003,-0.637 0.09,-1.37 -0.24,-1.68 -1.354,-0.362 -1.789,1.096 -1.2,1.92 z"
   id="path207"
   style="fill:#ffffff;fill-rule:evenodd"
   inkscape:connector-curvature="0" />
<path
   clip-rule="evenodd"
   d="m 11.280985,0.48 c 1.32,3.719 1.657,8.422 2.64,12.479 -0.823,0.536 -2.263,0.457 -3.359,0.72 C 9.5629852,9.718 9.1789852,5.142 8.6419852,0.719 9.6309852,0.75 10.142985,0.303 11.280985,0.48 z"
   id="path209"
   style="fill:#ffffff;fill-rule:evenodd"
   inkscape:connector-curvature="0" />
<path
   clip-rule="evenodd"
   d="m 17.520985,3.12 c -0.827,0.7 -1.456,1.072 -2.4,0.72 -3.428,-1.281 3.056,-6.439 2.4,-0.72 z"
   id="path211"
   style="fill:#ffffff;fill-rule:evenodd"
   inkscape:connector-curvature="0" />
<path
   clip-rule="evenodd"
   d="m 17.760985,4.559 c 0.456,2.425 0.673,5.088 1.2,7.44 -0.798,0.402 -1.966,0.435 -2.88,0.72 -0.617,-2.263 -0.668,-5.091 -1.439,-7.199 0.362,-0.998 2.114,-0.605 3.119,-0.961 z"
   id="path213"
   style="fill:#ffffff;fill-rule:evenodd"
   inkscape:connector-curvature="0" />
<path
   clip-rule="evenodd"
   d="m -117.59901,-92.64 c 1.13,1.83 2.293,3.626 3.6,5.279 -0.651,0.709 -1.11,1.61 -2.16,1.92 -1.57,-2.59 -3.299,-5.021 -4.8,-7.68 0.158,-0.882 0.885,-1.195 1.44,-1.68 0.976,-0.096 0.738,1.021 1.44,1.2 -0.958,-1.521 -1.888,-3.072 -3.12,-4.32 0.016,0.655 2.023,3.067 0,3.84 -1.363,0.112 -2.223,-1.835 -1.2,-2.64 -0.744,-1.017 -1.462,-2.058 -1.92,-3.36 1.684,-1.356 3.6,-2.48 5.28,-3.84 0.901,0.539 0.908,1.972 1.68,2.64 0.043,0.843 -0.811,0.79 -0.96,1.44 0.158,1.686 4.437,4.461 4.08,6.72 -0.166,1.052 -2.357,2.568 -3.36,0.481 z"
   id="path215"
   inkscape:connector-curvature="0"
   style="fill-rule:evenodd" />
<path
   clip-rule="evenodd"
   d="m 140.88099,-297.84 c 0.49,0.917 0.049,1.835 0,2.88 -0.74,0.379 -1.646,0.595 -2.399,0.96 -0.013,1.745 2.078,-0.037 1.92,1.92 -5.022,4.467 -4.975,-9.073 0.479,-5.76 z"
   id="path217"
   inkscape:connector-curvature="0"
   style="fill-rule:evenodd" />
<path
   clip-rule="evenodd"
   d="m 126.96099,-296.4 c 0.086,1.206 -0.063,2.176 -0.479,2.88 -0.915,0.286 -2.083,0.318 -2.88,0.72 -0.003,1.355 2.276,0.335 2.64,0.72 0.397,2.278 -1.772,2.583 -3.36,2.16 -2.637,-2.81 0.669,-9.717 4.079,-6.48 z"
   id="path219"
   inkscape:connector-curvature="0"
   style="fill-rule:evenodd" />
<path
   clip-rule="evenodd"
   d="m 108.00099,-166.56 c 1.442,9.125 -13.141005,13.917 -14.640005,2.88 0.387,8.867 -6.882,10.078 -14.64,10.8 -2.15,-8.01 -3.789,-16.532 -4.561,-25.92 2.049,-0.591 3.934,-1.347 6.48,-1.44 0.731,3.269 1.017,6.983 1.68,10.32 5.113,0.167 9.699,0.86 10.56,5.28 -1.761,-10.32 13.258005,-11.93 14.400005,-3.12 -2.229,-12.23 14.542,-12.027 15.84,-3.36 0.615,4.108 -2.174,9.752 -6.24,10.56 -4.518,0.898 -8.451,-2.021 -8.879,-6 z m 4.8,-3.36 c -0.084,2.004 -0.099,3.938 1.2,4.56 3.365,0.376 4.549,-3.346 3.36,-6 -1.898,-0.807 -3.806,0.316 -4.56,1.44 z m -12.48,7.44 c 3.454,-0.043 2.954,-7.287 -1.200005,-5.76 -2.794,1.027 -1.314,5.791 1.200005,5.76 z m -16.560005,3.6 c 5.42,0.41 4.127,-5.904 -0.479,-5.52 0.024,1.974 0.533,3.465 0.479,5.52 z"
   id="path221"
   inkscape:connector-curvature="0"
   style="fill-rule:evenodd" />
<path
   clip-rule="evenodd"
   d="m -107.03901,-101.76 c -0.321,-1.682 -2.096,-3.982 -2.88,-6 0.29,-0.91 1.225,-1.175 1.68,-1.92 1.755,0.405 2.498,1.822 3.84,2.64 -0.006,-0.958 -1.148,-2.849 -1.68,-4.08 0.316,-1.123 1.337,-1.543 2.4,-1.92 1.176,4.344 3.595,7.444 4.559995,12 -1.864995,1.054 -3.392995,-0.435 -4.799995,-1.2 -0.15,0.877 0.99,2.525 1.44,3.601 -0.206,0.914 -0.94,1.299 -1.92,1.439 -0.306,-1.374 -1.202,-2.158 -1.68,-3.359 1.5,3.555 -2.283,9.733 -5.28,5.279 0.306,1.374 1.202,2.158 1.68,3.36 -0.393,0.888 -1.285,1.275 -2.4,1.44 -1.014,-2.586 -2.346,-4.854 -3.36,-7.44 0.982,-0.138 1.135,-1.105 2.16,-1.2 0.264,0.776 0.648,1.433 0.96,2.16 -1.452,-4.213 3.057,-9.835 5.28,-4.8 z m -2.64,0.72 c -1.256,0.755 -1.31,4.454 1.2,4.08 1.107,-1.197 0.694,-3.918 -1.2,-4.08 z"
   id="path223"
   inkscape:connector-curvature="0"
   style="fill-rule:evenodd" />
</svg>