<?xml version="1.0" encoding="utf-8"?>
<!-- Generator: Adobe Illustrator 15.0.0, SVG Export Plug-In . SVG Version: 6.00 Build 0)  -->
<!DOCTYPE svg PUBLIC "-//W3C//DTD SVG 1.1//EN" "http://www.w3.org/Graphics/SVG/1.1/DTD/svg11.dtd">
<svg version="1.1" id="jeanne-long_xA0_Image_1_" xmlns="http://www.w3.org/2000/svg" xmlns:xlink="http://www.w3.org/1999/xlink"
	 x="0px" y="0px" width="107.76px" height="26.4px" viewBox="0 0 107.76 26.4" enable-background="new 0 0 107.76 26.4"
	 xml:space="preserve">
<path fill-rule="evenodd" clip-rule="evenodd" fill="#FFFFFF" d="M7.68,5.04C7.444,4.716,7.04,4.561,6.72,4.32
	C6.471,0.027,11.458,4.524,7.68,5.04z"/>
<path fill-rule="evenodd" clip-rule="evenodd" fill="#FFFFFF" d="M100.56,6.96c-1.325,0.595-2.802,1.038-4.56,1.2
	C97.165,6.539,99.048,4.425,100.56,6.96z"/>
<path fill-rule="evenodd" clip-rule="evenodd" fill="#FFFFFF" d="M6.72,6.24c0.72,0,1.44,0,2.16,0
	c1.491,5.845-2.932,13.032-6.24,7.439c0.346-0.134,0.585-0.374,0.72-0.72c0.849-0.778,0.844,0.752,1.92,0.48
	C6.819,12.1,6.654,9.054,6.72,6.24z"/>
<path fill-rule="evenodd" clip-rule="evenodd" fill="#FFFFFF" d="M78,12.96c4.279-0.648,5.572,3.685,5.76,7.92
	c-0.596,0.284-1.412,0.348-2.16,0.48c-0.505-2.055-1.146-3.974-2.159-5.521c-2.499,0.49-1.116,4.688-0.961,6.72
	c-0.579,0.46-1.928,0.152-2.88,0.24c-0.836-4.363-0.329-10.071-0.72-14.88C78.335,6.113,77.891,10.127,78,12.96z"/>
<path fill-rule="evenodd" clip-rule="evenodd" fill="#FFFFFF" d="M14.4,12.96c-0.64,0-1.28,0-1.92,0
	c-0.012,1.662,1.74,0.617,2.88,0.72c0,0.4,0,0.801,0,1.2C9.347,20.896,7.368,3.847,14.88,8.4C16.024,9.606,15.647,12.179,14.4,12.96
	z M12.24,10.08c-0.073,0.632,0.332,0.788,0.96,0.72C13.263,9.808,12.915,9.834,12.24,10.08z"/>
<path fill-rule="evenodd" clip-rule="evenodd" fill="#FFFFFF" d="M57.6,7.68c4.21,3.63,6.191,9.489,8.88,14.64
	c-1.145-0.186-1.544,0.375-2.64,0.239c-0.295-1.384-1.385-1.975-1.68-3.359c-2.038-0.038-4.023-0.023-5.76,0.24
	c-0.313,0.966-0.263,2.297-0.721,3.119c-1.046,0.007-2.223,0.144-2.64-0.479C53.59,16.311,56.051,12.451,57.6,7.68z M57.6,16.56
	c0.88,0,1.761,0,2.641,0c-0.534-1.065-0.903-2.297-1.92-2.88C58.242,14.803,57.563,15.323,57.6,16.56z"/>
<path fill-rule="evenodd" clip-rule="evenodd" fill="#FFFFFF" d="M91.2,13.44c3.235,4.297-0.181,10.12-6.24,8.88
	c-0.414-4.386-0.41-9.19-0.72-13.68C88.516,6.956,93.706,9.203,91.2,13.44z M87.36,12.72c0.674-0.287,1.529-0.39,1.439-1.44
	c-0.203-0.516-0.591-0.849-1.439-0.72C87.36,11.28,87.36,12,87.36,12.72z M87.6,15.84c-0.057,1.072-0.588,2.649,0,3.601
	c1.656-0.104,2.065-1.455,1.92-3.36C88.798,15.546,88.683,15.797,87.6,15.84z"/>
<path fill-rule="evenodd" clip-rule="evenodd" fill="#FFFFFF" d="M98.16,17.28c0.438,1.162,1.604,1.595,2.88,1.92
	c-0.397,0.802-0.803,1.598-1.2,2.399c-5.138,0.314-8.026-7.083-5.04-11.04c2.958-3.919,9.502,1.308,6,5.52
	C99.855,16.415,99.174,17.014,98.16,17.28z M96.72,14.64c1.235,0.647,3.058-1.327,1.681-2.64C96.528,11.475,96.04,13.39,96.72,14.64
	z"/>
<path fill-rule="evenodd" clip-rule="evenodd" fill="#FFFFFF" d="M24,11.28c-0.165,2.316-0.6,4.36-0.96,6.48
	c-0.865,0.065-1.66,0.061-1.44-0.96c-5.275,2.648-6.902-6.13-1.68-6.48C21.431,10.219,22.468,11.49,24,11.28z M20.88,15.36
	c0.623-0.417,0.486-1.594,0.48-2.64C18.507,11.185,17.755,15.817,20.88,15.36z"/>
<path fill-rule="evenodd" clip-rule="evenodd" fill="#FFFFFF" d="M72.96,11.28c-0.02,0.941-0.423,1.497-0.72,2.161
	c-1.376-0.26-3.22-1.012-3.36,0.96c0.721,1.583,2.274,0.845,3.36,1.68c3.551,2.729,0.14,9.701-4.8,6.479
	c-0.129-0.928,0.428-1.171,0.239-2.159c0.933,0.331,3.049,0.525,3.36-0.48c-0.125-2.423-2.335-1.447-3.6-2.4
	C63.455,14.521,67.886,8.026,72.96,11.28z"/>
<path fill-rule="evenodd" clip-rule="evenodd" fill="#FFFFFF" d="M25.68,11.28c1.627,0.279,2.487,0.957,4.32,0.48
	c2.16,0.667,1.969,5.044,1.2,7.2c-0.56,0-1.12,0-1.68,0c-0.083-1.597,0.213-3.572-0.24-4.8c-2.922-0.442-1.883,3.076-2.64,4.8
	c-0.929,0.129-1.172-0.429-2.16-0.24C24.726,16.086,25.184,13.664,25.68,11.28z"/>
<path fill-rule="evenodd" clip-rule="evenodd" fill="#FFFFFF" d="M40.08,19.68c-0.388,0.393-1.004-0.214-1.92,0
	c-0.283-1.368,0.375-3.78-0.48-5.04c-0.48,0-0.96,0-1.44,0c-1.175,0.825-1.103,2.897-1.2,4.801c-0.988,0.188-1.231-0.369-2.16-0.24
	c0.464-2.34-0.95-10.521,2.88-6.96C40.539,10.419,40.285,16.504,40.08,19.68z"/>
<path fill-rule="evenodd" clip-rule="evenodd" fill="#FFFFFF" d="M43.2,18c-0.041,1.4,1.494,1.226,2.88,1.2
	c-0.331,0.31-0.238,1.042-0.24,1.68c-1.763,0.372-3.228,0.148-4.32-0.72c-0.624-2.471-0.661-5.806,1.2-6.96
	C46.836,10.646,49.456,18.996,43.2,18z M43.44,16.32c0.563,0.076,0.901,0.379,1.68,0.239c0.514-0.644,0.514-1.275,0-1.92
	C43.742,14.382,43.549,15.31,43.44,16.32z"/>
</svg>
