<?xml version="1.0" encoding="utf-8"?>
<!-- Generator: Adobe Illustrator 15.0.0, SVG Export Plug-In . SVG Version: 6.00 Build 0)  -->
<!DOCTYPE svg PUBLIC "-//W3C//DTD SVG 1.1//EN" "http://www.w3.org/Graphics/SVG/1.1/DTD/svg11.dtd">
<svg version="1.1" id="jeanne_xA0_Image_1_" xmlns="http://www.w3.org/2000/svg" xmlns:xlink="http://www.w3.org/1999/xlink"
	 x="0px" y="0px" width="58.56px" height="45.6px" viewBox="0 0 58.56 45.6" enable-background="new 0 0 58.56 45.6"
	 xml:space="preserve">
<path fill-rule="evenodd" clip-rule="evenodd" d="M11.04,3.84c0.423,0.825,0.207,1.799-0.48,2.16C7.955,6.396,8.768,2.35,11.04,3.84
	z"/>
<path fill-rule="evenodd" clip-rule="evenodd" d="M9.12,7.44c0.72,0,1.44,0,2.16,0c0.552,3.412,0.395,7.813-1.68,9.36
	c-1.631,0.466-3.711,0.071-3.84-1.68c0.224-0.176,0.363-0.437,0.479-0.72c0.815-0.834,1.388,1.031,2.16,0.24
	C9.582,13.03,9.36,9.816,9.12,7.44z"/>
<path fill-rule="evenodd" clip-rule="evenodd" d="M17.52,13.2c-0.596,0.284-1.413,0.347-2.16,0.48c0.077,1.57,2.009,0.77,2.64,0.24
	c0.499,0.062,0.065,1.055,0.48,1.2c-2.531,3.675-7.097-0.146-5.76-4.8C13.914,6.201,20.653,9.65,17.52,13.2z M14.88,10.8
	c-0.168,0.831,0.841,0.861,1.2,0.48C16.248,10.449,15.239,10.419,14.88,10.8z"/>
<path fill-rule="evenodd" clip-rule="evenodd" d="M26.64,11.04c0.268,1.59-0.423,4.186-0.24,6.48
	c-0.891,0.091-1.637,0.037-1.68-0.72c-0.787,0.014-0.917,0.683-1.92,0.48c-2.141-0.339-3.554-1.406-3.12-4.32
	C20.436,10.231,23.654,10.376,26.64,11.04z M21.6,14.64c0.584,0.456,1.187,0.894,2.4,0.72c0.445-0.515,0.162-1.758,0.24-2.64
	C22.768,12.022,21.253,12.78,21.6,14.64z"/>
<path fill-rule="evenodd" clip-rule="evenodd" d="M36,10.56c0.893,0.147,2.533-0.454,2.399,0.72c4.106-2.539,5.071,3.094,5.04,6.96
	c-0.72,0-1.439,0-2.16,0c0.163-1.731-0.023-3.282-0.479-4.8c-0.431,0.031-0.507-0.294-0.96-0.24c-1.993,0.167-1.325,2.995-1.44,5.04
	c-0.72,0-1.439,0-2.16,0C36.125,15.387,36.003,13.728,36,10.56z"/>
<path fill-rule="evenodd" clip-rule="evenodd" d="M28.32,11.04c1.102-0.142,1.846,0.074,2.4,0.48c3.94-2.168,4.581,4.006,3.6,6.72
	c-0.479,0-0.96,0-1.439,0c-0.802-1.198,0.624-4.625-1.2-4.8c-1.98,0.26-1.402,3.078-1.68,5.04c-0.641,0-1.28,0-1.92,0
	C27.473,16.24,28.33,13.474,28.32,11.04z"/>
<path fill-rule="evenodd" clip-rule="evenodd" d="M49.92,12.72c0.226,1.746-0.473,2.567-1.2,3.36c-0.8,0-1.601,0-2.4,0
	c-0.191,1.508,1.887,1.353,2.88,0.96c0,0.56,0,1.12,0,1.68c-1.138,0.796-3.371,0.503-4.319-0.24
	C42.363,14.625,46.725,7.943,49.92,12.72z M46.56,14.64c0.56,0,1.12,0,1.68,0C49.518,12.494,45.873,11.964,46.56,14.64z"/>
<path fill-rule="evenodd" clip-rule="evenodd" d="M52.56,26.4c-1.385,0.295-2.614,0.746-4.08,0.96
	C49.165,25.594,51.741,23.474,52.56,26.4z"/>
<path fill-rule="evenodd" clip-rule="evenodd" d="M9.84,26.88c4.202,3.638,6.114,9.566,8.88,14.64
	c-1.146-0.185-1.545,0.376-2.64,0.24c-0.279-1.4-1.306-2.054-1.68-3.359c-1.989,0.011-4.103-0.104-5.76,0.239
	c-0.351,0.93-0.365,2.195-0.72,3.12c-0.927,0.048-1.769,0.009-2.4-0.24C5.63,35.311,8.419,31.779,9.84,26.88z M9.84,35.76
	c0.88,0,1.76,0,2.64,0c-0.534-1.066-0.902-2.297-1.92-2.88C10.424,33.944,9.783,34.503,9.84,35.76z"/>
<path fill-rule="evenodd" clip-rule="evenodd" d="M29.76,26.88c0.242,1.678,0.422,3.418,0.479,5.28
	c4.28-0.62,5.536,3.699,5.761,7.92c-0.597,0.284-1.413,0.348-2.16,0.479c-0.532-2.027-1.089-4.031-2.16-5.52
	c-2.732,0.471-0.742,5.292-1.2,6.96c-0.88,0-1.76,0-2.64,0c-0.831-4.369-0.294-10.105-0.72-14.88
	C27.635,26.675,28.878,26.958,29.76,26.88z"/>
<path fill-rule="evenodd" clip-rule="evenodd" d="M43.92,29.28c0.049,1.329,0.033,2.594-0.48,3.359
	c1.902,1.8,1.357,6.494-0.479,7.92c-1.543,0.697-3.717,0.764-5.761,0.96c-0.382-4.338-0.233-9.206-0.72-13.439
	C38.793,27.122,43.141,26.802,43.92,29.28z M39.6,31.92c0.674-0.286,1.53-0.39,1.439-1.439c-0.203-0.517-0.591-0.85-1.439-0.721
	C39.6,30.48,39.6,31.2,39.6,31.92z M39.84,35.04c-0.491,0.789-0.13,2.431-0.24,3.6c1.948,0.109,2.255-1.425,2.16-3.359
	C41.084,34.792,40.775,34.85,39.84,35.04z"/>
<path fill-rule="evenodd" clip-rule="evenodd" d="M50.4,36.48c0.272,1.327,1.87,1.329,2.64,2.159
	c-0.111,0.849-0.605,1.314-0.96,1.92c-5.581,0.285-6.85-5.582-5.279-10.319c1.266-2.564,6.318-1.932,6.96,0.72
	C54.211,34.372,52.743,35.863,50.4,36.48z M48.96,34.08c1.118-0.322,2.455-0.425,2.159-2.16c-0.285-0.595-0.87-0.89-1.92-0.72
	C48.509,31.653,48.641,33.3,48.96,34.08z"/>
<path fill-rule="evenodd" clip-rule="evenodd" d="M25.2,30.48c-0.18,0.779-0.435,1.485-0.72,2.159
	c-1.398-0.459-3.092-0.771-3.6,0.721c0.409,1.591,2.809,1.191,3.84,2.159c3.232,3.162-0.771,9.253-5.04,6.24
	c0.01-0.79,0.405-1.194,0.24-2.16c0.791,0.36,3.217,0.577,3.36-0.479c-0.55-2.65-4.639-1.761-5.04-4.561
	c-0.119-1.398,0.069-2.49,0.48-3.359C19.843,29.78,23.457,29.181,25.2,30.48z"/>
</svg>
