<?xml version="1.0" encoding="UTF-8" standalone="no"?>
<!-- Generator: Adobe Illustrator 15.0.0, SVG Export Plug-In . SVG Version: 6.00 Build 0)  -->

<svg
   xmlns:dc="http://purl.org/dc/elements/1.1/"
   xmlns:cc="http://creativecommons.org/ns#"
   xmlns:rdf="http://www.w3.org/1999/02/22-rdf-syntax-ns#"
   xmlns:svg="http://www.w3.org/2000/svg"
   xmlns="http://www.w3.org/2000/svg"
   xmlns:sodipodi="http://sodipodi.sourceforge.net/DTD/sodipodi-0.dtd"
   xmlns:inkscape="http://www.inkscape.org/namespaces/inkscape"
   version="1.1"
   id="jeanne_xA0_Image_1_"
   x="0px"
   y="0px"
   width="52.081951"
   height="33.06403"
   viewBox="0 0 52.08195 33.064031"
   enable-background="new 0 0 58.56 45.6"
   xml:space="preserve"
   inkscape:version="0.48.2 r9819"
   sodipodi:docname="jeanne-white.svg"><metadata
   id="metadata33"><rdf:RDF><cc:Work
       rdf:about=""><dc:format>image/svg+xml</dc:format><dc:type
         rdf:resource="http://purl.org/dc/dcmitype/StillImage" /></cc:Work></rdf:RDF></metadata><defs
   id="defs31" /><sodipodi:namedview
   pagecolor="#ffffff"
   bordercolor="#666666"
   borderopacity="1"
   objecttolerance="10"
   gridtolerance="10"
   guidetolerance="10"
   inkscape:pageopacity="0"
   inkscape:pageshadow="2"
   inkscape:window-width="640"
   inkscape:window-height="480"
   id="namedview29"
   showgrid="false"
   fit-margin-top="0"
   fit-margin-left="0"
   fit-margin-right="0"
   fit-margin-bottom="0"
   inkscape:zoom="5.1754388"
   inkscape:cx="23.519999"
   inkscape:cy="11.237946"
   inkscape:window-x="0"
   inkscape:window-y="0"
   inkscape:window-maximized="0"
   inkscape:current-layer="jeanne_xA0_Image_1_" />
<path
   clip-rule="evenodd"
   d="m 5.2799983,0.33103425 c 0.423,0.82499995 0.207,1.79899995 -0.48,2.15999995 -2.605,0.396 -1.792,-3.65 0.48,-2.15999995 z"
   id="path3"
   style="fill:#ffffff;fill-rule:evenodd"
   inkscape:connector-curvature="0" />
<path
   clip-rule="evenodd"
   d="m 3.3599983,3.9310342 c 0.72,0 1.44,0 2.16,0 0.552,3.412 0.395,7.8129998 -1.68,9.3599998 -1.631,0.466 -3.71099997,0.071 -3.8399999664204,-1.68 C 0.22399833,11.435034 0.36299833,11.174034 0.47899833,10.891034 c 0.81499997,-0.834 1.38799997,1.031 2.15999997,0.24 1.183,-1.6099998 0.961,-4.8239998 0.721,-7.1999998 z"
   id="path5"
   style="fill:#ffffff;fill-rule:evenodd"
   inkscape:connector-curvature="0" />
<path
   clip-rule="evenodd"
   d="m 11.759998,9.6910342 c -0.596,0.284 -1.413,0.3469998 -2.1599997,0.4799998 0.077,1.57 2.0089997,0.77 2.6399997,0.24 0.499,0.062 0.065,1.055 0.48,1.2 -2.531,3.675 -7.0969997,-0.146 -5.7599997,-4.7999998 1.194,-4.119 7.9329997,-0.67 4.7999997,2.88 z m -2.6399997,-2.4 c -0.168,0.831 0.841,0.861 1.1999997,0.48 0.168,-0.831 -0.8409997,-0.861 -1.1999997,-0.48 z"
   id="path7"
   style="fill:#ffffff;fill-rule:evenodd"
   inkscape:connector-curvature="0" />
<path
   clip-rule="evenodd"
   d="m 20.879998,7.5310342 c 0.268,1.59 -0.423,4.1859998 -0.24,6.4799998 -0.891,0.091 -1.637,0.037 -1.68,-0.72 -0.787,0.014 -0.917,0.683 -1.92,0.48 -2.141,-0.339 -3.554,-1.406 -3.12,-4.3199998 0.756,-2.729 3.974,-2.584 6.96,-1.92 z m -5.04,3.5999998 c 0.584,0.456 1.187,0.894 2.4,0.72 0.445,-0.515 0.162,-1.758 0.24,-2.6399998 -1.472,-0.698 -2.987,0.06 -2.64,1.9199998 z"
   id="path9"
   style="fill:#ffffff;fill-rule:evenodd"
   inkscape:connector-curvature="0" />
<path
   clip-rule="evenodd"
   d="m 30.239998,7.0510342 c 0.893,0.147 2.533,-0.454 2.399,0.72 4.106,-2.539 5.071,3.0939998 5.04,6.9599998 -0.72,0 -1.439,0 -2.16,0 0.163,-1.731 -0.023,-3.282 -0.479,-4.7999998 -0.431,0.031 -0.507,-0.294 -0.96,-0.24 -1.993,0.167 -1.325,2.9949998 -1.44,5.0399998 -0.72,0 -1.439,0 -2.16,0 -0.115,-2.853 -0.237,-4.512 -0.24,-7.6799998 z"
   id="path11"
   style="fill:#ffffff;fill-rule:evenodd"
   inkscape:connector-curvature="0" />
<path
   clip-rule="evenodd"
   d="m 22.559998,7.5310342 c 1.102,-0.142 1.846,0.074 2.4,0.48 3.94,-2.168 4.581,4.0059998 3.6,6.7199998 -0.479,0 -0.96,0 -1.439,0 -0.802,-1.198 0.624,-4.625 -1.2,-4.7999998 -1.98,0.2599998 -1.402,3.0779998 -1.68,5.0399998 -0.641,0 -1.28,0 -1.92,0 -0.608,-2.24 0.249,-5.0059998 0.239,-7.4399998 z"
   id="path13"
   style="fill:#ffffff;fill-rule:evenodd"
   inkscape:connector-curvature="0" />
<path
   clip-rule="evenodd"
   d="m 44.159998,9.2110342 c 0.226,1.7459998 -0.473,2.5669998 -1.2,3.3599998 -0.8,0 -1.601,0 -2.4,0 -0.191,1.508 1.887,1.353 2.88,0.96 0,0.56 0,1.12 0,1.68 -1.138,0.796 -3.371,0.503 -4.319,-0.24 -2.518,-3.855 1.844,-10.5369998 5.039,-5.7599998 z m -3.36,1.9199998 c 0.56,0 1.12,0 1.68,0 1.278,-2.1459998 -2.367,-2.6759998 -1.68,0 z"
   id="path15"
   style="fill:#ffffff;fill-rule:evenodd"
   inkscape:connector-curvature="0" />
<path
   clip-rule="evenodd"
   d="m 50.799998,16.891034 c -1.385,0.295 -2.614,0.746 -4.08,0.96 0.685,-1.766 3.261,-3.886 4.08,-0.96 z"
   id="path17"
   style="fill:#ffffff;fill-rule:evenodd"
   inkscape:connector-curvature="0" />
<path
   clip-rule="evenodd"
   d="m 8.0799983,17.371034 c 4.2019997,3.638 6.1139997,9.566 8.8799997,14.64 -1.146,-0.185 -1.545,0.376 -2.64,0.24 -0.279,-1.4 -1.306,-2.054 -1.68,-3.359 -1.989,0.011 -4.1029997,-0.104 -5.7599997,0.239 -0.351,0.93 -0.365,2.195 -0.72,3.12 -0.927,0.048 -1.769,0.009 -2.3999998,-0.24 0.11,-6.209 2.8989998,-9.741 4.3199998,-14.64 z m 0,8.88 c 0.88,0 1.76,0 2.6399997,0 -0.534,-1.066 -0.9019997,-2.297 -1.9199997,-2.88 -0.136,1.064 -0.777,1.623 -0.72,2.88 z"
   id="path19"
   style="fill:#ffffff;fill-rule:evenodd"
   inkscape:connector-curvature="0" />
<path
   clip-rule="evenodd"
   d="m 27.999998,17.371034 c 0.242,1.678 0.422,3.418 0.479,5.28 4.28,-0.62 5.536,3.699 5.761,7.92 -0.597,0.284 -1.413,0.348 -2.16,0.479 -0.532,-2.027 -1.089,-4.031 -2.16,-5.52 -2.732,0.471 -0.742,5.292 -1.2,6.96 -0.88,0 -1.76,0 -2.64,0 -0.831,-4.369 -0.294,-10.105 -0.72,-14.88 0.515,-0.444 1.758,-0.161 2.64,-0.239 z"
   id="path21"
   style="fill:#ffffff;fill-rule:evenodd"
   inkscape:connector-curvature="0" />
<path
   clip-rule="evenodd"
   d="m 42.159998,19.771034 c 0.049,1.329 0.033,2.594 -0.48,3.359 1.902,1.8 1.357,6.494 -0.479,7.92 -1.543,0.697 -3.717,0.764 -5.761,0.96 -0.382,-4.338 -0.233,-9.206 -0.72,-13.439 2.313,-0.958 6.661,-1.278 7.44,1.2 z m -4.32,2.64 c 0.674,-0.286 1.53,-0.39 1.439,-1.439 -0.203,-0.517 -0.591,-0.85 -1.439,-0.721 0,0.72 0,1.44 0,2.16 z m 0.24,3.12 c -0.491,0.789 -0.13,2.431 -0.24,3.6 1.948,0.109 2.255,-1.425 2.16,-3.359 -0.676,-0.489 -0.985,-0.431 -1.92,-0.241 z"
   id="path23"
   style="fill:#ffffff;fill-rule:evenodd"
   inkscape:connector-curvature="0" />
<path
   clip-rule="evenodd"
   d="m 48.639998,26.971034 c 0.272,1.327 1.87,1.329 2.64,2.159 -0.111,0.849 -0.605,1.314 -0.96,1.92 -5.581,0.285 -6.85,-5.582 -5.279,-10.319 1.266,-2.564 6.318,-1.932 6.96,0.72 0.45,3.412 -1.018,4.903 -3.361,5.52 z m -1.44,-2.4 c 1.118,-0.322 2.455,-0.425 2.159,-2.16 -0.285,-0.595 -0.87,-0.89 -1.92,-0.72 -0.69,0.453 -0.558,2.1 -0.239,2.88 z"
   id="path25"
   style="fill:#ffffff;fill-rule:evenodd"
   inkscape:connector-curvature="0" />
<path
   clip-rule="evenodd"
   d="m 23.439998,20.971034 c -0.18,0.779 -0.435,1.485 -0.72,2.159 -1.398,-0.459 -3.092,-0.771 -3.6,0.721 0.409,1.591 2.809,1.191 3.84,2.159 3.232,3.162 -0.771,9.253 -5.04,6.24 0.01,-0.79 0.405,-1.194 0.24,-2.16 0.791,0.36 3.217,0.577 3.36,-0.479 -0.55,-2.65 -4.639,-1.761 -5.04,-4.561 -0.119,-1.398 0.069,-2.49 0.48,-3.359 1.123,-1.42 4.737,-2.019 6.48,-0.72 z"
   id="path27"
   style="fill:#ffffff;fill-rule:evenodd"
   inkscape:connector-curvature="0" />
</svg>