<?xml version="1.0" encoding="UTF-8" standalone="no"?>
<!-- Generator: Adobe Illustrator 13.0.0, SVG Export Plug-In . SVG Version: 6.00 Build 14948)  -->

<svg
   xmlns:dc="http://purl.org/dc/elements/1.1/"
   xmlns:cc="http://creativecommons.org/ns#"
   xmlns:rdf="http://www.w3.org/1999/02/22-rdf-syntax-ns#"
   xmlns:svg="http://www.w3.org/2000/svg"
   xmlns="http://www.w3.org/2000/svg"
   xmlns:sodipodi="http://sodipodi.sourceforge.net/DTD/sodipodi-0.dtd"
   xmlns:inkscape="http://www.inkscape.org/namespaces/inkscape"
   version="1.1"
   id="ALPHABET_dessiné_pr_site_xA0_Image_1_"
   x="0px"
   y="0px"
   width="145.23776"
   height="16.637297"
   viewBox="0 0 145.23776 16.637296"
   enable-background="new 0 0 474.48 40.56"
   xml:space="preserve"
   inkscape:version="0.48.2 r9819"
   sodipodi:docname="ALPHABET.svg"><metadata
   id="metadata85"><rdf:RDF><cc:Work
       rdf:about=""><dc:format>image/svg+xml</dc:format><dc:type
         rdf:resource="http://purl.org/dc/dcmitype/StillImage" /><dc:title></dc:title></cc:Work></rdf:RDF></metadata><defs
   id="defs83" /><sodipodi:namedview
   pagecolor="#ffffff"
   bordercolor="#666666"
   borderopacity="1"
   objecttolerance="10"
   gridtolerance="10"
   guidetolerance="10"
   inkscape:pageopacity="0"
   inkscape:pageshadow="2"
   inkscape:window-width="1245"
   inkscape:window-height="640"
   id="namedview81"
   showgrid="false"
   fit-margin-top="0"
   fit-margin-left="0"
   fit-margin-right="0"
   fit-margin-bottom="0"
   inkscape:zoom="5.9349181"
   inkscape:cx="68.962771"
   inkscape:cy="-0.59845759"
   inkscape:window-x="0"
   inkscape:window-y="0"
   inkscape:window-maximized="0"
   inkscape:current-layer="ALPHABET_dessiné_pr_site_xA0_Image_1_" />
<path
   clip-rule="evenodd"
   d="m 124.27059,59.189443 c 2.528,2.49 -2.152,4.446 -2.64,1.92 -0.196,-1.016 0.72,-2.29 2.64,-1.92 z"
   id="path3"
   inkscape:connector-curvature="0"
   style="fill-rule:evenodd" />
<path
   clip-rule="evenodd"
   d="m 99.790591,59.669443 c -0.053,1.867 0.167,4.007 -0.24,5.52 4.678999,-2.062 7.637999,2.6 6.719999,8.4 -1.096,-0.104 -2.643,0.243 -3.36,-0.24 0.09,-2.411 -0.229,-4.412 -1.44,-5.52 -2.045999,0.673 -1.940999,3.499 -2.399999,5.76 -1.145,0.186 -1.544,-0.375 -2.64,-0.24 -0.047,-4.847 0.002,-9.598 0.72,-13.68 0.88,0 1.76,0 2.64,0 z"
   id="path5"
   inkscape:connector-curvature="0"
   style="fill-rule:evenodd" />
<path
   clip-rule="evenodd"
   d="m -6.2894087,59.909443 c 0.134,1.296 0.077,2.9 0,4.56 1.792,0.848 3.75,1.53 5.04,2.88 1.69999995,5.344 -3.24,7.466 -7.92,5.76 0,-4.32 0,-8.64 0,-12.96 1.137,0.097 1.652,-0.428 2.88,-0.24 z m 0,8.16 c 0.153,0.887 -0.311,2.391 0.24,2.88 0.284,-0.437 1.251,-0.189 1.68,-0.48 0.062,-1.422 -0.037,-2.683 -1.44,-2.64 -0.053,0.187 -0.201,0.279 -0.48,0.24 z"
   id="path7"
   inkscape:connector-curvature="0"
   style="fill-rule:evenodd" />
<path
   clip-rule="evenodd"
   d="m 88.918641,3.9308528 c -0.701,0.63 -1.383,-0.213 -2.4,0 -0.871,0.489 -1.21,1.51 -1.2,2.88 0.179,0.541 1.346,0.094 1.92,0.24 0.326,0.397 -0.196,1.4 0,2.4 -0.31,0.331 -1.042,0.238 -1.68,0.24 -0.185,1.8650002 -0.039,2.5850002 0,4.5600002 -0.733,0.466 -1.852,0.548 -3.12,0.48 -0.085,-4.112 -0.309,-9.2970002 0.96,-12.7200002 1.499,-1.39600002 6.828,-0.926 5.52,1.92 z"
   id="path9"
   inkscape:connector-curvature="0"
   style="fill-rule:evenodd" />
<path
   clip-rule="evenodd"
   d="m 3.6020603,1.4134218 c -0.074,4.246 -0.273,8.366 -0.48,12.4800002 -0.773,0.346 -2.013,0.227 -3.12000005,0.24 -0.025,-4.5050002 0.18,-8.7800002 0.48,-12.9600002 0.53900005,-0.24200002 2.33500005,-0.034 3.12000005,0.24 z"
   id="path11"
   inkscape:connector-curvature="0"
   style="fill-rule:evenodd" />
<path
   clip-rule="evenodd"
   d="m 28.642825,1.2908528 c 0.33,0.309 0.237,1.042 0.239,1.68 0.96,0 1.92,0 2.88,0 0.345,1.072 -0.134,1.678 0,3.12 -0.773,0.346 -2.013,0.227 -3.119,0.24 -0.416,2.049 -0.368,5.6230002 0,7.6800002 -0.896,0.384 -2.33,0.23 -3.36,0.48 -0.48,-3.919 -0.137,-8.6630002 -0.24,-12.9600002 0.789,-0.491 2.431,-0.129 3.6,-0.24 z"
   id="path13"
   inkscape:connector-curvature="0"
   style="fill-rule:evenodd" />
<path
   clip-rule="evenodd"
   d="m 48.670591,60.629443 c 0.095,3.985 -0.229,8.39 0.24,12 -3.954,1.168 -8.766,2.241 -9.12,-2.16 -0.171,-2.123 0.975,-2.952 1.68,-4.8 1.346,-0.575 2.716,-1.124 4.32,-1.44 -0.588,-2.209 0.054,-4.975 2.88,-3.6 z m -3.12,9.6 c -0.141,-1.115 0.328,-1.449 0,-2.16 -3.878,-1.626 -3.032,4.983 0,2.16 z"
   id="path15"
   inkscape:connector-curvature="0"
   style="fill-rule:evenodd" />
<path
   clip-rule="evenodd"
   d="m 148.75059,60.389443 c 0,1.76 0,3.52 0,5.28 0.833,-0.046 0.911,-0.849 1.68,-0.96 1.122,0.318 2.091,0.789 2.4,1.92 -1,0.52 -1.644,1.397 -2.88,1.68 0.918,1.722 2.477,2.803 3.36,4.56 -1.992,1.599 -3.774,-0.282 -4.56,-1.92 -0.898,0.221 -0.313,1.927 -0.48,2.88 -1.04,0 -2.08,0 -3.12,0 0.069,-4.331 0.38,-8.42 0.24,-12.96 0.97,-0.31 2.047,-0.513 3.36,-0.48 z"
   id="path17"
   inkscape:connector-curvature="0"
   style="fill-rule:evenodd" />
<path
   clip-rule="evenodd"
   d="m -21.889409,60.629443 c 0.88,0 1.76,0 2.64,0 -0.187,1.947 0.346,3.174 0.24,5.04 4.708,-2.65 8.018,3.435 5.28,6.72 -1.911,2.292 -4.965,0.315 -8.4,0.96 -0.324,-3.697 0.082,-8.708 0.24,-12.72 z m 6.48,8.64 c -0.158,-2.738 -5.218,-0.957 -2.64,1.68 1.7,0.197 2.699,-0.654 2.64,-1.68 z"
   id="path19"
   inkscape:connector-curvature="0"
   style="fill-rule:evenodd" />

<path
   clip-rule="evenodd"
   d="m 138.43059,61.109443 c 0.969,2.175 -2.371,3.294 -2.88,1.44 -0.396,-1.44 1.21,-2.647 2.88,-1.44 z"
   id="path23"
   inkscape:connector-curvature="0"
   style="fill-rule:evenodd" />
<path
   clip-rule="evenodd"
   d="m 34.990591,61.109443 c -0.116,4.302 0.462,9.104 0.24,12.72 -0.667,0.061 -2.685,0.898 -2.64,-0.72 -6.975,4.159 -8.298,-9.507 -0.48,-7.92 0,-1.36 0,-2.72 0,-4.08 0.821,-0.105 2.159,-0.546 2.88,0 z m -5.28,9.6 c 0.186,0.054 0.473,0.007 0.48,0.24 1.036,0.156 1.345,-0.415 1.92,-0.72 0,-0.64 0,-1.28 0,-1.92 -1.622,-0.956 -3.423,0.68 -2.4,2.4 z"
   id="path25"
   inkscape:connector-curvature="0"
   style="fill-rule:evenodd" />
<path
   clip-rule="evenodd"
   d="m 91.150591,63.509443 c 0.908,6.641 -0.863,17.75 -7.92,12.721 0.037,-1.244 0.638,-1.922 1.2,-2.641 0.809,0.152 1.231,0.689 2.4,0.48 0.888,-0.152 0.732,-1.348 0.72,-2.4 -4.175,1.475 -7.214,-4.095 -4.56,-7.2 2.026,-2.37 5.219,-0.166 8.16,-0.96 z m -3.12,3.36 c -0.491,-1.594 -3.346,-1.209 -3.36,0.96 0.93,2.275 3.926,0.877 3.36,-0.96 z"
   id="path27"
   inkscape:connector-curvature="0"
   style="fill-rule:evenodd" />
<path
   clip-rule="evenodd"
   d="m 143.90519,7.0371488 c -0.04,0.68 -0.439,1 -0.479,1.68 -0.815,0.065 -1.946,-0.186 -2.4,0.24 0.52,2.4680002 3.543,1.5690002 4.08,3.6000002 0.858,3.247 -2.625,4.093 -6.24,4.08 -0.202,-0.598 -0.313,-1.286 -0.24,-2.16 0.895,-0.522 1.823,0.279 2.641,-0.48 -0.413,-2.798 -3.713,-1.633 -4.08,-4.0800002 -0.459,-3.038 3.562,-4.121 6.718,-2.88 z"
   id="path29"
   inkscape:connector-curvature="0"
   style="fill-rule:evenodd" />
<path
   clip-rule="evenodd"
   d="m 9.5505913,70.469443 c 0.361,0.679 0.9709997,1.11 0.9599997,2.16 -5.6489997,3.111 -9.2409997,-4.214 -5.7599997,-7.44 0.746,-0.691 5.2739997,-2.649 4.56,0.48 -0.147,0.646 -3.922,1.414 -3.12,3.84 0.194,0.587 1.672,1.546 3.36,0.96 z"
   id="path31"
   inkscape:connector-curvature="0"
   style="fill-rule:evenodd" />
<path
   clip-rule="evenodd"
   d="m 179.47059,72.869443 c -0.819,0.357 -1.904,-0.071 -2.88,-0.24 0.155,-1.445 0.711,-2.489 0.48,-4.32 -0.342,-0.777 -1.248,-0.993 -2.4,-0.96 -1.479,0.761 -0.656,3.824 -1.44,5.28 -0.952,-0.088 -2.3,0.22 -2.88,-0.24 0,-1.52 0,-3.04 0,-4.56 -0.675,-0.333 -1.38,-0.635 -2.16,-0.24 -0.735,1.62 0.194,3.642 0,5.52 -0.959,-0.08 -1.332,0.428 -2.4,0.24 -0.448,-2.993 -0.645,-6.235 -0.96,-9.36 2.488,-0.011 5.245,0.062 7.68,0.96 5.744,-2.462 9.374,2.889 6.96,7.92 z"
   id="path33"
   inkscape:connector-curvature="0"
   style="fill-rule:evenodd" />
<path
   clip-rule="evenodd"
   d="m 260.35059,63.989443 c -0.099,4.221 -0.314,8.325 -0.479,12.479 -0.647,0.473 -2.098,0.144 -3.12,0.24 -0.185,-1.865 0.312,-3.048 0.24,-4.8 -4.293,2.172 -8.238,-3.5 -5.28,-6.96 2.118,-2.477 5.375,-0.068 8.639,-0.959 z m -3.6,3.36 c -0.491,-1.594 -3.346,-1.209 -3.36,0.96 0.93,2.274 3.926,0.877 3.36,-0.96 z"
   id="path35"
   inkscape:connector-curvature="0"
   style="fill-rule:evenodd" />
<path
   clip-rule="evenodd"
   d="m 45.679745,4.6542788 c 1.01,0.27 3.299,-0.74 2.88,0.96 1.021,-0.498 1.904,-1.135 3.6,-0.96 0,0.8 0,1.6 0,2.4 -4.394,-0.633 -2.867,4.6520002 -3.84,7.4400002 -0.842,-0.118 -1.562,-0.357 -2.64,-0.24 0,-3.2 0,-6.4000002 0,-9.6000002 z"
   id="path37"
   inkscape:connector-curvature="0"
   style="fill-rule:evenodd" />
<path
   clip-rule="evenodd"
   d="m 68.447201,4.8959908 c 0.064,0.864 -0.442,1.157 -0.479,1.92 -1.046,-0.006 -2.223,-0.143 -2.64,0.48 1.502,1.733 4.319,1.352 4.319,4.0800002 0,3.007 -4.047,3.98 -7.2,2.4 0.405,-0.635 0.556,-1.525 0.961,-2.16 1.048,0.045 1.854,0.598 2.64,0.24 -0.497,-2.5410002 -3.503,-1.541 -4.08,-3.6000002 -1.038,-3.703 3.106,-4.626 6.479,-3.36 z"
   id="path39"
   inkscape:connector-curvature="0"
   style="fill-rule:evenodd" />
<path
   clip-rule="evenodd"
   d="m 293.95059,64.949443 c -0.053,0.907 -0.755,1.166 -0.96,1.92 -0.957,-0.164 -1.634,-0.607 -2.88,-0.48 0.543,2.5 3.434,1.602 3.84,3.84 0.714,3.94 -4.388,4.275 -7.44,2.64 0.056,-1.144 0.669,-1.731 1.2,-2.4 1.089,0.192 2.576,1.605 3.12,0.24 -0.555,-1.286 -2.502,-1.178 -3.36,-2.16 -1.544,-4.26 4.072,-5.954 6.48,-3.6 z"
   id="path41"
   inkscape:connector-curvature="0"
   style="fill-rule:evenodd" />
<path
   clip-rule="evenodd"
   d="m 13.363779,8.6134218 c -1.207,1.033 -2.799,1.6810002 -4.7999997,1.9200002 0.227,1.734 2.1679997,1.48 3.8399997,1.2 0.759,2.513 -3.3889997,3.134 -5.0399997,2.16 -3.537,-2.086 -2.041,-10.0850002 3.1199997,-8.8800002 1.468,0.343 2.015,1.734 2.88,3.6 z m -5.0399997,0 c 1.014,0.054 1.55,-0.37 2.3999997,-0.48 0.054,-0.454 -0.271,-0.529 -0.24,-0.96 -1.3339997,-0.134 -2.1709997,0.229 -2.1599997,1.44 z"
   id="path43"
   inkscape:connector-curvature="0"
   style="fill-rule:evenodd" />
<path
   clip-rule="evenodd"
   d="m 60.853111,9.8134218 c -1.399,0.4400002 -2.972,0.7080002 -4.56,0.9600002 0.177,1.423 1.72,1.48 2.88,1.92 -0.312,2.421 -3.161,1.53 -4.08,0.96 -0.934,-0.58 -1.629,-2.63 -1.68,-3.36 -0.399,-5.6900002 7.713,-7.8520002 7.44,-0.4800002 z m -4.56,-1.44 c 0.47,0.294 2.604,0.649 2.4,-0.48 -0.434,-1.039 -2.324,-0.331 -2.4,0.48 z"
   id="path45"
   inkscape:connector-curvature="0"
   style="fill-rule:evenodd" />
<path
   clip-rule="evenodd"
   d="m 211.63059,64.229443 c 4.448,-0.831 7.663,3.785 5.28,7.44 -3.217,4.933 -12.567,-0.873 -8.16,-6.24 0.562,-0.684 1.507,-0.944 2.88,-1.2 z m 1.44,6.48 c 2.45,-0.142 2.016,-5.037 -0.96,-3.84 -2.086,0.839 -1.121,3.96 0.96,3.84 z"
   id="path47"
   inkscape:connector-curvature="0"
   style="fill-rule:evenodd" />
<path
   clip-rule="evenodd"
   d="m 370.51059,68.789443 c 1.059,-0.941 1.17,-2.831 1.68,-4.32 1.023,0.098 2.473,-0.232 3.12,0.24 -1.128,3.432 -2.315,6.804 -4.56,9.12 -1.659,-0.501 -1.838,-2.482 -2.64,-3.84 -1.266,0.895 -1.143,3.178 -2.881,3.6 -1.657,-2.422 -2.261,-5.899 -3.359,-8.88 1.543,-0.255 1.286,-0.036 2.88,-0.24 0.485,0.715 0.995,1.405 0.96,2.64 1.548,-0.532 1.171,-2.989 3.12,-3.12 0.967,1.193 1.21,3.11 1.68,4.8 z"
   id="path49"
   inkscape:connector-curvature="0"
   style="fill-rule:evenodd" />
<path
   clip-rule="evenodd"
   d="m 22.027165,6.9351348 c -0.412,1.598 -3.58,-0.014 -4.32,1.68 -0.487,2.8870002 1.509,3.2910002 4.08,3.1200002 -0.031,0.894 0.948,1.571 0.48,2.16 -1.157,0.443 -3.037,0.163 -4.56,0.24 -2.107,-1.364 -3.985,-3.587 -2.88,-6.4800002 1.005,-2.632 5.89,-3.997 7.2,-0.72 z"
   id="path51"
   inkscape:connector-curvature="0"
   style="fill-rule:evenodd" />
<g
   id="g3062"
   transform="translate(-69.251808,-4.9594252)"><path
     id="path21"
     d="m 162.96,8.88 c 0.968,2.175 -2.371,3.294 -2.88,1.44 -0.395,-1.44 1.21,-2.647 2.88,-1.44 z"
     clip-rule="evenodd"
     inkscape:connector-curvature="0"
     style="fill-rule:evenodd" /><path
     id="path53"
     d="m 162.72,12 c 0.183,3.303 -0.301,5.939 -0.24,9.12 -1.04,0 -2.08,0 -3.12,0 -0.135,-3.175 0.422,-5.658 0.24,-8.88 0.648,-0.472 2.097,-0.143 3.12,-0.24 z"
     clip-rule="evenodd"
     inkscape:connector-curvature="0"
     style="fill-rule:evenodd" /></g>
<path
   clip-rule="evenodd"
   d="m 125.23059,73.349443 c -0.8,0 -1.6,0 -2.4,0 -0.939,-2.181 -0.685,-5.555 -0.72,-8.64 4.684,-2.061 2.675,5.058 3.12,8.64 z"
   id="path55"
   inkscape:connector-curvature="0"
   style="fill-rule:evenodd" />
<path
   clip-rule="evenodd"
   d="m 135.31059,64.229443 c 1.096,0.104 2.643,-0.243 3.36,0.24 0.169,4.729 -0.068,9.052 -1.68,12 -2.483,1.855 -6.061,0.276 -6.48,-2.64 0.504,-0.296 0.936,-0.665 1.44,-0.96 0.98,-0.617 1.037,1.435 2.4,1.2 1.899,-1.701 0.556,-6.644 0.96,-9.84 z"
   id="path57"
   inkscape:connector-curvature="0"
   style="fill-rule:evenodd" />
<path
   clip-rule="evenodd"
   d="m 185.71059,64.229443 c 0,0.4 0,0.8 0,1.2 5.661,-3.897 9.188,2.239 6.72,8.16 -0.676,0.249 -2.245,0.459 -2.88,0 0.112,-1.648 0.36,-3.16 0.24,-5.04 -0.438,-1.139 -2.582,-0.758 -3.12,0 0,1.76 0,3.52 0,5.28 -1.12,0 -2.24,0 -3.36,0 0,-3.12 0,-6.24 0,-9.36 0.454,-0.426 1.585,-0.175 2.4,-0.24 z"
   id="path59"
   inkscape:connector-curvature="0"
   style="fill-rule:evenodd" />
<path
   clip-rule="evenodd"
   d="m 227.95059,65.189443 c 1.524,-0.956 3.98,-0.843 5.279,0.24 1.731,3.626 0.05,8.421 -4.8,7.68 0,1.28 0,2.56 0,3.84 -0.911,0.505 -1.123,0.421 -2.64,0.479 -0.285,-4.044 -0.824,-9.083 -0.24,-13.2 0.794,0.444 2.498,-0.735 2.401,0.961 z m 0.72,5.04 c 2.228,0.687 3.054,-1.696 1.92,-2.88 -1.839,-0.344 -2.669,1.415 -1.92,2.88 z"
   id="path61"
   inkscape:connector-curvature="0"
   style="fill-rule:evenodd" />
<path
   clip-rule="evenodd"
   d="m 34.413103,5.1342788 c 1.163,-0.043 2.05,0.19 2.88,0.48 0,1.68 0,3.36 0,5.0400002 0.564,0.077 0.901,0.379 1.681,0.24 1.293,-0.572 0.682,-3.9730002 0.479,-5.2800002 0.97,-0.31 2.047,-0.513 3.36,-0.48 0.11,3.485 0.329,5.8260002 -0.24,9.3600002 -1.239,-0.04 -2.955,0.396 -2.64,-1.2 -5.044,3.071 -6.274,-3.9530002 -5.52,-8.1600002 z"
   id="path63"
   inkscape:connector-curvature="0"
   style="fill-rule:evenodd" />
<path
   clip-rule="evenodd"
   d="m 343.87059,64.229443 c 0,2.8 0,5.6 0,8.4 -1.377,-0.275 -2.607,0.676 -2.88,-0.48 -0.825,0.775 -2.061,1.14 -3.84,0.96 -1.971,-1.47 -2.606,-4.274 -2.4,-7.92 0.516,-0.445 1.758,-0.162 2.64,-0.24 0.281,1.959 -0.271,4.75 1.44,5.28 2.264,-0.216 1.904,-3.056 1.92,-5.52 0.772,-0.429 2.26,-0.14 3.12,-0.48 z"
   id="path65"
   inkscape:connector-curvature="0"
   style="fill-rule:evenodd" />
<path
   clip-rule="evenodd"
   d="m 241.15059,72.389443 c -0.335,1.425 -0.031,3.489 -0.48,4.8 -0.64,0 -1.28,0 -1.92,0 -0.523,-4.677 -0.387,-7.484 -0.24,-12.48 2.697,0.256 3.803,-0.795 6,-0.24 4.989,1.261 1.668,11.99 -3.36,7.92 z m 2.88,-2.16 c 0.341,-0.803 0.341,-2.317 0,-3.12 -2.18,-1.257 -2.849,3.816 0,3.12 z"
   id="path67"
   inkscape:connector-curvature="0"
   style="fill-rule:evenodd" />
<path
   clip-rule="evenodd"
   d="m 406.27059,64.469443 c 2.654,-0.014 5.382,-0.101 7.44,0.48 -0.741,2.378 -2.198,4.042 -3.12,6.24 0.96,0 1.92,0 2.88,0 0.086,1.206 -0.063,2.176 -0.479,2.88 -2.333,0.092 -4.406,-0.074 -6.48,-0.24 0.846,-2.274 2.062,-4.178 2.88,-6.48 -0.885,-0.395 -2.258,-0.302 -3.359,-0.48 -0.19,-1.068 0.318,-1.44 0.238,-2.4 z"
   id="path69"
   inkscape:connector-curvature="0"
   style="fill-rule:evenodd" />
<path
   clip-rule="evenodd"
   d="m 199.39059,64.949443 c 7.091,-1.417 5.877,8.64 0.721,8.64 -4.705,0 -5.88,-7.609 -0.721,-8.64 z m -0.72,4.56 c 0.41,1.767 3.766,1.679 3.12,-1.44 -1.453,-1.583 -3.483,-0.123 -3.12,1.44 z"
   id="path71"
   inkscape:connector-curvature="0"
   style="fill-rule:evenodd" />
<path
   clip-rule="evenodd"
   d="m 382.99059,64.709443 c 0.375,0.745 0.98,1.259 1.439,1.92 0.684,-0.437 0.922,-1.318 1.44,-1.92 1.04,0 2.08,0 3.12,0 -0.562,1.679 -1.731,2.749 -2.641,4.08 0.736,1.453 2.834,2.727 2.88,4.08 -1.058,0.062 -1.856,0.383 -3.119,0.24 -0.444,-0.597 -0.726,-1.354 -1.44,-1.68 -0.381,0.659 -0.972,1.108 -1.2,1.92 -1.04,0 -2.08,0 -3.12,0 0.424,-1.736 1.614,-2.707 2.4,-4.08 -0.666,-1.654 -2.25,-2.39 -2.88,-4.08 0.826,-0.375 1.837,-0.564 3.121,-0.48 z"
   id="path73"
   inkscape:connector-curvature="0"
   style="fill-rule:evenodd" />
<path
   clip-rule="evenodd"
   d="m 357.55059,64.949443 c -0.993,3.646 -2.067,7.212 -4.32,9.6 -2.531,-1.948 -3.31,-5.65 -5.04,-8.4 0.411,-0.789 2.021,-0.379 3.12,-0.48 0.251,1.509 1.04,2.48 1.681,3.6 0.945,-0.894 0.949,-2.73 1.439,-4.08 1.263,0.144 2.062,-0.178 3.12,-0.24 z"
   id="path75"
   inkscape:connector-curvature="0"
   style="fill-rule:evenodd" />
<path
   clip-rule="evenodd"
   d="m -27.409409,65.189443 c 0.47,2.428 0.901,6.114 0.48,8.64 -1.14,-0.061 -2.825,0.425 -2.4,-1.2 -1.207,0.468 -1.667,1.169 -2.88,1.2 -4.564,0.117 -5.55,-7.792 -0.72,-8.64 2.002,-0.352 2.847,0.745 5.52,0 z m -2.88,3.6 c -0.888,-2.814 -5.5,0.946 -1.92,2.4 1.125,-0.317 2.326,-1.112 1.92,-2.4 z"
   id="path77"
   inkscape:connector-curvature="0"
   style="fill-rule:evenodd" />
<path
   clip-rule="evenodd"
   d="m 401.71059,65.429443 c 0.409,6.569 -1.75,10.57 -5.76,12.72 -1.153,-0.367 -1.651,-1.39 -2.16,-2.4 1.984,-0.176 2.982,-1.338 3.84,-2.64 -2.423,-1.417 -3.741,-3.938 -4.32,-7.2 0.634,-0.327 1.637,-0.284 2.4,-0.48 1.024,1.455 1.096,3.864 2.88,4.56 0.956,-1.469 -0.464,-6.511 3.12,-4.56 z"
   id="path79"
   inkscape:connector-curvature="0"
   style="fill-rule:evenodd" />
<path
   style="fill-rule:evenodd"
   inkscape:connector-curvature="0"
   id="path3066"
   d="m 99.035981,1.7708528 c -0.074,4.246 -0.273,8.3660002 -0.48,12.4800002 -0.773,0.346 -2.013,0.227 -3.12,0.24 -0.025,-4.5050002 0.18,-8.7800002 0.48,-12.9600002 0.539,-0.242 2.335,-0.034 3.12,0.24 z"
   clip-rule="evenodd" /><path
   id="path3068"
   d="m 115.60969,14.250853 c -0.819,0.357 -1.904,-0.071 -2.88,-0.24 0.155,-1.445 0.711,-2.489 0.48,-4.3200002 -0.342,-0.777 -1.248,-0.993 -2.4,-0.96 -1.479,0.761 -0.656,3.8240002 -1.44,5.2800002 -0.952,-0.088 -2.3,0.22 -2.88,-0.24 0,-1.52 0,-3.04 0,-4.5600002 -0.675,-0.333 -1.38,-0.635 -2.16,-0.24 -0.735,1.6200002 0.194,3.6420002 0,5.5200002 -0.959,-0.08 -1.332,0.428 -2.4,0.24 -0.448,-2.993 -0.645,-6.2350002 -0.96,-9.3600002 2.488,-0.011 5.245,0.062 7.68,0.96 5.744,-2.462 9.374,2.889 6.96,7.9200002 z"
   clip-rule="evenodd"
   inkscape:connector-curvature="0"
   style="fill-rule:evenodd" /><path
   style="fill-rule:evenodd"
   inkscape:connector-curvature="0"
   id="path3070"
   d="m 125.95436,9.4474268 c -1.207,1.0330002 -2.799,1.6810002 -4.8,1.9200002 0.227,1.734 2.168,1.48 3.84,1.2 0.759,2.513 -3.389,3.134 -5.04,2.16 -3.537,-2.086 -2.041,-10.0850002 3.12,-8.8800002 1.468,0.343 2.015,1.734 2.88,3.6 z m -5.04,0 c 1.014,0.054 1.55,-0.37 2.4,-0.48 0.054,-0.454 -0.271,-0.529 -0.24,-0.96 -1.334,-0.134 -2.171,0.229 -2.16,1.44 z"
   clip-rule="evenodd" /><path
   style="fill-rule:evenodd"
   inkscape:connector-curvature="0"
   id="path3074"
   d="m 135.31779,10.170853 c -1.399,0.44 -2.972,0.708 -4.56,0.96 0.177,1.423 1.72,1.48 2.88,1.92 -0.312,2.421 -3.161,1.53 -4.08,0.96 -0.934,-0.58 -1.629,-2.63 -1.68,-3.36 -0.399,-5.6900002 7.713,-7.8520002 7.44,-0.48 z m -4.56,-1.4400002 c 0.47,0.294 2.604,0.649 2.4,-0.48 -0.434,-1.039 -2.324,-0.331 -2.4,0.48 z"
   clip-rule="evenodd" /><path
   id="path3076"
   d="m 119.43252,4.9684248 c -0.24208,-0.659626 -1.07989,-0.723536 -1.32198,-1.383163 0.9844,-1.70986 2.42797,-2.232976 4.21173,-3.58526201707305 C 124.93846,2.9779658 121.38128,3.0648718 119.43252,4.9684248 z"
   clip-rule="evenodd"
   inkscape:connector-curvature="0"
   style="fill-rule:evenodd"
   sodipodi:nodetypes="cccc" /></svg>