<?xml version="1.0" encoding="utf-8"?>
<!-- Generator: Adobe Illustrator 13.0.0, SVG Export Plug-In . SVG Version: 6.00 Build 14948)  -->
<!DOCTYPE svg PUBLIC "-//W3C//DTD SVG 1.1//EN" "http://www.w3.org/Graphics/SVG/1.1/DTD/svg11.dtd">
<svg version="1.1" id="Calque_1" xmlns="http://www.w3.org/2000/svg" xmlns:xlink="http://www.w3.org/1999/xlink" x="0px" y="0px"
	 width="73.754px" height="32.691px" viewBox="0 0 73.754 32.691" enable-background="new 0 0 73.754 32.691" xml:space="preserve">
<g>
	<path fill="#FFFFFF" d="M70.081,0.051C67.786,0.759,66.875-0.227,70.081,0.051L70.081,0.051z"/>
	<path fill="#FFFFFF" d="M71.279,3.651c-0.03,1.483-0.789,2.25-1.438,3.12C68.258,6.36,66.543,6.477,66,7.731
		c0.312,2.646,3.736,1.75,5.52,2.88c1.969,1.248,3.502,6.146,0.721,8.64c-2.512,2.248-8.27,2.101-11.041-0.239
		c0.648-1.433,1.605-2.556,2.4-3.84c1.062,0.709,4.309,1.818,5.041,0c-2.309-2.596-7.516-2.295-7.441-7.438
		C61.26,3.564,66.682,1.174,71.279,3.651z"/>
	<path fill="#FFFFFF" d="M16.32,4.851c3.644,4.85-5.009,7.054-5.28,2.64C10.89,5.039,13.878,3.809,16.32,4.851z"/>
	<path fill="#FFFFFF" d="M5.76,5.331c1.571,3.902,1.708,8.45,2.4,12.96c0.663,4.323,1.54,8.858,1.68,13.44
		c-1.574,0.587-3.668,0.648-5.521,0.96C2.468,24.463,0.332,16.519,0,6.771C1.739,6.11,3.723,5.693,5.76,5.331z"/>
	<path fill="#FFFFFF" d="M60.24,14.691c-2.689,0.59-4.909,1.646-8.159,1.68c-0.203,2.409,3.875,2.993,5.278,0.96
		c0.508,1.174,2.104,1.254,2.4,2.645c-2.523,3.76-9.189,3.093-11.279,0.235c-1.465-1.993-1.5-5.358-1.201-7.68
		C48.486,3.186,62.436,2.507,60.24,14.691z M52.32,12.531c1.859,0.101,3.021-0.499,4.32-0.96
		C56.115,8.635,52.213,9.709,52.32,12.531z"/>
	<path fill="#FFFFFF" d="M45.359,6.291c0.746,1.176,1.437,2.405,1.92,3.84c-2.59,0.845-5.397,1.611-6,4.08
		c-0.725,2.979,1.812,6.592,1.683,9.84c-1.67,0.49-3.729,0.597-5.521,0.96c-1.045-5.515-1.804-11.313-2.64-17.041
		c1.36-0.396,2.812-0.708,4.319-0.96c0.84,0.201,0.565,1.518,0.961,2.16C42.014,8.385,42.318,5.969,45.359,6.291z"/>
	<path fill="#FFFFFF" d="M33.6,10.371c-0.082,5.285-1.847,10.948-2.88,16.08c-1.364,0.396-3.004,0.517-4.56,0.72
		c-2.665-4.535-5.75-8.646-7.2-14.396c1.334-0.43,2.755-0.77,4.08-1.2c1.589,2.17,2.88,4.64,3.84,7.438
		c1.167-2.593,1.471-6.05,2.64-8.641C31.099,10.677,32.532,9.802,33.6,10.371z"/>
	<path fill="#FFFFFF" d="M17.76,28.851c-1.312,0.595-3.375,0.065-4.8,0c-1.31-3.894-0.887-9.518-1.2-14.4
		c1.35-0.489,3.218-0.461,4.56-0.96C18.63,16.781,17.47,23.541,17.76,28.851z"/>
</g>
</svg>
