<?xml version="1.0" encoding="UTF-8" standalone="no"?>
<!-- Generator: Adobe Illustrator 13.0.0, SVG Export Plug-In . SVG Version: 6.00 Build 14948)  -->

<svg
   xmlns:dc="http://purl.org/dc/elements/1.1/"
   xmlns:cc="http://creativecommons.org/ns#"
   xmlns:rdf="http://www.w3.org/1999/02/22-rdf-syntax-ns#"
   xmlns:svg="http://www.w3.org/2000/svg"
   xmlns="http://www.w3.org/2000/svg"
   xmlns:sodipodi="http://sodipodi.sourceforge.net/DTD/sodipodi-0.dtd"
   xmlns:inkscape="http://www.inkscape.org/namespaces/inkscape"
   version="1.1"
   id="Calque_1"
   x="0px"
   y="0px"
   width="73.754px"
   height="32.691px"
   viewBox="0 0 73.754 32.691"
   enable-background="new 0 0 73.754 32.691"
   xml:space="preserve"
   inkscape:version="0.48.2 r9819"
   sodipodi:docname="livres.svg"><metadata
   id="metadata25"><rdf:RDF><cc:Work
       rdf:about=""><dc:format>image/svg+xml</dc:format><dc:type
         rdf:resource="http://purl.org/dc/dcmitype/StillImage" /></cc:Work></rdf:RDF></metadata><defs
   id="defs23" /><sodipodi:namedview
   pagecolor="#ffffff"
   bordercolor="#666666"
   borderopacity="1"
   objecttolerance="10"
   gridtolerance="10"
   guidetolerance="10"
   inkscape:pageopacity="0"
   inkscape:pageshadow="2"
   inkscape:window-width="640"
   inkscape:window-height="480"
   id="namedview21"
   showgrid="false"
   inkscape:zoom="4.7726226"
   inkscape:cx="36.876999"
   inkscape:cy="21.794232"
   inkscape:window-x="0"
   inkscape:window-y="0"
   inkscape:window-maximized="0"
   inkscape:current-layer="Calque_1" />
<g
   id="g3"
   style="fill:#ffffff"
   transform="matrix(0.99169306,0.12862687,-0.12862687,0.99169306,2.0747821,-3.7740537)">
	<path
   d="m 70.081,0.051 c -2.295,0.708 -3.206,-0.278 0,0 l 0,0 z"
   id="path5"
   style="fill:#ffffff"
   inkscape:connector-curvature="0" />
	<path
   d="M 71.279,3.651 C 71.249,5.134 70.49,5.901 69.841,6.771 68.258,6.36 66.543,6.477 66,7.731 c 0.312,2.646 3.736,1.75 5.52,2.88 1.969,1.248 3.502,6.146 0.721,8.64 -2.512,2.248 -8.27,2.101 -11.041,-0.239 0.648,-1.433 1.605,-2.556 2.4,-3.84 1.062,0.709 4.309,1.818 5.041,0 -2.309,-2.596 -7.516,-2.295 -7.441,-7.438 0.06,-4.17 5.482,-6.56 10.079,-4.083 z"
   id="path7"
   style="fill:#ffffff"
   inkscape:connector-curvature="0" />
	<path
   d="m 16.32,4.851 c 3.644,4.85 -5.009,7.054 -5.28,2.64 -0.15,-2.452 2.838,-3.682 5.28,-2.64 z"
   id="path9"
   style="fill:#ffffff"
   inkscape:connector-curvature="0" />
	<path
   d="m 5.76,5.331 c 1.571,3.902 1.708,8.45 2.4,12.96 0.663,4.323 1.54,8.858 1.68,13.44 -1.574,0.587 -3.668,0.648 -5.521,0.96 C 2.468,24.463 0.332,16.519 0,6.771 1.739,6.11 3.723,5.693 5.76,5.331 z"
   id="path11"
   style="fill:#ffffff"
   inkscape:connector-curvature="0" />
	<path
   d="m 60.24,14.691 c -2.689,0.59 -4.909,1.646 -8.159,1.68 -0.203,2.409 3.875,2.993 5.278,0.96 0.508,1.174 2.104,1.254 2.4,2.645 -2.523,3.76 -9.189,3.093 -11.279,0.235 -1.465,-1.993 -1.5,-5.358 -1.201,-7.68 1.207,-9.345 15.157,-10.024 12.961,2.16 z m -7.92,-2.16 c 1.859,0.101 3.021,-0.499 4.32,-0.96 -0.525,-2.936 -4.427,-1.862 -4.32,0.96 z"
   id="path13"
   style="fill:#ffffff"
   inkscape:connector-curvature="0" />
	<path
   d="m 45.359,6.291 c 0.746,1.176 1.437,2.405 1.92,3.84 -2.59,0.845 -5.397,1.611 -6,4.08 -0.725,2.979 1.812,6.592 1.683,9.84 -1.67,0.49 -3.729,0.597 -5.521,0.96 -1.045,-5.515 -1.804,-11.313 -2.64,-17.041 1.36,-0.396 2.812,-0.708 4.319,-0.96 0.84,0.201 0.565,1.518 0.961,2.16 1.933,-0.785 2.237,-3.201 5.278,-2.879 z"
   id="path15"
   style="fill:#ffffff"
   inkscape:connector-curvature="0" />
	<path
   d="m 33.6,10.371 c -0.082,5.285 -1.847,10.948 -2.88,16.08 -1.364,0.396 -3.004,0.517 -4.56,0.72 -2.665,-4.535 -5.75,-8.646 -7.2,-14.396 1.334,-0.43 2.755,-0.77 4.08,-1.2 1.589,2.17 2.88,4.64 3.84,7.438 1.167,-2.593 1.471,-6.05 2.64,-8.641 1.579,0.305 3.012,-0.57 4.08,-10e-4 z"
   id="path17"
   style="fill:#ffffff"
   inkscape:connector-curvature="0" />
	<path
   d="m 17.76,28.851 c -1.312,0.595 -3.375,0.065 -4.8,0 -1.31,-3.894 -0.887,-9.518 -1.2,-14.4 1.35,-0.489 3.218,-0.461 4.56,-0.96 2.31,3.29 1.15,10.05 1.44,15.36 z"
   id="path19"
   style="fill:#ffffff"
   inkscape:connector-curvature="0" />
</g>
</svg>