<?xml version="1.0" encoding="UTF-8" standalone="no"?>
<!-- Generator: Adobe Illustrator 15.0.0, SVG Export Plug-In . SVG Version: 6.00 Build 0)  -->

<svg
   xmlns:dc="http://purl.org/dc/elements/1.1/"
   xmlns:cc="http://creativecommons.org/ns#"
   xmlns:rdf="http://www.w3.org/1999/02/22-rdf-syntax-ns#"
   xmlns:svg="http://www.w3.org/2000/svg"
   xmlns="http://www.w3.org/2000/svg"
   xmlns:sodipodi="http://sodipodi.sourceforge.net/DTD/sodipodi-0.dtd"
   xmlns:inkscape="http://www.inkscape.org/namespaces/inkscape"
   version="1.1"
   id="mots_xA0_Image_1_"
   x="0px"
   y="0px"
   width="62.114628"
   height="12.171594"
   viewBox="0 0 62.11463 12.171595"
   enable-background="new 0 0 1020.48 538.561"
   xml:space="preserve"
   inkscape:version="0.48.2 r9819"
   sodipodi:docname="pourpresse.svg"><metadata
   id="metadata229"><rdf:RDF><cc:Work
       rdf:about=""><dc:format>image/svg+xml</dc:format><dc:type
         rdf:resource="http://purl.org/dc/dcmitype/StillImage" /><dc:title /></cc:Work></rdf:RDF></metadata><defs
   id="defs227" /><sodipodi:namedview
   pagecolor="#ffffff"
   bordercolor="#666666"
   borderopacity="1"
   objecttolerance="10"
   gridtolerance="10"
   guidetolerance="10"
   inkscape:pageopacity="0"
   inkscape:pageshadow="2"
   inkscape:window-width="1123"
   inkscape:window-height="652"
   id="namedview225"
   showgrid="false"
   fit-margin-top="0"
   fit-margin-left="0"
   fit-margin-right="0"
   fit-margin-bottom="0"
   inkscape:zoom="11.037943"
   inkscape:cx="34.318906"
   inkscape:cy="6.2949862"
   inkscape:window-x="0"
   inkscape:window-y="0"
   inkscape:window-maximized="0"
   inkscape:current-layer="mots_xA0_Image_1_" />
<path
   clip-rule="evenodd"
   d="m -220.91719,-58.075362 c 1.616,-0.015 2.532,0.668 3.84,0.96 -0.715,5.605 -2.09,10.55 -3.6,15.360007 -3.002,-0.438 -3.979,-2.902007 -6,-4.320007 -1.779,1.58201 -2.955,3.765007 -5.04,5.040007 -1.361,-4.719007 -2.354,-9.806007 -3.6,-14.640007 0.802,-0.878 2.415,-0.945 3.84,-1.2 0.771,2.269 1.167,4.914 1.68,7.44 1.751,-1.128 1.486,-4.274 3.6,-5.04 0.988,2.132 1.919,4.321 3.12,6.24 1.151,-2.849 1.428,-6.572 2.16,-9.84 z"
   id="path3"
   inkscape:connector-curvature="0"
   style="fill-rule:evenodd" />
<path
   clip-rule="evenodd"
   d="m -211.55719,-56.635362 c -0.584,2.375 -1.131,4.79 -1.68,7.2 2.778,-0.851 4.626,0.64 5.76,2.16 0.307,3.506007 -0.71,5.689007 -1.68,7.920007 -0.912,-0.048 -1.708,-0.212 -2.4,-0.48 0.009,-1.911 0.752,-3.088 0.48,-5.280007 -2.489,-1.831 -4.582,1.626007 -4.56,4.560007 -1.117,0.077 -1.602,-0.479 -2.64,-0.48 0.617,-5.863007 1.447,-11.513007 3.12,-16.320007 1.173,0.267 2.357,0.524 3.6,0.72 z"
   id="path5"
   inkscape:connector-curvature="0"
   style="fill-rule:evenodd" />
<path
   clip-rule="evenodd"
   d="m -202.67719,-49.915362 c 5.275,-1.206 8.932,5.804007 5.52,9.360007 -3.881,4.045 -11.214,-1.011 -8.88,-6.960007 0.505,-1.286 2.144,-2.122 3.36,-2.4 z m -0.24,3.6 c -1.367,2.159007 0.734,4.546007 3.36,3.360007 2.011,-2.255007 -0.894,-5.465007 -3.36,-3.360007 z"
   id="path7"
   inkscape:connector-curvature="0"
   style="fill-rule:evenodd" />
<path
   clip-rule="evenodd"
   d="m -236.51719,-36.715355 c 0.16,0 0.32,0 0.48,0 0.246,4.954 0.496,9.904 0.72,14.88 -1.303,-0.183 -1.86,0.38 -3.12,0.24 -1.359,-4.001 -1.362,-9.357 -1.68,-14.4 1.047,-0.394 2.547,-0.333 3.6,-0.72 z"
   id="path9"
   inkscape:connector-curvature="0"
   style="fill-rule:evenodd" />
<path
   clip-rule="evenodd"
   d="m -216.59719,-33.115355 c -0.4,4.106 -0.273,8.217 -0.96,11.52 -1.01,-0.27 -3.3,0.74 -2.88,-0.96 -1.317,0.523 -3.148,0.532 -5.04,0.48 -7.117,-4.271 -0.913,-13.72 6.24,-10.56 0.053,-1.397 1.748,-0.378 2.64,-0.48 z m -7.92,7.68 c 1.044,0.004 2.159,0.08 2.88,-0.24 3.311,-5.157 -6.276,-4.261 -2.88,0.24 z"
   id="path11"
   inkscape:connector-curvature="0"
   style="fill-rule:evenodd" />
<path
   clip-rule="evenodd"
   d="m -211.55719,-31.675355 c 0.331,0.31 0.237,1.042 0.24,1.68 1.716,-1.58 5.335,-1.531 5.76,1.2 2.314,-2.274 6.833,-0.939 7.44,1.92 0.282,4.282 -1.123,6.877 -2.64,9.36 -0.892,-0.148 -1.508,-0.572 -2.4,-0.72 0.406,-2.108 2.959,-7.543 0.24,-7.92 -2.201,-0.305 -2.503,5.264 -3.84,6.72 -1.257,0.058 -1.816,-0.584 -2.88,-0.72 0.184,-2.128 1.722,-3.938 0.96,-6.24 -3.207,-0.829 -2.77,3.908 -3.84,6 -1.444,0.083 -1.917,-0.804 -3.36,-0.72 0.671,-3.648 0.836,-7.804 2.16,-10.8 0.79,0.01 1.195,0.405 2.16,0.24 z"
   id="path13"
   inkscape:connector-curvature="0"
   style="fill-rule:evenodd" />
<path
   clip-rule="evenodd"
   d="m 24.602805,0.00464504 c 0.08,2.71999996 -0.237,5.04199996 -0.72,7.19999996 -0.561,0 -1.12,0 -1.68,0 0.694,-2.507 -0.976,-7.37599996 2.4,-7.19999996 z"
   id="path15"
   inkscape:connector-curvature="0"
   style="fill:#ffffff;fill-rule:evenodd" />
<path
   clip-rule="evenodd"
   d="m 19.082795,2.644644 c -0.507,0.933 -1.71,1.17 -2.16,2.16 0,0.88 0,1.76 0,2.64 -0.587,0.213 -1.041,0.56 -1.92,0.48 0.012,-2.068 0.468,-3.691 0.479,-5.76 1.579,0.577 2.875,-1.38099996 3.601,0.48 z"
   id="path17"
   inkscape:connector-curvature="0"
   style="fill:#ffffff;fill-rule:evenodd" />
<path
   clip-rule="evenodd"
   d="m 30.362805,2.404645 c -0.538,1.622 -0.693,3.626 -1.199,5.28 -1.704,-0.03 -1.518,-0.489 -3.36,-0.24 -2.839,-2.921 0.799,-7.11399996 4.559,-5.04 z m -3.84,3.36 c 1.133,0.315 2.075,-1.791 0.96,-2.16 -0.661,0.33 -1.624,1.261 -0.96,2.16 z"
   id="path19"
   inkscape:connector-curvature="0"
   style="fill:#ffffff;fill-rule:evenodd" />
<path
   clip-rule="evenodd"
   d="m 13.920415,1.978679 c -0.111,1.968 0.333,4.493 -0.479,5.76 -1.434,-0.521 -2.073,0.54 -3.36,0 -0.5369997,-1.188 -1.2489997,-5.393 1.2,-5.04 0.098,1.023 -0.232,2.472 0.24,3.12 1.895,-0.06 -0.04,-5.11099996 2.399,-3.84 z"
   id="path21"
   inkscape:connector-curvature="0"
   style="fill:#ffffff;fill-rule:evenodd" />
<path
   clip-rule="evenodd"
   d="m 8.8804153,3.328082 c 0.731,2.573 0.035,5.577 -3.12,5.04 -2.049,-2.272 0.285,-7.63599996 3.12,-5.04 z m -1.68,3.12 c 0.42,-0.322 0.879,-1.982 0,-2.16 -0.236,0.321 -1.083,2.058 0,2.16 z"
   id="path23"
   inkscape:connector-curvature="0"
   style="fill:#ffffff;fill-rule:evenodd" />
<path
   clip-rule="evenodd"
   d="m 2.1651853,7.398536 c -0.139,1.542 -0.383,2.978 -2.16000004,2.88 -0.06,-2.38 0.423,-4.217 0.24,-6.72 1.52800004,-0.343 3.48500004,-2.336 4.80000004,-0.72 0.252,2.732 -0.691,4.269 -2.88,4.56 z m 0.24,-1.44 c 0.595,-0.285 0.89,-0.87 0.72,-1.92 -0.24,0 -0.48,0 -0.72,0 -0.254,0.249 -0.496,1.714 0,1.92 z"
   id="path25"
   inkscape:connector-curvature="0"
   style="fill:#ffffff;fill-rule:evenodd" />
<path
   clip-rule="evenodd"
   d="m -199.79719,24.724645 c 0.164,0.957 0.607,1.633 0.48,2.88 -0.983,0.056 -1.962,0.118 -2.64,0.48 -0.761,-0.519 -0.81,-1.75 -0.96,-2.88 -11.027,-0.482 -5.729,-19.823 3.84,-15.84 5.612,2.336 3.849,12.67 -0.72,15.36 z m 1.44,-8.64 c -0.644,-8.444 -13.256,1.448 -5.28,5.04 0,-0.56 0,-1.12 0,-1.68 0.969,-0.23 1.91,-0.49 2.88,-0.72 0.331,0.31 0.238,1.043 0.24,1.68 1.444,-0.685 2.288,-2.636 2.16,-4.32 z"
   id="path27"
   inkscape:connector-curvature="0"
   style="fill-rule:evenodd" />
<path
   clip-rule="evenodd"
   d="m 57.600025,1.258605 c -0.22852,1.112997 -0.56066,1.405356 -1.77635,1.110222 -0.3525,1.257327 1.37575,1.446064 1.55431,2.664533 0.2609,1.782832 -1.18146,3.388029 -3.77476,2.886578 0,-0.518103 0,-1.036207 0,-1.554311 0.66243,0.308087 1.3591,0.261828 1.55524,-0.444089 -0.18041,-1.409982 -1.64498,-1.639428 -1.55524,-3.108622 0.1027,-1.669034 2.11682,-2.67008496 3.9968,-1.554311 z"
   id="path29"
   inkscape:connector-curvature="0"
   style="fill:#ffffff;fill-rule:evenodd" />
<path
   clip-rule="evenodd"
   d="m 52.962085,1.090967 c 0.14618,0.812313 -0.48017,0.851171 -0.44317,1.554312 -0.59026,0.0028 -1.26843,-0.08327 -1.55431,0.222044 -0.1249,1.086168 0.86227,1.062113 1.33134,1.554311 0.95294,2.593295 -1.06951,5.275407 -3.55271,3.774756 -0.14618,-0.811387 0.4811,-0.85117 0.44409,-1.554311 0.58934,-0.0019 1.2675,0.08419 1.55431,-0.222044 -0.91501,-1.380377 -2.66823,-2.656207 -1.55431,-4.44089 0.58657,-0.939988 2.06224,-1.39887996 3.77476,-0.888178 z"
   id="path31"
   inkscape:connector-curvature="0"
   style="fill:#ffffff;fill-rule:evenodd" />
<path
   clip-rule="evenodd"
   d="m 44.080315,2.221771 c -2.05021,0.902055 -3.02813,2.794984 -2.66454,5.551111 -0.69666,0.221119 -1.65608,1.014003 -2.22044,0.666133 0.31734,-2.05206 0.33307,-4.404807 0.44409,-6.661333 0.56436,-0.298835 1.90125,-0.87522596 1.9984,0.222044 0.82341,-1.01677896 2.10572,-1.50990196 2.44249,0.222045 z"
   id="path33"
   inkscape:connector-curvature="0"
   style="fill:#ffffff;fill-rule:evenodd" />
<path
   clip-rule="evenodd"
   d="m -178.91719,12.724645 c 0.337,0.703 0.646,1.435 0.479,2.64 -3.028,3.575 -5.518,-4.37 -0.479,-2.64 z"
   id="path35"
   inkscape:connector-curvature="0"
   style="fill-rule:evenodd" />
<path
   clip-rule="evenodd"
   d="m 38.162155,1.151091 c 1.07989,3.08685 -0.85978,5.646425 -3.04013,6.650305 0.0127,0.96271 -0.32698,1.573905 -0.19001,2.660121 -0.5819,0.874832 -1.50741,1.405273 -2.66012,1.710078 0.53281,-2.951468 1.20497,-5.762013 0.95004,-9.500434 1.35381,-0.806745 3.09952,-2.35373296 4.94022,-1.52007 z m -2.85013,1.900087 c 0.12034,0.639696 -0.24463,1.764706 0.19001,2.090096 0.44573,-0.440979 1.60954,-1.879503 0.38002,-2.280104 -0.0325,0.221676 -0.30085,0.205842 -0.57003,0.190008 z"
   id="path37"
   inkscape:connector-curvature="0"
   style="fill:#ffffff;fill-rule:evenodd" />
<path
   clip-rule="evenodd"
   d="m -193.55719,15.604645 c 1.046,0.393 2.546,0.333 3.6,0.72 -0.432,2.048 -1.38,3.58 -1.44,6 0.077,0.563 0.743,0.538 0.96,0.96 2.814,-0.626 2.971,-3.91 3.84,-6.48 0.911,0.289 1.889,0.511 2.88,0.72 -0.237,3.604 -1.601,6.08 -1.68,9.84 -1.216,-0.016 -1.987,0.413 -3.36,0.24 -0.077,-0.563 -0.379,-0.901 -0.24,-1.68 -6.477,1.341 -6.58,-5.923 -4.56,-10.32 z"
   id="path39"
   inkscape:connector-curvature="0"
   style="fill-rule:evenodd" />
<path
   clip-rule="evenodd"
   d="m -178.91719,17.284645 c -0.328,3.112 -0.205,6.675 -0.721,9.6 -0.675,0.365 -1.852,0.229 -2.64,0.48 -0.488,-2.988 -0.332,-7.357 0.24,-10.08 1.041,0 2.081,0 3.121,0 z"
   id="path41"
   inkscape:connector-curvature="0"
   style="fill-rule:evenodd" />
<path
   clip-rule="evenodd"
   d="m -204.11719,29.044645 c -0.164,0.876 -0.91,1.17 -1.2,1.92 -4.219,-3.134 -4.964,2.539 -0.72,3.12 2.961,6.73 -8.052,8.486 -9.6,3.12 0.064,-1.136 1.048,-1.352 1.44,-2.16 1.332,0.715 3.612,3.659 4.8,0.96 -2.092,-1.791 -4.66,-4.74 -2.4,-7.92 1.847,-2.599 6.186,-1.366 7.68,0.96 z"
   id="path43"
   inkscape:connector-curvature="0"
   style="fill-rule:evenodd" />
<path
   clip-rule="evenodd"
   d="m -188.99719,29.044645 c 2.648,-0.962 2.669,3.375 0.48,3.36 -1.849,-0.012 -2.351,-2.68 -0.48,-3.36 z"
   id="path45"
   inkscape:connector-curvature="0"
   style="fill-rule:evenodd" />
<path
   clip-rule="evenodd"
   d="m -199.31719,30.724645 c -0.318,2.001 -0.846,3.794 -0.72,6.24 3.505,1.9 2.56,-4.146 4.32,-5.52 1.015,0.265 1.968,0.591 2.88,0.96 -0.648,3.352 -1.626,6.374 -2.4,9.6 -1.196,-0.084 -2.985,0.425 -2.64,-1.2 -7.083,1.53 -6.335,-6.92 -4.32,-10.56 0.961,0.159 2.089,0.151 2.88,0.48 z"
   id="path47"
   inkscape:connector-curvature="0"
   style="fill-rule:evenodd" />
<path
   clip-rule="evenodd"
   d="m -177.47719,33.364645 c -0.199,0.601 -0.657,0.943 -0.72,1.68 -0.845,-0.412 -2.312,-0.738 -3.36,-0.24 -1.385,3.297 4.369,1.751 4.801,4.8 0.144,1.02 -0.771,3.542 -1.921,4.32 -2.35,1.591 -8.474,-0.015 -6.479,-3.12 0.909,-0.349 4.207,2.079 4.56,-0.48 -0.093,-1.427 -2.037,-1.002 -3.12,-1.44 -4.327,-4.381 2.753,-10.06 6.239,-5.52 z"
   id="path49"
   inkscape:connector-curvature="0"
   style="fill-rule:evenodd" />
<path
   clip-rule="evenodd"
   d="m -189.95719,33.364645 c 1.112,0.088 2.23,0.17 3.12,0.48 -0.478,3.442 -1.014,6.826 -1.92,9.84 -1.163,0.043 -2.049,-0.191 -2.88,-0.48 0.442,-3.398 0.96,-6.72 1.68,-9.84 z"
   id="path51"
   inkscape:connector-curvature="0"
   style="fill-rule:evenodd" />
<path
   clip-rule="evenodd"
   d="m -174.35719,35.764645 c 1.84,0 3.68,0 5.521,0 0.062,1.263 -0.164,2.236 -0.48,3.12 -1.68,0 -3.36,0 -5.04,0 -0.001,-1.04 -0.001,-2.08 -0.001,-3.12 z"
   id="path53"
   inkscape:connector-curvature="0"
   style="fill-rule:evenodd" />
<path
   clip-rule="evenodd"
   d="m -203.39719,40.564645 c 2.058,2.913 -2.793,4.347 -3.12,1.68 -0.157,-1.278 1.208,-2.557 3.12,-1.68 z"
   id="path55"
   inkscape:connector-curvature="0"
   style="fill-rule:evenodd" />
<path
   clip-rule="evenodd"
   d="m -206.27719,44.644645 c 1.167,-0.046 2.294,-0.055 2.88,0.48 -0.045,4.248 -0.094,11.641 -4.32,12.24 -2.319,0.329 -5.121,-1.272 -4.8,-4.56 1.265,-0.015 1.761,-0.798 3.12,-0.72 0.418,0.622 0.035,2.045 1.2,1.92 2.188,-1.572 1.246,-6.274 1.92,-9.36 z"
   id="path57"
   inkscape:connector-curvature="0"
   style="fill-rule:evenodd" />
<path
   clip-rule="evenodd"
   d="m -197.15719,54.004645 c 0.823,0.998 2.93,0.775 4.08,0.24 0.229,1.051 0.25,2.309 0.48,3.36 -5.937,1.751 -9.838,-2.41 -9.12,-7.92 0.453,-3.474 5.046,-6.055 8.16,-3.36 2.512,2.174 1.35,8.81 -3.6,7.68 z m -0.96,-3.6 c 0.707,0.341 1.514,0.725 2.4,0.24 -0.005,-0.565 0.414,-0.707 0.24,-1.44 -0.731,-0.866 -3.262,-0.733 -2.64,1.2 z"
   id="path59"
   inkscape:connector-curvature="0"
   style="fill-rule:evenodd" />
<path
   clip-rule="evenodd"
   d="m -330.35121,56.907245 c 0.37226,0.63931 0.46493,1.43695 0.24927,2.14557 -2.99714,1.96602 -3.70873,-3.38763 -0.24927,-2.14557 z"
   id="path61"
   style="fill:#ffffff;fill-rule:evenodd"
   inkscape:connector-curvature="0" />
<path
   clip-rule="evenodd"
   d="m -342.67662,67.278955 c -0.80737,0.1995 -1.34698,0.0608 -1.93487,-0.0168 -0.42227,-0.7231 0.30081,-2.14203 -0.17706,-3.60365 -0.32268,-0.59372 -1.05908,-0.66723 -1.99026,-0.49361 -1.06896,0.66883 -0.0201,3.01547 -0.48274,4.16353 -0.34895,0.44524 -1.37754,0.35233 -2.11787,0.48767 -0.4261,-1.46663 0.21183,-4.27702 -1.45213,-4.18035 -1.87776,0.64803 0.19383,3.07216 0.0772,4.82332 -1.13087,-0.0287 -1.48808,0.55343 -2.32858,0.75377 -0.83486,-2.31613 -1.05806,-5.40702 -1.65688,-8.02239 0.93153,0.22802 2.12698,-1.2931 2.20096,0.22752 1.07257,-0.5424 3.21298,-0.78403 3.86974,0.0336 4.12305,-2.83778 7.45641,1.60824 5.99254,5.82737 z"
   id="path63"
   style="fill:#ffffff;fill-rule:evenodd"
   inkscape:connector-curvature="0" />
<path
   clip-rule="evenodd"
   d="m -340.0592,60.692885 c 5.18017,-2.62938 6.78035,5.6241 1.91211,6.05982 -3.21922,0.28844 -4.87908,-4.55335 -1.91211,-6.05982 z m 2.42254,2.13469 c -0.44872,-0.1623 -0.68324,-0.59512 -1.48566,-0.30962 -0.88884,1.92444 2.02924,2.83074 1.48566,0.30962 z"
   id="path65"
   style="fill:#ffffff;fill-rule:evenodd"
   inkscape:connector-curvature="0" />
<path
   clip-rule="evenodd"
   d="m -319.04979,55.842705 c 2.71818,1.45221 -1.04243,4.65 -2.10219,1.84781 0.21075,-0.95542 0.54617,-1.82382 2.10219,-1.84781 z"
   id="path67"
   style="fill:#ffffff;fill-rule:evenodd"
   inkscape:connector-curvature="0" />
<path
   clip-rule="evenodd"
   d="m -333.06261,60.604865 c 0.98029,0.12772 1.91428,0.31619 2.73315,0.64891 -0.53402,2.10168 -1.11894,4.16396 -1.69154,6.23689 -1.08351,0.27488 -1.43397,-0.37603 -2.43936,-0.19983 0.20105,-2.43748 0.94625,-4.4459 1.39775,-6.68598 z"
   id="path69"
   style="fill:#ffffff;fill-rule:evenodd"
   inkscape:connector-curvature="0" />
<path
   clip-rule="evenodd"
   d="m -320.99995,59.858485 c 1.0304,-0.29698 1.75126,-0.14606 2.44718,0.0409 0.2455,3.26401 -0.42577,5.89445 -1.41,8.30859 -2.33547,1.27745 -4.69594,0.30883 -5.0464,-2.24984 0.0848,-0.354 0.90249,-0.20145 0.85812,-0.64469 1.23677,-0.49733 0.99045,1.15381 2.10438,0.83547 1.48905,-1.30887 0.71294,-4.18319 1.04672,-6.29047 z"
   id="path71"
   style="fill:#ffffff;fill-rule:evenodd"
   inkscape:connector-curvature="0" />
<path
   clip-rule="evenodd"
   d="m -311.50871,63.736145 c -1.06109,-0.15486 -2.59934,0.37822 -3.62765,0.17469 -0.30256,1.2375 1.63743,1.53475 3.135,1.13515 -0.0103,0.51118 0.27641,0.59502 0.40859,0.90125 -1.60068,2.83476 -5.00716,1.12605 -5.58219,-1.17609 -1.633,-6.53595 8.05154,-6.70896 5.66625,-1.035 z m -2.70593,-1.4575 c 0.33336,0.0164 0.512,0.25414 0.9875,0.0636 -0.0431,-0.23609 -0.0863,-0.47219 -0.12937,-0.70828 -0.55014,0.0324 -0.8769,0.21913 -0.85813,0.64469 z"
   id="path73"
   style="fill:#ffffff;fill-rule:evenodd"
   inkscape:connector-curvature="0" />
<path
   clip-rule="evenodd"
   d="m -328.80933,65.188485 c 0.73964,-0.17475 0.90359,0.4835 1.73891,0.17031 -0.52283,1.49528 -0.79319,3.16504 -2.18625,4.0589 -0.3465,-1.75225 0.0248,-3.00842 0.44734,-4.22921 z"
   id="path75"
   style="fill:#ffffff;fill-rule:evenodd"
   inkscape:connector-curvature="0" />
<path
   clip-rule="evenodd"
   d="m -303.52797,55.805355 c 1.15455,0.0209 2.01964,0.4606 2.08391,2.05907 -0.51084,0.40335 -0.71221,1.02058 -1.75938,1.05328 -1.40439,-0.39813 -1.57815,-2.45133 -0.32453,-3.11235 z"
   id="path77"
   style="fill:#ffffff;fill-rule:evenodd"
   inkscape:connector-curvature="0" />
<path
   clip-rule="evenodd"
   d="m -304.49062,59.884735 c 0.81243,-0.0823 1.8809,-0.53265 2.40406,-0.19516 0.77218,3.76554 -0.039,6.43678 -1.32376,8.78078 -2.68165,0.79581 -4.11802,-0.21149 -4.81031,-2.29297 0.30267,-0.34094 0.91149,-0.46943 1.0511,-0.92391 1.00287,-0.0581 1.11085,1.17858 2.1475,1.07157 0.95545,-1.60887 0.74151,-4.02679 0.53141,-6.44032 z"
   id="path79"
   style="fill:#ffffff;fill-rule:evenodd"
   inkscape:connector-curvature="0" />
<path
   clip-rule="evenodd"
   d="m -298.41578,59.750985 c 2.84066,-1.36667 5.48557,0.16297 5.92718,3.06485 0.71662,4.71904 -6.32505,5.79281 -7.70484,1.8953 -0.72822,-2.0556 -0.42571,-3.89998 1.77766,-4.96015 z m 1.6139,4.82859 c 0.67472,-0.15171 1.56897,-0.15341 1.84563,-0.58109 1.02046,-4.26376 -5.37049,-1.62545 -1.84563,0.58109 z"
   id="path81"
   style="fill:#ffffff;fill-rule:evenodd"
   inkscape:connector-curvature="0" />
<path
   clip-rule="evenodd"
   d="m -289.42157,59.571925 c -0.0274,1.42511 -0.18853,2.75776 0.068,4.37906 2.48572,1.22021 2.54386,-2.39609 2.93766,-3.95218 0.71674,0.25638 1.7734,0.0197 2.49031,0.27703 -0.11963,2.46156 -0.42989,4.79225 -0.91734,6.99875 -0.94248,-0.12875 -2.46627,0.58365 -2.3836,-1.02844 -4.95399,3.9159 -6.82694,-8.29124 -2.19499,-6.67422 z"
   id="path83"
   style="fill:#ffffff;fill-rule:evenodd"
   inkscape:connector-curvature="0" />
<path
   clip-rule="evenodd"
   d="m 9.0028053,73.204645 c -0.751,0.735 -1.858,-0.21 -2.88,0 -0.077,-0.427 2.283,-0.664 2.88,0 z"
   id="path85"
   inkscape:connector-curvature="0"
   style="fill-rule:evenodd" />
<path
   clip-rule="evenodd"
   d="m -277.88954,65.272555 c -1.3412,-0.0132 -2.93778,-1.03496 -3.99312,-0.49047 0.45285,1.43295 1.78005,1.60324 3.22125,1.60735 0.16859,0.87291 -0.11287,1.43564 -0.36329,2.01812 -2.39457,0.20257 -3.70775,-0.20815 -4.40171,-1.39172 -2.54935,-4.34565 5.15353,-9.95811 6.47906,-4.59906 0.33365,1.34799 -0.25162,1.83915 -0.94219,2.85578 z m -1.05328,-1.75937 c -0.0575,-0.3148 -0.115,-0.62959 -0.1725,-0.94438 -0.39349,0.0719 -0.78698,0.14375 -1.18047,0.21562 0.19611,0.61172 0.7653,0.68362 1.35297,0.72876 z"
   id="path87"
   style="fill:#ffffff;fill-rule:evenodd"
   inkscape:connector-curvature="0" />
<path
   clip-rule="evenodd"
   d="m 9.9628053,76.564645 c -0.398,1.281 -1.023,2.336 -1.681,3.36 -1.316,-0.8 -3.198,-0.426 -3.84,0.72 1.342,2.991 6.7999997,1.82 7.6809997,5.52 1.777,7.468 -8.0449997,9.816 -12.47999974,5.76 0.471,-1.609 1.65000004,-2.509 2.40000004,-3.84 1.09,0.413 4.198,2.055 4.8,0 -0.897,-2.038 -3.43,-1.602 -4.8,-2.64 -5.749,-4.357 0.509,-13.611 7.92,-8.88 z"
   id="path89"
   inkscape:connector-curvature="0"
   style="fill-rule:evenodd" />
<path
   clip-rule="evenodd"
   d="m -45.237195,77.764645 c 4.066,4.392 -4.661,7.335 -5.28,2.88 -0.368,-2.652 2.703,-4.148 5.28,-2.88 z"
   id="path91"
   inkscape:connector-curvature="0"
   style="fill-rule:evenodd" />
<path
   clip-rule="evenodd"
   d="m -55.317195,78.244645 c 1.345,8.735 3.148,17.012 3.6,26.640005 -1.897,0.183 -3.508,0.652 -5.52,0.72 -2.149,-8.010005 -3.789,-16.532005 -4.56,-25.920005 2.049,-0.591 3.933,-1.347 6.48,-1.44 z"
   id="path93"
   inkscape:connector-curvature="0"
   style="fill-rule:evenodd" />
<path
   clip-rule="evenodd"
   d="m -1.3171947,87.844645 c -2.925,0.355 -5.156,1.404 -8.16,1.68 0.8,2.569 3.646,2.293 5.28,0.72 0.667,0.933 1.847,1.353 2.4,2.4 -1,1.875 -3.037,3.026 -5.28,3.12 -11.3260003,0.475 -8.9230003,-19.612 1.68,-17.52 1.233,0.243 1.639,1.101 3.12,1.92 0.886,1.854 1.146,5.547 0.96,7.68 z m -7.68,-2.4 c 1.498,-0.101 2.714,-0.486 3.84,-0.96 -0.347,-3.309 -4.498,-1.164 -3.84,0.96 z"
   id="path95"
   inkscape:connector-curvature="0"
   style="fill-rule:evenodd" />
<path
   clip-rule="evenodd"
   d="m -14.277195,83.284645 c -2.838,0.605 -5.521,1.581 -6,4.08 -0.534,2.794 1.976,6.347 1.68,9.6 -1.663,0.497 -3.528,0.792 -5.52,0.96 -1.364,-5.276 -1.685,-11.596 -2.88,-17.04 1.504,-0.576 3.463,-0.697 5.04,-1.2 -0.015,0.895 0.241,1.518 0.479,2.16 2.234,-2.962 6.954,-3.989 7.201,1.44 z"
   id="path97"
   inkscape:connector-curvature="0"
   style="fill-rule:evenodd" />
<path
   clip-rule="evenodd"
   d="m -27.717195,83.284645 c -0.611,5.789 -1.818,10.981 -3.119,16.08 -1.435,0.406 -2.929,0.752005 -4.801,0.720005 -2.348,-4.532005 -5.927,-9.113005 -6.96,-14.160005 0.778,-0.982 2.673,-0.848 3.841,-1.44 2.102,1.658 2.981,4.538 4.079,7.2 1.028,-2.573 1.588,-5.612 2.4,-8.4 1.716,0.296 3.232,-0.684 4.56,0 z"
   id="path99"
   inkscape:connector-curvature="0"
   style="fill-rule:evenodd" />
<path
   clip-rule="evenodd"
   d="m -44.997195,86.404645 c 1.765,3.857 1.424,10.477 1.2,15.600005 -1.69,0.108 -3.796,-0.167 -4.801,0 -1.332,-4.028005 -0.976,-9.744005 -1.199,-14.880005 1.736,-0.104 3.129,-0.551 4.8,-0.72 z"
   id="path101"
   inkscape:connector-curvature="0"
   style="fill-rule:evenodd" />
<path
   clip-rule="evenodd"
   d="m -261.7172,95.044645 c 0,0.64 0,1.28 0,1.92 -0.983,-0.023 -1.887,0.033 -1.92,0.96 1.741,1.512 5.341,0.898 4.56,4.800005 -0.405,2.021 -2.879,2.621 -5.28,3.12 -0.299,-0.581 -0.594,-1.166 -0.72,-1.92 0.932,0.064 2.622,-0.237 2.4,-1.68 -0.21,-1.366 -3.628,-1.146 -4.32,-2.640005 -1.267,-2.737 1.885,-5.26 5.28,-4.56 z"
   id="path103"
   inkscape:connector-curvature="0"
   style="fill-rule:evenodd" />
<path
   clip-rule="evenodd"
   d="m -268.1972,96.244645 c 0.273,3.01 0.813,8.320005 -0.72,10.320005 -1.696,-0.383 -2.218,-1.942 -3.84,-2.4 -0.539,1.221 -0.003,3.517 -0.96,4.32 -2.684,-1.796 -4.402,-4.558 -6.72,-6.72 1.359,-1.995005 3.826,-1.376 4.8,0.48 0.247,-1.433 0.231,-3.128005 0.96,-4.080005 1.863,0.537 2.617,2.183005 3.6,3.600005 1.055,-1.046 -0.216,-3.086005 0,-4.800005 1.269,0.14 1.874,-1.362 2.88,-0.72 z"
   id="path105"
   inkscape:connector-curvature="0"
   style="fill-rule:evenodd" />
<path
   clip-rule="evenodd"
   d="m -279.4772,105.60465 c -1.356,0.483 -2.832,0.848 -3.84,1.68 0.665,1.668 2.938,0.103 4.08,0 1.853,2.229 -1.143,3.764 -4.08,3.36 -3.882,-1.303 -3.737,-11.124005 2.4,-8.88 0.801,0.959 1.428,2.093 1.44,3.84 z m -3.6,-0.72 c 0.733,0.173 0.875,-0.245 1.44,-0.24 0.092,-1.215 -1.624,-0.69 -1.44,0.24 z"
   id="path107"
   inkscape:connector-curvature="0"
   style="fill-rule:evenodd" />
<path
   clip-rule="evenodd"
   d="m -284.9972,111.36465 c -0.772,0.269 -1.423,0.657 -2.4,0.72 -0.933,-1.467 -1.026,-3.773 -2.4,-4.8 -3.45,0.694 -0.096,3.704 0,5.76 -1.269,0.091 -1.652,1.068 -2.88,1.2 -0.985,-2.775 -2.108,-5.412 -3.12,-8.16 0.688,-0.432 1.607,-0.632 2.16,-1.2 0.563,0.077 0.537,0.743 0.96,0.96 3.752,-4.187 7.357,1.751 7.68,5.52 z"
   id="path109"
   inkscape:connector-curvature="0"
   style="fill-rule:evenodd" />
<path
   clip-rule="evenodd"
   d="m 33.482805,122.64465 c -0.751,0.735 -1.857,-0.21 -2.88,0 -0.077,-0.427 2.282,-0.664 2.88,0 z"
   id="path111"
   inkscape:connector-curvature="0"
   style="fill-rule:evenodd" />
<path
   clip-rule="evenodd"
   d="m 16.442805,123.12465 c 0.736,2.063 0.231,5.369 0.96,7.44 1.479,-0.761 2.469,-2.012 4.08,-2.64 1.685,0.716 2.051,2.75 2.641,4.56 -0.753,1.167 -2.228,1.613 -3.12,2.64 2.454,2.025 5.003,3.957 6.479,6.96 -0.668,1.492 -2.183,2.137 -3.359,3.12 -2.349,-1.092 -3.295,-3.585 -5.521,-4.8 0.126,1.714 0.571,3.109 0.48,5.04 -1.676,0.485 -3.801,0.52 -6,0.48 -0.493,-7.587 -1.445,-14.714 -2.16,-22.08 1.381,-0.699 3.677,-0.483 5.52,-0.72 z"
   id="path113"
   inkscape:connector-curvature="0"
   style="fill-rule:evenodd" />
<path
   clip-rule="evenodd"
   d="m 36.122805,125.52465 c -0.077,1.443 -1.077,1.963 -1.44,3.12 -1.524,-0.353 -3.396,-0.395 -4.08,0.72 0.225,2.595 3.239,1.772 4.8,2.4 2.494,1.003 4.731,5.524 1.92,8.64 -0.721,0.8 -4.112,2.19 -5.76,2.16 -3.897,-0.071 -5.263,-3.03 -2.399,-5.28 1.222,0.284 3.389,1.069 3.84,-0.48 -1.32,-2.143 -4.156,-1.737 -5.76,-3.36 -4.758,-4.815 2.191,-12.195 8.879,-7.92 z"
   id="path115"
   inkscape:connector-curvature="0"
   style="fill-rule:evenodd" />
<path
   clip-rule="evenodd"
   d="m -140.51719,181.68464 c 0.24,1.2 0.565,2.315 0.48,3.84 5.285,-1.013 5.813,3.354 5.28,7.44 -0.721,0 -1.44,0 -2.16,0 -0.764,-1.237 0.057,-4.057 -1.2,-4.8 -1.067,-0.107 -1.271,0.65 -1.92,0.96 -0.156,1.849 0.695,3.523 -0.24,4.8 -0.904,-0.185 -1.147,0.293 -1.92,0.24 -1.262,-3.298 -0.904,-8.216 -1.2,-12.48 0.551,-0.375 2.33,-0.375 2.88,0 z"
   id="path117"
   inkscape:connector-curvature="0"
   style="fill-rule:evenodd" />
<path
   clip-rule="evenodd"
   d="m -117.71719,182.88464 c -0.304,0.736 -0.816,1.263 -1.199,1.92 -1.102,-0.019 -1.547,-0.693 -2.88,-0.479 -0.179,2.178 2.03,1.969 3.119,2.88 2.704,4.598 -4.378,7.808 -6.239,3.84 0.53,-0.189 0.601,-0.84 0.96,-1.2 0.98,-0.101 0.97,0.79 2.16,0.48 1.321,-2.986 -3.549,-2.639 -3.36,-5.761 0.172,-2.859 5.161,-4.244 7.439,-1.68 z"
   id="path119"
   inkscape:connector-curvature="0"
   style="fill-rule:evenodd" />
<path
   clip-rule="evenodd"
   d="m -165.23719,183.12464 c -0.062,0.737 -0.521,1.079 -0.72,1.68 -0.563,-0.076 -0.901,-0.379 -1.681,-0.24 -0.79,0.33 -0.97,1.271 -1.199,2.16 0.019,0.861 1.568,0.191 1.92,0.721 -0.284,0.596 -0.348,1.412 -0.48,2.159 -0.349,0.451 -1.57,0.029 -1.92,0.48 -0.11,1.17 0.251,2.812 -0.24,3.6 -0.562,0.442 -1.527,-0.25 -2.64,0 0.128,-4.672 -0.064,-9.664 2.64,-11.76 1.911,-0.07 3.791,-0.11 4.32,1.2 z"
   id="path121"
   inkscape:connector-curvature="0"
   style="fill-rule:evenodd" />
<path
   clip-rule="evenodd"
   d="m -153.47719,184.80464 c -1.02,1.289 -3.227,0.641 -3.12,-1.2 0.583,-1.704 3.871,-1.624 3.12,1.2 z"
   id="path123"
   inkscape:connector-curvature="0"
   style="fill-rule:evenodd" />
<path
   clip-rule="evenodd"
   d="m -158.03719,184.56464 c -0.422,0.219 -0.439,0.842 -0.72,1.2 -0.88,0.178 -1.334,-0.59 -1.921,0 -0.532,0.428 -0.871,1.049 -0.72,2.16 0.349,0.371 0.937,0.504 1.68,0.48 0,0.8 0,1.6 0,2.399 -0.574,0.146 -1.095,0.346 -1.92,0.24 -0.04,1.4 0.419,2.301 0.24,3.84 -0.773,0.347 -2.013,0.227 -3.12,0.24 -0.059,-3.813 -0.422,-8.95 1.2,-11.76 1.505,-0.919 5.108,-0.708 5.281,1.201 z"
   id="path125"
   inkscape:connector-curvature="0"
   style="fill-rule:evenodd" />
<path
   clip-rule="evenodd"
   d="m -126.35719,184.80464 c 0.027,1.333 0.511,2.209 0.48,3.601 -1.68,0.24 -2.762,1.078 -4.561,1.199 0.367,1.455 2.761,0.945 3.84,0.48 0.263,0.537 0.397,1.202 0.721,1.68 -4.599,6.356 -11.123,-4.198 -6.24,-7.68 1.661,-1.184 4.366,-0.668 5.76,0.72 z m -3.84,2.16 c 0.497,-0.143 1.576,0.297 1.68,-0.24 -0.425,-0.215 -0.306,-0.974 -1.2,-0.72 -0.124,0.355 -0.355,0.604 -0.48,0.96 z"
   id="path127"
   inkscape:connector-curvature="0"
   style="fill-rule:evenodd" />
<path
   clip-rule="evenodd"
   d="m -174.35719,184.56464 c -0.002,3.038 0.116,6.196 -0.479,8.641 -2.538,-0.436 -3.107,-0.002 -6,0 -4.027,-1.066 -4.203,-8.081 -0.48,-9.36 2.544,-0.876 4.153,1.132 6.959,0.719 z m -5.28,1.919 c -1.837,0.059 -2.074,4.127 0.96,3.601 0.649,-1.261 0.427,-3.644 -0.96,-3.601 z"
   id="path129"
   inkscape:connector-curvature="0"
   style="fill-rule:evenodd" />
<path
   clip-rule="evenodd"
   d="m -145.79719,186.96464 c 0.338,2.323 -2.908,1.064 -3.12,2.88 -0.162,1.38 1.501,2.045 3.359,1.2 0.316,0.724 0.775,1.305 0.721,2.4 -0.916,0.844 -2.757,0.764 -4.561,0.72 -5.384,-1.827 -1.177,-11.833 3.601,-7.2 z"
   id="path131"
   inkscape:connector-curvature="0"
   style="fill-rule:evenodd" />
<path
   clip-rule="evenodd"
   d="m -153.47719,186.72464 c -0.097,2.543 0.232,5.513 -0.24,7.681 -1.022,-0.098 -2.472,0.232 -3.119,-0.24 0.535,-2.919 -1.231,-9.373 3.359,-7.441 z"
   id="path133"
   inkscape:connector-curvature="0"
   style="fill-rule:evenodd" />
<path
   clip-rule="evenodd"
   d="m -211.55719,192.72464 c 0.737,1.104 -0.379,2.127 0,3.36 0.479,1.558 1.898,1.562 3.12,2.64 0.985,2.379 0.667,6.445 -2.16,6.48 -0.333,-0.147 -0.036,-0.924 -0.48,-0.96 0.058,-1.343 1.481,-1.146 1.2,-2.88 -0.316,-1.95 -4.343,-2.203 -4.32,-5.521 0.006,-0.917 0.5,-3.37 2.64,-3.119 z"
   id="path135"
   inkscape:connector-curvature="0"
   style="fill-rule:evenodd" />
<path
   clip-rule="evenodd"
   d="m -226.67719,205.92464 c 1.024,0.571 1.053,3.325 -0.24,3.6 -1.015,-0.345 -1.625,-1.095 -1.44,-2.64 0.602,-0.277 0.804,-0.956 1.68,-0.96 z"
   id="path137"
   inkscape:connector-curvature="0"
   style="fill-rule:evenodd" />
<path
   clip-rule="evenodd"
   d="m -234.11719,217.20464 c 5.12,0.268 4.63,9.054 0.96,10.56 -2.59,-3.329 -5.364,-6.476 -7.68,-10.08 0.49,-3.262 6.908,-6.492 6.72,-0.48 z m -4.56,0.48 c 0.088,0.712 0.416,1.185 0.96,1.44 0.402,-0.486 1.651,-1.834 0.48,-2.4 -0.361,0.438 -1.036,0.564 -1.44,0.96 z m 2.88,3.84 c 0.533,1.067 1.003,2.197 2.16,2.641 0.726,-0.885 0.913,-2.278 0.24,-3.36 -1.095,-0.056 -1.676,0.403 -2.4,0.719 z"
   id="path139"
   inkscape:connector-curvature="0"
   style="fill-rule:evenodd" />
<path
   clip-rule="evenodd"
   d="m -244.19719,218.64464 c -5.739,-0.488 1.899,-6.422 0,0 l 0,0 z"
   id="path141"
   inkscape:connector-curvature="0"
   style="fill-rule:evenodd" />
<path
   clip-rule="evenodd"
   d="m -99.957195,218.88464 c -0.016,1.104 -0.682995,1.558 -0.959995,2.4 -1.346,0.049 -2.728,-1.096 -3.36,0.239 0.308,1.692 2.468,1.532 3.84,2.16 4.037995,3.965 -2.443,9.902 -6.24,6 0.211,-0.669 0.575,-1.186 0.721,-1.92 0.748,-0.43 2.646,1.047 3.12,-0.479 -0.835,-2.979 -4.635,-2.043 -5.04,-5.04 -0.521,-3.844 4.862,-6.042 7.918995,-3.36 z"
   id="path143"
   inkscape:connector-curvature="0"
   style="fill-rule:evenodd" />
<path
   clip-rule="evenodd"
   d="m -127.79719,217.92464 c 0.201,0.599 0.313,1.286 0.239,2.16 0.635,-0.485 2.204,-0.036 2.88,-0.48 0.405,0.955 0.188,2.532 0.24,3.841 -1.018,0.182 -2.102,0.298 -3.12,0.479 -0.208,3.488 0.429,6.132 0.721,9.12 -1.174,0.106 -2.066,0.494 -3.36,0.479 -0.289,-5.15 -1.435,-9.444 -1.2,-15.119 0.883,-0.478 2.647,-0.073 3.6,-0.48 z"
   id="path145"
   inkscape:connector-curvature="0"
   style="fill-rule:evenodd" />
<path
   clip-rule="evenodd"
   d="m -241.79719,219.36464 c 2.755,2.044 4.304,5.296 6.72,7.68 -0.381,0.819 -0.802,1.599 -1.68,1.92 -2.537,-2.023 -4.118,-5.002 -6.24,-7.44 -0.083,-1.204 1.062,-1.178 1.2,-2.16 z"
   id="path147"
   inkscape:connector-curvature="0"
   style="fill-rule:evenodd" />
<path
   clip-rule="evenodd"
   d="m -111.95719,220.32464 c 0.846,0.029 0.065,0.349 0.479,0.96 0.817,-0.223 1.408,-0.673 2.641,-0.48 -0.048,0.928 -0.009,1.769 0.239,2.4 -3.286,0.479 -2.61,4.22 -1.92,7.2 -0.594,0.445 -1.832,0.247 -2.399,0.72 -1.721,-2.279 -1.581,-6.42 -1.92,-10.08 0.879,-0.32 1.832,-0.567 2.88,-0.72 z"
   id="path149"
   inkscape:connector-curvature="0"
   style="fill-rule:evenodd" />
<path
   clip-rule="evenodd"
   d="m -160.19719,221.28464 c 2.489,-1.769 6.059,-0.107 6.72,2.16 1.132,5.515 -2.906,9.395 -6.96,6.72 0.165,2.085 -0.234,3.604 -0.24,5.52 -0.88,0 -1.76,0 -2.64,0 -0.354,-4.563 -0.394,-10.323 0,-14.88 1.153,0.439 3.031,-1.165 3.12,0.48 z m 3.36,6.24 c 0.688,-1.163 0.484,-2.878 -0.24,-3.84 -2.79,-0.719 -2.617,4.78 0.24,3.84 z"
   id="path151"
   inkscape:connector-curvature="0"
   style="fill-rule:evenodd" />
<path
   clip-rule="evenodd"
   d="m -133.79719,221.28464 c 0.124,1.244 -0.753,1.487 -0.96,2.399 -0.746,-0.447 -2.707,-0.406 -2.641,0.721 2.022,1.288 4.813,1.464 5.28,3.84 0.876,4.465 -5.047,6.076 -8.16,3.359 0.03,-1.009 0.93,-1.15 0.96,-2.159 1.103,0.429 2.742,1.196 3.6,0 -0.935,-2.947 -6.695,-1.206 -5.52,-6.24 0.509,-2.175 4.72,-3.586 7.441,-1.92 z"
   id="path153"
   inkscape:connector-curvature="0"
   style="fill-rule:evenodd" />
<path
   clip-rule="evenodd"
   d="m -115.55719,225.84464 c -1.643,0.356 -2.859,1.141 -4.8,1.2 0.187,1.898 2.81,1.043 4.08,0.72 0.162,0.638 0.378,1.223 0.72,1.681 -1.175,1.995 -4.751,2.447 -6.479,1.199 -4.826,-3.481 0.265,-14.077 5.76,-8.64 0.379,1.14 0.497,2.542 0.719,3.84 z m -4.56,-1.44 c 0.56,0 1.12,0 1.68,0 0.089,-1.223 -1.768,-1.223 -1.68,0 z"
   id="path155"
   inkscape:connector-curvature="0"
   style="fill-rule:evenodd" />
<path
   clip-rule="evenodd"
   d="m -147.71719,221.52464 c 7.966,-0.589 7.359,12.485 -0.72,11.04 -4.741,-0.848 -7.292,-10.448 0.72,-11.04 z m -1.68,4.32 c -0.318,2.398 0.722,3.438 3.12,3.12 0.844,-0.602 1.307,-2.3 0.72,-3.6 -1.157,-1.116 -2.952,-0.504 -3.84,0.48 z"
   id="path157"
   inkscape:connector-curvature="0"
   style="fill-rule:evenodd" />
<path
   clip-rule="evenodd"
   d="m -237.95719,231.12464 c -0.342,0.938 -0.982,1.577 -1.92,1.92 -1.078,-0.202 -1.348,-1.212 -1.92,-1.92 -0.876,0.163 -1.17,0.909 -1.92,1.2 0.511,1.089 1.232,1.968 1.68,3.12 -0.263,0.856 -0.823,1.417 -1.68,1.68 -2.067,-3.134 -4.17,-6.23 -6.48,-9.12 0.213,-1.227 0.857,-2.023 1.92,-2.4 0.506,1.015 1.174,1.866 1.68,2.88 0.788,-0.092 1.058,-0.701 1.68,-0.96 -1.732,-1.566 -2.971,-5.402 0.48,-6 1.838,3.522 4.299,6.421 6.48,9.6 z"
   id="path159"
   inkscape:connector-curvature="0"
   style="fill-rule:evenodd" />
<path
   clip-rule="evenodd"
   d="m -251.87719,225.36464 c 1.782,1.93 1.032,4.625 1.92,6.72 1.143,2.695 4.62,3.263 6,5.52 -0.207,1.154 -1.457,1.263 -1.92,2.16 -1.331,-0.35 -2.289,-1.071 -3.36,-1.68 0.629,2.208 0.606,5.263 -1.44,5.04 -0.502,-2.138 -0.536,-4.744 -0.96,-6.96 -1.482,-1.318 -3.31701,-2.283 -4.80001,-3.601 0.073,-1.367 0.95,-1.93 1.44,-2.88 0.74501,0.375 1.52801,0.712 2.16001,1.2 -0.403,-2.453 -0.715,-4.296 0.96,-5.519 z"
   id="path161"
   inkscape:connector-curvature="0"
   style="fill-rule:evenodd" />
<path
   clip-rule="evenodd"
   d="m -259.0772,230.16464 c 3.952,1.403 -0.381,4.933 0.72,7.2 1.061,-0.779 1.261,-2.42 2.4,-3.12 3.64601,1.54 0.568,4.905 1.2,7.2 0.50901,-0.691 1.20701,-1.193 1.44001,-2.16 1.214,0.626 1.188,2.491 1.92,3.6 -0.749,1.571 -2.227,2.413 -3.36001,3.6 -2.975,-2.784 -4.636,-6.884 -7.44,-9.84 0.769,-2.431 2.484,-3.915 3.12,-6.48 z"
   id="path163"
   inkscape:connector-curvature="0"
   style="fill-rule:evenodd" />
<path
   clip-rule="evenodd"
   d="m -212.51719,240.24464 c 0.194,2.193 -1.588,2.412 -2.4,3.6 0.609,3.749 4.768,1.664 7.2,3.36 1.092,0.761 2.347,3.003 2.4,4.56 0.114,3.363 -3.986,8.589 -6.96,4.561 0.034,-1.166 0.378,-2.021 0.72,-2.88 0.772,-0.053 1.015,0.424 1.92,0.239 2.071,-3.912 -2.73,-2.964 -5.28,-4.08 -4.422,-1.936 -6.027,-11.718 2.4,-9.36 z"
   id="path165"
   inkscape:connector-curvature="0"
   style="fill-rule:evenodd" />
<path
   clip-rule="evenodd"
   d="m -224.51719,247.20464 c 5.757,-1.307 11.02,6.19 11.76,11.52 0.793,5.71 -3.23,5.878 -6.24,3.36 -3.33,-2.787 -7.095,-8.866 -5.52,-14.88 z m 5.28,8.4 c 0.878,1.33 2.077,3.375 3.12,3.12 -0.927,-3.473 -2.905,-5.895 -5.52,-7.68 0.334,1.512 1.461,3.139 2.4,4.56 z"
   id="path167"
   inkscape:connector-curvature="0"
   style="fill-rule:evenodd" />
<path
   clip-rule="evenodd"
   d="m -225.95719,263.28464 c 1.186,2.095 2.388,4.172 3.6,6.239 -0.596,1.404 -1.311,2.689 -2.88,3.12 -2.162,-3.906 -4.007,-7.769 -6.24,-12.479 -0.637,-1.345 -1.976,-3.081 -1.92,-4.08 0.124,-2.219 3.625,-4.576 5.04,-4.561 4.468,0.053 6.086,9.103 2.4,11.761 z m -3.6,-6.24 c 0.637,0.482 0.582,1.658 1.44,1.92 0.521,-0.572 0.633,-1.82 0.24,-2.64 -0.854,-0.053 -1.438,0.161 -1.68,0.72 z"
   id="path169"
   inkscape:connector-curvature="0"
   style="fill-rule:evenodd" />
<path
   clip-rule="evenodd"
   d="m -226.43719,273.36464 c -0.458,1.382 -1.748,1.932 -2.64,2.88 -1.363,0.003 -1.42,-1.301 -2.4,-1.681 0.028,1.732 0.397,3.123 0.24,5.04 -1.223,-0.022 -1.897,0.503 -3.12,0.48 -1.182,-2.898 -1.726,-6.435 -1.92,-10.32 -1.59,-2.01 -3.681,-3.519 -5.28,-5.52 0.467,-1.214 1.534,-1.826 2.4,-2.641 1.276,0.404 1.465,1.895 2.64,2.4 0.117,-1.637 -0.331,-2.709 -0.48,-4.08 0.402,-0.878 1.483,-1.076 2.16,-1.68 0.388,-0.067 0.414,0.227 0.72,0.239 1.055,2.875 0.278,5.694 1.2,7.921 1.252,3.026 5.454,3.937 6.48,6.962 z"
   id="path171"
   inkscape:connector-curvature="0"
   style="fill-rule:evenodd" />
<path
   clip-rule="evenodd"
   d="m -241.31719,267.36464 c -0.985,1.599 -3.775,2.49 -2.4,5.04 0.882,-0.078 1.328,-0.593 2.16,-0.721 0.776,0.904 1.047,2.313 1.68,3.36 -0.179,0.941 -0.949,1.291 -1.68,1.68 0.469,0.731 0.668,1.731 1.2,2.4 1.292,-0.628 2.534,-1.307 3.36,-2.4 4.259,3.34 -0.065,7.264 -3.12,8.88 -3.599,-4.801 -5.986,-10.814 -8.64,-16.56 1.577,-1.943 3.41,-3.63 5.04,-5.521 1.3,0.782 1.753,2.409 2.4,3.842 z"
   id="path173"
   inkscape:connector-curvature="0"
   style="fill-rule:evenodd" />
<path
   clip-rule="evenodd"
   d="m -442.1972,282.00464 c -0.28,1.16 -1.76,1.119 -2.16,2.16 0.343,1.098 0.977,1.903 1.2,3.12 -2.968,2.862 -3.767,-2.968 -4.8,-5.04 1.861,-0.217 4.914,-3.037 5.76,-0.24 z"
   id="path175"
   inkscape:connector-curvature="0"
   style="fill-rule:evenodd" />
<path
   clip-rule="evenodd"
   d="m -449.6372,283.44464 c 1.265,1.614 2.059,3.701 3.12,5.52 -2.425,3.674 -7.63299,2.224 -8.15999,-2.16 0.534,-0.586 1.17,-1.069 2.15999,-1.2 0.638,0.962 0.643,2.558 1.92,2.88 0.611,-1.099 -0.851,-2.183 -0.96,-3.359 0.242,-0.959 1.439,-0.962 1.92,-1.681 z"
   id="path177"
   inkscape:connector-curvature="0"
   style="fill-rule:evenodd" />
<path
   clip-rule="evenodd"
   d="m -429.9572,295.44464 c -0.674,0.285 -1.38,0.54 -2.16,0.72 -1.725,-3.155 -2.048,-7.712 -3.84,-10.8 0.493,-0.566 1.644,-1.419 2.4,-0.96 1.506,3.374 2.452,7.308 3.6,11.04 z"
   id="path179"
   inkscape:connector-curvature="0"
   style="fill-rule:evenodd" />
<path
   clip-rule="evenodd"
   d="m -463.31719,288.24464 c -4.168,1.796 2.662,5.42 3.6,7.68 -0.158,0.883 -0.885,1.195 -1.44,1.68 -1.181,-0.693 -2.684,-2.414 -4.32,-4.319 -1.699,-1.979 -5.249,-4.957 -2.16,-6.48 1.887,0.958 3.465,-1.565 4.32,1.439 z"
   id="path181"
   inkscape:connector-curvature="0"
   style="fill-rule:evenodd" />
<path
   clip-rule="evenodd"
   d="m -437.6372,288.24464 c 0.478,2.223 -1.746,2.586 -2.4,1.2 -0.277,-1.667 1.511,-2.046 2.4,-1.2 z"
   id="path183"
   inkscape:connector-curvature="0"
   style="fill-rule:evenodd" />
<path
   clip-rule="evenodd"
   d="m -458.75719,288.24464 c 5.242,-1.827 5.962,7.225 0.96,6.96 -3.483,-0.184 -4.39,-5.764 -0.96,-6.96 z m 0.24,3.6 c 0.309,0.411 0.496,0.944 1.2,0.96 0.651,-0.422 0.697,-2.023 -0.24,-2.16 -0.241,0.479 -1.061,0.379 -0.96,1.2 z"
   id="path185"
   inkscape:connector-curvature="0"
   style="fill-rule:evenodd" />
<path
   clip-rule="evenodd"
   d="m -436.1972,292.32464 c 0.332,1.988 1.664,2.977 1.68,5.279 -0.926,0.034 -1.109,0.812 -2.16,0.721 -0.57,-1.91 -1.637,-3.323 -1.92,-5.521 1.027,0.068 1.187,-0.733 2.4,-0.479 z"
   id="path187"
   inkscape:connector-curvature="0"
   style="fill-rule:evenodd" />
<path
   clip-rule="evenodd"
   d="m -441.2372,298.08464 c 1.259,-0.258 2.144,-0.278 3.12,0.24 -2.835,8.602 -12.574,-7.316 -3.6,-5.761 1.31,0.228 2.58,4.088 0.48,5.521 z m -1.2,-1.68 c 0.916,-0.216 0.527,-1.946 -0.72,-1.44 -0.01,0.729 -0.14,1.58 0.72,1.44 z"
   id="path189"
   inkscape:connector-curvature="0"
   style="fill-rule:evenodd" />
<path
   clip-rule="evenodd"
   d="m -466.19719,299.28464 c 1.537,0.565 2.243,-1.078 3.6,0.239 -0.809,3.967 -7.747,2.037 -8.4,-0.96 -0.79,-3.621 3.604,-5.537 5.28,-1.439 0.074,0.954 -0.554,1.205 -0.48,2.16 z m -2.64,-1.92 c -0.01,0.33 0.113,0.526 0.24,0.72 0.632,0.072 0.788,-0.332 0.72,-0.96 -0.418,-0.018 -0.746,0.054 -0.96,0.24 z"
   id="path191"
   inkscape:connector-curvature="0"
   style="fill-rule:evenodd" />
<path
   clip-rule="evenodd"
   d="m -473.87719,300.24464 c 1.547,0.692 3.983,0.497 5.28,1.439 0.129,1.089 -0.482,1.438 -0.72,2.16 -1.837,-0.403 -3.568,-0.912 -5.76,-0.96 0.789,1.61 2.352,2.448 3.36,3.84 -0.106,0.854 -0.869,1.052 -1.2,1.681 -3.09,-1.558 -5.674,-5.681 -8.64,-8.16 -0.675,-5.136 9.117,-7.264 7.68,0 z m -4.8,-0.72 c 0.629,0.332 0.826,1.095 1.68,1.2 0.491,-0.628 0.836,-1.403 0.72,-2.64 -1.122,-0.52 -2.091,0.432 -2.4,1.44 z"
   id="path193"
   inkscape:connector-curvature="0"
   style="fill-rule:evenodd" />
<path
   clip-rule="evenodd"
   d="m -444.8372,301.92464 c -3.031,1.49 -6.688,1.482 -7.68,-1.68 -0.158,-0.503 -0.077,-1.433 0,-1.92 2.225,-1.761 2.176,1.873 3.84,2.159 0.772,-1.26 -0.931,-2.103 -0.72,-3.6 2.673,-2.027 4.189,3.289 4.56,5.041 z"
   id="path195"
   inkscape:connector-curvature="0"
   style="fill-rule:evenodd" />
<path
   clip-rule="evenodd"
   d="m -453.95719,301.44464 c -0.039,1.081 -1.359,0.881 -1.44,1.92 -0.103,0.982 0.507,1.253 0.96,1.68 1.139,0.099 1.261,-0.819 2.39999,-0.72 0.316,0.724 0.775,1.305 0.72,2.399 -2.87499,1.748 -6.64599,0.188 -6.95999,-2.64 -0.272,-2.448 2.965,-6.154 4.32,-2.639 z"
   id="path197"
   inkscape:connector-curvature="0"
   style="fill-rule:evenodd" />
<path
   clip-rule="evenodd"
   d="m -458.75719,308.40464 c 1.284,0.244 1.194,-0.886 2.4,-0.721 0.206,0.755 0.907,1.013 0.96,1.92 -1.152,0.867 -2.012,1.557 -3.36,1.44 -4.402,-0.381 -4.241,-9.175 -0.72,-5.28 -0.358,1.107 -0.255,2.262 0.72,2.641 z"
   id="path199"
   inkscape:connector-curvature="0"
   style="fill-rule:evenodd" />
<path
   clip-rule="evenodd"
   d="m -89.157195,307.92464 c 1.189,0.73 0.628,3.212 1.2,4.56 0.568,0.475 0.953,-1.275 1.92,-1.199 0.664,0.376 1.334,0.745 2.16,0.96 0.045,1.619 -2.361,1.393 -2.4,2.399 -0.047,1.204 2.854,1.62 3.6,3.12 -1.05,2.333 -3.261,0.297 -4.56,-0.479 -0.326,0.265 0.234,1.672 0.24,2.399 -0.957,0.164 -1.633,0.607 -2.88,0.48 -0.771,-3.629 -1.269,-7.532 -1.92,-11.28 0.751,-0.449 1.909,-0.491 2.64,-0.96 z"
   id="path201"
   inkscape:connector-curvature="0"
   style="fill-rule:evenodd" />
<path
   clip-rule="evenodd"
   d="m -459.71719,311.76464 c 0.167,1.399 -1.06,1.325 -1.92,2.16 -0.745,0.724 -1.067,1.907 -1.92,2.16 -3.116,0.923 -5.506,-2.01 -5.28,-4.32 0.153,-1.562 1.756,-3.509 2.88,-3.6 2.164,-0.176 3.78,3.525 6.24,3.6 z m -4.8,1.92 c 0.653,-1.366 -0.818,-2.057 -1.68,-2.64 -0.767,1.338 0.526,2.447 1.68,2.64 z"
   id="path203"
   inkscape:connector-curvature="0"
   style="fill-rule:evenodd" />
<path
   clip-rule="evenodd"
   d="m -108.35719,308.16464 c 1.13,4.391 1.963,9.077 2.4,14.16 -1.208,-0.168 -1.673,0.407 -2.88,0.239 -1.062,-4.537 -2.196,-9.004 -2.641,-14.159 1.059,-0.062 1.857,-0.383 3.121,-0.24 z"
   id="path205"
   inkscape:connector-curvature="0"
   style="fill-rule:evenodd" />
<path
   clip-rule="evenodd"
   d="m -78.837195,314.64464 c 0.461,1.376 2.118,0.39 2.88,0 2.479,1.57 -0.443,4.479 -3.84,3.601 -1.63,-0.422 -4.773,-5.789 -2.881,-8.4 3.024,-4.171 10.19,1.78 3.841,4.799 z m -1.44,-1.92 c 0.733,0.174 0.875,-0.245 1.44,-0.24 -0.003,-0.637 0.09,-1.37 -0.24,-1.68 -1.354,-0.362 -1.789,1.096 -1.2,1.92 z"
   id="path207"
   inkscape:connector-curvature="0"
   style="fill-rule:evenodd" />
<path
   clip-rule="evenodd"
   d="m -100.19719,308.40464 c 1.319995,3.719 1.656995,8.422 2.639995,12.479 -0.823,0.536 -2.263,0.457 -3.358995,0.72 -0.999,-3.961 -1.383,-8.537 -1.92,-12.96 0.989,0.031 1.501,-0.416 2.639,-0.239 z"
   id="path209"
   inkscape:connector-curvature="0"
   style="fill-rule:evenodd" />
<path
   clip-rule="evenodd"
   d="m -93.957195,311.04464 c -0.827,0.7 -1.456,1.072 -2.4,0.72 -3.428,-1.281 3.056,-6.439 2.4,-0.72 z"
   id="path211"
   inkscape:connector-curvature="0"
   style="fill-rule:evenodd" />
<path
   clip-rule="evenodd"
   d="m -93.717195,312.48364 c 0.456,2.425 0.673,5.088 1.2,7.44 -0.798,0.402 -1.966,0.435 -2.88,0.72 -0.617,-2.263 -0.668,-5.091 -1.439,-7.199 0.362,-0.998 2.114,-0.605 3.119,-0.961 z"
   id="path213"
   inkscape:connector-curvature="0"
   style="fill-rule:evenodd" />
<path
   clip-rule="evenodd"
   d="m -229.07719,215.28464 c 1.13,1.83 2.293,3.626 3.6,5.279 -0.651,0.709 -1.11,1.61 -2.16,1.92 -1.57,-2.59 -3.299,-5.021 -4.8,-7.68 0.158,-0.882 0.885,-1.195 1.44,-1.68 0.976,-0.096 0.738,1.021 1.44,1.2 -0.958,-1.521 -1.888,-3.072 -3.12,-4.32 0.016,0.655 2.023,3.067 0,3.84 -1.363,0.112 -2.223,-1.835 -1.2,-2.64 -0.744,-1.017 -1.462,-2.058 -1.92,-3.36 1.684,-1.356 3.6,-2.48 5.28,-3.84 0.901,0.539 0.908,1.972 1.68,2.64 0.043,0.843 -0.811,0.79 -0.96,1.44 0.158,1.686 4.437,4.461 4.08,6.72 -0.166,1.052 -2.357,2.568 -3.36,0.481 z"
   id="path215"
   inkscape:connector-curvature="0"
   style="fill-rule:evenodd" />
<path
   clip-rule="evenodd"
   d="m 61.902685,1.761517 c 0.45334,0.848395 0.0453,1.697715 0,2.664533 -0.68464,0.350646 -1.52286,0.550486 -2.21952,0.888178 -0.012,1.614448 1.92253,-0.03423 1.77635,1.776356 -4.64628,4.132802 -4.60279,-8.394206 0.44317,-5.329067 z"
   id="path217"
   inkscape:connector-curvature="0"
   style="fill:#ffffff;fill-rule:evenodd" />
<path
   clip-rule="evenodd"
   d="m 48.269745,2.004141 c 0.0796,1.115773 -0.0583,2.013203 -0.44316,2.664534 -0.84655,0.264603 -1.92716,0.294209 -2.66454,0.666133 -0.003,1.253626 2.10573,0.309937 2.44249,0.666133 0.3673,2.107572 -1.63943,2.389754 -3.10862,1.998401 -2.43971,-2.599771 0.61895,-8.99002596 3.77383,-5.995201 z"
   id="path219"
   inkscape:connector-curvature="0"
   style="fill:#ffffff;fill-rule:evenodd" />
<path
   clip-rule="evenodd"
   d="m -3.4771947,141.36465 c 1.442,9.125 -13.1410003,13.917 -14.6400003,2.88 0.387,8.867 -6.882,10.078 -14.64,10.8 -2.15,-8.01 -3.789,-16.532 -4.561,-25.92 2.049,-0.591 3.934,-1.347 6.48,-1.44 0.731,3.269 1.017,6.983 1.68,10.32 5.113,0.167 9.699,0.86 10.56,5.28 -1.761,-10.32 13.2580003,-11.93 14.4000003,-3.12 -2.229,-12.23 14.5419997,-12.027 15.8399997,-3.36 0.615,4.108 -2.1739997,9.752 -6.2399997,10.56 -4.51800004,0.898 -8.451,-2.021 -8.879,-6 z m 4.8,-3.36 c -0.084,2.004 -0.099,3.938 1.2,4.56 3.365,0.376 4.549,-3.346 3.36,-6 -1.898,-0.807 -3.806,0.316 -4.56,1.44 z m -12.4800003,7.44 c 3.4540003,-0.043 2.9540003,-7.287 -1.2,-5.76 -2.794,1.027 -1.314,5.791 1.2,5.76 z m -16.56,3.6 c 5.42,0.41 4.127,-5.904 -0.479,-5.52 0.024,1.974 0.533,3.465 0.479,5.52 z"
   id="path221"
   inkscape:connector-curvature="0"
   style="fill-rule:evenodd" />
<path
   clip-rule="evenodd"
   d="m -218.51719,206.16464 c -0.321,-1.682 -2.096,-3.982 -2.88,-6 0.29,-0.91 1.225,-1.175 1.68,-1.92 1.755,0.405 2.498,1.822 3.84,2.64 -0.006,-0.958 -1.148,-2.849 -1.68,-4.08 0.316,-1.123 1.337,-1.543 2.4,-1.92 1.176,4.344 3.595,7.444 4.56,12 -1.865,1.054 -3.393,-0.435 -4.8,-1.2 -0.15,0.877 0.99,2.525 1.44,3.601 -0.206,0.914 -0.94,1.299 -1.92,1.439 -0.306,-1.374 -1.202,-2.158 -1.68,-3.359 1.5,3.555 -2.283,9.733 -5.28,5.279 0.306,1.374 1.202,2.158 1.68,3.36 -0.393,0.888 -1.285,1.275 -2.4,1.44 -1.014,-2.586 -2.346,-4.854 -3.36,-7.44 0.982,-0.138 1.135,-1.105 2.16,-1.2 0.264,0.776 0.648,1.433 0.96,2.16 -1.452,-4.213 3.057,-9.835 5.28,-4.8 z m -2.64,0.72 c -1.256,0.755 -1.31,4.454 1.2,4.08 1.107,-1.197 0.694,-3.918 -1.2,-4.08 z"
   id="path223"
   inkscape:connector-curvature="0"
   style="fill-rule:evenodd" />
</svg>