<?xml version="1.0" encoding="utf-8"?>
<!-- Generator: Adobe Illustrator 13.0.0, SVG Export Plug-In . SVG Version: 6.00 Build 14948)  -->
<!DOCTYPE svg PUBLIC "-//W3C//DTD SVG 1.1//EN" "http://www.w3.org/Graphics/SVG/1.1/DTD/svg11.dtd">
<svg version="1.1" id="Calque_1" xmlns="http://www.w3.org/2000/svg" xmlns:xlink="http://www.w3.org/1999/xlink" x="0px" y="0px"
	 width="46.457px" height="18.225px" viewBox="0 0 46.457 18.225" enable-background="new 0 0 46.457 18.225" xml:space="preserve">
<g>
	<path fill-rule="evenodd" clip-rule="evenodd" fill="#FFFFFF" d="M42.268,5.118c-0.08,2.072,2.159,1.328,3.585,1.459
		c-0.024,0.666,0.813,0.836,0.555,1.639c-4.183,3.891-8.948-2.043-6.702-6.517c1.328-2.646,8.093-2.302,6.491,1.739
		C45.739,4.588,43.958,4.894,42.268,5.118z M42.301,3.139c0.326,0.57,0.998,0.007,1.686,0.203c0.131-0.664-0.14-1.096-0.911-1.237
		C42.856,2.52,42.419,2.553,42.301,3.139z"/>
	<path fill-rule="evenodd" clip-rule="evenodd" fill="#FFFFFF" d="M37.618,1.139c-0.104,0.387-0.207,0.772-0.311,1.159
		c-0.634,0.599-2-0.07-2.458,0.832c1.103,2.042,5.187,2.361,3.039,6.28c-1.392,1.212-3.278,1.564-5.552,1.245
		c0.19-0.763-0.422-1.062,0.034-1.979c0.855,0.706,1.969,0.098,2.628-0.538c0.183-2.195-3.195-2.335-3.597-4.193
		C31.767,0.258,35.002-0.193,37.618,1.139z"/>
	<path fill-rule="evenodd" clip-rule="evenodd" fill="#FFFFFF" d="M30.043,1.594c0.294,0.549-0.242,1.576-0.39,2.38
		c-1.068-0.38-1.995-0.515-2.165,0.663c1.668,1.593,4.031,2.848,2.993,5.521c-0.72,1.855-2.634,2.31-5.551,1.246
		c0.166-0.618,0.331-1.236,0.497-1.854c1.089,0.302,1.923,0.161,2.567-0.308c-0.573-2.109-3.784-2.052-3.829-4.255
		C24.103,2.032,27.024,0.966,30.043,1.594z"/>
	<path fill-rule="evenodd" clip-rule="evenodd" fill="#FFFFFF" d="M23.018,7.415c-1.602-0.172-2.794,0.365-4.314,0.335
		c-0.208,2.036,2.776,1.471,4.111,1.349c0.178,0.42,0.034,1.025,0.385,1.347c-4.738,4.742-9.257-3.611-5.294-7.134
		C19.85,1.583,25.414,3.161,23.018,7.415z M19.726,5.788c0.723,0.232,1.397,0.382,1.747-0.03c-0.528-0.218-0.215-0.919-0.972-1.005
		C20.283,5.167,19.845,5.201,19.726,5.788z"/>
	<path fill-rule="evenodd" clip-rule="evenodd" fill="#FFFFFF" d="M15.893,5.256c-3.599-0.201-3.538,3.694-2.96,6.412
		C11.674,11.3,11.16,12.22,9.902,11.85C9.78,8.982,9.624,6.132,9.464,3.286c0.753-0.166,1.661-0.064,2.335-0.369
		c0.59,0.183,0.088,0.995,0.679,1.177C13.52,2.633,16.49,2.606,15.893,5.256z"/>
	<path fill-rule="evenodd" clip-rule="evenodd" fill="#FFFFFF" d="M4.164,13.792c0.095,1.121,0.329,2.162,0.352,3.324
		c-0.753,0.958-2.069,0.942-3.279,1.109C1.3,13.617,0.66,9.414,0,5.222c2.587-0.385,6.683-2.627,8.549,0.552
		C10.356,8.852,7.545,13.487,4.164,13.792z M3.354,6.618c0.176,1.27-0.179,2.846,0.753,3.68C6.098,9.844,6.255,6.062,3.354,6.618z"
		/>
</g>
</svg>
