<?xml version="1.0" encoding="UTF-8" standalone="no"?>
<!-- Generator: Adobe Illustrator 13.0.0, SVG Export Plug-In . SVG Version: 6.00 Build 14948)  -->

<svg
   xmlns:dc="http://purl.org/dc/elements/1.1/"
   xmlns:cc="http://creativecommons.org/ns#"
   xmlns:rdf="http://www.w3.org/1999/02/22-rdf-syntax-ns#"
   xmlns:svg="http://www.w3.org/2000/svg"
   xmlns="http://www.w3.org/2000/svg"
   xmlns:sodipodi="http://sodipodi.sourceforge.net/DTD/sodipodi-0.dtd"
   xmlns:inkscape="http://www.inkscape.org/namespaces/inkscape"
   version="1.1"
   id="Calque_1"
   x="0px"
   y="0px"
   width="51.633415"
   height="35.48373"
   viewBox="0 0 51.633417 35.483728"
   enable-background="new 0 0 73.754 32.691"
   xml:space="preserve"
   inkscape:version="0.48.2 r9819"
   sodipodi:docname="retour-accueil.svg"><metadata
   id="metadata25"><rdf:RDF><cc:Work
       rdf:about=""><dc:format>image/svg+xml</dc:format><dc:type
         rdf:resource="http://purl.org/dc/dcmitype/StillImage" /><dc:title></dc:title></cc:Work></rdf:RDF></metadata><defs
   id="defs23" /><sodipodi:namedview
   pagecolor="#ffffff"
   bordercolor="#666666"
   borderopacity="1"
   objecttolerance="10"
   gridtolerance="10"
   guidetolerance="10"
   inkscape:pageopacity="0"
   inkscape:pageshadow="2"
   inkscape:window-width="1163"
   inkscape:window-height="735"
   id="namedview21"
   showgrid="false"
   inkscape:zoom="1.6873769"
   inkscape:cx="100.7736"
   inkscape:cy="52.409878"
   inkscape:window-x="214"
   inkscape:window-y="0"
   inkscape:window-maximized="0"
   inkscape:current-layer="g3"
   fit-margin-top="0"
   fit-margin-left="0"
   fit-margin-right="0"
   fit-margin-bottom="0" />
<g
   id="g3"
   style="fill:#999999"
   transform="translate(122.48455,4.6327034)">
	<path
   d="m 180.95219,-2.6009706 c -2.295,0.7080001 -3.206,-0.278 0,0 l 0,0 z"
   id="path5"
   style="fill:#000000"
   inkscape:connector-curvature="0" />
	
	<path
   d="m 126.5626,1.5704442 c 3.644,4.85 -5.009,7.0539999 -5.28,2.64 -0.15,-2.452 2.838,-3.68199997 5.28,-2.64 z"
   id="path9"
   style="fill:#000000"
   inkscape:connector-curvature="0" />
	<path
   d="m 116.0026,2.0504442 c 1.571,3.902 1.708,8.4499998 2.4,12.9599998 0.663,4.323 1.54,8.858 1.68,13.44 -1.574,0.587 -3.668,0.648 -5.521,0.96 -1.851,-8.228 -3.987,-16.172 -4.319,-25.9199998 1.739,-0.661 3.723,-1.078 5.76,-1.44 z"
   id="path11"
   style="fill:#000000"
   inkscape:connector-curvature="0" />
	<path
   d="m 170.4826,11.410444 c -2.689,0.59 -4.909,1.646 -8.159,1.68 -0.203,2.409 3.875,2.993 5.278,0.96 0.508,1.174 2.104,1.254 2.4,2.645 -2.523,3.76 -9.189,3.093 -11.279,0.235 -1.465,-1.993 -1.5,-5.358 -1.201,-7.6799997 1.207,-9.34500007 15.157,-10.0240001 12.961,2.1599997 z m -7.92,-2.1599997 c 1.859,0.101 3.021,-0.4990002 4.32,-0.9600002 -0.525,-2.9359999 -4.427,-1.8619999 -4.32,0.9600002 z"
   id="path13"
   style="fill:#000000"
   inkscape:connector-curvature="0" />
	<path
   d="m 155.6016,3.0104442 c 0.746,1.176 1.437,2.405 1.92,3.84 -2.59,0.845 -5.397,1.6109999 -6,4.0799998 -0.725,2.979 1.812,6.592 1.683,9.84 -1.67,0.49 -3.729,0.597 -5.521,0.96 -1.045,-5.515 -1.804,-11.313 -2.64,-17.0409998 1.36,-0.396 2.812,-0.708 4.319,-0.96 0.84,0.201 0.565,1.518 0.961,2.16 1.933,-0.785 2.237,-3.201 5.278,-2.879 z"
   id="path15"
   style="fill:#000000"
   inkscape:connector-curvature="0" />
	<path
   d="m 143.8426,7.0904442 c -0.082,5.2849998 -1.847,10.9479998 -2.88,16.0799998 -1.364,0.396 -3.004,0.517 -4.56,0.72 -2.665,-4.535 -5.75,-8.646 -7.2,-14.3959997 1.334,-0.43 2.755,-0.7700002 4.08,-1.2000002 1.589,2.1699999 2.88,4.6399999 3.84,7.4379999 1.167,-2.593 1.471,-6.0499997 2.64,-8.6409998 1.579,0.305 3.012,-0.57 4.08,-10e-4 z"
   id="path17"
   style="fill:#000000"
   inkscape:connector-curvature="0" />
	<path
   d="m 128.0026,25.570444 c -1.312,0.595 -3.375,0.065 -4.8,0 -1.31,-3.894 -0.887,-9.518 -1.2,-14.4 1.35,-0.489 3.218,-0.461 4.56,-0.96 2.31,3.29 1.15,10.05 1.44,15.36 z"
   id="path19"
   style="fill:#000000"
   inkscape:connector-curvature="0" />
<path
   style="fill:#000000;fill-rule:evenodd"
   inkscape:connector-curvature="0"
   clip-rule="evenodd"
   d="m 37.44077,-173.98944 c 1.616,-0.015 2.532,0.668 3.84,0.96 -0.715,5.605 -2.09,10.55 -3.6,15.36 -3.002,-0.438 -3.979,-2.902 -6,-4.32 -1.779,1.582 -2.955,3.765 -5.04,5.04 -1.361,-4.719 -2.354,-9.806 -3.6,-14.64 0.802,-0.878 2.415,-0.945 3.84,-1.2 0.771,2.269 1.167,4.914 1.68,7.44 1.751,-1.128 1.486,-4.274 3.6,-5.04 0.988,2.132 1.919,4.321 3.12,6.24 1.151,-2.849 1.428,-6.572 2.16,-9.84 z"
   id="path3273" /><path
   style="fill:#000000;fill-rule:evenodd"
   inkscape:connector-curvature="0"
   clip-rule="evenodd"
   d="m 46.80077,-172.54944 c -0.584,2.375 -1.131,4.79 -1.68,7.2 2.778,-0.851 4.626,0.64 5.76,2.16 0.307,3.506 -0.71,5.689 -1.68,7.92 -0.912,-0.048 -1.708,-0.212 -2.4,-0.48 0.009,-1.911 0.752,-3.088 0.48,-5.28 -2.489,-1.831 -4.582,1.626 -4.56,4.56 -1.117,0.077 -1.602,-0.479 -2.64,-0.48 0.617,-5.863 1.447,-11.513 3.12,-16.32 1.173,0.267 2.357,0.524 3.6,0.72 z"
   id="path3275" /><path
   style="fill:#000000;fill-rule:evenodd"
   inkscape:connector-curvature="0"
   clip-rule="evenodd"
   d="m 55.68077,-165.82944 c 5.275,-1.206 8.932,5.804 5.52,9.36 -3.881,4.045 -11.214,-1.011 -8.88,-6.96 0.505,-1.286 2.144,-2.122 3.36,-2.4 z m -0.24,3.6 c -1.367,2.159 0.734,4.546 3.36,3.36 2.011,-2.255 -0.894,-5.465 -3.36,-3.36 z"
   id="path3277" /><path
   style="fill:#000000;fill-rule:evenodd"
   inkscape:connector-curvature="0"
   clip-rule="evenodd"
   d="m 21.84077,-152.62944 c 0.16,0 0.32,0 0.48,0 0.246,4.954 0.496,9.904 0.72,14.88 -1.303,-0.183 -1.86,0.38 -3.12,0.24 -1.359,-4.001 -1.362,-9.357 -1.68,-14.4 1.047,-0.394 2.547,-0.333 3.6,-0.72 z"
   id="path3279" /><path
   style="fill:#000000;fill-rule:evenodd"
   inkscape:connector-curvature="0"
   clip-rule="evenodd"
   d="m 41.76077,-149.02944 c -0.4,4.106 -0.273,8.217 -0.96,11.52 -1.01,-0.27 -3.3,0.74 -2.88,-0.96 -1.317,0.523 -3.148,0.532 -5.04,0.48 -7.117,-4.271 -0.913,-13.72 6.24,-10.56 0.053,-1.397 1.748,-0.378 2.64,-0.48 z m -7.92,7.68 c 1.044,0.004 2.159,0.08 2.88,-0.24 3.311,-5.157 -6.276,-4.261 -2.88,0.24 z"
   id="path3281" /><path
   style="fill:#000000;fill-rule:evenodd"
   inkscape:connector-curvature="0"
   clip-rule="evenodd"
   d="m 46.80077,-147.58944 c 0.331,0.31 0.237,1.042 0.24,1.68 1.716,-1.58 5.335,-1.531 5.76,1.2 2.314,-2.274 6.833,-0.939 7.44,1.92 0.282,4.282 -1.123,6.877 -2.64,9.36 -0.892,-0.148 -1.508,-0.572 -2.4,-0.72 0.406,-2.108 2.959,-7.543 0.24,-7.92 -2.201,-0.305 -2.503,5.264 -3.84,6.72 -1.257,0.058 -1.816,-0.584 -2.88,-0.72 0.184,-2.128 1.722,-3.938 0.96,-6.24 -3.207,-0.829 -2.77,3.908 -3.84,6 -1.444,0.083 -1.917,-0.804 -3.36,-0.72 0.671,-3.648 0.836,-7.804 2.16,-10.8 0.79,0.01 1.195,0.405 2.16,0.24 z"
   id="path3283" /><path
   style="fill:#000000;fill-rule:evenodd"
   inkscape:connector-curvature="0"
   clip-rule="evenodd"
   d="m 282.96077,-115.90944 c 0.08,2.72 -0.237,5.042 -0.72,7.2 -0.561,0 -1.12,0 -1.68,0 0.694,-2.507 -0.976,-7.376 2.4,-7.2 z"
   id="path3285" /><path
   style="fill:#000000;fill-rule:evenodd"
   inkscape:connector-curvature="0"
   clip-rule="evenodd"
   d="m 277.44077,-113.26944 c -0.507,0.933 -1.71,1.17 -2.16,2.16 0,0.88 0,1.76 0,2.64 -0.587,0.213 -1.041,0.56 -1.92,0.48 0.012,-2.068 0.468,-3.691 0.479,-5.76 1.579,0.577 2.875,-1.381 3.601,0.48 z"
   id="path3287" /><path
   style="fill:#000000;fill-rule:evenodd"
   inkscape:connector-curvature="0"
   clip-rule="evenodd"
   d="m 288.72077,-113.50944 c -0.538,1.622 -0.693,3.626 -1.199,5.28 -1.704,-0.03 -1.518,-0.489 -3.36,-0.24 -2.839,-2.921 0.799,-7.114 4.559,-5.04 z m -3.84,3.36 c 1.133,0.315 2.075,-1.791 0.96,-2.16 -0.661,0.33 -1.624,1.261 -0.96,2.16 z"
   id="path3289" /><path
   style="fill:#000000;fill-rule:evenodd"
   inkscape:connector-curvature="0"
   clip-rule="evenodd"
   d="m 272.64077,-113.02944 c -0.111,1.968 0.333,4.493 -0.479,5.76 -1.434,-0.521 -2.073,0.54 -3.36,0 -0.537,-1.188 -1.249,-5.393 1.2,-5.04 0.098,1.023 -0.232,2.472 0.24,3.12 1.895,-0.06 -0.04,-5.111 2.399,-3.84 z"
   id="path3291" /><path
   style="fill:#000000;fill-rule:evenodd"
   inkscape:connector-curvature="0"
   clip-rule="evenodd"
   d="m 267.60077,-111.58944 c 0.731,2.573 0.035,5.577 -3.12,5.04 -2.049,-2.272 0.285,-7.636 3.12,-5.04 z m -1.68,3.12 c 0.42,-0.322 0.879,-1.982 0,-2.16 -0.236,0.321 -1.083,2.058 0,2.16 z"
   id="path3293" /><path
   style="fill:#000000;fill-rule:evenodd"
   inkscape:connector-curvature="0"
   clip-rule="evenodd"
   d="m 260.16077,-106.06944 c -0.139,1.542 -0.383,2.978 -2.16,2.88 -0.06,-2.38 0.423,-4.217 0.24,-6.72 1.528,-0.343 3.485,-2.336 4.8,-0.72 0.252,2.732 -0.691,4.269 -2.88,4.56 z m 0.24,-1.44 c 0.595,-0.285 0.89,-0.87 0.72,-1.92 -0.24,0 -0.48,0 -0.72,0 -0.254,0.249 -0.496,1.714 0,1.92 z"
   id="path3295" /><path
   style="fill:#000000;fill-rule:evenodd"
   inkscape:connector-curvature="0"
   clip-rule="evenodd"
   d="m 58.56077,-91.18944 c 0.164,0.957 0.607,1.633 0.48,2.88 -0.983,0.056 -1.962,0.118 -2.64,0.48 -0.761,-0.519 -0.81,-1.75 -0.96,-2.88 -11.027,-0.482 -5.729,-19.823 3.84,-15.84 5.612,2.336 3.849,12.67 -0.72,15.36 z m 1.44,-8.64 c -0.644,-8.444 -13.256,1.448 -5.28,5.04 0,-0.56 0,-1.12 0,-1.68 0.969,-0.23 1.91,-0.49 2.88,-0.72 0.331,0.31 0.238,1.043 0.24,1.68 1.444,-0.685 2.288,-2.636 2.16,-4.32 z"
   id="path3297" /><path
   style="fill:#000000;fill-rule:evenodd"
   inkscape:connector-curvature="0"
   clip-rule="evenodd"
   d="m 283.20077,-105.82944 c -0.247,1.203 -0.606,1.519 -1.92,1.2 -0.381,1.359 1.487,1.563 1.68,2.88 0.282,1.927 -1.277,3.662 -4.08,3.12 0,-0.56 0,-1.12 0,-1.68 0.716,0.333 1.469,0.283 1.681,-0.48 -0.195,-1.524 -1.778,-1.772 -1.681,-3.36 0.111,-1.804 2.288,-2.886 4.32,-1.68 z"
   id="path3299" /><path
   style="fill:#000000;fill-rule:evenodd"
   inkscape:connector-curvature="0"
   clip-rule="evenodd"
   d="m 278.64077,-105.82944 c 0.158,0.878 -0.519,0.92 -0.479,1.68 -0.638,0.003 -1.371,-0.09 -1.68,0.24 -0.135,1.174 0.932,1.148 1.439,1.68 1.03,2.803 -1.156,5.702 -3.84,4.08 -0.158,-0.877 0.52,-0.92 0.48,-1.68 0.637,-0.002 1.37,0.091 1.68,-0.24 -0.989,-1.492 -2.884,-2.871 -1.68,-4.8 0.634,-1.016 2.229,-1.512 4.08,-0.96 z"
   id="path3301" /><path
   style="fill:#000000;fill-rule:evenodd"
   inkscape:connector-curvature="0"
   clip-rule="evenodd"
   d="m 269.04077,-103.42944 c -2.216,0.975 -3.273,3.021 -2.88,6 -0.753,0.239 -1.79,1.096 -2.4,0.72 0.343,-2.218 0.36,-4.761 0.48,-7.2 0.61,-0.323 2.055,-0.946 2.16,0.24 0.89,-1.099 2.276,-1.632 2.64,0.24 z"
   id="path3303" /><path
   style="fill:#000000;fill-rule:evenodd"
   inkscape:connector-curvature="0"
   clip-rule="evenodd"
   d="m 79.44077,-103.18944 c 0.337,0.703 0.646,1.435 0.479,2.64 -3.028,3.575 -5.518,-4.37 -0.479,-2.64 z"
   id="path3305" /><path
   style="fill:#000000;fill-rule:evenodd"
   inkscape:connector-curvature="0"
   clip-rule="evenodd"
   d="m 263.28077,-102.46944 c 1.364,3.899 -1.086,7.132 -3.84,8.4 0.016,1.216 -0.413,1.988 -0.24,3.36 -0.735,1.105 -1.904,1.775 -3.36,2.16 0.673,-3.728 1.522,-7.278 1.2,-12 1.71,-1.019 3.915,-2.973 6.24,-1.92 z m -3.6,2.4 c 0.152,0.808 -0.309,2.229 0.24,2.64 0.563,-0.557 2.033,-2.374 0.48,-2.88 -0.041,0.28 -0.38,0.26 -0.72,0.24 z"
   id="path3307" /><path
   style="fill:#000000;fill-rule:evenodd"
   inkscape:connector-curvature="0"
   clip-rule="evenodd"
   d="m 64.80077,-100.30944 c 1.046,0.393 2.546,0.333 3.6,0.72 -0.432,2.048 -1.38,3.58 -1.44,6 0.077,0.563 0.743,0.538 0.96,0.96 2.814,-0.626 2.971,-3.91 3.84,-6.48 0.911,0.289 1.889,0.511 2.88,0.72 -0.237,3.604 -1.601,6.08 -1.68,9.84 -1.216,-0.016 -1.987,0.413 -3.36,0.24 -0.077,-0.563 -0.379,-0.901 -0.24,-1.68 -6.477,1.341 -6.58,-5.923 -4.56,-10.32 z"
   id="path3309" /><path
   style="fill:#000000;fill-rule:evenodd"
   inkscape:connector-curvature="0"
   clip-rule="evenodd"
   d="m 79.44077,-98.62944 c -0.328,3.112 -0.205,6.675 -0.721,9.6 -0.675,0.365 -1.852,0.229 -2.64,0.48 -0.488,-2.988 -0.332,-7.357 0.24,-10.08 1.041,0 2.081,0 3.121,0 z"
   id="path3311" /><path
   style="fill:#000000;fill-rule:evenodd"
   inkscape:connector-curvature="0"
   clip-rule="evenodd"
   d="m 54.24077,-86.86944 c -0.164,0.876 -0.91,1.17 -1.2,1.92 -4.219,-3.134 -4.964,2.539 -0.72,3.12 2.961,6.73 -8.052,8.486 -9.6,3.12 0.064,-1.136 1.048,-1.352 1.44,-2.16 1.332,0.715 3.612,3.659 4.8,0.96 -2.092,-1.791 -4.66,-4.74 -2.4,-7.92 1.847,-2.599 6.186,-1.366 7.68,0.96 z"
   id="path3313" /><path
   style="fill:#000000;fill-rule:evenodd"
   inkscape:connector-curvature="0"
   clip-rule="evenodd"
   d="m 69.36077,-86.86944 c 2.648,-0.962 2.669,3.375 0.48,3.36 -1.849,-0.012 -2.351,-2.68 -0.48,-3.36 z"
   id="path3315" /><path
   style="fill:#000000;fill-rule:evenodd"
   inkscape:connector-curvature="0"
   clip-rule="evenodd"
   d="m 59.04077,-85.18944 c -0.318,2.001 -0.846,3.794 -0.72,6.24 3.505,1.9 2.56,-4.146 4.32,-5.52 1.015,0.265 1.968,0.591 2.88,0.96 -0.648,3.352 -1.626,6.374 -2.4,9.6 -1.196,-0.084 -2.985,0.425 -2.64,-1.2 -7.083,1.53 -6.335,-6.92 -4.32,-10.56 0.961,0.159 2.089,0.151 2.88,0.48 z"
   id="path3317" /><path
   style="fill:#000000;fill-rule:evenodd"
   inkscape:connector-curvature="0"
   clip-rule="evenodd"
   d="m 80.88077,-82.54944 c -0.199,0.601 -0.657,0.943 -0.72,1.68 -0.845,-0.412 -2.312,-0.738 -3.36,-0.24 -1.385,3.297 4.369,1.751 4.801,4.8 0.144,1.02 -0.771,3.542 -1.921,4.32 -2.35,1.591 -8.474,-0.015 -6.479,-3.12 0.909,-0.349 4.207,2.079 4.56,-0.48 -0.093,-1.427 -2.037,-1.002 -3.12,-1.44 -4.327,-4.381 2.753,-10.06 6.239,-5.52 z"
   id="path3319" /><path
   style="fill:#000000;fill-rule:evenodd"
   inkscape:connector-curvature="0"
   clip-rule="evenodd"
   d="m 68.40077,-82.54944 c 1.112,0.088 2.23,0.17 3.12,0.48 -0.478,3.442 -1.014,6.826 -1.92,9.84 -1.163,0.043 -2.049,-0.191 -2.88,-0.48 0.442,-3.398 0.96,-6.72 1.68,-9.84 z"
   id="path3321" /><path
   style="fill:#000000;fill-rule:evenodd"
   inkscape:connector-curvature="0"
   clip-rule="evenodd"
   d="m 84.00077,-80.14944 c 1.84,0 3.68,0 5.521,0 0.062,1.263 -0.164,2.236 -0.48,3.12 -1.68,0 -3.36,0 -5.04,0 -10e-4,-1.04 -10e-4,-2.08 -10e-4,-3.12 z"
   id="path3323" /><path
   style="fill:#000000;fill-rule:evenodd"
   inkscape:connector-curvature="0"
   clip-rule="evenodd"
   d="m 54.96077,-75.34944 c 2.058,2.913 -2.793,4.347 -3.12,1.68 -0.157,-1.278 1.208,-2.557 3.12,-1.68 z"
   id="path3325" /><path
   style="fill:#000000;fill-rule:evenodd"
   inkscape:connector-curvature="0"
   clip-rule="evenodd"
   d="m 52.08077,-71.26944 c 1.167,-0.046 2.294,-0.055 2.88,0.48 -0.045,4.248 -0.094,11.641 -4.32,12.24 -2.319,0.329 -5.121,-1.272 -4.8,-4.56 1.265,-0.015 1.761,-0.798 3.12,-0.72 0.418,0.622 0.035,2.045 1.2,1.92 2.188,-1.572 1.246,-6.274 1.92,-9.36 z"
   id="path3327" /><path
   style="fill:#000000;fill-rule:evenodd"
   inkscape:connector-curvature="0"
   clip-rule="evenodd"
   d="m 61.20077,-61.90944 c 0.823,0.998 2.93,0.775 4.08,0.24 0.229,1.051 0.25,2.309 0.48,3.36 -5.937,1.751 -9.838,-2.41 -9.12,-7.92 0.453,-3.474 5.046,-6.055 8.16,-3.36 2.512,2.174 1.35,8.81 -3.6,7.68 z m -0.96,-3.6 c 0.707,0.341 1.514,0.725 2.4,0.24 -0.005,-0.565 0.414,-0.707 0.24,-1.44 -0.731,-0.866 -3.262,-0.733 -2.64,1.2 z"
   id="path3329" /><path
   style="fill:#000000;fill-rule:evenodd"
   inkscape:connector-curvature="0"
   clip-rule="evenodd"
   d="m -69.59923,-60.22944 c 0.296,0.678 0.296,1.481 0,2.16 -3.204,1.607 -3.293,-3.793 0,-2.16 z"
   id="path3331" /><path
   style="fill:#000000;fill-rule:evenodd"
   inkscape:connector-curvature="0"
   clip-rule="evenodd"
   d="m -83.03923,-51.34944 c -0.825,0.105 -1.345,-0.095 -1.92,-0.24 -0.336,-0.767 0.546,-2.093 0.24,-3.6 -0.252,-0.627 -0.975,-0.785 -1.92,-0.72 -1.139,0.541 -0.368,2.993 -0.96,4.08 -0.398,0.402 -1.409,0.191 -2.16,0.24 -0.254,-1.506 0.704,-4.224 -0.96,-4.32 -1.94,0.427 -0.162,3.074 -0.48,4.8 -1.12,-0.159 -1.542,0.378 -2.4,0.48 -0.562,-2.397 -0.427,-5.493 -0.72,-8.16 0.899,0.334 2.262,-1.039 2.16,0.48 1.128,-0.415 3.282,-0.408 3.84,0.48 4.423,-2.343 7.221,2.458 5.28,6.48 z"
   id="path3333" /><path
   style="fill:#000000;fill-rule:evenodd"
   inkscape:connector-curvature="0"
   clip-rule="evenodd"
   d="m -79.67923,-57.58944 c 5.449,-2.014 6.086,6.369 1.2,6.24 -3.231,-0.085 -4.321,-5.086 -1.2,-6.24 z m 2.16,2.4 c -0.427,-0.213 -0.61,-0.67 -1.44,-0.479 -1.105,1.809 1.689,3.046 1.44,0.479 z"
   id="path3335" /><path
   style="fill:#000000;fill-rule:evenodd"
   inkscape:connector-curvature="0"
   clip-rule="evenodd"
   d="m -58.55923,-57.58944 c 2.413,1.917 -1.861,4.387 -2.4,1.44 0.379,-0.902 0.865,-1.696 2.4,-1.44 z"
   id="path3337" /><path
   style="fill:#000000;fill-rule:evenodd"
   inkscape:connector-curvature="0"
   clip-rule="evenodd"
   d="m -72.71923,-56.86944 c 0.959,0.24 1.865,0.535 2.64,0.96 -0.773,2.026 -1.592,4.007 -2.4,6 -1.108,0.148 -1.381,-0.539 -2.4,-0.48 0.481,-2.398 1.453,-4.307 2.16,-6.48 z"
   id="path3339" /><path
   style="fill:#000000;fill-rule:evenodd"
   inkscape:connector-curvature="0"
   clip-rule="evenodd"
   d="m -61.19923,-53.98944 c 1.067,-0.107 1.749,0.171 2.4,0.48 -0.345,3.255 -1.478,5.722 -2.88,7.92 -2.527,0.837 -4.675,-0.54 -4.56,-3.12 0.147,-0.333 0.924,-0.036 0.96,-0.48 1.306,-0.267 0.767,1.313 1.92,1.2 1.7,-1.02 1.453,-3.987 2.16,-6 z"
   id="path3341" /><path
   style="fill:#000000;fill-rule:evenodd"
   inkscape:connector-curvature="0"
   clip-rule="evenodd"
   d="m -52.55923,-48.46944 c -1.016,-0.343 -2.625,-0.095 -3.6,-0.48 -0.52,1.163 1.335,1.804 2.88,1.68 -0.102,0.501 0.165,0.635 0.24,0.96 -2.084,2.501 -5.128,0.208 -5.28,-2.16 -0.432,-6.723 9.126,-5.153 5.76,0 z m -2.4,-1.92 c 0.325,0.076 0.458,0.342 0.96,0.24 0,-0.24 0,-0.48 0,-0.72 -0.547,-0.067 -0.902,0.058 -0.96,0.48 z"
   id="path3343" /><path
   style="fill:#000000;fill-rule:evenodd"
   inkscape:connector-curvature="0"
   clip-rule="evenodd"
   d="m -69.83923,-50.14944 c 0.759,-0.039 0.802,0.638 1.68,0.48 -0.783,1.377 -1.349,2.971 -2.88,3.6 -0.026,-1.786 0.565,-2.955 1.2,-4.08 z"
   id="path3345" /><path
   style="fill:#000000;fill-rule:evenodd"
   inkscape:connector-curvature="0"
   clip-rule="evenodd"
   d="m -84.47923,-49.90944 c 1.132,0.228 1.904,0.816 1.68,2.4 -0.575,0.305 -0.884,0.876 -1.92,0.72 -1.31,-0.644 -1.112,-2.695 0.24,-3.12 z"
   id="path3347" /><path
   style="fill:#000000;fill-rule:evenodd"
   inkscape:connector-curvature="0"
   clip-rule="evenodd"
   d="m -86.15923,-46.06944 c 0.814,0.065 1.946,-0.186 2.4,0.24 0.083,3.843 -1.195,6.325 -2.88,8.4 -2.781,0.301 -4.013,-0.948 -4.32,-3.12 0.359,-0.281 0.981,-0.298 1.2,-0.72 0.997,0.123 0.881,1.359 1.92,1.44 1.229,-1.411 1.453,-3.828 1.68,-6.24 z"
   id="path3349" /><path
   style="fill:#000000;fill-rule:evenodd"
   inkscape:connector-curvature="0"
   clip-rule="evenodd"
   d="m -80.15923,-45.10944 c 3.04,-0.834 5.367,1.146 5.28,4.08 -0.143,4.771 -7.263,4.562 -7.92,0.48 -0.347,-2.153 0.282,-3.913 2.64,-4.56 z m 0.72,5.04 c 0.691,-0.028 1.571,0.131 1.92,-0.24 1.77,-4.011 -4.991,-2.564 -1.92,0.24 z"
   id="path3351" /><path
   style="fill:#000000;fill-rule:evenodd"
   inkscape:connector-curvature="0"
   clip-rule="evenodd"
   d="m -71.27923,-43.66944 c -0.283,1.397 -0.681,2.679 -0.72,4.32 2.226,1.647 2.933,-1.9 3.6,-3.36 0.659,0.381 1.741,0.338 2.4,0.72 -0.56,2.4 -1.284,4.637 -2.16,6.72 -0.904,-0.296 -2.531,0.131 -2.16,-1.44 -5.577,2.962 -5.226,-9.383 -0.96,-6.96 z"
   id="path3353" /><path
   style="fill:#000000;fill-rule:evenodd"
   inkscape:connector-curvature="0"
   clip-rule="evenodd"
   d="m 267.36077,-42.70944 c -0.751,0.735 -1.858,-0.21 -2.88,0 -0.077,-0.427 2.283,-0.664 2.88,0 z"
   id="path3355" /><path
   style="fill:#000000;fill-rule:evenodd"
   inkscape:connector-curvature="0"
   clip-rule="evenodd"
   d="m -60.95923,-35.98944 c -1.317,-0.254 -2.704,-1.546 -3.84,-1.2 0.188,1.491 1.463,1.897 2.88,2.16 0.009,0.889 -0.369,1.392 -0.72,1.92 -2.392,-0.231 -3.61,-0.871 -4.08,-2.16 -1.727,-4.733 6.859,-8.87 7.2,-3.36 0.086,1.386 -0.578,1.764 -1.44,2.64 z m -0.72,-1.92 c 0,-0.32 0,-0.64 0,-0.96 -0.4,0 -0.8,0 -1.2,0 0.083,0.637 0.63,0.81 1.2,0.96 z"
   id="path3357" /><path
   style="fill:#000000;fill-rule:evenodd"
   inkscape:connector-curvature="0"
   clip-rule="evenodd"
   d="m 268.32077,-39.34944 c -0.398,1.281 -1.023,2.336 -1.681,3.36 -1.316,-0.8 -3.198,-0.426 -3.84,0.72 1.342,2.991 6.8,1.82 7.681,5.52 1.777,7.468 -8.045,9.816 -12.48,5.76 0.471,-1.609 1.65,-2.509 2.4,-3.84 1.09,0.413 4.198,2.055 4.8,0 -0.897,-2.038 -3.43,-1.602 -4.8,-2.64 -5.749,-4.357 0.509,-13.611 7.92,-8.88 z"
   id="path3359" /><path
   style="fill:#000000;fill-rule:evenodd"
   inkscape:connector-curvature="0"
   clip-rule="evenodd"
   d="m 213.12077,-38.14944 c 4.066,4.392 -4.661,7.335 -5.28,2.88 -0.368,-2.652 2.703,-4.148 5.28,-2.88 z"
   id="path3361" /><path
   style="fill:#000000;fill-rule:evenodd"
   inkscape:connector-curvature="0"
   clip-rule="evenodd"
   d="m 203.04077,-37.66944 c 1.345,8.735 3.148,17.012 3.6,26.64 -1.897,0.183 -3.508,0.652 -5.52,0.72 -2.149,-8.01 -3.789,-16.532 -4.56,-25.92 2.049,-0.591 3.933,-1.347 6.48,-1.44 z"
   id="path3363" /><path
   style="fill:#000000;fill-rule:evenodd"
   inkscape:connector-curvature="0"
   clip-rule="evenodd"
   d="m 257.04077,-28.06944 c -2.925,0.355 -5.156,1.404 -8.16,1.68 0.8,2.569 3.646,2.293 5.28,0.72 0.667,0.933 1.847,1.353 2.4,2.4 -1,1.875 -3.037,3.026 -5.28,3.12 -11.326,0.475 -8.923,-19.612 1.68,-17.52 1.233,0.243 1.639,1.101 3.12,1.92 0.886,1.854 1.146,5.547 0.96,7.68 z m -7.68,-2.4 c 1.498,-0.101 2.714,-0.486 3.84,-0.96 -0.347,-3.309 -4.498,-1.164 -3.84,0.96 z"
   id="path3365" /><path
   style="fill:#000000;fill-rule:evenodd"
   inkscape:connector-curvature="0"
   clip-rule="evenodd"
   d="m 244.08077,-32.62944 c -2.838,0.605 -5.521,1.581 -6,4.08 -0.534,2.794 1.976,6.347 1.68,9.6 -1.663,0.497 -3.528,0.792 -5.52,0.96 -1.364,-5.276 -1.685,-11.596 -2.88,-17.04 1.504,-0.576 3.463,-0.697 5.04,-1.2 -0.015,0.895 0.241,1.518 0.479,2.16 2.234,-2.962 6.954,-3.989 7.201,1.44 z"
   id="path3367" /><path
   style="fill:#000000;fill-rule:evenodd"
   inkscape:connector-curvature="0"
   clip-rule="evenodd"
   d="m 230.64077,-32.62944 c -0.611,5.789 -1.818,10.981 -3.119,16.08 -1.435,0.406 -2.929,0.752 -4.801,0.72 -2.348,-4.532 -5.927,-9.113 -6.96,-14.16 0.778,-0.982 2.673,-0.848 3.841,-1.44 2.102,1.658 2.981,4.538 4.079,7.2 1.028,-2.573 1.588,-5.612 2.4,-8.4 1.716,0.296 3.232,-0.684 4.56,0 z"
   id="path3369" /><path
   style="fill:#000000;fill-rule:evenodd"
   inkscape:connector-curvature="0"
   clip-rule="evenodd"
   d="m 213.36077,-29.50944 c 1.765,3.857 1.424,10.477 1.2,15.6 -1.69,0.108 -3.796,-0.167 -4.801,0 -1.332,-4.028 -0.976,-9.744 -1.199,-14.88 1.736,-0.104 3.129,-0.551 4.8,-0.72 z"
   id="path3371" /><path
   style="fill:#000000;fill-rule:evenodd"
   inkscape:connector-curvature="0"
   clip-rule="evenodd"
   d="m 274.58096,82.138319 c -0.30683,1.124128 -0.61364,2.248258 -0.92045,3.372389 -1.71557,-0.511652 -3.33025,-0.846672 -3.83262,0.76574 2.33313,3.490397 8.95071,4.137784 5.70829,10.617049 -1.68024,3.355633 -6.31334,3.223463 -10.76981,2.948883 -0.24664,-1.163839 -0.48435,-2.332788 -0.34419,-3.717558 1.60633,0.559221 4.71904,0.840718 5.02088,-1.800273 0.28601,-2.499988 -5.82301,-3.752168 -6.32225,-6.708055 -0.9133,-5.414813 5.83257,-8.335266 11.46015,-5.478175 z"
   id="path3373" /><path
   style="fill:#000000;fill-rule:evenodd"
   inkscape:connector-curvature="0"
   clip-rule="evenodd"
   d="m 262.62386,81.13953 c -0.96349,5.417797 -2.56063,15.003438 -6.21208,17.781419 -2.79533,-1.48579 -2.96481,-4.474347 -5.59421,-6.056393 -1.53208,1.88623 -1.69131,6.17601 -3.75721,7.127648 -3.85331,-4.441305 -5.54679,-10.11624 -8.58178,-15.024949 3.34343,-2.852614 7.37985,-0.582683 8.20086,3.144232 1.12083,-2.398583 1.90531,-5.383441 3.64216,-6.7061 3.01483,1.836344 3.5501,5.088933 4.59738,8.04908 2.35451,-1.331479 1.10004,-5.523963 2.30113,-8.430972 2.16182,0.854266 3.94454,-1.493887 5.40375,0.116039 z"
   id="path3375" /><path
   style="fill:#000000;fill-rule:evenodd"
   inkscape:connector-curvature="0"
   clip-rule="evenodd"
   d="m 238.32387,92.172261 c -2.6133,0.198297 -5.38081,0.131803 -7.55017,1.109932 0.36839,3.248566 5.11108,1.589401 7.16632,1.955963 2.18612,4.803464 -3.8121,6.063334 -8.77712,3.945717 -6.19388,-4.149698 -1.23098,-21.330305 8.47259,-14.446732 0.94717,2.068441 1.50482,4.360844 0.68838,7.43512 z m -5.97806,-2.990496 c 1.20454,0.655269 1.65435,-0.01089 2.64435,0.268791 0.74407,-2.089986 -2.52169,-1.990504 -2.64435,-0.268791 z"
   id="path3377" /><path
   style="fill:#000000;fill-rule:evenodd"
   inkscape:connector-curvature="0"
   clip-rule="evenodd"
   d="m 225.86689,99.643122 c -1.48494,0.102385 -2.8144,0.471798 -4.56065,0.114079 -0.93549,-3.023998 0.007,-7.118963 -1.91435,-9.581539 -6.39247,-0.434962 -1.94433,6.459878 -2.76137,10.117168 -2.27256,-0.448526 -3.41366,1.08391 -5.63386,0.72706 -0.39977,-5.346366 -1.10808,-10.516501 -1.56821,-15.828389 1.41555,-0.428957 3.1256,-0.339675 4.36922,-1.072231 0.95197,0.40515 0.58702,1.562484 1.22597,2.146421 8.59747,-5.555547 12.08279,6.602514 10.84325,13.377431 z"
   id="path3379" /><path
   style="fill:#000000;fill-rule:evenodd"
   inkscape:connector-curvature="0"
   clip-rule="evenodd"
   d="m 277.61751,112.81237 c -0.751,0.735 -1.857,-0.21 -2.88,0 -0.077,-0.427 2.282,-0.664 2.88,0 z"
   id="path3381" /><path
   style="fill:#000000;fill-rule:evenodd"
   inkscape:connector-curvature="0"
   clip-rule="evenodd"
   d="m 273.81686,-7.8806267 c 0.54524,2.121407 -0.25846,5.367748 0.27909,7.49648605 1.54211,-0.62327805 2.64182,-1.77901505 4.30328,-2.25783505 1.61286,0.866339 1.79228,2.92520355 2.21515,4.7813765 -0.85605,1.093649 -2.36551,1.403597 -3.34725,2.34518 2.25958,2.239876 4.62222,4.395782 5.81887,7.5206192 -0.80097,1.425034 -2.36837,1.929518 -3.62893,2.801443 -2.23991,-1.301193 -2.95516,-3.869924 -5.06138,-5.2824152 -0.0305,1.7183552 0.28576,3.1480572 0.0195,5.0627682 -1.71318,0.330499 -3.83255,0.172012 -6.01879,-0.0679 0.19934,-7.6003872 -0.10026,-14.78444465 -0.14211,-22.1849467 1.43887,-0.570451 3.7057,-0.146447 5.56262,-0.21478 z"
   id="path3383" /><path
   style="fill:#000000;fill-rule:evenodd"
   inkscape:connector-curvature="0"
   clip-rule="evenodd"
   d="m 293.19687,-3.7000117 c -0.20797,1.430009 -1.25114,1.856868 -1.7179,2.97604205 -1.48556,-0.49019605 -3.34598,-0.70234405 -4.12859,0.345798 -0.012,2.60470845 3.06434,2.05934845 4.56173,2.82677045 2.3924,1.225754 4.20878,5.931535 1.12593,8.7788542 -0.79079,0.731082 -4.2942,1.806789 -5.93263,1.626972 -3.87438,-0.425271 -4.96549,-3.4962832 -1.90865,-5.4763722 1.19109,0.394005 3.27768,1.372912 3.86774,-0.12863 -1.11954,-2.25421 -3.98072,-2.107926 -5.4304,-3.870133 -4.30018,-5.2279325 3.29146,-11.9450725 9.56277,-7.0793015 z"
   id="path3385" /><path
   style="fill:#000000;fill-rule:evenodd"
   inkscape:connector-curvature="0"
   clip-rule="evenodd"
   d="m 117.84077,65.77056 c 0.24,1.2 0.565,2.315 0.48,3.84 5.285,-1.013 5.813,3.354 5.28,7.44 -0.721,0 -1.44,0 -2.16,0 -0.764,-1.237 0.057,-4.057 -1.2,-4.8 -1.067,-0.107 -1.271,0.65 -1.92,0.96 -0.156,1.849 0.695,3.523 -0.24,4.8 -0.904,-0.185 -1.147,0.293 -1.92,0.24 -1.262,-3.298 -0.904,-8.216 -1.2,-12.48 0.551,-0.375 2.33,-0.375 2.88,0 z"
   id="path3387" /><path
   style="fill:#000000;fill-rule:evenodd"
   inkscape:connector-curvature="0"
   clip-rule="evenodd"
   d="m 140.64077,66.97056 c -0.304,0.736 -0.816,1.263 -1.199,1.92 -1.102,-0.019 -1.547,-0.693 -2.88,-0.479 -0.179,2.178 2.03,1.969 3.119,2.88 2.704,4.598 -4.378,7.808 -6.239,3.84 0.53,-0.189 0.601,-0.84 0.96,-1.2 0.98,-0.101 0.97,0.79 2.16,0.48 1.321,-2.986 -3.549,-2.639 -3.36,-5.761 0.172,-2.859 5.161,-4.244 7.439,-1.68 z"
   id="path3389" /><path
   style="fill:#000000;fill-rule:evenodd"
   inkscape:connector-curvature="0"
   clip-rule="evenodd"
   d="m 93.12077,67.21056 c -0.062,0.737 -0.521,1.079 -0.72,1.68 -0.563,-0.076 -0.901,-0.379 -1.681,-0.24 -0.79,0.33 -0.97,1.271 -1.199,2.16 0.019,0.861 1.568,0.191 1.92,0.721 -0.284,0.596 -0.348,1.412 -0.48,2.159 -0.349,0.451 -1.57,0.029 -1.92,0.48 -0.11,1.17 0.251,2.812 -0.24,3.6 -0.562,0.442 -1.527,-0.25 -2.64,0 0.128,-4.672 -0.064,-9.664 2.64,-11.76 1.911,-0.07 3.791,-0.11 4.32,1.2 z"
   id="path3391" /><path
   style="fill:#000000;fill-rule:evenodd"
   inkscape:connector-curvature="0"
   clip-rule="evenodd"
   d="m 104.88077,68.89056 c -1.02,1.289 -3.227,0.641 -3.12,-1.2 0.583,-1.704 3.871,-1.624 3.12,1.2 z"
   id="path3393" /><path
   style="fill:#000000;fill-rule:evenodd"
   inkscape:connector-curvature="0"
   clip-rule="evenodd"
   d="m 100.32077,68.65056 c -0.422,0.219 -0.439,0.842 -0.72,1.2 -0.88,0.178 -1.334,-0.59 -1.921,0 -0.532,0.428 -0.871,1.049 -0.72,2.16 0.349,0.371 0.937,0.504 1.68,0.48 0,0.8 0,1.6 0,2.399 -0.574,0.146 -1.095,0.346 -1.92,0.24 -0.04,1.4 0.419,2.301 0.24,3.84 -0.773,0.347 -2.013,0.227 -3.12,0.24 -0.059,-3.813 -0.422,-8.95 1.2,-11.76 1.505,-0.919 5.108,-0.708 5.281,1.201 z"
   id="path3395" /><path
   style="fill:#000000;fill-rule:evenodd"
   inkscape:connector-curvature="0"
   clip-rule="evenodd"
   d="m 132.00077,68.89056 c 0.027,1.333 0.511,2.209 0.48,3.601 -1.68,0.24 -2.762,1.078 -4.561,1.199 0.367,1.455 2.761,0.945 3.84,0.48 0.263,0.537 0.397,1.202 0.721,1.68 -4.599,6.356 -11.123,-4.198 -6.24,-7.68 1.661,-1.184 4.366,-0.668 5.76,0.72 z m -3.84,2.16 c 0.497,-0.143 1.576,0.297 1.68,-0.24 -0.425,-0.215 -0.306,-0.974 -1.2,-0.72 -0.124,0.355 -0.355,0.604 -0.48,0.96 z"
   id="path3397" /><path
   style="fill:#000000;fill-rule:evenodd"
   inkscape:connector-curvature="0"
   clip-rule="evenodd"
   d="m 84.00077,68.65056 c -0.002,3.038 0.116,6.196 -0.479,8.641 -2.538,-0.436 -3.107,-0.002 -6,0 -4.027,-1.066 -4.203,-8.081 -0.48,-9.36 2.544,-0.876 4.153,1.132 6.959,0.719 z m -5.28,1.919 c -1.837,0.059 -2.074,4.127 0.96,3.601 0.649,-1.261 0.427,-3.644 -0.96,-3.601 z"
   id="path3399" /><path
   style="fill:#000000;fill-rule:evenodd"
   inkscape:connector-curvature="0"
   clip-rule="evenodd"
   d="m 112.56077,71.05056 c 0.338,2.323 -2.908,1.064 -3.12,2.88 -0.162,1.38 1.501,2.045 3.359,1.2 0.316,0.724 0.775,1.305 0.721,2.4 -0.916,0.844 -2.757,0.764 -4.561,0.72 -5.384,-1.827 -1.177,-11.833 3.601,-7.2 z"
   id="path3401" /><path
   style="fill:#000000;fill-rule:evenodd"
   inkscape:connector-curvature="0"
   clip-rule="evenodd"
   d="m 104.88077,70.81056 c -0.097,2.543 0.232,5.513 -0.24,7.681 -1.022,-0.098 -2.472,0.232 -3.119,-0.24 0.535,-2.919 -1.231,-9.373 3.359,-7.441 z"
   id="path3403" /><path
   style="fill:#000000;fill-rule:evenodd"
   inkscape:connector-curvature="0"
   clip-rule="evenodd"
   d="m 26.48003,36.12637 c -0.0028,1.327382 -1.499483,1.555412 -1.871484,2.790542 -0.469967,1.56075 0.706313,2.35444 1.120776,3.93038 -0.507015,2.52444 -3.035837,5.72421 -5.40321,4.17868 -0.19469,-0.30757 0.484759,-0.78745 0.136058,-1.06466 0.796206,-1.08308 1.868307,-0.1269 2.600752,-1.7235 0.823684,-1.79553 -2.379902,-4.24864 -0.512713,-6.9915 0.51574,-0.758253 2.292311,-2.52036 3.929821,-1.119942 z"
   id="path3405" /><path
   style="fill:#000000;fill-rule:evenodd"
   inkscape:connector-curvature="0"
   clip-rule="evenodd"
   d="m 6.5703147,38.667562 c 0.532414,1.04459 -0.977448,3.34799 -2.204485,2.8562 -0.650816,-0.85188 -0.73969,-1.81453 0.274501,-2.99464 0.654261,0.10526 1.200237,-0.34611 1.929984,0.13844 z"
   id="path3407" /><path
   style="fill:#000000;fill-rule:evenodd"
   inkscape:connector-curvature="0"
   clip-rule="evenodd"
   d="m -5.8915863,43.891842 c 4.10299,3.07436 -1.197665,10.09838 -5.0844977,9.305 -0.296833,-4.20741 -0.847854,-8.36613 -0.763955,-12.64932 2.2238527,-2.43623 9.3532067,-1.54405 5.8484527,3.34432 z m -4.054527,-2.14122 c -0.3234897,0.64035 -0.3145337,1.21588 -0.0048,1.73066 0.604565,-0.17972 2.392705,-0.60359 1.735421,-1.7259 -0.543792,0.16265 -1.17456,-0.10862 -1.730658,-0.005 z m 0.253064,4.79332 c -0.151639,1.18305 -0.3906937,2.38331 0.322912,3.3965 1.095882,-0.33066 2.027083,-1.38339 2.070807,-2.65686 -0.878231,-0.65642 -1.616419,-0.59882 -2.393723,-0.73963 z"
   id="path3409" /><path
   style="fill:#000000;fill-rule:evenodd"
   inkscape:connector-curvature="0"
   clip-rule="evenodd"
   d="m -15.065293,39.473342 c -4.494546,-3.60185 5.1541387,-4.275875 0,0 l 0,0 z"
   id="path3411" /><path
   style="fill:#000000;fill-rule:evenodd"
   inkscape:connector-curvature="0"
   clip-rule="evenodd"
   d="m 158.40077,102.97056 c -0.016,1.104 -0.683,1.558 -0.96,2.4 -1.346,0.049 -2.728,-1.096 -3.36,0.239 0.308,1.692 2.468,1.532 3.84,2.16 4.038,3.965 -2.443,9.902 -6.24,6 0.211,-0.669 0.575,-1.186 0.721,-1.92 0.748,-0.43 2.646,1.047 3.12,-0.479 -0.835,-2.979 -4.635,-2.043 -5.04,-5.04 -0.521,-3.844 4.862,-6.042 7.919,-3.36 z"
   id="path3413" /><path
   style="fill:#000000;fill-rule:evenodd"
   inkscape:connector-curvature="0"
   clip-rule="evenodd"
   d="m 130.56077,102.01056 c 0.201,0.599 0.313,1.286 0.239,2.16 0.635,-0.485 2.204,-0.036 2.88,-0.48 0.405,0.955 0.188,2.532 0.24,3.841 -1.018,0.182 -2.102,0.298 -3.12,0.479 -0.208,3.488 0.429,6.132 0.721,9.12 -1.174,0.106 -2.066,0.494 -3.36,0.479 -0.289,-5.15 -1.435,-9.444 -1.2,-15.119 0.883,-0.478 2.647,-0.073 3.6,-0.48 z"
   id="path3415" /><path
   style="fill:#000000;fill-rule:evenodd"
   inkscape:connector-curvature="0"
   clip-rule="evenodd"
   d="m -13.473076,41.408082 c 1.149593,3.23209 0.624748,6.79572 1.303424,10.12137 -0.772603,0.46798 -1.556702,0.88129 -2.464692,0.65885 -0.980241,-3.09322 -0.634027,-6.44794 -1.038447,-9.65467 0.601681,-1.04618 1.538146,-0.38683 2.199719,-1.12555 z"
   id="path3417" /><path
   style="fill:#000000;fill-rule:evenodd"
   inkscape:connector-curvature="0"
   clip-rule="evenodd"
   d="m 146.40077,104.41056 c 0.846,0.029 0.065,0.349 0.479,0.96 0.817,-0.223 1.408,-0.673 2.641,-0.48 -0.048,0.928 -0.009,1.769 0.239,2.4 -3.286,0.479 -2.61,4.22 -1.92,7.2 -0.594,0.445 -1.832,0.247 -2.399,0.72 -1.721,-2.279 -1.581,-6.42 -1.92,-10.08 0.879,-0.32 1.832,-0.567 2.88,-0.72 z"
   id="path3419" /><path
   style="fill:#000000;fill-rule:evenodd"
   inkscape:connector-curvature="0"
   clip-rule="evenodd"
   d="m 98.16077,105.37056 c 2.489,-1.769 6.059,-0.107 6.72,2.16 1.132,5.515 -2.906,9.395 -6.96,6.72 0.165,2.085 -0.234,3.604 -0.24,5.52 -0.88,0 -1.76,0 -2.64,0 -0.354,-4.563 -0.394,-10.323 0,-14.88 1.153,0.439 3.031,-1.165 3.12,0.48 z m 3.36,6.24 c 0.688,-1.163 0.484,-2.878 -0.24,-3.84 -2.79,-0.719 -2.617,4.78 0.24,3.84 z"
   id="path3421" /><path
   style="fill:#000000;fill-rule:evenodd"
   inkscape:connector-curvature="0"
   clip-rule="evenodd"
   d="m 124.56077,105.37056 c 0.124,1.244 -0.753,1.487 -0.96,2.399 -0.746,-0.447 -2.707,-0.406 -2.641,0.721 2.022,1.288 4.813,1.464 5.28,3.84 0.876,4.465 -5.047,6.076 -8.16,3.359 0.03,-1.009 0.93,-1.15 0.96,-2.159 1.103,0.429 2.742,1.196 3.6,0 -0.935,-2.947 -6.695,-1.206 -5.52,-6.24 0.509,-2.175 4.72,-3.586 7.441,-1.92 z"
   id="path3423" /><path
   style="fill:#000000;fill-rule:evenodd"
   inkscape:connector-curvature="0"
   clip-rule="evenodd"
   d="m 142.80077,109.93056 c -1.643,0.356 -2.859,1.141 -4.8,1.2 0.187,1.898 2.81,1.043 4.08,0.72 0.162,0.638 0.378,1.223 0.72,1.681 -1.175,1.995 -4.751,2.447 -6.479,1.199 -4.826,-3.481 0.265,-14.077 5.76,-8.64 0.379,1.14 0.497,2.542 0.719,3.84 z m -4.56,-1.44 c 0.56,0 1.12,0 1.68,0 0.089,-1.223 -1.768,-1.223 -1.68,0 z"
   id="path3425" /><path
   style="fill:#000000;fill-rule:evenodd"
   inkscape:connector-curvature="0"
   clip-rule="evenodd"
   d="m 110.64077,105.61056 c 7.966,-0.589 7.359,12.485 -0.72,11.04 -4.741,-0.848 -7.292,-10.448 0.72,-11.04 z m -1.68,4.32 c -0.318,2.398 0.722,3.438 3.12,3.12 0.844,-0.602 1.307,-2.3 0.72,-3.6 -1.157,-1.116 -2.952,-0.504 -3.84,0.48 z"
   id="path3427" /><path
   style="fill:#000000;fill-rule:evenodd"
   inkscape:connector-curvature="0"
   clip-rule="evenodd"
   d="m -16.834065,53.313842 c -0.806494,0.58854 -1.69394,0.76277 -2.664015,0.52518 -0.782789,-0.7682 -0.444472,-1.75741 -0.525182,-2.66402 -0.818326,-0.35254 -1.478012,0.10325 -2.262984,-0.0728 -0.182165,1.18905 -0.07295,2.32067 -0.342531,3.52696 -0.695209,0.56444 -1.472772,0.71843 -2.331014,0.45953 0.02892,-3.75415 0.0068,-7.49679 -0.302034,-11.18363 0.860326,-0.90041 1.838543,-1.2028 2.931371,-0.92383 -0.145102,1.12481 -0.06431,2.20365 -0.208856,3.32763 0.705695,0.36251 1.269142,0.007 1.929983,0.13844 -0.566216,-2.26529 0.541377,-6.14128 3.740583,-4.71575 -0.435217,3.94883 -0.006,7.72726 0.03468,11.58227 z"
   id="path3429" /><path
   style="fill:#000000;fill-rule:evenodd"
   inkscape:connector-curvature="0"
   clip-rule="evenodd"
   d="m -25.186651,40.776762 c 0.404998,2.59546 -1.718975,4.41597 -2.148366,6.65051 -0.551797,2.8749 2.019547,5.28328 1.908543,7.9264 -0.81468,0.84313 -1.913546,0.23738 -2.797691,0.72451 -0.910477,-1.03203 -1.304526,-2.16443 -1.854807,-3.26675 -0.707433,2.18414 -2.428134,4.70857 -4.003171,3.38376 0.77392,-2.05526 2.197193,-4.23854 3.079341,-6.31513 -0.496722,-1.92008 -1.483228,-3.74361 -1.980782,-5.66425 0.822033,-1.09466 1.863981,-1.07376 2.800077,-1.58983 0.409866,0.7264 0.872458,1.44241 1.125535,2.19971 1.031596,-2.26172 1.799002,-3.96616 3.871321,-4.04893 z"
   id="path3431" /><path
   style="fill:#000000;fill-rule:evenodd"
   inkscape:connector-curvature="0"
   clip-rule="evenodd"
   d="m -33.839941,40.752952 c 2.500762,3.36644 -3.064053,3.88474 -3.412344,6.38077 1.315081,-0.056 2.3952,-1.30749 3.731053,-1.25445 2.170316,3.30979 -2.260292,4.39008 -3.013692,6.64813 0.807485,-0.29073 1.666924,-0.31852 2.399057,-0.99182 0.659578,1.19609 -0.4008,2.73053 -0.410559,4.05929 -1.497091,0.88756 -3.193582,0.76363 -4.795707,1.11839 -0.920141,-3.9692 -0.01598,-8.29949 -0.698303,-12.31631 1.992708,-1.59067 4.243622,-1.86792 6.200509,-3.64397 z"
   id="path3433" /><path
   style="fill:#000000;fill-rule:evenodd"
   inkscape:connector-curvature="0"
   clip-rule="evenodd"
   d="m -0.78536627,75.057972 c -1.06035603,1.92939 -2.66232203,1.11872 -3.99840903,1.6531 -1.582362,3.45283 3.033092,4.0377 4.10826503,6.80087 0.483064,1.24026 0.276596,3.8013 -0.54661803,5.12394 -1.778473,2.85654 -8.094428,4.91318 -8.320847,-0.0886 0.677686,-0.94945 1.439611,-1.46794 2.202101,-1.99086 0.670684,0.38598 0.606817,0.91748 1.461481,1.26792 3.898946,-2.09548 -0.616406,-3.98225 -2.112634,-6.32943 -2.5942297,-4.07089 1.521244,-13.08901 7.20666103,-6.4369 z"
   id="path3435" /><path
   style="fill:#000000;fill-rule:evenodd"
   inkscape:connector-curvature="0"
   clip-rule="evenodd"
   d="m -14.62825,74.154532 c 5.5092907,2.1211 5.7045737,11.27893 3.350413,16.11778 -2.521803,5.18396 -5.956561,3.08272 -7.053928,-0.68506 -1.213305,-4.16943 -0.954283,-11.31523 3.703515,-15.43272 z m -0.293556,9.91727 c -0.0116,1.59363 -0.154844,3.95987 0.85342,4.32903 1.16453,-3.40072 0.870785,-6.51397 -0.3068,-9.45298 -0.564774,1.44178 -0.534995,3.42078 -0.54662,5.12395 z"
   id="path3437" /><path
   style="fill:#000000;fill-rule:evenodd"
   inkscape:connector-curvature="0"
   clip-rule="evenodd"
   d="m -24.780574,86.707232 c -0.181893,2.40053 -0.340472,4.79503 -0.485177,7.18678 -1.277005,0.83407 -2.586556,1.50305 -4.129703,0.98709 0.380014,-4.44821 0.999351,-8.68416 1.768214,-13.83967 0.220106,-1.47185 0.07497,-3.65944 0.677915,-4.45794 1.33894,-1.77386 5.559415,-1.78137 6.726245,-0.98078 3.681243,2.53265 -0.01572,10.95006 -4.557494,11.10452 z m 0.485737,-7.1876 c 0.260577,0.75511 -0.440124,1.70117 0.126531,2.39666 0.751282,-0.18494 1.539438,-1.15897 1.669775,-2.0589 -0.679745,-0.51968 -1.283962,-0.66723 -1.796306,-0.33776 z"
   id="path3439" /><path
   style="fill:#000000;fill-rule:evenodd"
   inkscape:connector-curvature="0"
   clip-rule="evenodd"
   d="m -30.793665,94.811532 c -1.150139,0.89267 -2.527853,0.63094 -3.796702,0.92144 -1.133671,-0.75668 -0.454698,-1.87143 -1.056951,-2.73288 -0.941448,1.45407 -1.409757,2.81485 -2.607898,4.3195 -1.003472,-0.69946 -1.855661,-0.63886 -2.858578,-1.33916 0.632478,-3.0652 2.150745,-6.30575 4.153523,-9.64039 -0.20098,-2.55495 -1.0971,-4.97286 -1.310568,-7.52536 1.064035,-0.74814 2.291078,-0.66211 3.464255,-0.85663 0.83472,1.04625 0.161217,2.38982 0.855802,3.4637 1.008959,-1.29439 1.233976,-2.43425 1.87386,-3.65589 0.822908,-0.50527 1.830984,-0.0676 2.729667,-0.19216 0.359559,0.16046 0.217397,0.41911 0.464853,0.59951 -0.725143,2.97538 -2.940609,4.88383 -3.415283,7.24694 -0.645634,3.21051 2.336798,6.30758 1.50402,9.39138 z"
   id="path3441" /><path
   style="fill:#000000;fill-rule:evenodd"
   inkscape:connector-curvature="0"
   clip-rule="evenodd"
   d="m -39.809875,81.540422 c -1.708688,0.77936 -4.522116,-0.0346 -4.800472,2.84904 0.775963,0.42648 1.433225,0.24718 2.195513,0.6043 0.14096,1.183 -0.41876,2.50415 -0.476208,3.72628 -0.672791,0.68181 -1.507235,0.54362 -2.331014,0.45953 -0.01765,0.86834 -0.409363,1.80969 -0.340149,2.66164 1.422821,0.19806 2.832523,0.32592 4.12732,-0.12177 1.676845,5.14616 -4.09995,5.99669 -7.537283,5.63721 -0.314938,-5.99193 1.051781,-12.31538 2.048038,-18.56579 2.39196,-0.73532 4.853943,-1.11545 7.260954,-1.77808 0.644112,1.37355 0.114118,2.97713 -0.146699,4.52764 z"
   id="path3443" /><path
   style="fill:#ffffff;fill-rule:evenodd"
   inkscape:connector-curvature="0"
   clip-rule="evenodd"
   d="m -83.091138,-3.4032881 c -0.28,1.16 -1.76,1.119 -2.16,2.16 0.343,1.09800004 0.977,1.90300004 1.2,3.12 -2.968,2.862 -3.767,-2.968 -4.8,-5.04 1.861,-0.217 4.914,-3.037 5.76,-0.24 z"
   id="path3445" /><path
   style="fill:#ffffff;fill-rule:evenodd"
   inkscape:connector-curvature="0"
   clip-rule="evenodd"
   d="m -90.531138,-1.9632881 c 1.265,1.61400004 2.059,3.701 3.12,5.52 -2.425,3.674 -7.633,2.224 -8.16,-2.16 0.534,-0.58599996 1.17,-1.06899996 2.16,-1.19999996 0.638,0.96199996 0.643,2.55799996 1.92,2.87999996 0.611,-1.099 -0.851,-2.18299996 -0.96,-3.35899996 0.242,-0.95900004 1.439,-0.96200004 1.92,-1.68100004 z"
   id="path3447" /><path
   style="fill:#ffffff;fill-rule:evenodd"
   inkscape:connector-curvature="0"
   clip-rule="evenodd"
   d="m -70.851138,10.036712 c -0.674,0.285 -1.38,0.54 -2.16,0.72 -1.725,-3.1550001 -2.048,-7.7120001 -3.84,-10.80000006 0.493,-0.566 1.644,-1.41900004 2.4,-0.96000004 1.506,3.374 2.452,7.308 3.6,11.0400001 z"
   id="path3449" /><path
   style="fill:#ffffff;fill-rule:evenodd"
   inkscape:connector-curvature="0"
   clip-rule="evenodd"
   d="m -104.21114,2.8367119 c -4.168,1.796 2.662,5.42 3.6,7.6800001 -0.158,0.883 -0.885,1.195 -1.44,1.68 -1.181,-0.693 -2.684,-2.4140001 -4.32,-4.3190001 -1.699,-1.979 -5.249,-4.957 -2.16,-6.48 1.887,0.958 3.465,-1.56499996 4.32,1.439 z"
   id="path3451" /><path
   style="fill:#ffffff;fill-rule:evenodd"
   inkscape:connector-curvature="0"
   clip-rule="evenodd"
   d="m -78.531138,2.8367119 c 0.478,2.223 -1.746,2.586 -2.4,1.2 -0.277,-1.667 1.511,-2.046 2.4,-1.2 z"
   id="path3453" /><path
   style="fill:#ffffff;fill-rule:evenodd"
   inkscape:connector-curvature="0"
   clip-rule="evenodd"
   d="m -99.651138,2.8367119 c 5.242,-1.827 5.962,7.2250001 0.96,6.96 -3.483002,-0.184 -4.390002,-5.764 -0.96,-6.96 z m 0.24,3.6 c 0.309,0.411 0.496,0.944 1.2,0.96 0.651,-0.422 0.697,-2.023 -0.24,-2.16 -0.241,0.479 -1.061,0.379 -0.96,1.2 z"
   id="path3455" /><path
   style="fill:#ffffff;fill-rule:evenodd"
   inkscape:connector-curvature="0"
   clip-rule="evenodd"
   d="m -77.091138,6.9167119 c 0.332,1.988 1.664,2.977 1.68,5.2790001 -0.926,0.034 -1.109,0.812 -2.16,0.721 -0.57,-1.91 -1.637,-3.3230001 -1.92,-5.5210001 1.027,0.068 1.187,-0.733 2.4,-0.479 z"
   id="path3457" /><path
   style="fill:#ffffff;fill-rule:evenodd"
   inkscape:connector-curvature="0"
   clip-rule="evenodd"
   d="m -82.131138,12.676712 c 1.259,-0.258 2.144,-0.278 3.12,0.24 -2.835,8.602 -12.574,-7.3160001 -3.6,-5.7610001 1.31,0.228 2.58,4.0880001 0.48,5.5210001 z m -1.2,-1.68 c 0.916,-0.216 0.527,-1.9460001 -0.72,-1.4400001 -0.01,0.7290001 -0.14,1.5800001 0.72,1.4400001 z"
   id="path3459" /><path
   style="fill:#ffffff;fill-rule:evenodd"
   inkscape:connector-curvature="0"
   clip-rule="evenodd"
   d="m -107.09114,13.876712 c 1.537,0.565 2.243,-1.078 3.6,0.239 -0.809,3.967 -7.747,2.037 -8.4,-0.96 -0.79,-3.6210001 3.604,-5.5370001 5.28,-1.439 0.074,0.954 -0.554,1.205 -0.48,2.16 z m -2.64,-1.92 c -0.01,0.33 0.113,0.526 0.24,0.72 0.632,0.072 0.788,-0.332 0.72,-0.96 -0.418,-0.018 -0.746,0.054 -0.96,0.24 z"
   id="path3461" /><path
   style="fill:#ffffff;fill-rule:evenodd"
   inkscape:connector-curvature="0"
   clip-rule="evenodd"
   d="m -114.77114,14.836712 c 1.547,0.692 3.983,0.497 5.28,1.439 0.129,1.089 -0.482,1.438 -0.72,2.16 -1.837,-0.403 -3.568,-0.912 -5.76,-0.96 0.789,1.61 2.352,2.448 3.36,3.84 -0.106,0.854 -0.869,1.052 -1.2,1.681 -3.09,-1.558 -5.674,-5.681 -8.64,-8.16 -0.675,-5.1360001 9.117,-7.2640001 7.68,0 z m -4.8,-0.72 c 0.629,0.332 0.826,1.095 1.68,1.2 0.491,-0.628 0.836,-1.403 0.72,-2.64 -1.122,-0.52 -2.091,0.432 -2.4,1.44 z"
   id="path3463" /><path
   style="fill:#ffffff;fill-rule:evenodd"
   inkscape:connector-curvature="0"
   clip-rule="evenodd"
   d="m -85.731138,16.516712 c -3.031,1.49 -6.688,1.482 -7.68,-1.68 -0.158,-0.503 -0.077,-1.433 0,-1.92 2.225,-1.761 2.176,1.873 3.84,2.159 0.772,-1.26 -0.931,-2.103 -0.72,-3.6 2.673,-2.0270001 4.189,3.289 4.56,5.041 z"
   id="path3465" /><path
   style="fill:#ffffff;fill-rule:evenodd"
   inkscape:connector-curvature="0"
   clip-rule="evenodd"
   d="m -94.851138,16.036712 c -0.039,1.081 -1.359,0.881 -1.44,1.92 -0.103,0.982 0.507,1.253 0.96,1.68 1.139,0.099 1.261,-0.819 2.4,-0.72 0.316,0.724 0.775,1.305 0.72,2.399 -2.875,1.748 -6.646,0.188 -6.96,-2.64 -0.272,-2.448 2.965,-6.154 4.32,-2.639 z"
   id="path3467" /><path
   style="fill:#ffffff;fill-rule:evenodd"
   inkscape:connector-curvature="0"
   clip-rule="evenodd"
   d="m -99.651138,22.996712 c 1.284,0.244 1.194,-0.886 2.4,-0.721 0.206,0.755 0.907,1.013 0.96,1.92 -1.152,0.867 -2.012,1.557 -3.36,1.44 -4.402002,-0.381 -4.241002,-9.175 -0.720002,-5.28 -0.358,1.107 -0.255,2.262 0.720002,2.641 z"
   id="path3469" /><path
   style="fill:#000000;fill-rule:evenodd"
   inkscape:connector-curvature="0"
   clip-rule="evenodd"
   d="m 169.20077,192.01056 c 1.189,0.73 0.628,3.212 1.2,4.56 0.568,0.475 0.953,-1.275 1.92,-1.199 0.664,0.376 1.334,0.745 2.16,0.96 0.045,1.619 -2.361,1.393 -2.4,2.399 -0.047,1.204 2.854,1.62 3.6,3.12 -1.05,2.333 -3.261,0.297 -4.56,-0.479 -0.326,0.265 0.234,1.672 0.24,2.399 -0.957,0.164 -1.633,0.607 -2.88,0.48 -0.771,-3.629 -1.269,-7.532 -1.92,-11.28 0.751,-0.449 1.909,-0.491 2.64,-0.96 z"
   id="path3471" /><path
   style="fill:#ffffff;fill-rule:evenodd"
   inkscape:connector-curvature="0"
   clip-rule="evenodd"
   d="m -100.61114,26.356712 c 0.167,1.399 -1.06,1.325 -1.92,2.16 -0.745,0.724 -1.067,1.907 -1.92,2.16 -3.116,0.923 -5.506,-2.01 -5.28,-4.32 0.153,-1.562 1.756,-3.509 2.88,-3.6 2.164,-0.176 3.78,3.525 6.24,3.6 z m -4.8,1.92 c 0.653,-1.366 -0.818,-2.057 -1.68,-2.64 -0.767,1.338 0.526,2.447 1.68,2.64 z"
   id="path3473" /><path
   style="fill:#000000;fill-rule:evenodd"
   inkscape:connector-curvature="0"
   clip-rule="evenodd"
   d="m 150.00077,192.25056 c 1.13,4.391 1.963,9.077 2.4,14.16 -1.208,-0.168 -1.673,0.407 -2.88,0.239 -1.062,-4.537 -2.196,-9.004 -2.641,-14.159 1.059,-0.062 1.857,-0.383 3.121,-0.24 z"
   id="path3475" /><path
   style="fill:#000000;fill-rule:evenodd"
   inkscape:connector-curvature="0"
   clip-rule="evenodd"
   d="m 179.52077,198.73056 c 0.461,1.376 2.118,0.39 2.88,0 2.479,1.57 -0.443,4.479 -3.84,3.601 -1.63,-0.422 -4.773,-5.789 -2.881,-8.4 3.024,-4.171 10.19,1.78 3.841,4.799 z m -1.44,-1.92 c 0.733,0.174 0.875,-0.245 1.44,-0.24 -0.003,-0.637 0.09,-1.37 -0.24,-1.68 -1.354,-0.362 -1.789,1.096 -1.2,1.92 z"
   id="path3477" /><path
   style="fill:#000000;fill-rule:evenodd"
   inkscape:connector-curvature="0"
   clip-rule="evenodd"
   d="m 158.16077,192.49056 c 1.32,3.719 1.657,8.422 2.64,12.479 -0.823,0.536 -2.263,0.457 -3.359,0.72 -0.999,-3.961 -1.383,-8.537 -1.92,-12.96 0.989,0.031 1.501,-0.416 2.639,-0.239 z"
   id="path3479" /><path
   style="fill:#000000;fill-rule:evenodd"
   inkscape:connector-curvature="0"
   clip-rule="evenodd"
   d="m 164.40077,195.13056 c -0.827,0.7 -1.456,1.072 -2.4,0.72 -3.428,-1.281 3.056,-6.439 2.4,-0.72 z"
   id="path3481" /><path
   style="fill:#000000;fill-rule:evenodd"
   inkscape:connector-curvature="0"
   clip-rule="evenodd"
   d="m 164.64077,196.56956 c 0.456,2.425 0.673,5.088 1.2,7.44 -0.798,0.402 -1.966,0.435 -2.88,0.72 -0.617,-2.263 -0.668,-5.091 -1.439,-7.199 0.362,-0.998 2.114,-0.605 3.119,-0.961 z"
   id="path3483" /><path
   style="fill:#000000;fill-rule:evenodd"
   inkscape:connector-curvature="0"
   clip-rule="evenodd"
   d="m -0.63634527,45.104472 c -0.0808,2.14924 -0.115259,4.28863 0.04953,6.38947 -0.93557203,0.22624 -1.81863303,0.71886 -2.86333603,0.39154 0.138684,-3.02552 0.05675,-6.00755 0.291174,-9.05194 0.622485,-0.64452 1.400594,-0.49958 2.131688,-0.59322 0.86406203,0.4639 0.04424,1.25903 0.52756303,1.79869 0.05154,-1.79682 0.143047,-3.60295 -0.18503,-5.32564 -0.35154003,0.55289 -0.02814,3.67399 -2.13883603,3.18919 -1.194381,-0.66615 -0.824172,-2.76219 0.473824,-2.86096 -0.05145,-1.25903 -0.06794,-2.523522 0.276884,-3.859961 2.15386903,-0.188226 4.371202,-0.05454 6.523983,-0.248298 0.448081,0.949504 -0.34427,2.143527 -0.07518,3.128309 -0.433827,0.72408 -1.113575,0.20437 -1.599372,0.66122 -0.807862,1.48825 1.200292,6.1763 -0.35444,7.85361 -0.723818,0.78124 -3.38788197,0.81995 -3.05845897,-1.472 z"
   id="path3485" /><path
   style="fill:#000000;fill-rule:evenodd"
   inkscape:connector-curvature="0"
   clip-rule="evenodd"
   d="m 287.76077,-105.82944 c 0.49,0.917 0.049,1.835 0,2.88 -0.74,0.379 -1.646,0.595 -2.399,0.96 -0.013,1.745 2.078,-0.037 1.92,1.92 -5.022,4.467 -4.975,-9.073 0.479,-5.76 z"
   id="path3487" /><path
   style="fill:#000000;fill-rule:evenodd"
   inkscape:connector-curvature="0"
   clip-rule="evenodd"
   d="m 273.84077,-104.38944 c 0.086,1.206 -0.063,2.176 -0.479,2.88 -0.915,0.286 -2.083,0.318 -2.88,0.72 -0.003,1.355 2.276,0.335 2.64,0.72 0.397,2.278 -1.772,2.583 -3.36,2.16 -2.637,-2.81 0.669,-9.717 4.079,-6.48 z"
   id="path3489" /><path
   style="fill:#000000;fill-rule:evenodd"
   inkscape:connector-curvature="0"
   clip-rule="evenodd"
   d="m 252.31992,8.4713138 c 0.60579,9.2183522 -14.35272,12.6636532 -14.84131,1.5360462 -0.42136,8.865433 -7.77039,9.410046 -15.56191,9.423196 -1.4123,-8.172393 -2.26913,-16.8081702 -2.18377,-26.2274727 2.09428,-0.402122 4.04024,-0.983481 6.58414,-0.844449 0.43054,3.321951 0.37744,7.04656805 0.73408,10.4300495 5.0766,0.63151 9.58052,1.738889 10.0358,6.218894 -0.81474,-10.4374195 14.28845,-10.6742495 14.62415,-1.796886 -1.10702,-12.3820785 15.57595,-10.6540235 16.08,-1.904874 0.23869,4.146917 -3.05226,9.5137532 -7.17491,9.9484592 -4.58096,0.483209 -8.23207,-2.781525 -8.29627,-6.7829632 z m 5.0858,-2.909339 c -0.26598,1.988045 -0.45688,3.912659 0.78014,4.6502682 3.31683,0.680602 4.83456,-2.9182352 3.89197,-5.6694072 -1.81671,-0.976341 -3.81897,-0.0316 -4.67211,1.019139 z m -13.10516,6.2736582 c 3.44359,0.271438 3.60475,-6.9880092 -0.67095,-5.8452912 -2.87585,0.768531 -1.83544,5.6474282 0.67095,5.8452912 z m -16.81886,2.078369 c 5.36022,0.901434 4.64706,-5.5040202 0.0252,-5.5406862 -0.1557,1.9679962 0.21553,3.4991232 -0.0252,5.5406862 z"
   id="path3491" /><path
   style="fill:#000000;fill-rule:evenodd"
   inkscape:connector-curvature="0"
   clip-rule="evenodd"
   d="m 13.213683,43.411922 c 0.670256,-1.57573 0.477159,-4.47458 0.950031,-6.587252 0.74771,-0.594255 1.671849,-0.293558 2.464691,-0.658865 1.231984,1.313877 1.05981,2.904577 1.718752,4.331427 0.528611,-0.79899 0.633419,-3.00559 0.877237,-4.324277 0.887941,-0.756669 1.96984,-0.536792 3.06267,-0.257795 -1.442867,4.262802 -1.160503,8.184762 -2.896691,12.506112 -2.135987,-0.16343 -2.575663,-2.25113 -3.318108,-3.67016 -0.61306,0.6448 -0.584183,2.64847 -0.809767,3.79276 -0.680178,0.64435 -1.504245,0.5552 -2.396107,0.1257 0.511163,-1.31158 0.203696,-2.46177 0.475652,-3.72546 -0.734316,3.78798 -7.3172483,6.81185 -7.3254913,1.44342 -0.511164,1.31156 -0.203697,2.46175 -0.476208,3.72628 -0.820999,0.51861 -1.777376,0.34319 -2.795312,-0.14082 0.598225,-2.71251 0.755222,-5.33804 1.353447,-8.05056 0.892437,0.43236 1.558115,-0.28553 2.462311,0.20648 -0.212966,0.79153 -0.259987,1.55107 -0.405798,2.32863 1.14068,-4.30773 8.0168843,-6.46545 7.0586953,-1.04559 z m -2.593606,-0.87248 c -1.4636583,-0.0725 -3.5688083,2.96948 -1.2758883,4.05691 1.5860993,-0.37755 2.7586613,-2.86743 1.2758883,-4.05691 z"
   id="path3493" /></g>
</svg>