<?xml version="1.0" encoding="UTF-8" standalone="no"?>
<!-- Generator: Adobe Illustrator 13.0.0, SVG Export Plug-In . SVG Version: 6.00 Build 14948)  -->

<svg
   xmlns:dc="http://purl.org/dc/elements/1.1/"
   xmlns:cc="http://creativecommons.org/ns#"
   xmlns:rdf="http://www.w3.org/1999/02/22-rdf-syntax-ns#"
   xmlns:svg="http://www.w3.org/2000/svg"
   xmlns="http://www.w3.org/2000/svg"
   xmlns:sodipodi="http://sodipodi.sourceforge.net/DTD/sodipodi-0.dtd"
   xmlns:inkscape="http://www.inkscape.org/namespaces/inkscape"
   version="1.1"
   id="Calque_1"
   x="0px"
   y="0px"
   width="66.064px"
   height="13.739px"
   viewBox="0 0 66.064 13.739"
   enable-background="new 0 0 66.064 13.739"
   xml:space="preserve"
   inkscape:version="0.48.2 r9819"
   sodipodi:docname="themes.svg"><metadata
   id="metadata27"><rdf:RDF><cc:Work
       rdf:about=""><dc:format>image/svg+xml</dc:format><dc:type
         rdf:resource="http://purl.org/dc/dcmitype/StillImage" /><dc:title></dc:title></cc:Work></rdf:RDF></metadata><defs
   id="defs25">
		
		
		
		
		
		
		
	
	
	
	
	
	
	
	
	
	

	
</defs><sodipodi:namedview
   pagecolor="#ffffff"
   bordercolor="#666666"
   borderopacity="1"
   objecttolerance="10"
   gridtolerance="10"
   guidetolerance="10"
   inkscape:pageopacity="0"
   inkscape:pageshadow="2"
   inkscape:window-width="902"
   inkscape:window-height="644"
   id="namedview23"
   showgrid="false"
   inkscape:zoom="3.7675826"
   inkscape:cx="32.090788"
   inkscape:cy="4.7659059"
   inkscape:window-x="335"
   inkscape:window-y="0"
   inkscape:window-maximized="0"
   inkscape:current-layer="Calque_1" />
<path
   inkscape:connector-curvature="0"
   style="fill:#000000"
   id="path5"
   d="m 10.607362,1.1640909 c 0.738,0.781 0.415,2.625 0.479,4.08 4.244,-1.012 6.748,2.766 5.28,7.4400001 -0.561,0 -1.12,0 -1.68,0 -0.889,-1.112 -0.238,-3.7630001 -1.2,-4.8000001 -1.135,-0.175 -1.578,0.342 -2.16,0.72 -0.256,2.1100001 0.705,3.9560001 -0.48,5.0410001 -0.64,0 -1.2789995,0 -1.9199995,0 -0.611,-3.7890001 -0.768,-8.0330001 -0.96,-12.2400001 1.097,0.135 1.496,-0.42599997 2.6409995,-0.241 z" /><path
   inkscape:connector-curvature="0"
   style="fill:#000000"
   id="path7"
   d="m 57.430636,3.5425 c -0.053,0.907 -0.755,1.166 -0.96,1.92 -1.272,-0.075 -2.123,-1.21 -3.12,-0.24 1.01,2.634 4.644,2.097 3.84,5.76 -0.512,2.334 -4.489,3.396 -6.479,1.199 -0.106,-0.906 0.473,-1.127 0.72,-1.68 0.89,-0.027 1.405,1.113 2.16,0.479 0.553,0.074 0.267,-0.692 0.72,-0.719 -0.559,-2.25 -3.378,-1.968 -3.84,-3.841 -0.979,-3.961 4.711,-5.50699996 6.959,-2.878 z" /><path
   inkscape:connector-curvature="0"
   style="fill:#000000"
   id="path15"
   d="m 49.511636,7.8840909 c -1.288,0.513 -3.4,1.344 -4.562,1.2 -0.246,1.7290001 2.879,1.3850001 3.602,0.721 2.378,2.4800001 -1.968,4.1230001 -4.562,3.1190001 -4.87,-2.646 -0.902,-13.9840001 5.04,-8.1600001 0.132,1.07 0.237,2.164 0.482,3.12 z m -4.321,-0.96 c 0.758,0.118 0.848,-0.432 1.68,-0.24 -0.045,-0.675 -0.417,-1.022 -1.198,-0.96 -0.104,0.458 -0.687,0.434 -0.482,1.2 z" />
<path
   id="path3111"
   d="m 34.584101,-22.101492 c 0.074,0.875 -0.038,1.562 -0.24,2.16 -0.48,0 -0.96,0 -1.44,0 -0.249,1.882 0.349,4.907 0.24,7.44 -1.022,-0.098 -2.472,0.232 -3.12,-0.24 0.178,-3.698 -0.439,-6.6 -0.479,-10.08 1.11,-0.095 2.746,-0.686 3.12,0.48 0.691,0.029 1.57,-0.131 1.919,0.24 z"
   clip-rule="evenodd"
   inkscape:connector-curvature="0"
   style="fill-rule:evenodd" /><path
   id="path3113"
   d="M 0.39875209,0.99035324 C 0.70186569,0.87305214 2.7571368,0.76949366 3.0133299,0.95717546 3.1540913,1.4275561 3.4114632,3.7571754 3.4114632,4.1571754 c 0.814,0.065 1.7807784,0.025142 2.399,0.24 0.1407614,0.7157784 0,1.76 0,2.64 -1.1156818,0.059682 -1.0771591,0.052636 -2.159,0.24 -0.052,1.415 0.2246818,3.9195556 0,5.9553336 -0.952,0.122142 -2.301,0.22 -2.88100001,-0.24 C 0.88346318,9.1205086 0.36253049,1.408302 0.39875209,0.99035324 z"
   clip-rule="evenodd"
   inkscape:connector-curvature="0"
   style="fill-rule:evenodd;fill:#000000"
   sodipodi:nodetypes="ccccccccc" /><path
   id="path3115"
   d="m 13.464101,-20.421492 c 0,0.56 0,1.12 0,1.68 -1.719,0.656 -4.2240004,1.046 -3.8400004,3.12 0.215,1.16 1.5720004,1.552 3.3600004,1.68 0.191,0.769 0.709,1.211 0.72,2.16 -3.098,1.481 -6.3890004,-0.308 -6.7200004,-3.36 -0.361,-3.336 2.346,-6.249 6.4800004,-5.28 z"
   clip-rule="evenodd"
   inkscape:connector-curvature="0"
   style="fill-rule:evenodd" /><path
   id="path3117"
   d="m 28.344101,-19.461492 c 0.45,1.87 0.803,3.837 0.96,6 -0.387,0.493 -1.203,0.557 -2.16,0.479 -0.708,-1.371 0.442,-4.602 -1.68,-4.56 -1.531,0.47 -0.899,3.101 -1.2,4.8 -0.751,-0.049 -1.762,0.162 -2.16,-0.24 0.064,-2.544 -0.021,-4.938 -0.24,-7.2 0.741,-0.005 1.882,-1.104 1.92,0.24 1.47,-0.902 3.421,-0.682 4.56,0.481 z"
   clip-rule="evenodd"
   inkscape:connector-curvature="0"
   style="fill-rule:evenodd" /><path
   id="path3119"
   d="m 42.504101,-20.181492 c 0.546,2.415 0.09,5.83 0.24,8.641 -1.24,-0.041 -2.956,0.395 -2.641,-1.2 -4.432,3.443 -8.594,-2.355 -6,-6 0.978,-1.374 3.545,-1.924 5.76,-0.96 0.563,-0.479 1.528,-0.554 2.641,-0.481 z m -6.48,4.8 c 0.283,0.358 0.603,0.678 0.96,0.961 1.911,0.33 2.637,-1.327 2.16,-2.641 -1.136,-1.085 -3.562,-0.303 -3.12,1.68 z"
   clip-rule="evenodd"
   inkscape:connector-curvature="0"
   style="fill-rule:evenodd" /><path
   id="path3121"
   d="m 19.704101,-19.701492 c 2.931,2.122 2.242,8.073 -1.68,8.16 -5.563,0.122 -5.664,-10.416 1.68,-8.16 z m -3.12,4.8 c 2.297,2.732 4.199,-3.29 0.96,-2.4 -1.086,0.034 -0.965,1.275 -0.96,2.4 z"
   clip-rule="evenodd"
   inkscape:connector-curvature="0"
   style="fill-rule:evenodd" /><path
   id="path3123"
   d="m 48.264101,-19.461492 c 0.282,1.962 -1.461,1.899 -2.4,2.64 -0.422,2.582 1.367,2.953 3.12,3.36 -0.173,0.733 0.246,0.874 0.24,1.439 -4.583,1.605 -7.416,-3.052 -5.28,-6.72 1.279,-0.853 2.382,-0.925 4.32,-0.719 z"
   clip-rule="evenodd"
   inkscape:connector-curvature="0"
   style="fill-rule:evenodd" /><g
   style="fill:#000000"
   id="g3140"
   transform="translate(-27.026182,31.342864)">
	<path
   style="fill:#000000"
   id="path3142"
   d="m 43.264,0.038 c 0.738,0.781 0.415,2.625 0.479,4.08 4.244,-1.012 6.748,2.766 5.28,7.44 -0.561,0 -1.12,0 -1.68,0 -0.889,-1.112 -0.238,-3.763 -1.2,-4.8 -1.135,-0.175 -1.578,0.342 -2.16,0.72 -0.256,2.11 0.705,3.956 -0.48,5.041 -0.64,0 -1.279,0 -1.92,0 -0.611,-3.789 -0.768,-8.033 -0.96,-12.24 1.097,0.135 1.496,-0.426 2.641,-0.241 z"
   inkscape:connector-curvature="0" />
	<path
   style="fill:#000000"
   id="path3144"
   d="m 66.064,1.478 c -0.053,0.907 -0.755,1.166 -0.96,1.92 -1.272,-0.075 -2.123,-1.21 -3.12,-0.24 1.01,2.634 4.644,2.097 3.84,5.76 -0.512,2.334 -4.489,3.396 -6.479,1.199 -0.106,-0.906 0.473,-1.127 0.72,-1.68 0.89,-0.027 1.405,1.113 2.16,0.479 0.553,0.074 0.267,-0.692 0.72,-0.719 -0.559,-2.25 -3.378,-1.968 -3.84,-3.841 -0.979,-3.961 4.711,-5.507 6.959,-2.878 z"
   inkscape:connector-curvature="0" />
	<path
   style="fill:#000000"
   id="path3146"
   d="m 18.064,3.398 c -0.67,-0.305 -1.187,-0.592 -1.92,-0.24 -0.556,0.565 -1.001,1.239 -0.96,2.4 0.284,0.436 1.251,0.189 1.68,0.48 0.128,0.929 -0.428,1.172 -0.24,2.16 -0.575,0.146 -1.095,0.346 -1.92,0.24 0.188,1.547 -0.355,2.363 -0.24,3.84 -0.88,0 -1.76,0 -2.64,0 0.264,-4.259 -0.27,-13.171 5.28,-11.76 1.144,0.291 1.894,1.441 0.96,2.88 z"
   inkscape:connector-curvature="0" />
	<path
   style="fill:#000000"
   id="path3148"
   d="m 27.664,1.718 c 2.155,-2.585 4.522,2.508 0.96,2.4 -0.697,-0.422 -1.133,-1.106 -0.96,-2.4 z"
   inkscape:connector-curvature="0" />
	<path
   style="fill:#000000"
   id="path3150"
   d="m 25.264,4.358 c -1.742,-0.839 -2.979,0.411 -2.88,2.16 0.019,0.861 1.568,0.191 1.92,0.72 0.128,0.928 -0.429,1.172 -0.24,2.16 -0.758,-0.118 -0.849,0.433 -1.68,0.239 -0.123,1.576 0.223,2.808 0,3.841 -1.146,-0.187 -1.545,0.375 -2.641,0.239 -0.615,-5.139 -0.904,-15.183 5.76,-11.52 0.498,0.883 -0.063,1.329 -0.239,2.161 z"
   inkscape:connector-curvature="0" />
	<path
   style="fill:#000000"
   id="path3152"
   d="m 58.145,6.758 c -1.288,0.513 -3.4,1.344 -4.562,1.2 -0.246,1.729 2.879,1.385 3.602,0.721 2.378,2.48 -1.968,4.123 -4.562,3.119 -4.87,-2.646 -0.902,-13.984 5.04,-8.16 0.132,1.07 0.237,2.164 0.482,3.12 z m -4.321,-0.96 c 0.758,0.118 0.848,-0.432 1.68,-0.24 -0.045,-0.675 -0.417,-1.022 -1.198,-0.96 -0.104,0.458 -0.687,0.434 -0.482,1.2 z"
   inkscape:connector-curvature="0" />
	<path
   style="fill:#000000"
   id="path3154"
   d="M 9.664,3.158 C 9.718,6.251 9.6,9.174 9.184,11.797 7.145,10.908 5.931,12.059 3.904,11.797 0.972,11.42 -1.245,7.3 0.784,4.118 2.656,1.183 6.303,3.328 9.664,3.158 z m -4.56,1.92 c -2.6,-1.141 -2.899,4.01 -0.24,3.84 1.333,-0.601 1.01,-2.865 0.24,-3.84 z"
   inkscape:connector-curvature="0" />
	<path
   style="fill:#000000"
   id="path3156"
   d="m 38.224,6.038 c -0.313,1.671 -3.232,0.484 -3.12,2.64 0.073,1.41 1.458,1.75 3.359,0.961 0.129,0.832 0.643,1.277 0.721,2.158 -2.87,2.293 -6.852,0.427 -7.2,-2.639 -0.394,-3.456 3.882,-6.715 6.24,-3.12 z"
   inkscape:connector-curvature="0" />
	<path
   style="fill:#000000"
   id="path3158"
   d="m 27.664,5.078 c 1.167,-0.046 2.294,-0.055 2.88,0.48 -0.021,2.539 0.119,5.239 -0.239,7.44 -1.261,0.141 -1.817,-0.424 -3.12,-0.24 0.258,-2.461 0.197,-5.242 0.479,-7.68 z"
   inkscape:connector-curvature="0" />
</g><path
   d="m 25.863726,7.8840909 c -1.288,0.513 -3.4,1.344 -4.562,1.2 -0.246,1.7290001 2.879,1.3850001 3.602,0.721 2.378,2.4800001 -1.968,4.1230001 -4.562,3.1190001 -4.87,-2.646 -0.902,-13.9840001 5.04,-8.1600001 0.132,1.07 0.237,2.164 0.482,3.12 z m -4.321,-0.96 c 0.758,0.118 0.848,-0.432 1.68,-0.24 -0.045,-0.675 -0.417,-1.022 -1.198,-0.96 -0.104,0.458 -0.687,0.434 -0.482,1.2 z"
   id="path3170"
   style="fill:#000000"
   inkscape:connector-curvature="0" /><path
   style="fill-rule:evenodd;fill:#000000"
   inkscape:connector-curvature="0"
   clip-rule="evenodd"
   d="m 33.599192,5.3125085 c 0.45,1.87 0.803,3.837 0.96,6.0000005 -0.387,0.493 -1.203,0.557 -2.16,0.479 -0.708,-1.371 0.442,-4.6020005 -1.68,-4.5600005 -1.531,0.47 -0.899,3.1010005 -1.2,4.8000005 -0.751,-0.049 -1.762,0.162 -2.16,-0.24 0.064,-2.5440005 -0.021,-4.9380005 -0.24,-7.2000005 0.741,-0.005 1.882,-1.104 1.92,0.24 1.47,-0.902 3.421,-0.682 4.56,0.481 z"
   id="path3179" /><path
   id="path3181"
   d="m 39.135806,5.3125084 c 0.45,1.87 0.803,3.837 0.96,6.0000006 -0.387,0.493 -1.203,0.557 -2.16,0.479 -0.708,-1.371 0.442,-4.6020006 -1.68,-4.5600006 -1.531,0.47 -0.899,3.1010006 -1.2,4.8000006 -0.751,-0.049 -1.762,0.162 -2.16,-0.24 -1.20573,-1.597344 0.02329,-3.9660653 0.366227,-6.2092733 1.47,-0.902 4.734773,-1.4327273 5.873773,-0.2697273 z"
   clip-rule="evenodd"
   inkscape:connector-curvature="0"
   style="fill-rule:evenodd;fill:#000000"
   sodipodi:nodetypes="cccccccc" /></svg>