<?xml version="1.0" encoding="utf-8"?>
<!-- Generator: Adobe Illustrator 13.0.0, SVG Export Plug-In . SVG Version: 6.00 Build 14948)  -->
<!DOCTYPE svg PUBLIC "-//W3C//DTD SVG 1.1//EN" "http://www.w3.org/Graphics/SVG/1.1/DTD/svg11.dtd">
<svg version="1.1" id="Calque_1" xmlns="http://www.w3.org/2000/svg" xmlns:xlink="http://www.w3.org/1999/xlink" x="0px" y="0px"
	 width="42.875px" height="21.869px" viewBox="0 0 42.875 21.869" enable-background="new 0 0 42.875 21.869" xml:space="preserve">
<g>
	<path fill="#FFFFFF" d="M36.96,0.118c4.564-1.105,7.896,5.813,4.56,8.88c-4.462,4.103-9.445-2.364-7.44-6.72
		C34.479,1.411,35.617,0.443,36.96,0.118z M39.121,6.358C39.312,0.292,34.029,7.51,39.121,6.358L39.121,6.358z"/>
	<path fill="#FFFFFF" d="M19.92,0.118c2.371,3.95,4.178,8.461,5.76,13.199c-0.884,0.115-2.519,2.09-2.88,0.48
		c-2.549,4.821-8.852,2.362-9.601-2.64c-0.491-3.277,1.241-7.489,5.04-6.48c-0.314-1.364-1.068-2.292-1.439-3.6
		C17.968,0.886,19.1,0.658,19.92,0.118z M19.68,11.878c0.521-1.176,0.148-2.848-0.24-3.84C15.207,6.38,15.879,13.517,19.68,11.878z"
		/>
	<path fill="#FFFFFF" d="M33.36,6.118c-1.87,0.77-3.594,1.686-5.28,2.64c0.699,2.654,4.197,0.453,5.76-0.24
		c0.404,0.716,0.951,1.289,1.201,2.16c-4.394,7.229-13.738-1.012-10.08-7.439C26.767,0.063,34.548,0.078,33.36,6.118z M28.32,5.878
		c0.772-0.188,1.592-0.329,2.16-0.72C30.4,3.528,27.742,4.103,28.32,5.878z"/>
	<path fill="#FFFFFF" d="M7.44,4.438c3.847-0.62,2.991,3.891,0.24,3.84C5.628,8.241,4.005,4.992,7.44,4.438z"/>
	<path fill="#FFFFFF" d="M10.8,8.758c2.3,2.5,2.899,6.7,4.56,9.841c-0.653,1.106-2.7,0.819-4.08,1.199
		c-1.547-2.933-2.451-6.509-3.84-9.601C8.105,9.264,9.654,9.213,10.8,8.758z"/>
	<path fill="#FFFFFF" d="M9.36,21.718C5.225,22.56,2.801,19.647,0,18.358c0.123-1.478,0.911-2.289,1.2-3.601
		c1.253,0.507,2.407,1.113,3.601,1.681c-0.182-2.06-1.393-3.088-1.2-5.521c1.286,0.013,2.659-0.921,3.6-0.48
		C7.979,14.138,9.373,17.226,9.36,21.718z"/>
</g>
</svg>
