<?xml version="1.0" encoding="UTF-8" standalone="no"?>
<!-- Generator: Adobe Illustrator 13.0.0, SVG Export Plug-In . SVG Version: 6.00 Build 14948)  -->

<svg
   xmlns:dc="http://purl.org/dc/elements/1.1/"
   xmlns:cc="http://creativecommons.org/ns#"
   xmlns:rdf="http://www.w3.org/1999/02/22-rdf-syntax-ns#"
   xmlns:svg="http://www.w3.org/2000/svg"
   xmlns="http://www.w3.org/2000/svg"
   xmlns:sodipodi="http://sodipodi.sourceforge.net/DTD/sodipodi-0.dtd"
   xmlns:inkscape="http://www.inkscape.org/namespaces/inkscape"
   version="1.1"
   id="Calque_1"
   x="0px"
   y="0px"
   width="61.593182"
   height="17.933128"
   viewBox="0 0 61.593181 17.933129"
   enable-background="new 0 0 42.875 21.869"
   xml:space="preserve"
   inkscape:version="0.48.2 r9819"
   sodipodi:docname="videos-black.svg"><metadata
   id="metadata21"><rdf:RDF><cc:Work
       rdf:about=""><dc:format>image/svg+xml</dc:format><dc:type
         rdf:resource="http://purl.org/dc/dcmitype/StillImage" /><dc:title></dc:title></cc:Work></rdf:RDF></metadata><defs
   id="defs19">
	
	
	
	
	
	
</defs><sodipodi:namedview
   pagecolor="#ffffff"
   bordercolor="#666666"
   borderopacity="1"
   objecttolerance="10"
   gridtolerance="10"
   guidetolerance="10"
   inkscape:pageopacity="0"
   inkscape:pageshadow="2"
   inkscape:window-width="1039"
   inkscape:window-height="631"
   id="namedview17"
   showgrid="false"
   fit-margin-top="0"
   fit-margin-left="0"
   fit-margin-right="2"
   fit-margin-bottom="2"
   inkscape:zoom="11.61057"
   inkscape:cx="30.113974"
   inkscape:cy="5.3895956"
   inkscape:window-x="6"
   inkscape:window-y="0"
   inkscape:window-maximized="0"
   inkscape:current-layer="g3195" />
<path
   inkscape:connector-curvature="0"
   style="fill:#ffffff"
   id="path5"
   d="m 46.168492,4.3669998 c 4.68584,0.3066137 5.80272,7.9035552 1.70377,9.8359112 -5.4827,2.585344 -8.30996,-5.0735748 -5.09695,-8.6332571 0.63944,-0.7085242 2.01437,-1.2930276 3.39318,-1.2026541 z m 0.20141,6.6005262 c 1.99163,-5.7329099 -5.20383,-0.419241 0,0 l 0,0 z" /><path
   inkscape:connector-curvature="0"
   style="fill:#ffffff"
   id="path7"
   d="m 27.416922,0.01526268 c 1.0849,4.47740292 1.46414,9.32204402 1.56091,14.31624132 -0.87806,-0.153908 -3.02773,1.243516 -2.89208,-0.400874 -3.87094,3.841256 -9.15358,-0.385823 -8.37653,-5.3835423 0.50879,-3.2742853 3.41828,-6.7779507 6.74339,-4.6817429 C 24.559752,2.4697754 24.116872,1.3591199 24.152892,0 c 1.17181,0.16607628 2.32029,0.28609897 3.26403,0.0152627 z M 23.680162,11.168371 c 0.84805,-0.967069 0.99074,-2.6742165 0.91629,-3.7367912 -3.54578,-2.845116 -5.03314,4.1674522 -0.91629,3.7367912 z" /><path
   inkscape:connector-curvature="0"
   style="fill:#ffffff"
   id="path9"
   d="m 39.551742,8.8983002 c -2.01455,0.1771809 -3.93329,0.5372639 -5.8271,0.9449509 -0.12443,2.7416849 3.87084,1.6842289 5.5694,1.4889739 0.17205,0.80391 0.52324,1.513982 0.50206,2.419903 -6.3502,5.589333 -12.8108,-5.0635998 -7.40232,-10.1069677 2.67111,-2.4927511 10.09345,-0.1575767 7.15796,5.2531399 z m -4.739,-1.7323682 c 0.79294,0.050824 1.61767,0.1608255 2.27644,-0.042958 0.40982,-1.5796655 -2.29869,-1.823647 -2.27644,0.042958 z" /><path
   inkscape:connector-curvature="0"
   style="fill:#ffffff"
   id="path11"
   d="m 12.876622,0.17257272 c 3.85681,0.55567567 1.69427,4.60601738 -0.91629,3.73679158 -1.94756,-0.6473707 -2.5276003,-4.23257477 0.91629,-3.73679158 z" /><path
   inkscape:connector-curvature="0"
   style="fill:#ffffff"
   id="path13"
   d="m 14.916942,4.4454969 c 1.44962,3.0722285 0.76861,7.2597131 1.41713,10.7531671 -0.95316,0.860884 -2.82138,-0.02361 -4.25191,-0.07253 -0.60175,-3.260918 -0.39797,-6.9437793 -0.80149,-10.3093343 0.91302,-0.6921795 2.40672,-0.2788341 3.63627,-0.3713028 z" /><path
   inkscape:connector-curvature="0"
   style="fill:#ffffff"
   id="path15"
   d="M 6.6424817,15.933128 C 2.6034917,14.710948 1.8531617,10.996336 -8.3495914e-6,8.5320173 0.80997165,7.2896228 1.8885417,6.9499877 2.7658017,5.9325044 c 0.86206,1.0411148 1.58998,2.1223559 2.37115,3.1891449 0.81787,-1.8994227 0.24014,-3.3791303 1.56515,-5.4287882 1.12564,0.6220115 2.77746,0.4518715 3.3962603,1.2867673 C 9.0259117,8.6062713 8.7866517,11.985877 6.6424817,15.933128 z" />
<g
   id="g3195"
   transform="translate(-238.56031,40.990353)"><path
     id="path3111"
     d="m 171.6,6.96 c 2.528,2.49 -2.152,4.446 -2.64,1.92 -0.196,-1.016 0.72,-2.29 2.64,-1.92 z"
     clip-rule="evenodd"
     inkscape:connector-curvature="0"
     style="fill-rule:evenodd" /><path
     id="path3113"
     d="m 147.12,7.44 c -0.053,1.867 0.167,4.007 -0.24,5.52 4.679,-2.062 7.638,2.6 6.72,8.4 -1.096,-0.104 -2.643,0.243 -3.36,-0.24 0.09,-2.411 -0.229,-4.412 -1.44,-5.52 -2.046,0.673 -1.941,3.499 -2.4,5.76 -1.145,0.186 -1.544,-0.375 -2.64,-0.24 -0.047,-4.847 0.002,-9.598 0.72,-13.68 0.88,0 1.76,0 2.64,0 z"
     clip-rule="evenodd"
     inkscape:connector-curvature="0"
     style="fill-rule:evenodd" /><path
     id="path3115"
     d="m 41.04,7.68 c 0.134,1.296 0.077,2.9 0,4.56 1.792,0.848 3.75,1.53 5.04,2.88 1.7,5.344 -3.24,7.466 -7.92,5.76 0,-4.32 0,-8.64 0,-12.96 1.137,0.097 1.652,-0.428 2.88,-0.24 z m 0,8.16 c 0.153,0.887 -0.311,2.391 0.24,2.88 0.284,-0.437 1.251,-0.189 1.68,-0.48 0.062,-1.422 -0.037,-2.683 -1.44,-2.64 -0.053,0.187 -0.201,0.279 -0.48,0.24 z"
     clip-rule="evenodd"
     inkscape:connector-curvature="0"
     style="fill-rule:evenodd" /><path
     id="path3117"
     d="m 126.24,10.32 c -0.701,0.63 -1.383,-0.213 -2.4,0 -0.871,0.489 -1.21,1.51 -1.2,2.88 0.179,0.541 1.346,0.094 1.92,0.24 0.326,0.397 -0.196,1.4 0,2.4 -0.31,0.331 -1.042,0.238 -1.68,0.24 -0.185,1.865 -0.039,2.585 0,4.56 -0.733,0.466 -1.852,0.548 -3.12,0.48 -0.085,-4.112 -0.309,-9.297 0.96,-12.72 1.499,-1.396 6.828,-0.926 5.52,1.92 z"
     clip-rule="evenodd"
     inkscape:connector-curvature="0"
     style="fill-rule:evenodd" /><path
     id="path3119"
     d="m 208.32,8.16 c -0.074,4.246 -0.273,8.366 -0.48,12.48 -0.773,0.346 -2.013,0.227 -3.12,0.24 -0.025,-4.505 0.18,-8.78 0.48,-12.96 0.539,-0.242 2.335,-0.034 3.12,0.24 z"
     clip-rule="evenodd"
     inkscape:connector-curvature="0"
     style="fill-rule:evenodd" /><path
     id="path3121"
     d="m 361.44,7.68 c 0.33,0.309 0.237,1.042 0.239,1.68 0.96,0 1.92,0 2.88,0 0.345,1.072 -0.134,1.678 0,3.12 -0.773,0.346 -2.013,0.227 -3.119,0.24 -0.416,2.049 -0.368,5.623 0,7.68 -0.896,0.384 -2.33,0.23 -3.36,0.48 -0.48,-3.919 -0.137,-8.663 -0.24,-12.96 0.789,-0.491 2.431,-0.129 3.6,-0.24 z"
     clip-rule="evenodd"
     inkscape:connector-curvature="0"
     style="fill-rule:evenodd" /><path
     id="path3123"
     d="m 96,8.4 c 0.095,3.985 -0.229,8.39 0.24,12 -3.954,1.168 -8.766,2.241 -9.12,-2.16 -0.171,-2.123 0.975,-2.952 1.68,-4.8 C 90.146,12.865 91.516,12.316 93.12,12 92.532,9.791 93.174,7.025 96,8.4 z M 92.88,18 c -0.141,-1.115 0.328,-1.449 0,-2.16 -3.878,-1.626 -3.032,4.983 0,2.16 z"
     clip-rule="evenodd"
     inkscape:connector-curvature="0"
     style="fill-rule:evenodd" /><path
     id="path3125"
     d="m 196.08,8.16 c 0,1.76 0,3.52 0,5.28 0.833,-0.046 0.911,-0.849 1.68,-0.96 1.122,0.318 2.091,0.789 2.4,1.92 -1,0.52 -1.644,1.397 -2.88,1.68 0.918,1.722 2.477,2.803 3.36,4.56 -1.992,1.599 -3.774,-0.282 -4.56,-1.92 -0.898,0.221 -0.313,1.927 -0.48,2.88 -1.04,0 -2.08,0 -3.12,0 0.069,-4.331 0.38,-8.42 0.24,-12.96 0.97,-0.31 2.047,-0.513 3.36,-0.48 z"
     clip-rule="evenodd"
     inkscape:connector-curvature="0"
     style="fill-rule:evenodd" /><path
     id="path3127"
     d="m 25.44,8.4 c 0.88,0 1.76,0 2.64,0 -0.187,1.947 0.346,3.174 0.24,5.04 4.708,-2.65 8.018,3.435 5.28,6.72 -1.911,2.292 -4.965,0.315 -8.4,0.96 -0.324,-3.697 0.082,-8.708 0.24,-12.72 z m 6.48,8.64 c -0.158,-2.738 -5.218,-0.957 -2.64,1.68 1.7,0.197 2.699,-0.654 2.64,-1.68 z"
     clip-rule="evenodd"
     inkscape:connector-curvature="0"
     style="fill-rule:evenodd" /><path
     id="path3129"
     d="m 162.96,8.88 c 0.968,2.175 -2.371,3.294 -2.88,1.44 -0.395,-1.44 1.21,-2.647 2.88,-1.44 z"
     clip-rule="evenodd"
     inkscape:connector-curvature="0"
     style="fill-rule:evenodd" /><path
     id="path3131"
     d="m 185.76,8.88 c 0.969,2.175 -2.371,3.294 -2.88,1.44 -0.396,-1.44 1.21,-2.647 2.88,-1.44 z"
     clip-rule="evenodd"
     inkscape:connector-curvature="0"
     style="fill-rule:evenodd" /><path
     id="path3133"
     d="m 82.32,8.88 c -0.116,4.302 0.462,9.104 0.24,12.72 -0.667,0.061 -2.685,0.898 -2.64,-0.72 -6.975,4.159 -8.298,-9.507 -0.48,-7.92 0,-1.36 0,-2.72 0,-4.08 0.821,-0.105 2.159,-0.546 2.88,0 z m -5.28,9.6 c 0.186,0.054 0.473,0.007 0.48,0.24 1.036,0.156 1.345,-0.415 1.92,-0.72 0,-0.64 0,-1.28 0,-1.92 -1.622,-0.956 -3.423,0.68 -2.4,2.4 z"
     clip-rule="evenodd"
     inkscape:connector-curvature="0"
     style="fill-rule:evenodd" /><path
     id="path3135"
     d="m 138.48,11.28 c 0.908,6.641 -0.863,17.75 -7.92,12.721 0.037,-1.244 0.638,-1.922 1.2,-2.641 0.809,0.152 1.231,0.689 2.4,0.48 0.888,-0.152 0.732,-1.348 0.72,-2.4 -4.175,1.475 -7.214,-4.095 -4.56,-7.2 2.026,-2.37 5.219,-0.166 8.16,-0.96 z m -3.12,3.36 c -0.491,-1.594 -3.346,-1.209 -3.36,0.96 0.93,2.275 3.926,0.877 3.36,-0.96 z"
     clip-rule="evenodd"
     inkscape:connector-curvature="0"
     style="fill-rule:evenodd" /><path
     id="path3137"
     d="m 351.84,11.52 c -0.04,0.68 -0.439,1 -0.479,1.68 -0.815,0.065 -1.946,-0.186 -2.4,0.24 0.52,2.468 3.543,1.569 4.08,3.6 0.858,3.247 -2.625,4.093 -6.24,4.08 -0.202,-0.598 -0.313,-1.286 -0.24,-2.16 0.895,-0.522 1.823,0.279 2.641,-0.48 -0.413,-2.798 -3.713,-1.633 -4.08,-4.08 -0.459,-3.038 3.562,-4.121 6.718,-2.88 z"
     clip-rule="evenodd"
     inkscape:connector-curvature="0"
     style="fill-rule:evenodd" /><path
     id="path3139"
     d="m 56.88,18.24 c 0.361,0.679 0.971,1.11 0.96,2.16 -5.649,3.111 -9.241,-4.214 -5.76,-7.44 0.746,-0.691 5.274,-2.649 4.56,0.48 -0.147,0.646 -3.922,1.414 -3.12,3.84 0.194,0.587 1.672,1.546 3.36,0.96 z"
     clip-rule="evenodd"
     inkscape:connector-curvature="0"
     style="fill-rule:evenodd" /><path
     id="path3141"
     d="m 226.8,20.64 c -0.819,0.357 -1.904,-0.071 -2.88,-0.24 0.155,-1.445 0.711,-2.489 0.48,-4.32 -0.342,-0.777 -1.248,-0.993 -2.4,-0.96 -1.479,0.761 -0.656,3.824 -1.44,5.28 -0.952,-0.088 -2.3,0.22 -2.88,-0.24 0,-1.52 0,-3.04 0,-4.56 -0.675,-0.333 -1.38,-0.635 -2.16,-0.24 -0.735,1.62 0.194,3.642 0,5.52 -0.959,-0.08 -1.332,0.428 -2.4,0.24 -0.448,-2.993 -0.645,-6.235 -0.96,-9.36 2.488,-0.011 5.245,0.062 7.68,0.96 5.744,-2.462 9.374,2.889 6.96,7.92 z"
     clip-rule="evenodd"
     inkscape:connector-curvature="0"
     style="fill-rule:evenodd" /><path
     id="path3143"
     d="m 307.68,11.76 c -0.099,4.221 -0.314,8.325 -0.479,12.479 -0.647,0.473 -2.098,0.144 -3.12,0.24 -0.185,-1.865 0.312,-3.048 0.24,-4.8 -4.293,2.172 -8.238,-3.5 -5.28,-6.96 2.118,-2.477 5.375,-0.068 8.639,-0.959 z m -3.6,3.36 c -0.491,-1.594 -3.346,-1.209 -3.36,0.96 0.93,2.274 3.926,0.877 3.36,-0.96 z"
     clip-rule="evenodd"
     inkscape:connector-curvature="0"
     style="fill-rule:evenodd" /><path
     id="path3145"
     d="m 311.28,11.52 c 1.01,0.27 3.299,-0.74 2.88,0.96 1.021,-0.498 1.904,-1.135 3.6,-0.96 0,0.8 0,1.6 0,2.4 -4.394,-0.633 -2.867,4.652 -3.84,7.44 -0.842,-0.118 -1.562,-0.357 -2.64,-0.24 0,-3.2 0,-6.4 0,-9.6 z"
     clip-rule="evenodd"
     inkscape:connector-curvature="0"
     style="fill-rule:evenodd" /><path
     id="path3147"
     d="m 329.52,12 c 0.064,0.864 -0.442,1.157 -0.479,1.92 -1.046,-0.006 -2.223,-0.143 -2.64,0.48 1.502,1.733 4.319,1.352 4.319,4.08 0,3.007 -4.047,3.98 -7.2,2.4 0.405,-0.635 0.556,-1.525 0.961,-2.16 1.048,0.045 1.854,0.598 2.64,0.24 -0.497,-2.541 -3.503,-1.541 -4.08,-3.6 -1.038,-3.703 3.106,-4.626 6.479,-3.36 z"
     clip-rule="evenodd"
     inkscape:connector-curvature="0"
     style="fill-rule:evenodd" /><path
     id="path3149"
     d="m 297.3613,-37.247871 c 0.0417,1.087592 -0.7654,1.477584 -0.92264,2.400319 -1.16004,-0.08488 -2.01849,-0.534809 -3.48948,-0.239302 0.93655,2.918085 4.27978,1.513058 5.02267,4.134589 1.30693,4.615296 -4.73769,5.604695 -8.56581,4.00812 -0.0655,-1.370526 0.59752,-2.141316 1.1533,-3.0004 1.32068,0.103002 3.25709,1.615847 3.74787,-0.07462 -0.81045,-1.469184 -3.11947,-1.115272 -4.25605,-2.186945 -2.3336,-4.900871 4.16676,-7.570111 7.31014,-5.041766 z"
     clip-rule="evenodd"
     inkscape:connector-curvature="0"
     style="fill-rule:evenodd;fill:#ffffff" /><path
     id="path3151"
     d="m 107.04,15.36 c -1.207,1.033 -2.799,1.681 -4.8,1.92 0.227,1.734 2.168,1.48 3.84,1.2 0.759,2.513 -3.389,3.134 -5.04,2.16 -3.537,-2.086 -2.041,-10.085 3.12,-8.88 1.468,0.343 2.015,1.734 2.88,3.6 z m -5.04,0 c 1.014,0.054 1.55,-0.37 2.4,-0.48 0.054,-0.454 -0.271,-0.529 -0.24,-0.96 -1.334,-0.134 -2.171,0.229 -2.16,1.44 z"
     clip-rule="evenodd"
     inkscape:connector-curvature="0"
     style="fill-rule:evenodd" /><path
     id="path3153"
     d="m 116.88,16.56 c -1.399,0.44 -2.972,0.708 -4.56,0.96 0.177,1.423 1.72,1.48 2.88,1.92 -0.312,2.421 -3.161,1.53 -4.08,0.96 -0.934,-0.58 -1.629,-2.63 -1.68,-3.36 -0.399,-5.69 7.713,-7.852 7.44,-0.48 z m -4.56,-1.44 c 0.47,0.294 2.604,0.649 2.4,-0.48 -0.434,-1.039 -2.324,-0.331 -2.4,0.48 z"
     clip-rule="evenodd"
     inkscape:connector-curvature="0"
     style="fill-rule:evenodd" /><path
     id="path3155"
     d="m 258.96,12 c 4.448,-0.831 7.663,3.785 5.28,7.44 -3.217,4.933 -12.567,-0.873 -8.16,-6.24 0.562,-0.684 1.507,-0.944 2.88,-1.2 z m 1.44,6.48 c 2.45,-0.142 2.016,-5.037 -0.96,-3.84 -2.086,0.839 -1.121,3.96 0.96,3.84 z"
     clip-rule="evenodd"
     inkscape:connector-curvature="0"
     style="fill-rule:evenodd" /><path
     id="path3157"
     d="m 417.84,16.56 c 1.059,-0.941 1.17,-2.831 1.68,-4.32 1.023,0.098 2.473,-0.232 3.12,0.24 -1.128,3.432 -2.315,6.804 -4.56,9.12 -1.659,-0.501 -1.838,-2.482 -2.64,-3.84 -1.266,0.895 -1.143,3.178 -2.881,3.6 -1.657,-2.422 -2.261,-5.899 -3.359,-8.88 1.543,-0.255 1.286,-0.036 2.88,-0.24 0.485,0.715 0.995,1.405 0.96,2.64 1.548,-0.532 1.171,-2.989 3.12,-3.12 0.967,1.193 1.21,3.11 1.68,4.8 z"
     clip-rule="evenodd"
     inkscape:connector-curvature="0"
     style="fill-rule:evenodd" /><path
     id="path3159"
     d="m 68.88,13.92 c -0.412,1.598 -3.58,-0.014 -4.32,1.68 -0.487,2.887 1.509,3.291 4.08,3.12 -0.031,0.894 0.948,1.571 0.48,2.16 -1.157,0.443 -3.037,0.163 -4.56,0.24 -2.107,-1.364 -3.985,-3.587 -2.88,-6.48 1.005,-2.632 5.89,-3.997 7.2,-0.72 z"
     clip-rule="evenodd"
     inkscape:connector-curvature="0"
     style="fill-rule:evenodd" /><path
     id="path3161"
     d="m 162.72,12 c 0.183,3.303 -0.301,5.939 -0.24,9.12 -1.04,0 -2.08,0 -3.12,0 -0.135,-3.175 0.422,-5.658 0.24,-8.88 0.648,-0.472 2.097,-0.143 3.12,-0.24 z"
     clip-rule="evenodd"
     inkscape:connector-curvature="0"
     style="fill-rule:evenodd" /><path
     id="path3163"
     d="m 172.56,21.12 c -0.8,0 -1.6,0 -2.4,0 -0.939,-2.181 -0.685,-5.555 -0.72,-8.64 4.684,-2.061 2.675,5.058 3.12,8.64 z"
     clip-rule="evenodd"
     inkscape:connector-curvature="0"
     style="fill-rule:evenodd" /><path
     id="path3165"
     d="m 182.64,12 c 1.096,0.104 2.643,-0.243 3.36,0.24 0.169,4.729 -0.068,9.052 -1.68,12 -2.483,1.855 -6.061,0.276 -6.48,-2.64 0.504,-0.296 0.936,-0.665 1.44,-0.96 0.98,-0.617 1.037,1.435 2.4,1.2 1.899,-1.701 0.556,-6.644 0.96,-9.84 z"
     clip-rule="evenodd"
     inkscape:connector-curvature="0"
     style="fill-rule:evenodd" /><path
     id="path3167"
     d="m 233.04,12 c 0,0.4 0,0.8 0,1.2 5.661,-3.897 9.188,2.239 6.72,8.16 -0.676,0.249 -2.245,0.459 -2.88,0 0.112,-1.648 0.36,-3.16 0.24,-5.04 -0.438,-1.139 -2.582,-0.758 -3.12,0 0,1.76 0,3.52 0,5.28 -1.12,0 -2.24,0 -3.36,0 0,-3.12 0,-6.24 0,-9.36 0.454,-0.426 1.585,-0.175 2.4,-0.24 z"
     clip-rule="evenodd"
     inkscape:connector-curvature="0"
     style="fill-rule:evenodd" /><path
     id="path3169"
     d="m 275.28,12.96 c 1.524,-0.956 3.98,-0.843 5.279,0.24 1.731,3.626 0.05,8.421 -4.8,7.68 0,1.28 0,2.56 0,3.84 -0.911,0.505 -1.123,0.421 -2.64,0.479 -0.285,-4.044 -0.824,-9.083 -0.24,-13.2 0.794,0.444 2.498,-0.735 2.401,0.961 z M 276,18 c 2.228,0.687 3.054,-1.696 1.92,-2.88 -1.839,-0.344 -2.669,1.415 -1.92,2.88 z"
     clip-rule="evenodd"
     inkscape:connector-curvature="0"
     style="fill-rule:evenodd" /><path
     id="path3171"
     d="m 368.64,12 c 1.163,-0.043 2.05,0.19 2.88,0.48 0,1.68 0,3.36 0,5.04 0.564,0.077 0.901,0.379 1.681,0.24 1.293,-0.572 0.682,-3.973 0.479,-5.28 0.97,-0.31 2.047,-0.513 3.36,-0.48 0.11,3.485 0.329,5.826 -0.24,9.36 -1.239,-0.04 -2.955,0.396 -2.64,-1.2 -5.044,3.071 -6.274,-3.953 -5.52,-8.16 z"
     clip-rule="evenodd"
     inkscape:connector-curvature="0"
     style="fill-rule:evenodd" /><path
     id="path3173"
     d="m 391.2,12 c 0,2.8 0,5.6 0,8.4 -1.377,-0.275 -2.607,0.676 -2.88,-0.48 -0.825,0.775 -2.061,1.14 -3.84,0.96 -1.971,-1.47 -2.606,-4.274 -2.4,-7.92 0.516,-0.445 1.758,-0.162 2.64,-0.24 0.281,1.959 -0.271,4.75 1.44,5.28 2.264,-0.216 1.904,-3.056 1.92,-5.52 0.772,-0.429 2.26,-0.14 3.12,-0.48 z"
     clip-rule="evenodd"
     inkscape:connector-curvature="0"
     style="fill-rule:evenodd" /><path
     id="path3175"
     d="m 288.48,20.16 c -0.335,1.425 -0.031,3.489 -0.48,4.8 -0.64,0 -1.28,0 -1.92,0 -0.523,-4.677 -0.387,-7.484 -0.24,-12.48 2.697,0.256 3.803,-0.795 6,-0.24 4.989,1.261 1.668,11.99 -3.36,7.92 z M 291.36,18 c 0.341,-0.803 0.341,-2.317 0,-3.12 -2.18,-1.257 -2.849,3.816 0,3.12 z"
     clip-rule="evenodd"
     inkscape:connector-curvature="0"
     style="fill-rule:evenodd" /><path
     id="path3177"
     d="m 453.6,12.24 c 2.654,-0.014 5.382,-0.101 7.44,0.48 -0.741,2.378 -2.198,4.042 -3.12,6.24 0.96,0 1.92,0 2.88,0 0.086,1.206 -0.063,2.176 -0.479,2.88 -2.333,0.092 -4.406,-0.074 -6.48,-0.24 0.846,-2.274 2.062,-4.178 2.88,-6.48 -0.885,-0.395 -2.258,-0.302 -3.359,-0.48 -0.19,-1.068 0.318,-1.44 0.238,-2.4 z"
     clip-rule="evenodd"
     inkscape:connector-curvature="0"
     style="fill-rule:evenodd" /><path
     id="path3179"
     d="m 246.72,12.72 c 7.091,-1.417 5.877,8.64 0.721,8.64 -4.705,0 -5.88,-7.609 -0.721,-8.64 z M 246,17.28 c 0.41,1.767 3.766,1.679 3.12,-1.44 -1.453,-1.583 -3.483,-0.123 -3.12,1.44 z"
     clip-rule="evenodd"
     inkscape:connector-curvature="0"
     style="fill-rule:evenodd" /><path
     id="path3181"
     d="m 430.32,12.48 c 0.375,0.745 0.98,1.259 1.439,1.92 0.684,-0.437 0.922,-1.318 1.44,-1.92 1.04,0 2.08,0 3.12,0 -0.562,1.679 -1.731,2.749 -2.641,4.08 0.736,1.453 2.834,2.727 2.88,4.08 -1.058,0.062 -1.856,0.383 -3.119,0.24 -0.444,-0.597 -0.726,-1.354 -1.44,-1.68 -0.381,0.659 -0.972,1.108 -1.2,1.92 -1.04,0 -2.08,0 -3.12,0 0.424,-1.736 1.614,-2.707 2.4,-4.08 -0.666,-1.654 -2.25,-2.39 -2.88,-4.08 0.826,-0.375 1.837,-0.564 3.121,-0.48 z"
     clip-rule="evenodd"
     inkscape:connector-curvature="0"
     style="fill-rule:evenodd" /><path
     id="path3183"
     d="m 404.88,12.72 c -0.993,3.646 -2.067,7.212 -4.32,9.6 -2.531,-1.948 -3.31,-5.65 -5.04,-8.4 0.411,-0.789 2.021,-0.379 3.12,-0.48 0.251,1.509 1.04,2.48 1.681,3.6 0.945,-0.894 0.949,-2.73 1.439,-4.08 1.263,0.144 2.062,-0.178 3.12,-0.24 z"
     clip-rule="evenodd"
     inkscape:connector-curvature="0"
     style="fill-rule:evenodd" /><path
     id="path3185"
     d="m 19.92,12.96 c 0.47,2.428 0.901,6.114 0.48,8.64 -1.14,-0.061 -2.825,0.425 -2.4,-1.2 -1.207,0.468 -1.667,1.169 -2.88,1.2 -4.564,0.117 -5.55,-7.792 -0.72,-8.64 2.002,-0.352 2.847,0.745 5.52,0 z m -2.88,3.6 c -0.888,-2.814 -5.5,0.946 -1.92,2.4 1.125,-0.317 2.326,-1.112 1.92,-2.4 z"
     clip-rule="evenodd"
     inkscape:connector-curvature="0"
     style="fill-rule:evenodd" /><path
     id="path3187"
     d="m 449.04,13.2 c 0.409,6.569 -1.75,10.57 -5.76,12.72 -1.153,-0.367 -1.651,-1.39 -2.16,-2.4 1.984,-0.176 2.982,-1.338 3.84,-2.64 -2.423,-1.417 -3.741,-3.938 -4.32,-7.2 0.634,-0.327 1.637,-0.284 2.4,-0.48 1.024,1.455 1.096,3.864 2.88,4.56 0.956,-1.469 -0.464,-6.511 3.12,-4.56 z"
     clip-rule="evenodd"
     inkscape:connector-curvature="0"
     style="fill-rule:evenodd" /></g></svg>