<?xml version="1.0" encoding="UTF-8" standalone="no"?>
<!-- Generator: Adobe Illustrator 13.0.0, SVG Export Plug-In . SVG Version: 6.00 Build 14948)  -->

<svg
   xmlns:dc="http://purl.org/dc/elements/1.1/"
   xmlns:cc="http://creativecommons.org/ns#"
   xmlns:rdf="http://www.w3.org/1999/02/22-rdf-syntax-ns#"
   xmlns:svg="http://www.w3.org/2000/svg"
   xmlns="http://www.w3.org/2000/svg"
   xmlns:sodipodi="http://sodipodi.sourceforge.net/DTD/sodipodi-0.dtd"
   xmlns:inkscape="http://www.inkscape.org/namespaces/inkscape"
   version="1.1"
   id="Calque_1"
   x="0px"
   y="0px"
   width="52.398754"
   height="17.933128"
   viewBox="0 0 52.398754 17.933129"
   enable-background="new 0 0 42.875 21.869"
   xml:space="preserve"
   inkscape:version="0.48.2 r9819"
   sodipodi:docname="video.svg"><metadata
   id="metadata21"><rdf:RDF><cc:Work
       rdf:about=""><dc:format>image/svg+xml</dc:format><dc:type
         rdf:resource="http://purl.org/dc/dcmitype/StillImage" /></cc:Work></rdf:RDF></metadata><defs
   id="defs19">
	
	
	
	
	
	
</defs><sodipodi:namedview
   pagecolor="#ffffff"
   bordercolor="#666666"
   borderopacity="1"
   objecttolerance="10"
   gridtolerance="10"
   guidetolerance="10"
   inkscape:pageopacity="0"
   inkscape:pageshadow="2"
   inkscape:window-width="640"
   inkscape:window-height="480"
   id="namedview17"
   showgrid="false"
   fit-margin-top="0"
   fit-margin-left="0"
   fit-margin-right="2"
   fit-margin-bottom="2"
   inkscape:zoom="8.2099125"
   inkscape:cx="24.370463"
   inkscape:cy="7.3831192"
   inkscape:window-x="358"
   inkscape:window-y="0"
   inkscape:window-maximized="0"
   inkscape:current-layer="Calque_1" />
<path
   inkscape:connector-curvature="0"
   style="fill:#ffffff"
   id="path5"
   d="m 46.168498,4.3669998 c 4.685841,0.3066137 5.802723,7.9035552 1.703774,9.8359112 -5.482705,2.585344 -8.309956,-5.0735748 -5.096947,-8.6332571 0.63944,-0.7085242 2.014366,-1.2930276 3.393173,-1.2026541 z m 0.201413,6.6005262 c 1.991626,-5.7329099 -5.203826,-0.419241 0,0 l 0,0 z" /><path
   inkscape:connector-curvature="0"
   style="fill:#ffffff"
   id="path7"
   d="M 27.416929,0.01526268 C 28.501827,4.4926656 28.881067,9.3373067 28.977841,14.331504 28.099779,14.177596 25.950115,15.57502 26.085766,13.93063 22.214823,17.771886 16.932183,13.544807 17.709235,8.5470877 18.218023,5.2728024 21.127507,1.769137 24.452623,3.8653448 24.55976,2.4697754 24.116878,1.3591199 24.152906,0 c 1.171803,0.16607628 2.320282,0.28609897 3.264023,0.0152627 z M 23.680171,11.168371 c 0.848052,-0.967069 0.990742,-2.6742165 0.91629,-3.7367912 -3.545782,-2.845116 -5.03314,4.1674522 -0.91629,3.7367912 z" /><path
   inkscape:connector-curvature="0"
   style="fill:#ffffff"
   id="path9"
   d="m 39.551753,8.8983002 c -2.014549,0.1771809 -3.933292,0.5372639 -5.827098,0.9449509 -0.124433,2.7416849 3.870839,1.6842289 5.569395,1.4889739 0.172047,0.80391 0.523238,1.513982 0.502063,2.419903 C 33.445913,19.341461 26.985307,8.6885282 32.393795,3.6451603 35.0649,1.1524092 42.487241,3.4875836 39.551753,8.8983002 z M 34.812755,7.165932 c 0.792934,0.050824 1.617665,0.1608255 2.276434,-0.042958 0.409826,-1.5796655 -2.298691,-1.823647 -2.276434,0.042958 z" /><path
   inkscape:connector-curvature="0"
   style="fill:#ffffff"
   id="path11"
   d="M 12.876628,0.17257272 C 16.733444,0.72824839 14.570902,4.7785901 11.960337,3.9093643 10.012779,3.2619936 9.432744,-0.32321047 12.876628,0.17257272 z" /><path
   inkscape:connector-curvature="0"
   style="fill:#ffffff"
   id="path13"
   d="m 14.916951,4.4454969 c 1.449625,3.0722285 0.768615,7.2597131 1.417134,10.7531671 -0.953165,0.860884 -2.821383,-0.02361 -4.25191,-0.07253 -0.601749,-3.260918 -0.397978,-6.9437793 -0.801493,-10.3093343 0.913017,-0.6921795 2.40672,-0.2788341 3.636269,-0.3713028 z" /><path
   inkscape:connector-curvature="0"
   style="fill:#ffffff"
   id="path15"
   d="M 6.6424957,15.933128 C 2.6035024,14.710948 1.8531735,10.996336 -9.1086232e-7,8.5320173 0.80998027,7.2896228 1.8885503,6.9499877 2.7658146,5.9325044 3.6278692,6.9736192 4.3557901,8.0548603 5.1369569,9.1216493 5.9548299,7.2222266 5.3771014,5.742519 6.702107,3.6928611 7.8277476,4.3148726 9.479576,4.1447326 10.098374,4.9796284 9.0259244,8.6062713 8.7866599,11.985877 6.6424957,15.933128 z" />
</svg>