<?xml version="1.0" encoding="utf-8"?>
<!-- Generator: Adobe Illustrator 13.0.0, SVG Export Plug-In . SVG Version: 6.00 Build 14948)  -->
<!DOCTYPE svg PUBLIC "-//W3C//DTD SVG 1.1//EN" "http://www.w3.org/Graphics/SVG/1.1/DTD/svg11.dtd">
<svg version="1.1" id="ALPHABET_dessineÌ_pr_site_xA0_Image_1_"
	 xmlns="http://www.w3.org/2000/svg" xmlns:xlink="http://www.w3.org/1999/xlink" x="0px" y="0px" width="474.48px"
	 height="40.56px" viewBox="0 0 474.48 40.56" enable-background="new 0 0 474.48 40.56" xml:space="preserve">
<path fill-rule="evenodd" clip-rule="evenodd" d="M171.6,6.96c2.528,2.49-2.152,4.446-2.64,1.92
	C168.764,7.864,169.68,6.59,171.6,6.96z"/>
<path fill-rule="evenodd" clip-rule="evenodd" d="M147.12,7.44c-0.053,1.867,0.167,4.007-0.24,5.52c4.679-2.062,7.638,2.6,6.72,8.4
	c-1.096-0.104-2.643,0.243-3.36-0.24c0.09-2.411-0.229-4.412-1.44-5.52c-2.046,0.673-1.941,3.499-2.4,5.76
	c-1.145,0.186-1.544-0.375-2.64-0.24c-0.047-4.847,0.002-9.598,0.72-13.68C145.36,7.44,146.24,7.44,147.12,7.44z"/>
<path fill-rule="evenodd" clip-rule="evenodd" d="M41.04,7.68c0.134,1.296,0.077,2.9,0,4.56c1.792,0.848,3.75,1.53,5.04,2.88
	c1.7,5.344-3.24,7.466-7.92,5.76c0-4.32,0-8.64,0-12.96C39.297,8.017,39.812,7.492,41.04,7.68z M41.04,15.84
	c0.153,0.887-0.311,2.391,0.24,2.88c0.284-0.437,1.251-0.189,1.68-0.48c0.062-1.422-0.037-2.683-1.44-2.64
	C41.467,15.787,41.319,15.879,41.04,15.84z"/>
<path fill-rule="evenodd" clip-rule="evenodd" d="M126.24,10.32c-0.701,0.63-1.383-0.213-2.4,0c-0.871,0.489-1.21,1.51-1.2,2.88
	c0.179,0.541,1.346,0.094,1.92,0.24c0.326,0.397-0.196,1.4,0,2.4c-0.31,0.331-1.042,0.238-1.68,0.24
	c-0.185,1.865-0.039,2.585,0,4.56c-0.733,0.466-1.852,0.548-3.12,0.48c-0.085-4.112-0.309-9.297,0.96-12.72
	C122.219,7.004,127.548,7.474,126.24,10.32z"/>
<path fill-rule="evenodd" clip-rule="evenodd" d="M208.32,8.16c-0.074,4.246-0.273,8.366-0.48,12.48
	c-0.773,0.346-2.013,0.227-3.12,0.24c-0.025-4.505,0.18-8.78,0.48-12.96C205.739,7.678,207.535,7.886,208.32,8.16z"/>
<path fill-rule="evenodd" clip-rule="evenodd" d="M361.44,7.68c0.33,0.309,0.237,1.042,0.239,1.68c0.96,0,1.92,0,2.88,0
	c0.345,1.072-0.134,1.678,0,3.12c-0.773,0.346-2.013,0.227-3.119,0.24c-0.416,2.049-0.368,5.623,0,7.68
	c-0.896,0.384-2.33,0.23-3.36,0.48c-0.48-3.919-0.137-8.663-0.24-12.96C358.629,7.429,360.271,7.791,361.44,7.68z"/>
<path fill-rule="evenodd" clip-rule="evenodd" d="M96,8.4c0.095,3.985-0.229,8.39,0.24,12c-3.954,1.168-8.766,2.241-9.12-2.16
	c-0.171-2.123,0.975-2.952,1.68-4.8c1.346-0.575,2.716-1.124,4.32-1.44C92.532,9.791,93.174,7.025,96,8.4z M92.88,18
	c-0.141-1.115,0.328-1.449,0-2.16C89.002,14.214,89.848,20.823,92.88,18z"/>
<path fill-rule="evenodd" clip-rule="evenodd" d="M196.08,8.16c0,1.76,0,3.52,0,5.28c0.833-0.046,0.911-0.849,1.68-0.96
	c1.122,0.318,2.091,0.789,2.4,1.92c-1,0.52-1.644,1.397-2.88,1.68c0.918,1.722,2.477,2.803,3.36,4.56
	c-1.992,1.599-3.774-0.282-4.56-1.92c-0.898,0.221-0.313,1.927-0.48,2.88c-1.04,0-2.08,0-3.12,0c0.069-4.331,0.38-8.42,0.24-12.96
	C193.69,8.33,194.767,8.127,196.08,8.16z"/>
<path fill-rule="evenodd" clip-rule="evenodd" d="M25.44,8.4c0.88,0,1.76,0,2.64,0c-0.187,1.947,0.346,3.174,0.24,5.04
	c4.708-2.65,8.018,3.435,5.28,6.72c-1.911,2.292-4.965,0.315-8.4,0.96C24.876,17.423,25.282,12.412,25.44,8.4z M31.92,17.04
	c-0.158-2.738-5.218-0.957-2.64,1.68C30.98,18.917,31.979,18.066,31.92,17.04z"/>
<path fill-rule="evenodd" clip-rule="evenodd" d="M162.96,8.88c0.968,2.175-2.371,3.294-2.88,1.44
	C159.685,8.88,161.29,7.673,162.96,8.88z"/>
<path fill-rule="evenodd" clip-rule="evenodd" d="M185.76,8.88c0.969,2.175-2.371,3.294-2.88,1.44
	C182.484,8.88,184.09,7.673,185.76,8.88z"/>
<path fill-rule="evenodd" clip-rule="evenodd" d="M82.32,8.88c-0.116,4.302,0.462,9.104,0.24,12.72
	c-0.667,0.061-2.685,0.898-2.64-0.72c-6.975,4.159-8.298-9.507-0.48-7.92c0-1.36,0-2.72,0-4.08
	C80.261,8.775,81.599,8.334,82.32,8.88z M77.04,18.48c0.186,0.054,0.473,0.007,0.48,0.24c1.036,0.156,1.345-0.415,1.92-0.72
	c0-0.64,0-1.28,0-1.92C77.818,15.124,76.017,16.76,77.04,18.48z"/>
<path fill-rule="evenodd" clip-rule="evenodd" d="M138.48,11.28c0.908,6.641-0.863,17.75-7.92,12.721
	c0.037-1.244,0.638-1.922,1.2-2.641c0.809,0.152,1.231,0.689,2.4,0.48c0.888-0.152,0.732-1.348,0.72-2.4
	c-4.175,1.475-7.214-4.095-4.56-7.2C132.346,9.87,135.539,12.074,138.48,11.28z M135.36,14.64c-0.491-1.594-3.346-1.209-3.36,0.96
	C132.93,17.875,135.926,16.477,135.36,14.64z"/>
<path fill-rule="evenodd" clip-rule="evenodd" d="M351.84,11.52c-0.04,0.68-0.439,1-0.479,1.68c-0.815,0.065-1.946-0.186-2.4,0.24
	c0.52,2.468,3.543,1.569,4.08,3.6c0.858,3.247-2.625,4.093-6.24,4.08c-0.202-0.598-0.313-1.286-0.24-2.16
	c0.895-0.522,1.823,0.279,2.641-0.48c-0.413-2.798-3.713-1.633-4.08-4.08C344.663,11.362,348.684,10.279,351.84,11.52z"/>
<path fill-rule="evenodd" clip-rule="evenodd" d="M56.88,18.24c0.361,0.679,0.971,1.11,0.96,2.16
	c-5.649,3.111-9.241-4.214-5.76-7.44c0.746-0.691,5.274-2.649,4.56,0.48c-0.147,0.646-3.922,1.414-3.12,3.84
	C53.714,17.867,55.192,18.826,56.88,18.24z"/>
<path fill-rule="evenodd" clip-rule="evenodd" d="M226.8,20.64c-0.819,0.357-1.904-0.071-2.88-0.24
	c0.155-1.445,0.711-2.489,0.48-4.32c-0.342-0.777-1.248-0.993-2.4-0.96c-1.479,0.761-0.656,3.824-1.44,5.28
	c-0.952-0.088-2.3,0.22-2.88-0.24c0-1.52,0-3.04,0-4.56c-0.675-0.333-1.38-0.635-2.16-0.24c-0.735,1.62,0.194,3.642,0,5.52
	c-0.959-0.08-1.332,0.428-2.4,0.24c-0.448-2.993-0.645-6.235-0.96-9.36c2.488-0.011,5.245,0.062,7.68,0.96
	C225.584,10.258,229.214,15.609,226.8,20.64z"/>
<path fill-rule="evenodd" clip-rule="evenodd" d="M307.68,11.76c-0.099,4.221-0.314,8.325-0.479,12.479
	c-0.647,0.473-2.098,0.144-3.12,0.24c-0.185-1.865,0.312-3.048,0.24-4.8c-4.293,2.172-8.238-3.5-5.28-6.96
	C301.159,10.242,304.416,12.651,307.68,11.76z M304.08,15.12c-0.491-1.594-3.346-1.209-3.36,0.96
	C301.65,18.354,304.646,16.957,304.08,15.12z"/>
<path fill-rule="evenodd" clip-rule="evenodd" d="M311.28,11.52c1.01,0.27,3.299-0.74,2.88,0.96c1.021-0.498,1.904-1.135,3.6-0.96
	c0,0.8,0,1.6,0,2.4c-4.394-0.633-2.867,4.652-3.84,7.44c-0.842-0.118-1.562-0.357-2.64-0.24C311.28,17.92,311.28,14.72,311.28,11.52
	z"/>
<path fill-rule="evenodd" clip-rule="evenodd" d="M329.52,12c0.064,0.864-0.442,1.157-0.479,1.92
	c-1.046-0.006-2.223-0.143-2.64,0.48c1.502,1.733,4.319,1.352,4.319,4.08c0,3.007-4.047,3.98-7.2,2.4
	c0.405-0.635,0.556-1.525,0.961-2.16c1.048,0.045,1.854,0.598,2.64,0.24c-0.497-2.541-3.503-1.541-4.08-3.6
	C322.003,11.657,326.147,10.734,329.52,12z"/>
<path fill-rule="evenodd" clip-rule="evenodd" d="M341.28,12.72c-0.053,0.907-0.755,1.166-0.96,1.92
	c-0.957-0.164-1.634-0.607-2.88-0.48c0.543,2.5,3.434,1.602,3.84,3.84c0.714,3.94-4.388,4.275-7.44,2.64
	c0.056-1.144,0.669-1.731,1.2-2.4c1.089,0.192,2.576,1.605,3.12,0.24c-0.555-1.286-2.502-1.178-3.36-2.16
	C333.256,12.06,338.872,10.366,341.28,12.72z"/>
<path fill-rule="evenodd" clip-rule="evenodd" d="M107.04,15.36c-1.207,1.033-2.799,1.681-4.8,1.92c0.227,1.734,2.168,1.48,3.84,1.2
	c0.759,2.513-3.389,3.134-5.04,2.16c-3.537-2.086-2.041-10.085,3.12-8.88C105.628,12.103,106.175,13.494,107.04,15.36z M102,15.36
	c1.014,0.054,1.55-0.37,2.4-0.48c0.054-0.454-0.271-0.529-0.24-0.96C102.826,13.786,101.989,14.149,102,15.36z"/>
<path fill-rule="evenodd" clip-rule="evenodd" d="M116.88,16.56c-1.399,0.44-2.972,0.708-4.56,0.96c0.177,1.423,1.72,1.48,2.88,1.92
	c-0.312,2.421-3.161,1.53-4.08,0.96c-0.934-0.58-1.629-2.63-1.68-3.36C109.041,11.35,117.153,9.188,116.88,16.56z M112.32,15.12
	c0.47,0.294,2.604,0.649,2.4-0.48C114.286,13.601,112.396,14.309,112.32,15.12z"/>
<path fill-rule="evenodd" clip-rule="evenodd" d="M258.96,12c4.448-0.831,7.663,3.785,5.28,7.44
	c-3.217,4.933-12.567-0.873-8.16-6.24C256.642,12.516,257.587,12.256,258.96,12z M260.4,18.48c2.45-0.142,2.016-5.037-0.96-3.84
	C257.354,15.479,258.319,18.6,260.4,18.48z"/>
<path fill-rule="evenodd" clip-rule="evenodd" d="M417.84,16.56c1.059-0.941,1.17-2.831,1.68-4.32
	c1.023,0.098,2.473-0.232,3.12,0.24c-1.128,3.432-2.315,6.804-4.56,9.12c-1.659-0.501-1.838-2.482-2.64-3.84
	c-1.266,0.895-1.143,3.178-2.881,3.6c-1.657-2.422-2.261-5.899-3.359-8.88c1.543-0.255,1.286-0.036,2.88-0.24
	c0.485,0.715,0.995,1.405,0.96,2.64c1.548-0.532,1.171-2.989,3.12-3.12C417.127,12.953,417.37,14.87,417.84,16.56z"/>
<path fill-rule="evenodd" clip-rule="evenodd" d="M68.88,13.92c-0.412,1.598-3.58-0.014-4.32,1.68
	c-0.487,2.887,1.509,3.291,4.08,3.12c-0.031,0.894,0.948,1.571,0.48,2.16c-1.157,0.443-3.037,0.163-4.56,0.24
	c-2.107-1.364-3.985-3.587-2.88-6.48C62.685,12.008,67.57,10.643,68.88,13.92z"/>
<path fill-rule="evenodd" clip-rule="evenodd" d="M162.72,12c0.183,3.303-0.301,5.939-0.24,9.12c-1.04,0-2.08,0-3.12,0
	c-0.135-3.175,0.422-5.658,0.24-8.88C160.248,11.768,161.697,12.097,162.72,12z"/>
<path fill-rule="evenodd" clip-rule="evenodd" d="M172.56,21.12c-0.8,0-1.6,0-2.4,0c-0.939-2.181-0.685-5.555-0.72-8.64
	C174.124,10.419,172.115,17.538,172.56,21.12z"/>
<path fill-rule="evenodd" clip-rule="evenodd" d="M182.64,12c1.096,0.104,2.643-0.243,3.36,0.24c0.169,4.729-0.068,9.052-1.68,12
	c-2.483,1.855-6.061,0.276-6.48-2.64c0.504-0.296,0.936-0.665,1.44-0.96c0.98-0.617,1.037,1.435,2.4,1.2
	C183.579,20.139,182.236,15.196,182.64,12z"/>
<path fill-rule="evenodd" clip-rule="evenodd" d="M233.04,12c0,0.4,0,0.8,0,1.2c5.661-3.897,9.188,2.239,6.72,8.16
	c-0.676,0.249-2.245,0.459-2.88,0c0.112-1.648,0.36-3.16,0.24-5.04c-0.438-1.139-2.582-0.758-3.12,0c0,1.76,0,3.52,0,5.28
	c-1.12,0-2.24,0-3.36,0c0-3.12,0-6.24,0-9.36C231.094,11.814,232.225,12.065,233.04,12z"/>
<path fill-rule="evenodd" clip-rule="evenodd" d="M275.28,12.96c1.524-0.956,3.98-0.843,5.279,0.24c1.731,3.626,0.05,8.421-4.8,7.68
	c0,1.28,0,2.56,0,3.84c-0.911,0.505-1.123,0.421-2.64,0.479c-0.285-4.044-0.824-9.083-0.24-13.2
	C273.673,12.443,275.377,11.264,275.28,12.96z M276,18c2.228,0.687,3.054-1.696,1.92-2.88C276.081,14.776,275.251,16.535,276,18z"/>
<path fill-rule="evenodd" clip-rule="evenodd" d="M368.64,12c1.163-0.043,2.05,0.19,2.88,0.48c0,1.68,0,3.36,0,5.04
	c0.564,0.077,0.901,0.379,1.681,0.24c1.293-0.572,0.682-3.973,0.479-5.28c0.97-0.31,2.047-0.513,3.36-0.48
	c0.11,3.485,0.329,5.826-0.24,9.36c-1.239-0.04-2.955,0.396-2.64-1.2C369.116,23.231,367.886,16.207,368.64,12z"/>
<path fill-rule="evenodd" clip-rule="evenodd" d="M391.2,12c0,2.8,0,5.6,0,8.4c-1.377-0.275-2.607,0.676-2.88-0.48
	c-0.825,0.775-2.061,1.14-3.84,0.96c-1.971-1.47-2.606-4.274-2.4-7.92c0.516-0.445,1.758-0.162,2.64-0.24
	c0.281,1.959-0.271,4.75,1.44,5.28c2.264-0.216,1.904-3.056,1.92-5.52C388.852,12.051,390.34,12.34,391.2,12z"/>
<path fill-rule="evenodd" clip-rule="evenodd" d="M288.48,20.16c-0.335,1.425-0.031,3.489-0.48,4.8c-0.64,0-1.28,0-1.92,0
	c-0.523-4.677-0.387-7.484-0.24-12.48c2.697,0.256,3.803-0.795,6-0.24C296.829,13.501,293.508,24.23,288.48,20.16z M291.36,18
	c0.341-0.803,0.341-2.317,0-3.12C289.18,13.623,288.511,18.696,291.36,18z"/>
<path fill-rule="evenodd" clip-rule="evenodd" d="M453.6,12.24c2.654-0.014,5.382-0.101,7.44,0.48
	c-0.741,2.378-2.198,4.042-3.12,6.24c0.96,0,1.92,0,2.88,0c0.086,1.206-0.063,2.176-0.479,2.88c-2.333,0.092-4.406-0.074-6.48-0.24
	c0.846-2.274,2.062-4.178,2.88-6.48c-0.885-0.395-2.258-0.302-3.359-0.48C453.172,13.572,453.68,13.2,453.6,12.24z"/>
<path fill-rule="evenodd" clip-rule="evenodd" d="M246.72,12.72c7.091-1.417,5.877,8.64,0.721,8.64
	C242.736,21.36,241.561,13.751,246.72,12.72z M246,17.28c0.41,1.767,3.766,1.679,3.12-1.44C247.667,14.257,245.637,15.717,246,17.28
	z"/>
<path fill-rule="evenodd" clip-rule="evenodd" d="M430.32,12.48c0.375,0.745,0.98,1.259,1.439,1.92
	c0.684-0.437,0.922-1.318,1.44-1.92c1.04,0,2.08,0,3.12,0c-0.562,1.679-1.731,2.749-2.641,4.08c0.736,1.453,2.834,2.727,2.88,4.08
	c-1.058,0.062-1.856,0.383-3.119,0.24c-0.444-0.597-0.726-1.354-1.44-1.68c-0.381,0.659-0.972,1.108-1.2,1.92c-1.04,0-2.08,0-3.12,0
	c0.424-1.736,1.614-2.707,2.4-4.08c-0.666-1.654-2.25-2.39-2.88-4.08C428.025,12.585,429.036,12.396,430.32,12.48z"/>
<path fill-rule="evenodd" clip-rule="evenodd" d="M404.88,12.72c-0.993,3.646-2.067,7.212-4.32,9.6c-2.531-1.948-3.31-5.65-5.04-8.4
	c0.411-0.789,2.021-0.379,3.12-0.48c0.251,1.509,1.04,2.48,1.681,3.6c0.945-0.894,0.949-2.73,1.439-4.08
	C403.023,13.104,403.822,12.782,404.88,12.72z"/>
<path fill-rule="evenodd" clip-rule="evenodd" d="M19.92,12.96c0.47,2.428,0.901,6.114,0.48,8.64c-1.14-0.061-2.825,0.425-2.4-1.2
	c-1.207,0.468-1.667,1.169-2.88,1.2c-4.564,0.117-5.55-7.792-0.72-8.64C16.402,12.608,17.247,13.705,19.92,12.96z M17.04,16.56
	c-0.888-2.814-5.5,0.946-1.92,2.4C16.245,18.643,17.446,17.848,17.04,16.56z"/>
<path fill-rule="evenodd" clip-rule="evenodd" d="M449.04,13.2c0.409,6.569-1.75,10.57-5.76,12.72c-1.153-0.367-1.651-1.39-2.16-2.4
	c1.984-0.176,2.982-1.338,3.84-2.64c-2.423-1.417-3.741-3.938-4.32-7.2c0.634-0.327,1.637-0.284,2.4-0.48
	c1.024,1.455,1.096,3.864,2.88,4.56C446.876,16.291,445.456,11.249,449.04,13.2z"/>
</svg>
