<?xml version="1.0" encoding="utf-8"?>
<!-- Generator: Adobe Illustrator 15.0.0, SVG Export Plug-In . SVG Version: 6.00 Build 0)  -->
<!DOCTYPE svg PUBLIC "-//W3C//DTD SVG 1.1//EN" "http://www.w3.org/Graphics/SVG/1.1/DTD/svg11.dtd">
<svg version="1.1" id="mots_xA0_Image_1_" xmlns="http://www.w3.org/2000/svg" xmlns:xlink="http://www.w3.org/1999/xlink" x="0px"
	 y="0px" width="1020.48px" height="538.561px" viewBox="0 0 1020.48 538.561" enable-background="new 0 0 1020.48 538.561"
	 xml:space="preserve">
<path fill-rule="evenodd" clip-rule="evenodd" d="M472.32,31.92c1.616-0.015,2.532,0.668,3.84,0.96
	c-0.715,5.605-2.09,10.55-3.6,15.36c-3.002-0.438-3.979-2.902-6-4.32c-1.779,1.582-2.955,3.765-5.04,5.04
	c-1.361-4.719-2.354-9.806-3.6-14.64c0.802-0.878,2.415-0.945,3.84-1.2c0.771,2.269,1.167,4.914,1.68,7.44
	c1.751-1.128,1.486-4.274,3.6-5.04c0.988,2.132,1.919,4.321,3.12,6.24C471.311,38.911,471.588,35.188,472.32,31.92z"/>
<path fill-rule="evenodd" clip-rule="evenodd" d="M481.68,33.36c-0.584,2.375-1.131,4.79-1.68,7.2c2.778-0.851,4.626,0.64,5.76,2.16
	c0.307,3.506-0.71,5.689-1.68,7.92c-0.912-0.048-1.708-0.212-2.4-0.48c0.009-1.911,0.752-3.088,0.48-5.28
	c-2.489-1.831-4.582,1.626-4.56,4.56c-1.117,0.077-1.602-0.479-2.64-0.48c0.617-5.863,1.447-11.513,3.12-16.32
	C479.253,32.907,480.437,33.164,481.68,33.36z"/>
<path fill-rule="evenodd" clip-rule="evenodd" d="M490.56,40.08c5.275-1.206,8.932,5.804,5.52,9.36
	c-3.881,4.045-11.214-1.011-8.88-6.96C487.705,41.194,489.344,40.358,490.56,40.08z M490.32,43.68
	c-1.367,2.159,0.734,4.546,3.36,3.36C495.691,44.785,492.786,41.575,490.32,43.68z"/>
<path fill-rule="evenodd" clip-rule="evenodd" d="M456.72,53.28c0.16,0,0.32,0,0.48,0c0.246,4.954,0.496,9.904,0.72,14.88
	c-1.303-0.183-1.86,0.38-3.12,0.24c-1.359-4.001-1.362-9.357-1.68-14.4C454.167,53.606,455.667,53.667,456.72,53.28z"/>
<path fill-rule="evenodd" clip-rule="evenodd" d="M476.64,56.88c-0.4,4.106-0.273,8.217-0.96,11.52c-1.01-0.27-3.3,0.74-2.88-0.96
	c-1.317,0.523-3.148,0.532-5.04,0.48c-7.117-4.271-0.913-13.72,6.24-10.56C474.053,55.963,475.748,56.982,476.64,56.88z
	 M468.72,64.56c1.044,0.004,2.159,0.08,2.88-0.24C474.911,59.163,465.324,60.059,468.72,64.56z"/>
<path fill-rule="evenodd" clip-rule="evenodd" d="M481.68,58.32c0.331,0.31,0.237,1.042,0.24,1.68c1.716-1.58,5.335-1.531,5.76,1.2
	c2.314-2.274,6.833-0.939,7.44,1.92c0.282,4.282-1.123,6.877-2.64,9.36c-0.892-0.148-1.508-0.572-2.4-0.72
	c0.406-2.108,2.959-7.543,0.24-7.92c-2.201-0.305-2.503,5.264-3.84,6.72c-1.257,0.058-1.816-0.584-2.88-0.72
	c0.184-2.128,1.722-3.938,0.96-6.24c-3.207-0.829-2.77,3.908-3.84,6c-1.444,0.083-1.917-0.804-3.36-0.72
	c0.671-3.648,0.836-7.804,2.16-10.8C480.31,58.09,480.715,58.485,481.68,58.32z"/>
<path fill-rule="evenodd" clip-rule="evenodd" d="M717.84,90c0.08,2.72-0.237,5.042-0.72,7.2c-0.561,0-1.12,0-1.68,0
	C716.134,94.693,714.464,89.824,717.84,90z"/>
<path fill-rule="evenodd" clip-rule="evenodd" d="M712.32,92.64c-0.507,0.933-1.71,1.17-2.16,2.16c0,0.88,0,1.76,0,2.64
	c-0.587,0.213-1.041,0.56-1.92,0.48c0.012-2.068,0.468-3.691,0.479-5.76C710.298,92.737,711.594,90.779,712.32,92.64z"/>
<path fill-rule="evenodd" clip-rule="evenodd" d="M723.6,92.4c-0.538,1.622-0.693,3.626-1.199,5.28
	c-1.704-0.03-1.518-0.489-3.36-0.24C716.202,94.519,719.84,90.326,723.6,92.4z M719.76,95.76c1.133,0.315,2.075-1.791,0.96-2.16
	C720.059,93.93,719.096,94.861,719.76,95.76z"/>
<path fill-rule="evenodd" clip-rule="evenodd" d="M707.52,92.88c-0.111,1.968,0.333,4.493-0.479,5.76
	c-1.434-0.521-2.073,0.54-3.36,0c-0.537-1.188-1.249-5.393,1.2-5.04c0.098,1.023-0.232,2.472,0.24,3.12
	C707.016,96.66,705.081,91.609,707.52,92.88z"/>
<path fill-rule="evenodd" clip-rule="evenodd" d="M702.48,94.32c0.731,2.573,0.035,5.577-3.12,5.04
	C697.311,97.088,699.645,91.724,702.48,94.32z M700.8,97.44c0.42-0.322,0.879-1.982,0-2.16
	C700.564,95.601,699.717,97.338,700.8,97.44z"/>
<path fill-rule="evenodd" clip-rule="evenodd" d="M695.04,99.84c-0.139,1.542-0.383,2.978-2.16,2.88
	c-0.06-2.38,0.423-4.217,0.24-6.72c1.528-0.343,3.485-2.336,4.8-0.72C698.172,98.012,697.229,99.549,695.04,99.84z M695.28,98.4
	c0.595-0.285,0.89-0.87,0.72-1.92c-0.24,0-0.48,0-0.72,0C695.026,96.729,694.784,98.194,695.28,98.4z"/>
<path fill-rule="evenodd" clip-rule="evenodd" d="M493.44,114.72c0.164,0.957,0.607,1.633,0.48,2.88
	c-0.983,0.056-1.962,0.118-2.64,0.48c-0.761-0.519-0.81-1.75-0.96-2.88c-11.027-0.482-5.729-19.823,3.84-15.84
	C499.772,101.696,498.009,112.03,493.44,114.72z M494.88,106.08c-0.644-8.444-13.256,1.448-5.28,5.04c0-0.56,0-1.12,0-1.68
	c0.969-0.23,1.91-0.49,2.88-0.72c0.331,0.31,0.238,1.043,0.24,1.68C494.164,109.715,495.008,107.764,494.88,106.08z"/>
<path fill-rule="evenodd" clip-rule="evenodd" d="M718.08,100.08c-0.247,1.203-0.606,1.519-1.92,1.2
	c-0.381,1.359,1.487,1.563,1.68,2.88c0.282,1.927-1.277,3.662-4.08,3.12c0-0.56,0-1.12,0-1.68c0.716,0.333,1.469,0.283,1.681-0.48
	c-0.195-1.524-1.778-1.772-1.681-3.36C713.871,99.956,716.048,98.874,718.08,100.08z"/>
<path fill-rule="evenodd" clip-rule="evenodd" d="M713.52,100.08c0.158,0.878-0.519,0.92-0.479,1.68
	c-0.638,0.003-1.371-0.09-1.68,0.24c-0.135,1.174,0.932,1.148,1.439,1.68c1.03,2.803-1.156,5.702-3.84,4.08
	c-0.158-0.877,0.52-0.92,0.48-1.68c0.637-0.002,1.37,0.091,1.68-0.24c-0.989-1.492-2.884-2.871-1.68-4.8
	C710.074,100.024,711.669,99.528,713.52,100.08z"/>
<path fill-rule="evenodd" clip-rule="evenodd" d="M703.92,102.48c-2.216,0.975-3.273,3.021-2.88,6c-0.753,0.239-1.79,1.096-2.4,0.72
	c0.343-2.218,0.36-4.761,0.48-7.2c0.61-0.323,2.055-0.946,2.16,0.24C702.17,101.141,703.556,100.608,703.92,102.48z"/>
<path fill-rule="evenodd" clip-rule="evenodd" d="M514.32,102.72c0.337,0.703,0.646,1.435,0.479,2.64
	C511.771,108.935,509.281,100.99,514.32,102.72z"/>
<path fill-rule="evenodd" clip-rule="evenodd" d="M698.16,103.44c1.364,3.899-1.086,7.132-3.84,8.4
	c0.016,1.216-0.413,1.988-0.24,3.36c-0.735,1.105-1.904,1.775-3.36,2.16c0.673-3.728,1.522-7.278,1.2-12
	C693.63,104.341,695.835,102.387,698.16,103.44z M694.56,105.84c0.152,0.808-0.309,2.229,0.24,2.64
	c0.563-0.557,2.033-2.374,0.48-2.88C695.239,105.88,694.9,105.86,694.56,105.84z"/>
<path fill-rule="evenodd" clip-rule="evenodd" d="M499.68,105.6c1.046,0.393,2.546,0.333,3.6,0.72c-0.432,2.048-1.38,3.58-1.44,6
	c0.077,0.563,0.743,0.538,0.96,0.96c2.814-0.626,2.971-3.91,3.84-6.48c0.911,0.289,1.889,0.511,2.88,0.72
	c-0.237,3.604-1.601,6.08-1.68,9.84c-1.216-0.016-1.987,0.413-3.36,0.24c-0.077-0.563-0.379-0.901-0.24-1.68
	C497.763,117.261,497.66,109.997,499.68,105.6z"/>
<path fill-rule="evenodd" clip-rule="evenodd" d="M514.32,107.28c-0.328,3.112-0.205,6.675-0.721,9.6
	c-0.675,0.365-1.852,0.229-2.64,0.48c-0.488-2.988-0.332-7.357,0.24-10.08C512.24,107.28,513.28,107.28,514.32,107.28z"/>
<path fill-rule="evenodd" clip-rule="evenodd" d="M489.12,119.04c-0.164,0.876-0.91,1.17-1.2,1.92
	c-4.219-3.134-4.964,2.539-0.72,3.12c2.961,6.73-8.052,8.486-9.6,3.12c0.064-1.136,1.048-1.352,1.44-2.16
	c1.332,0.715,3.612,3.659,4.8,0.96c-2.092-1.791-4.66-4.74-2.4-7.92C483.287,115.481,487.626,116.714,489.12,119.04z"/>
<path fill-rule="evenodd" clip-rule="evenodd" d="M504.24,119.04c2.648-0.962,2.669,3.375,0.48,3.36
	C502.871,122.388,502.369,119.72,504.24,119.04z"/>
<path fill-rule="evenodd" clip-rule="evenodd" d="M493.92,120.72c-0.318,2.001-0.846,3.794-0.72,6.24
	c3.505,1.9,2.56-4.146,4.32-5.52c1.015,0.265,1.968,0.591,2.88,0.96c-0.648,3.352-1.626,6.374-2.4,9.6
	c-1.196-0.084-2.985,0.425-2.64-1.2c-7.083,1.53-6.335-6.92-4.32-10.56C492.001,120.399,493.129,120.391,493.92,120.72z"/>
<path fill-rule="evenodd" clip-rule="evenodd" d="M515.76,123.36c-0.199,0.601-0.657,0.943-0.72,1.68
	c-0.845-0.412-2.312-0.738-3.36-0.24c-1.385,3.297,4.369,1.751,4.801,4.8c0.144,1.02-0.771,3.542-1.921,4.32
	c-2.35,1.591-8.474-0.015-6.479-3.12c0.909-0.349,4.207,2.079,4.56-0.48c-0.093-1.427-2.037-1.002-3.12-1.44
	C505.194,124.499,512.274,118.82,515.76,123.36z"/>
<path fill-rule="evenodd" clip-rule="evenodd" d="M503.28,123.36c1.112,0.088,2.23,0.17,3.12,0.48
	c-0.478,3.442-1.014,6.826-1.92,9.84c-1.163,0.043-2.049-0.191-2.88-0.48C502.042,129.802,502.56,126.48,503.28,123.36z"/>
<path fill-rule="evenodd" clip-rule="evenodd" d="M518.88,125.76c1.84,0,3.68,0,5.521,0c0.062,1.263-0.164,2.236-0.48,3.12
	c-1.68,0-3.36,0-5.04,0C518.88,127.84,518.88,126.8,518.88,125.76z"/>
<path fill-rule="evenodd" clip-rule="evenodd" d="M489.84,130.56c2.058,2.913-2.793,4.347-3.12,1.68
	C486.563,130.962,487.928,129.683,489.84,130.56z"/>
<path fill-rule="evenodd" clip-rule="evenodd" d="M486.96,134.64c1.167-0.046,2.294-0.055,2.88,0.48
	c-0.045,4.248-0.094,11.641-4.32,12.24c-2.319,0.329-5.121-1.272-4.8-4.56c1.265-0.015,1.761-0.798,3.12-0.72
	c0.418,0.622,0.035,2.045,1.2,1.92C487.228,142.428,486.286,137.726,486.96,134.64z"/>
<path fill-rule="evenodd" clip-rule="evenodd" d="M496.08,144c0.823,0.998,2.93,0.775,4.08,0.24c0.229,1.051,0.25,2.309,0.48,3.36
	c-5.937,1.751-9.838-2.41-9.12-7.92c0.453-3.474,5.046-6.055,8.16-3.36C502.192,138.494,501.03,145.13,496.08,144z M495.12,140.4
	c0.707,0.341,1.514,0.725,2.4,0.24c-0.005-0.565,0.414-0.707,0.24-1.44C497.029,138.334,494.498,138.467,495.12,140.4z"/>
<path fill-rule="evenodd" clip-rule="evenodd" d="M365.28,145.68c0.296,0.678,0.296,1.481,0,2.16
	C362.076,149.447,361.987,144.047,365.28,145.68z"/>
<path fill-rule="evenodd" clip-rule="evenodd" d="M351.84,154.56c-0.825,0.105-1.345-0.095-1.92-0.24
	c-0.336-0.767,0.546-2.093,0.24-3.6c-0.252-0.627-0.975-0.785-1.92-0.72c-1.139,0.541-0.368,2.993-0.96,4.08
	c-0.398,0.402-1.409,0.191-2.16,0.24c-0.254-1.506,0.704-4.224-0.96-4.32c-1.94,0.427-0.162,3.074-0.48,4.8
	c-1.12-0.159-1.542,0.378-2.4,0.48c-0.562-2.397-0.427-5.493-0.72-8.16c0.899,0.334,2.262-1.039,2.16,0.48
	c1.128-0.415,3.282-0.408,3.84,0.48C350.983,145.737,353.781,150.538,351.84,154.56z"/>
<path fill-rule="evenodd" clip-rule="evenodd" d="M355.2,148.32c5.449-2.014,6.086,6.369,1.2,6.24
	C353.169,154.475,352.079,149.474,355.2,148.32z M357.36,150.72c-0.427-0.213-0.61-0.67-1.44-0.479
	C354.815,152.05,357.609,153.287,357.36,150.72z"/>
<path fill-rule="evenodd" clip-rule="evenodd" d="M376.32,148.32c2.413,1.917-1.861,4.387-2.4,1.44
	C374.299,148.858,374.785,148.064,376.32,148.32z"/>
<path fill-rule="evenodd" clip-rule="evenodd" d="M362.16,149.04c0.959,0.24,1.865,0.535,2.64,0.96c-0.773,2.026-1.592,4.007-2.4,6
	c-1.108,0.148-1.381-0.539-2.4-0.48C360.481,153.122,361.453,151.213,362.16,149.04z"/>
<path fill-rule="evenodd" clip-rule="evenodd" d="M373.68,151.92c1.067-0.107,1.749,0.171,2.4,0.48
	c-0.345,3.255-1.478,5.722-2.88,7.92c-2.527,0.837-4.675-0.54-4.56-3.12c0.147-0.333,0.924-0.036,0.96-0.48
	c1.306-0.267,0.767,1.313,1.92,1.2C373.22,156.9,372.973,153.933,373.68,151.92z"/>
<path fill-rule="evenodd" clip-rule="evenodd" d="M382.32,157.44c-1.016-0.343-2.625-0.095-3.6-0.48
	c-0.52,1.163,1.335,1.804,2.88,1.68c-0.102,0.501,0.165,0.635,0.24,0.96c-2.084,2.501-5.128,0.208-5.28-2.16
	C376.128,150.717,385.686,152.287,382.32,157.44z M379.92,155.52c0.325,0.076,0.458,0.342,0.96,0.24c0-0.24,0-0.48,0-0.72
	C380.333,154.973,379.978,155.098,379.92,155.52z"/>
<path fill-rule="evenodd" clip-rule="evenodd" d="M365.04,155.76c0.759-0.039,0.802,0.638,1.68,0.48
	c-0.783,1.377-1.349,2.971-2.88,3.6C363.814,158.054,364.405,156.885,365.04,155.76z"/>
<path fill-rule="evenodd" clip-rule="evenodd" d="M350.4,156c1.132,0.228,1.904,0.816,1.68,2.4c-0.575,0.305-0.884,0.876-1.92,0.72
	C348.85,158.476,349.048,156.425,350.4,156z"/>
<path fill-rule="evenodd" clip-rule="evenodd" d="M348.72,159.84c0.814,0.065,1.946-0.186,2.4,0.24
	c0.083,3.843-1.195,6.325-2.88,8.4c-2.781,0.301-4.013-0.948-4.32-3.12c0.359-0.281,0.981-0.298,1.2-0.72
	c0.997,0.123,0.881,1.359,1.92,1.44C348.269,164.669,348.493,162.252,348.72,159.84z"/>
<path fill-rule="evenodd" clip-rule="evenodd" d="M354.72,160.8c3.04-0.834,5.367,1.146,5.28,4.08
	c-0.143,4.771-7.263,4.562-7.92,0.48C351.733,163.207,352.362,161.447,354.72,160.8z M355.44,165.84
	c0.691-0.028,1.571,0.131,1.92-0.24C359.13,161.589,352.369,163.036,355.44,165.84z"/>
<path fill-rule="evenodd" clip-rule="evenodd" d="M363.6,162.24c-0.283,1.397-0.681,2.679-0.72,4.32c2.226,1.647,2.933-1.9,3.6-3.36
	c0.659,0.381,1.741,0.338,2.4,0.72c-0.56,2.4-1.284,4.637-2.16,6.72c-0.904-0.296-2.531,0.131-2.16-1.44
	C358.983,172.162,359.334,159.817,363.6,162.24z"/>
<path fill-rule="evenodd" clip-rule="evenodd" d="M702.24,163.2c-0.751,0.735-1.858-0.21-2.88,0
	C699.283,162.773,701.643,162.536,702.24,163.2z"/>
<path fill-rule="evenodd" clip-rule="evenodd" d="M373.92,169.92c-1.317-0.254-2.704-1.546-3.84-1.2
	c0.188,1.491,1.463,1.897,2.88,2.16c0.009,0.889-0.369,1.392-0.72,1.92c-2.392-0.231-3.61-0.871-4.08-2.16
	c-1.727-4.733,6.859-8.87,7.2-3.36C375.446,168.666,374.782,169.044,373.92,169.92z M373.2,168c0-0.32,0-0.64,0-0.96
	c-0.4,0-0.8,0-1.2,0C372.083,167.677,372.63,167.85,373.2,168z"/>
<path fill-rule="evenodd" clip-rule="evenodd" d="M703.2,166.56c-0.398,1.281-1.023,2.336-1.681,3.36
	c-1.316-0.8-3.198-0.426-3.84,0.72c1.342,2.991,6.8,1.82,7.681,5.52c1.777,7.468-8.045,9.816-12.48,5.76
	c0.471-1.609,1.65-2.509,2.4-3.84c1.09,0.413,4.198,2.055,4.8,0c-0.897-2.038-3.43-1.602-4.8-2.64
	C689.531,171.083,695.789,161.829,703.2,166.56z"/>
<path fill-rule="evenodd" clip-rule="evenodd" d="M648,167.76c4.066,4.392-4.661,7.335-5.28,2.88
	C642.352,167.988,645.423,166.492,648,167.76z"/>
<path fill-rule="evenodd" clip-rule="evenodd" d="M637.92,168.24c1.345,8.735,3.148,17.012,3.6,26.64
	c-1.897,0.183-3.508,0.652-5.52,0.72c-2.149-8.01-3.789-16.532-4.56-25.92C633.489,169.089,635.373,168.333,637.92,168.24z"/>
<path fill-rule="evenodd" clip-rule="evenodd" d="M691.92,177.84c-2.925,0.355-5.156,1.404-8.16,1.68
	c0.8,2.569,3.646,2.293,5.28,0.72c0.667,0.933,1.847,1.353,2.4,2.4c-1,1.875-3.037,3.026-5.28,3.12
	c-11.326,0.475-8.923-19.612,1.68-17.52c1.233,0.243,1.639,1.101,3.12,1.92C691.846,172.014,692.106,175.707,691.92,177.84z
	 M684.24,175.44c1.498-0.101,2.714-0.486,3.84-0.96C687.733,171.171,683.582,173.316,684.24,175.44z"/>
<path fill-rule="evenodd" clip-rule="evenodd" d="M678.96,173.28c-2.838,0.605-5.521,1.581-6,4.08
	c-0.534,2.794,1.976,6.347,1.68,9.6c-1.663,0.497-3.528,0.792-5.52,0.96c-1.364-5.276-1.685-11.596-2.88-17.04
	c1.504-0.576,3.463-0.697,5.04-1.2c-0.015,0.895,0.241,1.518,0.479,2.16C673.993,168.878,678.713,167.851,678.96,173.28z"/>
<path fill-rule="evenodd" clip-rule="evenodd" d="M665.52,173.28c-0.611,5.789-1.818,10.981-3.119,16.08
	c-1.435,0.406-2.929,0.752-4.801,0.72c-2.348-4.532-5.927-9.113-6.96-14.16c0.778-0.982,2.673-0.848,3.841-1.44
	c2.102,1.658,2.981,4.538,4.079,7.2c1.028-2.573,1.588-5.612,2.4-8.4C662.676,173.576,664.192,172.596,665.52,173.28z"/>
<path fill-rule="evenodd" clip-rule="evenodd" d="M648.24,176.4c1.765,3.857,1.424,10.477,1.2,15.6c-1.69,0.108-3.796-0.167-4.801,0
	c-1.332-4.028-0.976-9.744-1.199-14.88C645.176,177.016,646.569,176.569,648.24,176.4z"/>
<path fill-rule="evenodd" clip-rule="evenodd" d="M431.52,185.04c0,0.64,0,1.28,0,1.92c-0.983-0.023-1.887,0.033-1.92,0.96
	c1.741,1.512,5.341,0.898,4.56,4.8c-0.405,2.021-2.879,2.621-5.28,3.12c-0.299-0.581-0.594-1.166-0.72-1.92
	c0.932,0.064,2.622-0.237,2.4-1.68c-0.21-1.366-3.628-1.146-4.32-2.64C424.973,186.863,428.125,184.34,431.52,185.04z"/>
<path fill-rule="evenodd" clip-rule="evenodd" d="M425.04,186.24c0.273,3.01,0.813,8.32-0.72,10.32
	c-1.696-0.383-2.218-1.942-3.84-2.4c-0.539,1.221-0.003,3.517-0.96,4.32c-2.684-1.796-4.402-4.558-6.72-6.72
	c1.359-1.995,3.826-1.376,4.8,0.48c0.247-1.433,0.231-3.128,0.96-4.08c1.863,0.537,2.617,2.183,3.6,3.6
	c1.055-1.046-0.216-3.086,0-4.8C423.429,187.1,424.034,185.598,425.04,186.24z"/>
<path fill-rule="evenodd" clip-rule="evenodd" d="M413.76,195.6c-1.356,0.483-2.832,0.848-3.84,1.68c0.665,1.668,2.938,0.103,4.08,0
	c1.853,2.229-1.143,3.764-4.08,3.36c-3.882-1.303-3.737-11.124,2.4-8.88C413.121,192.719,413.748,193.853,413.76,195.6z
	 M410.16,194.88c0.733,0.173,0.875-0.245,1.44-0.24C411.692,193.425,409.976,193.95,410.16,194.88z"/>
<path fill-rule="evenodd" clip-rule="evenodd" d="M408.24,201.36c-0.772,0.269-1.423,0.657-2.4,0.72
	c-0.933-1.467-1.026-3.773-2.4-4.8c-3.45,0.694-0.096,3.704,0,5.76c-1.269,0.091-1.652,1.068-2.88,1.2
	c-0.985-2.775-2.108-5.412-3.12-8.16c0.688-0.432,1.607-0.632,2.16-1.2c0.563,0.077,0.537,0.743,0.96,0.96
	C404.312,191.653,407.917,197.591,408.24,201.36z"/>
<path fill-rule="evenodd" clip-rule="evenodd" d="M726.72,212.64c-0.751,0.735-1.857-0.21-2.88,0
	C723.763,212.213,726.122,211.976,726.72,212.64z"/>
<path fill-rule="evenodd" clip-rule="evenodd" d="M709.68,213.12c0.736,2.063,0.231,5.369,0.96,7.44
	c1.479-0.761,2.469-2.012,4.08-2.64c1.685,0.716,2.051,2.75,2.641,4.56c-0.753,1.167-2.228,1.613-3.12,2.64
	c2.454,2.025,5.003,3.957,6.479,6.96c-0.668,1.492-2.183,2.137-3.359,3.12c-2.349-1.092-3.295-3.585-5.521-4.8
	c0.126,1.714,0.571,3.109,0.48,5.04c-1.676,0.485-3.801,0.52-6,0.48c-0.493-7.587-1.445-14.714-2.16-22.08
	C705.541,213.141,707.837,213.357,709.68,213.12z"/>
<path fill-rule="evenodd" clip-rule="evenodd" d="M729.36,215.52c-0.077,1.443-1.077,1.963-1.44,3.12
	c-1.524-0.353-3.396-0.395-4.08,0.72c0.225,2.595,3.239,1.772,4.8,2.4c2.494,1.003,4.731,5.524,1.92,8.64
	c-0.721,0.8-4.112,2.19-5.76,2.16c-3.897-0.071-5.263-3.03-2.399-5.28c1.222,0.284,3.389,1.069,3.84-0.48
	c-1.32-2.143-4.156-1.737-5.76-3.36C715.723,218.625,722.672,211.245,729.36,215.52z"/>
<path fill-rule="evenodd" clip-rule="evenodd" d="M552.72,271.68c0.24,1.2,0.565,2.315,0.48,3.84c5.285-1.013,5.813,3.354,5.28,7.44
	c-0.721,0-1.44,0-2.16,0c-0.764-1.237,0.057-4.057-1.2-4.8c-1.067-0.107-1.271,0.65-1.92,0.96c-0.156,1.849,0.695,3.523-0.24,4.8
	c-0.904-0.185-1.147,0.293-1.92,0.24c-1.262-3.298-0.904-8.216-1.2-12.48C550.391,271.305,552.17,271.305,552.72,271.68z"/>
<path fill-rule="evenodd" clip-rule="evenodd" d="M575.52,272.88c-0.304,0.736-0.816,1.263-1.199,1.92
	c-1.102-0.019-1.547-0.693-2.88-0.479c-0.179,2.178,2.03,1.969,3.119,2.88c2.704,4.598-4.378,7.808-6.239,3.84
	c0.53-0.189,0.601-0.84,0.96-1.2c0.98-0.101,0.97,0.79,2.16,0.48c1.321-2.986-3.549-2.639-3.36-5.761
	C568.253,271.701,573.242,270.316,575.52,272.88z"/>
<path fill-rule="evenodd" clip-rule="evenodd" d="M528,273.12c-0.062,0.737-0.521,1.079-0.72,1.68
	c-0.563-0.076-0.901-0.379-1.681-0.24c-0.79,0.33-0.97,1.271-1.199,2.16c0.019,0.861,1.568,0.191,1.92,0.721
	c-0.284,0.596-0.348,1.412-0.48,2.159c-0.349,0.451-1.57,0.029-1.92,0.48c-0.11,1.17,0.251,2.812-0.24,3.6
	c-0.562,0.442-1.527-0.25-2.64,0c0.128-4.672-0.064-9.664,2.64-11.76C525.591,271.85,527.471,271.81,528,273.12z"/>
<path fill-rule="evenodd" clip-rule="evenodd" d="M539.76,274.8c-1.02,1.289-3.227,0.641-3.12-1.2
	C537.223,271.896,540.511,271.976,539.76,274.8z"/>
<path fill-rule="evenodd" clip-rule="evenodd" d="M535.2,274.56c-0.422,0.219-0.439,0.842-0.72,1.2c-0.88,0.178-1.334-0.59-1.921,0
	c-0.532,0.428-0.871,1.049-0.72,2.16c0.349,0.371,0.937,0.504,1.68,0.48c0,0.8,0,1.6,0,2.399c-0.574,0.146-1.095,0.346-1.92,0.24
	c-0.04,1.4,0.419,2.301,0.24,3.84c-0.773,0.347-2.013,0.227-3.12,0.24c-0.059-3.813-0.422-8.95,1.2-11.76
	C531.424,272.44,535.027,272.651,535.2,274.56z"/>
<path fill-rule="evenodd" clip-rule="evenodd" d="M566.88,274.8c0.027,1.333,0.511,2.209,0.48,3.601
	c-1.68,0.24-2.762,1.078-4.561,1.199c0.367,1.455,2.761,0.945,3.84,0.48c0.263,0.537,0.397,1.202,0.721,1.68
	c-4.599,6.356-11.123-4.198-6.24-7.68C562.781,272.896,565.486,273.412,566.88,274.8z M563.04,276.96
	c0.497-0.143,1.576,0.297,1.68-0.24c-0.425-0.215-0.306-0.974-1.2-0.72C563.396,276.355,563.165,276.604,563.04,276.96z"/>
<path fill-rule="evenodd" clip-rule="evenodd" d="M518.88,274.56c-0.002,3.038,0.116,6.196-0.479,8.641
	c-2.538-0.436-3.107-0.002-6,0c-4.027-1.066-4.203-8.081-0.48-9.36C514.465,272.965,516.074,274.973,518.88,274.56z M513.6,276.479
	c-1.837,0.059-2.074,4.127,0.96,3.601C515.209,278.819,514.987,276.436,513.6,276.479z"/>
<path fill-rule="evenodd" clip-rule="evenodd" d="M547.44,276.96c0.338,2.323-2.908,1.064-3.12,2.88
	c-0.162,1.38,1.501,2.045,3.359,1.2c0.316,0.724,0.775,1.305,0.721,2.4c-0.916,0.844-2.757,0.764-4.561,0.72
	C538.455,282.333,542.662,272.327,547.44,276.96z"/>
<path fill-rule="evenodd" clip-rule="evenodd" d="M539.76,276.72c-0.097,2.543,0.232,5.513-0.24,7.681
	c-1.022-0.098-2.472,0.232-3.119-0.24C536.936,281.242,535.17,274.788,539.76,276.72z"/>
<path fill-rule="evenodd" clip-rule="evenodd" d="M481.68,282.72c0.737,1.104-0.379,2.127,0,3.36c0.479,1.558,1.898,1.562,3.12,2.64
	c0.985,2.379,0.667,6.445-2.16,6.48c-0.333-0.147-0.036-0.924-0.48-0.96c0.058-1.343,1.481-1.146,1.2-2.88
	c-0.316-1.95-4.343-2.203-4.32-5.521C479.046,284.922,479.54,282.469,481.68,282.72z"/>
<path fill-rule="evenodd" clip-rule="evenodd" d="M466.56,295.92c1.024,0.571,1.053,3.325-0.24,3.6
	c-1.015-0.345-1.625-1.095-1.44-2.64C465.482,296.603,465.684,295.924,466.56,295.92z"/>
<path fill-rule="evenodd" clip-rule="evenodd" d="M459.12,307.2c5.12,0.268,4.63,9.054,0.96,10.56
	c-2.59-3.329-5.364-6.476-7.68-10.08C452.89,304.418,459.308,301.188,459.12,307.2z M454.56,307.68
	c0.088,0.712,0.416,1.185,0.96,1.44c0.402-0.486,1.651-1.834,0.48-2.4C455.639,307.158,454.964,307.284,454.56,307.68z
	 M457.44,311.52c0.533,1.067,1.003,2.197,2.16,2.641c0.726-0.885,0.913-2.278,0.24-3.36
	C458.745,310.745,458.164,311.204,457.44,311.52z"/>
<path fill-rule="evenodd" clip-rule="evenodd" d="M449.04,308.64C443.301,308.152,450.939,302.218,449.04,308.64L449.04,308.64z"/>
<path fill-rule="evenodd" clip-rule="evenodd" d="M593.28,308.88c-0.016,1.104-0.683,1.558-0.96,2.4
	c-1.346,0.049-2.728-1.096-3.36,0.239c0.308,1.692,2.468,1.532,3.84,2.16c4.038,3.965-2.443,9.902-6.24,6
	c0.211-0.669,0.575-1.186,0.721-1.92c0.748-0.43,2.646,1.047,3.12-0.479c-0.835-2.979-4.635-2.043-5.04-5.04
	C584.84,308.396,590.223,306.198,593.28,308.88z"/>
<path fill-rule="evenodd" clip-rule="evenodd" d="M565.44,307.92c0.201,0.599,0.313,1.286,0.239,2.16
	c0.635-0.485,2.204-0.036,2.88-0.48c0.405,0.955,0.188,2.532,0.24,3.841c-1.018,0.182-2.102,0.298-3.12,0.479
	c-0.208,3.488,0.429,6.132,0.721,9.12c-1.174,0.106-2.066,0.494-3.36,0.479c-0.289-5.15-1.435-9.444-1.2-15.119
	C562.723,307.922,564.487,308.327,565.44,307.92z"/>
<path fill-rule="evenodd" clip-rule="evenodd" d="M451.44,309.36c2.755,2.044,4.304,5.296,6.72,7.68
	c-0.381,0.819-0.802,1.599-1.68,1.92c-2.537-2.023-4.118-5.002-6.24-7.44C450.157,310.316,451.302,310.342,451.44,309.36z"/>
<path fill-rule="evenodd" clip-rule="evenodd" d="M581.28,310.32c0.846,0.029,0.065,0.349,0.479,0.96
	c0.817-0.223,1.408-0.673,2.641-0.48c-0.048,0.928-0.009,1.769,0.239,2.4c-3.286,0.479-2.61,4.22-1.92,7.2
	c-0.594,0.445-1.832,0.247-2.399,0.72c-1.721-2.279-1.581-6.42-1.92-10.08C579.279,310.72,580.232,310.473,581.28,310.32z"/>
<path fill-rule="evenodd" clip-rule="evenodd" d="M533.04,311.28c2.489-1.769,6.059-0.107,6.72,2.16
	c1.132,5.515-2.906,9.395-6.96,6.72c0.165,2.085-0.234,3.604-0.24,5.52c-0.88,0-1.76,0-2.64,0c-0.354-4.563-0.394-10.323,0-14.88
	C531.073,311.239,532.951,309.635,533.04,311.28z M536.4,317.52c0.688-1.163,0.484-2.878-0.24-3.84
	C533.37,312.961,533.543,318.46,536.4,317.52z"/>
<path fill-rule="evenodd" clip-rule="evenodd" d="M559.44,311.28c0.124,1.244-0.753,1.487-0.96,2.399
	c-0.746-0.447-2.707-0.406-2.641,0.721c2.022,1.288,4.813,1.464,5.28,3.84c0.876,4.465-5.047,6.076-8.16,3.359
	c0.03-1.009,0.93-1.15,0.96-2.159c1.103,0.429,2.742,1.196,3.6,0c-0.935-2.947-6.695-1.206-5.52-6.24
	C552.508,311.025,556.719,309.614,559.44,311.28z"/>
<path fill-rule="evenodd" clip-rule="evenodd" d="M577.68,315.84c-1.643,0.356-2.859,1.141-4.8,1.2
	c0.187,1.898,2.81,1.043,4.08,0.72c0.162,0.638,0.378,1.223,0.72,1.681c-1.175,1.995-4.751,2.447-6.479,1.199
	c-4.826-3.481,0.265-14.077,5.76-8.64C577.34,313.14,577.458,314.542,577.68,315.84z M573.12,314.4c0.56,0,1.12,0,1.68,0
	C574.889,313.177,573.032,313.177,573.12,314.4z"/>
<path fill-rule="evenodd" clip-rule="evenodd" d="M545.52,311.52c7.966-0.589,7.359,12.485-0.72,11.04
	C540.059,321.712,537.508,312.112,545.52,311.52z M543.84,315.84c-0.318,2.398,0.722,3.438,3.12,3.12
	c0.844-0.602,1.307-2.3,0.72-3.6C546.523,314.244,544.728,314.856,543.84,315.84z"/>
<path fill-rule="evenodd" clip-rule="evenodd" d="M455.28,321.12c-0.342,0.938-0.982,1.577-1.92,1.92
	c-1.078-0.202-1.348-1.212-1.92-1.92c-0.876,0.163-1.17,0.909-1.92,1.2c0.511,1.089,1.232,1.968,1.68,3.12
	c-0.263,0.856-0.823,1.417-1.68,1.68c-2.067-3.134-4.17-6.23-6.48-9.12c0.213-1.227,0.857-2.023,1.92-2.4
	c0.506,1.015,1.174,1.866,1.68,2.88c0.788-0.092,1.058-0.701,1.68-0.96c-1.732-1.566-2.971-5.402,0.48-6
	C450.638,315.042,453.099,317.941,455.28,321.12z"/>
<path fill-rule="evenodd" clip-rule="evenodd" d="M441.36,315.36c1.782,1.93,1.032,4.625,1.92,6.72c1.143,2.695,4.62,3.263,6,5.52
	c-0.207,1.154-1.457,1.263-1.92,2.16c-1.331-0.35-2.289-1.071-3.36-1.68c0.629,2.208,0.606,5.263-1.44,5.04
	c-0.502-2.138-0.536-4.744-0.96-6.96c-1.482-1.318-3.317-2.283-4.8-3.601c0.073-1.367,0.95-1.93,1.44-2.88
	c0.745,0.375,1.528,0.712,2.16,1.2C439.997,318.426,439.685,316.583,441.36,315.36z"/>
<path fill-rule="evenodd" clip-rule="evenodd" d="M434.16,320.16c3.952,1.403-0.381,4.933,0.72,7.2c1.061-0.779,1.261-2.42,2.4-3.12
	c3.646,1.54,0.568,4.905,1.2,7.2c0.509-0.691,1.207-1.193,1.44-2.16c1.214,0.626,1.188,2.491,1.92,3.6
	c-0.749,1.571-2.227,2.413-3.36,3.6c-2.975-2.784-4.636-6.884-7.44-9.84C431.809,324.209,433.524,322.725,434.16,320.16z"/>
<path fill-rule="evenodd" clip-rule="evenodd" d="M480.72,330.24c0.194,2.193-1.588,2.412-2.4,3.6c0.609,3.749,4.768,1.664,7.2,3.36
	c1.092,0.761,2.347,3.003,2.4,4.56c0.114,3.363-3.986,8.589-6.96,4.561c0.034-1.166,0.378-2.021,0.72-2.88
	c0.772-0.053,1.015,0.424,1.92,0.239c2.071-3.912-2.73-2.964-5.28-4.08C473.898,337.664,472.293,327.882,480.72,330.24z"/>
<path fill-rule="evenodd" clip-rule="evenodd" d="M468.72,337.2c5.757-1.307,11.02,6.19,11.76,11.52
	c0.793,5.71-3.23,5.878-6.24,3.36C470.91,349.293,467.145,343.214,468.72,337.2z M474,345.6c0.878,1.33,2.077,3.375,3.12,3.12
	c-0.927-3.473-2.905-5.895-5.52-7.68C471.934,342.552,473.061,344.179,474,345.6z"/>
<path fill-rule="evenodd" clip-rule="evenodd" d="M467.28,353.28c1.186,2.095,2.388,4.172,3.6,6.239
	c-0.596,1.404-1.311,2.689-2.88,3.12c-2.162-3.906-4.007-7.769-6.24-12.479c-0.637-1.345-1.976-3.081-1.92-4.08
	c0.124-2.219,3.625-4.576,5.04-4.561C469.348,341.572,470.966,350.622,467.28,353.28z M463.68,347.04
	c0.637,0.482,0.582,1.658,1.44,1.92c0.521-0.572,0.633-1.82,0.24-2.64C464.506,346.267,463.922,346.481,463.68,347.04z"/>
<path fill-rule="evenodd" clip-rule="evenodd" d="M466.8,363.36c-0.458,1.382-1.748,1.932-2.64,2.88
	c-1.363,0.003-1.42-1.301-2.4-1.681c0.028,1.732,0.397,3.123,0.24,5.04c-1.223-0.022-1.897,0.503-3.12,0.48
	c-1.182-2.898-1.726-6.435-1.92-10.32c-1.59-2.01-3.681-3.519-5.28-5.52c0.467-1.214,1.534-1.826,2.4-2.641
	c1.276,0.404,1.465,1.895,2.64,2.4c0.117-1.637-0.331-2.709-0.48-4.08c0.402-0.878,1.483-1.076,2.16-1.68
	c0.388-0.067,0.414,0.227,0.72,0.239c1.055,2.875,0.278,5.694,1.2,7.921C461.572,359.424,465.774,360.335,466.8,363.36z"/>
<path fill-rule="evenodd" clip-rule="evenodd" d="M451.92,357.36c-0.985,1.599-3.775,2.49-2.4,5.04
	c0.882-0.078,1.328-0.593,2.16-0.721c0.776,0.904,1.047,2.313,1.68,3.36c-0.179,0.941-0.949,1.291-1.68,1.68
	c0.469,0.731,0.668,1.731,1.2,2.4c1.292-0.628,2.534-1.307,3.36-2.4c4.259,3.34-0.065,7.264-3.12,8.88
	c-3.599-4.801-5.986-10.814-8.64-16.56c1.577-1.943,3.41-3.63,5.04-5.521C450.82,354.3,451.273,355.927,451.92,357.36z"/>
<path fill-rule="evenodd" clip-rule="evenodd" d="M251.04,372c-0.28,1.16-1.76,1.119-2.16,2.16c0.343,1.098,0.977,1.903,1.2,3.12
	c-2.968,2.862-3.767-2.968-4.8-5.04C247.141,372.023,250.194,369.203,251.04,372z"/>
<path fill-rule="evenodd" clip-rule="evenodd" d="M243.6,373.44c1.265,1.614,2.059,3.701,3.12,5.52
	c-2.425,3.674-7.633,2.224-8.16-2.16c0.534-0.586,1.17-1.069,2.16-1.2c0.638,0.962,0.643,2.558,1.92,2.88
	c0.611-1.099-0.851-2.183-0.96-3.359C241.922,374.162,243.119,374.159,243.6,373.44z"/>
<path fill-rule="evenodd" clip-rule="evenodd" d="M263.28,385.44c-0.674,0.285-1.38,0.54-2.16,0.72
	c-1.725-3.155-2.048-7.712-3.84-10.8c0.493-0.566,1.644-1.419,2.4-0.96C261.186,377.774,262.132,381.708,263.28,385.44z"/>
<path fill-rule="evenodd" clip-rule="evenodd" d="M229.92,378.24c-4.168,1.796,2.662,5.42,3.6,7.68
	c-0.158,0.883-0.885,1.195-1.44,1.68c-1.181-0.693-2.684-2.414-4.32-4.319c-1.699-1.979-5.249-4.957-2.16-6.48
	C227.487,377.759,229.065,375.236,229.92,378.24z"/>
<path fill-rule="evenodd" clip-rule="evenodd" d="M255.6,378.24c0.478,2.223-1.746,2.586-2.4,1.2
	C252.923,377.773,254.711,377.394,255.6,378.24z"/>
<path fill-rule="evenodd" clip-rule="evenodd" d="M234.48,378.24c5.242-1.827,5.962,7.225,0.96,6.96
	C231.957,385.016,231.05,379.436,234.48,378.24z M234.72,381.84c0.309,0.411,0.496,0.944,1.2,0.96
	c0.651-0.422,0.697-2.023-0.24-2.16C235.439,381.119,234.619,381.019,234.72,381.84z"/>
<path fill-rule="evenodd" clip-rule="evenodd" d="M257.04,382.32c0.332,1.988,1.664,2.977,1.68,5.279
	c-0.926,0.034-1.109,0.812-2.16,0.721c-0.57-1.91-1.637-3.323-1.92-5.521C255.667,382.867,255.827,382.066,257.04,382.32z"/>
<path fill-rule="evenodd" clip-rule="evenodd" d="M252,388.08c1.259-0.258,2.144-0.278,3.12,0.24
	c-2.835,8.602-12.574-7.316-3.6-5.761C252.83,382.787,254.1,386.647,252,388.08z M250.8,386.4c0.916-0.216,0.527-1.946-0.72-1.44
	C250.07,385.689,249.94,386.54,250.8,386.4z"/>
<path fill-rule="evenodd" clip-rule="evenodd" d="M227.04,389.28c1.537,0.565,2.243-1.078,3.6,0.239
	c-0.809,3.967-7.747,2.037-8.4-0.96c-0.79-3.621,3.604-5.537,5.28-1.439C227.594,388.074,226.966,388.325,227.04,389.28z
	 M224.4,387.36c-0.01,0.33,0.113,0.526,0.24,0.72c0.632,0.072,0.788-0.332,0.72-0.96C224.942,387.102,224.614,387.174,224.4,387.36z
	"/>
<path fill-rule="evenodd" clip-rule="evenodd" d="M219.36,390.24c1.547,0.692,3.983,0.497,5.28,1.439
	c0.129,1.089-0.482,1.438-0.72,2.16c-1.837-0.403-3.568-0.912-5.76-0.96c0.789,1.61,2.352,2.448,3.36,3.84
	c-0.106,0.854-0.869,1.052-1.2,1.681c-3.09-1.558-5.674-5.681-8.64-8.16C211.005,385.104,220.797,382.976,219.36,390.24z
	 M214.56,389.52c0.629,0.332,0.826,1.095,1.68,1.2c0.491-0.628,0.836-1.403,0.72-2.64C215.838,387.56,214.869,388.512,214.56,389.52
	z"/>
<path fill-rule="evenodd" clip-rule="evenodd" d="M248.4,391.92c-3.031,1.49-6.688,1.482-7.68-1.68c-0.158-0.503-0.077-1.433,0-1.92
	c2.225-1.761,2.176,1.873,3.84,2.159c0.772-1.26-0.931-2.103-0.72-3.6C246.513,384.852,248.029,390.168,248.4,391.92z"/>
<path fill-rule="evenodd" clip-rule="evenodd" d="M239.28,391.44c-0.039,1.081-1.359,0.881-1.44,1.92
	c-0.103,0.982,0.507,1.253,0.96,1.68c1.139,0.099,1.261-0.819,2.4-0.72c0.316,0.724,0.775,1.305,0.72,2.399
	c-2.875,1.748-6.646,0.188-6.96-2.64C234.688,391.631,237.925,387.925,239.28,391.44z"/>
<path fill-rule="evenodd" clip-rule="evenodd" d="M234.48,398.4c1.284,0.244,1.194-0.886,2.4-0.721
	c0.206,0.755,0.907,1.013,0.96,1.92c-1.152,0.867-2.012,1.557-3.36,1.44c-4.402-0.381-4.241-9.175-0.72-5.28
	C233.402,396.866,233.505,398.021,234.48,398.4z"/>
<path fill-rule="evenodd" clip-rule="evenodd" d="M604.08,397.92c1.189,0.73,0.628,3.212,1.2,4.56
	c0.568,0.475,0.953-1.275,1.92-1.199c0.664,0.376,1.334,0.745,2.16,0.96c0.045,1.619-2.361,1.393-2.4,2.399
	c-0.047,1.204,2.854,1.62,3.6,3.12c-1.05,2.333-3.261,0.297-4.56-0.479c-0.326,0.265,0.234,1.672,0.24,2.399
	c-0.957,0.164-1.633,0.607-2.88,0.48c-0.771-3.629-1.269-7.532-1.92-11.28C602.191,398.431,603.349,398.389,604.08,397.92z"/>
<path fill-rule="evenodd" clip-rule="evenodd" d="M233.52,401.76c0.167,1.399-1.06,1.325-1.92,2.16
	c-0.745,0.724-1.067,1.907-1.92,2.16c-3.116,0.923-5.506-2.01-5.28-4.32c0.153-1.562,1.756-3.509,2.88-3.6
	C229.444,397.984,231.06,401.685,233.52,401.76z M228.72,403.68c0.653-1.366-0.818-2.057-1.68-2.64
	C226.273,402.378,227.566,403.487,228.72,403.68z"/>
<path fill-rule="evenodd" clip-rule="evenodd" d="M584.88,398.16c1.13,4.391,1.963,9.077,2.4,14.16
	c-1.208-0.168-1.673,0.407-2.88,0.239c-1.062-4.537-2.196-9.004-2.641-14.159C582.818,398.338,583.616,398.017,584.88,398.16z"/>
<path fill-rule="evenodd" clip-rule="evenodd" d="M614.4,404.64c0.461,1.376,2.118,0.39,2.88,0c2.479,1.57-0.443,4.479-3.84,3.601
	c-1.63-0.422-4.773-5.789-2.881-8.4C613.583,395.67,620.749,401.621,614.4,404.64z M612.96,402.72
	c0.733,0.174,0.875-0.245,1.44-0.24c-0.003-0.637,0.09-1.37-0.24-1.68C612.806,400.438,612.371,401.896,612.96,402.72z"/>
<path fill-rule="evenodd" clip-rule="evenodd" d="M593.04,398.4c1.32,3.719,1.657,8.422,2.64,12.479
	c-0.823,0.536-2.263,0.457-3.359,0.72c-0.999-3.961-1.383-8.537-1.92-12.96C591.39,398.67,591.902,398.223,593.04,398.4z"/>
<path fill-rule="evenodd" clip-rule="evenodd" d="M599.28,401.04c-0.827,0.7-1.456,1.072-2.4,0.72
	C593.452,400.479,599.936,395.321,599.28,401.04z"/>
<path fill-rule="evenodd" clip-rule="evenodd" d="M599.52,402.479c0.456,2.425,0.673,5.088,1.2,7.44
	c-0.798,0.402-1.966,0.435-2.88,0.72c-0.617-2.263-0.668-5.091-1.439-7.199C596.763,402.442,598.515,402.835,599.52,402.479z"/>
<path fill-rule="evenodd" clip-rule="evenodd" d="M464.16,305.28c1.13,1.83,2.293,3.626,3.6,5.279c-0.651,0.709-1.11,1.61-2.16,1.92
	c-1.57-2.59-3.299-5.021-4.8-7.68c0.158-0.882,0.885-1.195,1.44-1.68c0.976-0.096,0.738,1.021,1.44,1.2
	c-0.958-1.521-1.888-3.072-3.12-4.32c0.016,0.655,2.023,3.067,0,3.84c-1.363,0.112-2.223-1.835-1.2-2.64
	c-0.744-1.017-1.462-2.058-1.92-3.36c1.684-1.356,3.6-2.48,5.28-3.84c0.901,0.539,0.908,1.972,1.68,2.64
	c0.043,0.843-0.811,0.79-0.96,1.44c0.158,1.686,4.437,4.461,4.08,6.72C467.354,305.851,465.163,307.367,464.16,305.28z"/>
<path fill-rule="evenodd" clip-rule="evenodd" d="M722.64,100.08c0.49,0.917,0.049,1.835,0,2.88c-0.74,0.379-1.646,0.595-2.399,0.96
	c-0.013,1.745,2.078-0.037,1.92,1.92C717.139,110.307,717.186,96.767,722.64,100.08z"/>
<path fill-rule="evenodd" clip-rule="evenodd" d="M708.72,101.52c0.086,1.206-0.063,2.176-0.479,2.88
	c-0.915,0.286-2.083,0.318-2.88,0.72c-0.003,1.355,2.276,0.335,2.64,0.72c0.397,2.278-1.772,2.583-3.36,2.16
	C702.004,105.19,705.31,98.283,708.72,101.52z"/>
<path fill-rule="evenodd" clip-rule="evenodd" d="M689.76,231.36c1.442,9.125-13.141,13.917-14.64,2.88
	c0.387,8.867-6.882,10.078-14.64,10.8c-2.15-8.01-3.789-16.532-4.561-25.92c2.049-0.591,3.934-1.347,6.48-1.44
	c0.731,3.269,1.017,6.983,1.68,10.32c5.113,0.167,9.699,0.86,10.56,5.28c-1.761-10.32,13.258-11.93,14.4-3.12
	c-2.229-12.23,14.542-12.027,15.84-3.36c0.615,4.108-2.174,9.752-6.24,10.56C694.121,238.258,690.188,235.339,689.76,231.36z
	 M694.56,228c-0.084,2.004-0.099,3.938,1.2,4.56c3.365,0.376,4.549-3.346,3.36-6C697.222,225.753,695.314,226.876,694.56,228z
	 M682.08,235.44c3.454-0.043,2.954-7.287-1.2-5.76C678.086,230.707,679.566,235.471,682.08,235.44z M665.52,239.04
	c5.42,0.41,4.127-5.904-0.479-5.52C665.065,235.494,665.574,236.985,665.52,239.04z"/>
<path fill-rule="evenodd" clip-rule="evenodd" d="M474.72,296.16c-0.321-1.682-2.096-3.982-2.88-6c0.29-0.91,1.225-1.175,1.68-1.92
	c1.755,0.405,2.498,1.822,3.84,2.64c-0.006-0.958-1.148-2.849-1.68-4.08c0.316-1.123,1.337-1.543,2.4-1.92
	c1.176,4.344,3.595,7.444,4.56,12c-1.865,1.054-3.393-0.435-4.8-1.2c-0.15,0.877,0.99,2.525,1.44,3.601
	c-0.206,0.914-0.94,1.299-1.92,1.439c-0.306-1.374-1.202-2.158-1.68-3.359c1.5,3.555-2.283,9.733-5.28,5.279
	c0.306,1.374,1.202,2.158,1.68,3.36c-0.393,0.888-1.285,1.275-2.4,1.44c-1.014-2.586-2.346-4.854-3.36-7.44
	c0.982-0.138,1.135-1.105,2.16-1.2c0.264,0.776,0.648,1.433,0.96,2.16C467.988,296.747,472.497,291.125,474.72,296.16z
	 M472.08,296.88c-1.256,0.755-1.31,4.454,1.2,4.08C474.387,299.763,473.974,297.042,472.08,296.88z"/>
</svg>
