<?xml version="1.0" encoding="utf-8"?>
<!-- Generator: Adobe Illustrator 13.0.0, SVG Export Plug-In . SVG Version: 6.00 Build 14948)  -->
<!DOCTYPE svg PUBLIC "-//W3C//DTD SVG 1.1//EN" "http://www.w3.org/Graphics/SVG/1.1/DTD/svg11.dtd">
<svg version="1.1" id="Calque_1" xmlns="http://www.w3.org/2000/svg" xmlns:xlink="http://www.w3.org/1999/xlink" x="0px" y="0px"
	 width="68.16px" height="56.161px" viewBox="0 0 68.16 56.161" enable-background="new 0 0 68.16 56.161" xml:space="preserve">
<g>
	<path d="M16.08,29.28c0.589,0.531,0.52,1.721,0.96,2.398c0.712-0.566,0.883-1.676,2.16-1.68c0.624,2.103-1.614,3.319-2.64,4.562
		c-0.675-0.045-1.022-0.418-0.96-1.201c-0.668,0.371-0.225,1.854-1.68,1.438C13.643,32.89,13.954,29.579,16.08,29.28z"/>
	<path d="M22.8,35.52c-1.58,0.141-2.779-0.102-3.601-0.721C17.174,29.116,27.023,31.896,22.8,35.52z M20.64,33.12
		c-0.031,0.732,1.25,0.674,1.44,0.48C22.147,32.831,21.029,32.728,20.64,33.12z"/>
	<path d="M12.96,37.68c2.444-1.301,7.443-2.699,9.12,0.24c1.516,2.656-0.087,6.859-1.2,9.359c-4.692,1.575-8.691-1.061-10.32-4.08
		c-1.79-0.248-3.872,0.877-5.04-0.24c0.909-4.051,3.645-6.275,5.76-9.119C12.625,34.334,11.887,36.913,12.96,37.68z M8.88,41.52
		c1.135,0.096,2.003-0.076,2.88-0.24c1.578,1.703,2.576,3.984,5.28,4.561c1.237-0.618,1.026-0.563,2.64-0.239
		c1.024-1.406,1.684-4.524,0.72-6.479c-2.428-1.318-5.609,0.146-7.44,0.961c-1.368-0.232-1.614-1.586-1.92-2.881
		C10.434,38.754,9.233,39.713,8.88,41.52z"/>
	<path d="M18.48,41.76c-0.072,0.969-0.354,1.727-1.44,1.68c-0.506-0.373-0.87-0.889-0.72-1.92
		C16.875,41.036,18.161,41.276,18.48,41.76z"/>
	<path d="M68.326,22.653c0,0.96,0,1.92,0,2.88c-1.369,7.994-0.725,18.369-0.961,27.599c-4.021-0.143-6.809,1.709-10.799,1.201
		c-1.942-0.248-3.877-2.105-6-2.16c-1.844-0.049-4.648,1.607-7.201,1.68c-0.711,0.021-1.572-0.342-2.159-0.24
		c-2.276,0.395-4.028,2.26-6,2.16c-2.744-0.139-4.457-3.217-6.72-3.84c-0.573,0.787-0.411,2.311-1.44,2.641
		c-6.651,1.053-11.51-1.766-16.8-3.121c-3.501-0.896-7.011-1.266-9.6-2.879c0.987-4.855,1.271-9.945,3.12-14.16
		c0.911-2.078,2.113-3.742,2.64-5.52c0.221-0.747,0.204-2.561,0.72-3.121c1.837-1.992,11.86,1.312,15.12,1.92
		c1.512,0.281,3.139,0.286,4.32,0c-2.061-0.558-4.633-1.2-7.2-1.68c-2.39-0.448-5.621-0.104-6.479-2.4
		c7.958,0.362,14.998,1.643,20.641,4.319c-0.183-1.417-0.111-3.088-0.48-4.319c-5.873-0.041-13.655,1.49-17.52-1.2
		c6.421-0.583,14.109-0.788,21.122-1.44c-5.886-1.469-12.021,2.092-17.521,0c2.742-0.779,5.113-1.927,8.64-1.92
		c0.102-3.418,5.684-1.355,8.639-1.92c0.697-0.182-0.217-1.978,0.48-2.16c3.563-1.054,8.379-1.925,13.439-2.16
		c6.134-0.285,13.857-0.556,17.76,1.2C68.245,16.814,67.768,20.252,68.326,22.653z M58.727,51.212
		c1.783-0.135,4.127,0.289,5.521-0.238c-0.019-12.336,1.019-22.776,0.239-36.001c-1.688-0.333-4.754-0.026-6.721-0.72
		C58.48,27.181,57.46,38.376,58.727,51.212z M40.727,16.893c3.627,0.373,7.646,0.353,10.561,1.44
		c0.869,9.824,0.324,19.958,0.24,31.44c0.75,0.371,1.729,0.512,2.398,0.961c-0.148-9.926,0.613-24.877,0-35.521
		C49.414,15.661,44.577,15.784,40.727,16.893z M43.365,20.493c-0.092,10.17-2.66,20.915-1.92,30.959
		c0.896-0.015,1.519,0.241,2.16,0.479c0.791-10.709,0.699-21.832,0.961-32.4c-1.486,0.279-2.93-0.742-4.08,0
		C41.411,19.888,43.131,19.448,43.365,20.493z M48.166,43.773c0.831-5.926,0.768-12.598,0.721-18.72
		c-0.013-1.525-0.113-3.915-0.961-4.08C48.355,27.152,46.203,38.121,48.166,43.773z M37.126,22.893
		c-0.466,2.535-0.688,6.718,1.44,7.44c-2.666,5.693-2.266,14.178-2.4,21.6c2.838-0.855,1.697-4.93,1.92-7.68
		c0.557-6.867,1.176-16.069,1.439-22.082c-0.16,0-0.319,0-0.479,0C38.488,22.496,37.684,22.57,37.126,22.893z M10.486,26.974
		c-1.421,6.857-6.016,12.514-6.72,20.879c5.794,1.166,11.583,2.336,16.8,4.08c2.602-6.998,4.471-14.729,7.92-20.881
		C22.743,30.356,16.49,28.198,10.486,26.974z M33.766,30.333c-4.251,6.551-8.424,14.453-10.32,22.561
		c0.575-0.146,1.095-0.346,1.92-0.24c2.196-8.285,6.495-14.467,9.361-22.08C34.272,30.626,34.196,30.302,33.766,30.333z
		 M29.446,50.013c0.722,0.699,1.875,2.043,2.88,1.68c-0.425-4.506,1.596-7.842,1.2-11.52C31.621,42.908,30.384,46.312,29.446,50.013
		z M47.688,46.414c0.744-0.09,1.09-2.193,0.238-2.399C47.678,44.644,47.639,45.486,47.688,46.414z"/>
</g>
</svg>
